<svg xmlns="http://www.w3.org/2000/svg" viewBox="0 0 180 360" role="img" aria-labelledby="title desc">
  <title id="title">Hurricane Warning Flags</title>
  <desc id="desc">Two red hurricane warning flags with black squares mounted on a silver pole.</desc>
  <defs>
    <linearGradient id="poleGradient" x1="0" x2="0" y1="0" y2="1">
      <stop offset="0" stop-color="#d9dde2" />
      <stop offset="1" stop-color="#959aa3" />
    </linearGradient>
    <filter id="flagShadow" x="-10%" y="-10%" width="120%" height="130%" color-interpolation-filters="sRGB">
      <feDropShadow dx="0" dy="6" stdDeviation="4" flood-color="#1f2933" flood-opacity="0.18" />
    </filter>
  </defs>

  <rect x="18" y="12" width="12" height="336" rx="6" fill="url(#poleGradient)" />

  <g filter="url(#flagShadow)">
    <path fill="#e11d48" d="M38 30c32-10 66-14 116-6v98c-46-8-82-2-116 8-12 3-22-6-22-18V48c0-11 9-20 22-18z" />
    <rect x="82" y="62" width="48" height="48" fill="#111827" rx="6" />

    <path fill="#e11d48" d="M38 180c32-10 66-14 116-6v98c-46-8-82-2-116 8-12 3-22-6-22-18v-64c0-11 9-20 22-18z" />
    <rect x="82" y="212" width="48" height="48" fill="#111827" rx="6" />
  </g>
</svg>
