<?xml version="1.0" encoding="utf-8" standalone="no"?>
<!DOCTYPE svg PUBLIC "-//W3C//DTD SVG 1.1//EN"
  "http://www.w3.org/Graphics/SVG/1.1/DTD/svg11.dtd">
<svg xmlns:xlink="http://www.w3.org/1999/xlink" width="684pt" height="295.2pt" viewBox="0 0 684 295.2" xmlns="http://www.w3.org/2000/svg" version="1.1">
 <metadata>
  <rdf:RDF xmlns:dc="http://purl.org/dc/elements/1.1/" xmlns:cc="http://creativecommons.org/ns#" xmlns:rdf="http://www.w3.org/1999/02/22-rdf-syntax-ns#">
   <cc:Work>
    <dc:type rdf:resource="http://purl.org/dc/dcmitype/StillImage"/>
    <dc:date>2024-01-01T00:00:00</dc:date>
    <dc:format>image/svg+xml</dc:format>
    <dc:creator>
     <cc:Agent>
      <dc:title>WxManBran logo generator</dc:title>
     </cc:Agent>
    </dc:creator>
   </cc:Work>
  </rdf:RDF>
 </metadata>
 <defs>
  <style type="text/css">*{stroke-linejoin: round; stroke-linecap: butt}</style>
 </defs>
 <g id="figure_1">
  <g id="patch_1">
   <path d="M 0 295.2 
L 684 295.2 
L 684 0 
L 0 0 
L 0 295.2 
z
" style="fill: none; opacity: 0"/>
  </g>
  <g id="axes_1">
   <g id="patch_2">
    <path d="M 46.712195 140.890909 
L 233.560976 137.536364 
L 263.590244 97.281818 
L 233.560976 55.014545 
L 46.712195 51.66 
L 26.692683 95.269091 
z
" clip-path="url(#pb96cc986ce)" style="fill: #c8102e; stroke: #980f26; stroke-width: 28"/>
   </g>
   <g id="patch_3">
    <path d="M 52.718049 142.232727 
L 239.566829 138.878182 
L 269.596098 98.623636 
L 239.566829 56.356364 
L 52.718049 53.001818 
L 32.698537 96.610909 
z
" clip-path="url(#pb96cc986ce)" style="fill: #c8102e; opacity: 0.55; stroke: #860d21; stroke-width: 10; stroke-linejoin: miter"/>
   </g>
   <g id="patch_4">
    <path d="M 78.076098 117.409091 
L 141.47122 117.409091 
L 141.47122 75.141818 
L 78.076098 75.141818 
z
" clip-path="url(#pb96cc986ce)" style="fill: #050505; stroke: #050505; stroke-linejoin: miter"/>
   </g>
   <g id="patch_5">
    <path d="M 46.712195 241.527273 
L 233.560976 238.172727 
L 263.590244 197.918182 
L 233.560976 155.650909 
L 46.712195 152.296364 
L 26.692683 195.905455 
z
" clip-path="url(#pb96cc986ce)" style="fill: #c8102e; stroke: #980f26; stroke-width: 28"/>
   </g>
   <g id="patch_6">
    <path d="M 52.718049 242.869091 
L 239.566829 239.514545 
L 269.596098 199.26 
L 239.566829 156.992727 
L 52.718049 153.638182 
L 32.698537 197.247273 
z
" clip-path="url(#pb96cc986ce)" style="fill: #c8102e; opacity: 0.55; stroke: #860d21; stroke-width: 10; stroke-linejoin: miter"/>
   </g>
   <g id="patch_7">
    <path d="M 78.076098 218.045455 
L 141.47122 218.045455 
L 141.47122 175.778182 
L 78.076098 175.778182 
z
" clip-path="url(#pb96cc986ce)" style="fill: #050505; stroke: #050505; stroke-linejoin: miter"/>
   </g>
   <g id="text_1">
    <path d="M 518.841921 224.8625 
L 483.579421 224.8625 
L 437.379421 76.24375 
L 391.135671 224.8625 
L 355.873171 224.8625 
L 297.641921 37.2625 
L 277.823171 37.2625 
L 277.823171 20.725 
L 374.598171 20.725 
L 374.598171 37.2625 
L 352.723171 37.2625 
L 391.704421 162.65 
L 435.716921 20.725 
L 474.566921 20.725 
L 519.410671 164.96875 
L 559.179421 37.2625 
L 534.854421 37.2625 
L 534.854421 20.725 
L 598.029421 20.725 
L 598.029421 37.2625 
L 577.073171 37.2625 
L 518.841921 224.8625 
z
M 606.495046 224.8625 
L 606.495046 208.325 
L 632.482546 208.325 
L 632.482546 37.2625 
L 606.495046 37.2625 
L 606.495046 20.725 
L 690.713796 20.725 
L 748.945046 151.7125 
L 807.482546 20.725 
L 891.526296 20.725 
L 891.526296 37.2625 
L 865.451296 37.2625 
L 865.451296 208.325 
L 891.526296 208.325 
L 891.526296 224.8625 
L 786.526296 224.8625 
L 786.526296 208.325 
L 812.513796 208.325 
L 812.513796 52.575 
L 749.207546 194.9375 
L 714.645046 194.9375 
L 651.601296 52.575 
L 651.601296 208.325 
L 677.588796 208.325 
L 677.588796 224.8625 
L 606.495046 224.8625 
z
M 917.792702 224.8625 
L 917.792702 208.325 
L 943.911452 208.325 
L 943.911452 37.2625 
L 917.792702 37.2625 
L 917.792702 20.725 
L 1038.805202 20.725 
Q 1076.123952 20.725 1094.848952 33.325 
Q 1113.573952 45.88125 1113.573952 71.16875 
Q 1113.573952 89.36875 1100.623952 100.04375 
Q 1087.717702 110.71875 1062.298952 113.43125 
Q 1093.055202 116.31875 1109.461452 129.8375 
Q 1125.867702 143.35625 1125.867702 165.8 
Q 1125.867702 196.1625 1102.942702 210.5125 
Q 1080.061452 224.8625 1031.280202 224.8625 
L 917.792702 224.8625 
z
M 996.542702 105.90625 
L 1014.436452 105.90625 
Q 1037.973952 105.90625 1049.305202 97.375 
Q 1060.680202 88.84375 1060.680202 71.16875 
Q 1060.680202 53.40625 1049.655202 45.35625 
Q 1038.673952 37.2625 1014.436452 37.2625 
L 996.542702 37.2625 
L 996.542702 105.90625 
z
M 996.542702 208.325 
L 1016.098952 208.325 
Q 1042.217702 208.325 1054.773952 197.95625 
Q 1067.373952 187.54375 1067.373952 165.8 
Q 1067.373952 143.925 1054.642702 133.11875 
Q 1041.955202 122.3125 1016.098952 122.3125 
L 996.542702 122.3125 
L 996.542702 208.325 
z
" style="fill: #a61127; stroke: #ffffff; stroke-width: 26"/>
    <path d="M 518.841921 224.8625 
L 483.579421 224.8625 
L 437.379421 76.24375 
L 391.135671 224.8625 
L 355.873171 224.8625 
L 297.641921 37.2625 
L 277.823171 37.2625 
L 277.823171 20.725 
L 374.598171 20.725 
L 374.598171 37.2625 
L 352.723171 37.2625 
L 391.704421 162.65 
L 435.716921 20.725 
L 474.566921 20.725 
L 519.410671 164.96875 
L 559.179421 37.2625 
L 534.854421 37.2625 
L 534.854421 20.725 
L 598.029421 20.725 
L 598.029421 37.2625 
L 577.073171 37.2625 
L 518.841921 224.8625 
z
M 606.495046 224.8625 
L 606.495046 208.325 
L 632.482546 208.325 
L 632.482546 37.2625 
L 606.495046 37.2625 
L 606.495046 20.725 
L 690.713796 20.725 
L 748.945046 151.7125 
L 807.482546 20.725 
L 891.526296 20.725 
L 891.526296 37.2625 
L 865.451296 37.2625 
L 865.451296 208.325 
L 891.526296 208.325 
L 891.526296 224.8625 
L 786.526296 224.8625 
L 786.526296 208.325 
L 812.513796 208.325 
L 812.513796 52.575 
L 749.207546 194.9375 
L 714.645046 194.9375 
L 651.601296 52.575 
L 651.601296 208.325 
L 677.588796 208.325 
L 677.588796 224.8625 
L 606.495046 224.8625 
z
M 917.792702 224.8625 
L 917.792702 208.325 
L 943.911452 208.325 
L 943.911452 37.2625 
L 917.792702 37.2625 
L 917.792702 20.725 
L 1038.805202 20.725 
Q 1076.123952 20.725 1094.848952 33.325 
Q 1113.573952 45.88125 1113.573952 71.16875 
Q 1113.573952 89.36875 1100.623952 100.04375 
Q 1087.717702 110.71875 1062.298952 113.43125 
Q 1093.055202 116.31875 1109.461452 129.8375 
Q 1125.867702 143.35625 1125.867702 165.8 
Q 1125.867702 196.1625 1102.942702 210.5125 
Q 1080.061452 224.8625 1031.280202 224.8625 
L 917.792702 224.8625 
z
M 996.542702 105.90625 
L 1014.436452 105.90625 
Q 1037.973952 105.90625 1049.305202 97.375 
Q 1060.680202 88.84375 1060.680202 71.16875 
Q 1060.680202 53.40625 1049.655202 45.35625 
Q 1038.673952 37.2625 1014.436452 37.2625 
L 996.542702 37.2625 
L 996.542702 105.90625 
z
M 996.542702 208.325 
L 1016.098952 208.325 
Q 1042.217702 208.325 1054.773952 197.95625 
Q 1067.373952 187.54375 1067.373952 165.8 
Q 1067.373952 143.925 1054.642702 133.11875 
Q 1041.955202 122.3125 1016.098952 122.3125 
L 996.542702 122.3125 
L 996.542702 208.325 
z
" style="fill: #a61127; stroke: #b3132c; stroke-width: 12"/>
    <path d="M 518.841921 224.8625 
L 483.579421 224.8625 
L 437.379421 76.24375 
L 391.135671 224.8625 
L 355.873171 224.8625 
L 297.641921 37.2625 
L 277.823171 37.2625 
L 277.823171 20.725 
L 374.598171 20.725 
L 374.598171 37.2625 
L 352.723171 37.2625 
L 391.704421 162.65 
L 435.716921 20.725 
L 474.566921 20.725 
L 519.410671 164.96875 
L 559.179421 37.2625 
L 534.854421 37.2625 
L 534.854421 20.725 
L 598.029421 20.725 
L 598.029421 37.2625 
L 577.073171 37.2625 
L 518.841921 224.8625 
z
M 606.495046 224.8625 
L 606.495046 208.325 
L 632.482546 208.325 
L 632.482546 37.2625 
L 606.495046 37.2625 
L 606.495046 20.725 
L 690.713796 20.725 
L 748.945046 151.7125 
L 807.482546 20.725 
L 891.526296 20.725 
L 891.526296 37.2625 
L 865.451296 37.2625 
L 865.451296 208.325 
L 891.526296 208.325 
L 891.526296 224.8625 
L 786.526296 224.8625 
L 786.526296 208.325 
L 812.513796 208.325 
L 812.513796 52.575 
L 749.207546 194.9375 
L 714.645046 194.9375 
L 651.601296 52.575 
L 651.601296 208.325 
L 677.588796 208.325 
L 677.588796 224.8625 
L 606.495046 224.8625 
z
M 917.792702 224.8625 
L 917.792702 208.325 
L 943.911452 208.325 
L 943.911452 37.2625 
L 917.792702 37.2625 
L 917.792702 20.725 
L 1038.805202 20.725 
Q 1076.123952 20.725 1094.848952 33.325 
Q 1113.573952 45.88125 1113.573952 71.16875 
Q 1113.573952 89.36875 1100.623952 100.04375 
Q 1087.717702 110.71875 1062.298952 113.43125 
Q 1093.055202 116.31875 1109.461452 129.8375 
Q 1125.867702 143.35625 1125.867702 165.8 
Q 1125.867702 196.1625 1102.942702 210.5125 
Q 1080.061452 224.8625 1031.280202 224.8625 
L 917.792702 224.8625 
z
M 996.542702 105.90625 
L 1014.436452 105.90625 
Q 1037.973952 105.90625 1049.305202 97.375 
Q 1060.680202 88.84375 1060.680202 71.16875 
Q 1060.680202 53.40625 1049.655202 45.35625 
Q 1038.673952 37.2625 1014.436452 37.2625 
L 996.542702 37.2625 
L 996.542702 105.90625 
z
M 996.542702 208.325 
L 1016.098952 208.325 
Q 1042.217702 208.325 1054.773952 197.95625 
Q 1067.373952 187.54375 1067.373952 165.8 
Q 1067.373952 143.925 1054.642702 133.11875 
Q 1041.955202 122.3125 1016.098952 122.3125 
L 996.542702 122.3125 
L 996.542702 208.325 
z
" style="fill: #a61127"/>
   </g>
  </g>
 </g>
 <defs>
  <clipPath id="pb96cc986ce">
   <rect x="0" y="0" width="684" height="295.2"/>
  </clipPath>
 </defs>
</svg>
