<?xml version="1.0" encoding="UTF-8" standalone="no"?>
<svg xmlns="http://www.w3.org/2000/svg" width="277" height="264" viewBox="0 0 277 264" version="1.1">
  <path d="M137.50,0.00 L136.50,0.00 135.50,0.00 135.00,0.50 134.50,1.00 134.00,0.50 133.50,0.00 132.50,0.00 132.00,0.50 131.50,1.00 130.50,1.00 130.00,1.50 130.50,2.00 131.00,2.50 131.00,3.50 130.50,4.00 129.50,4.00 129.00,4.50 129.00,5.50 128.50,6.00 128.00,6.50 128.00,7.50 127.50,8.00 127.00,8.50 127.00,9.50 126.50,10.00 126.00,10.50 126.00,11.50 126.00,12.50 126.00,13.50 125.50,14.00 125.00,14.50 125.00,15.50 125.00,16.50 125.00,17.50 125.00,18.50 124.50,19.00 124.00,19.50 124.00,20.50 124.00,21.50 123.50,22.00 122.50,22.00 121.50,22.00 121.00,22.50 121.00,23.50 121.50,24.00 122.00,24.50 122.00,25.50 122.00,26.50 121.50,27.00 121.00,26.50 120.50,26.00 120.00,26.50 119.50,27.00 118.50,27.00 117.50,27.00 116.50,27.00 115.50,27.00 114.50,27.00 113.50,27.00 112.50,27.00 111.50,27.00 110.50,27.00 109.50,27.00 108.50,27.00 107.50,27.00 106.50,27.00 105.50,27.00 104.50,27.00 103.50,27.00 102.50,27.00 101.50,27.00 100.50,27.00 99.50,27.00 98.50,27.00 97.50,27.00 96.50,27.00 95.50,27.00 94.50,27.00 93.50,27.00 92.50,27.00 91.50,27.00 90.50,27.00 89.50,27.00 88.50,27.00 87.50,27.00 86.50,27.00 85.50,27.00 84.50,27.00 83.50,27.00 82.50,27.00 81.50,27.00 80.50,27.00 79.50,27.00 78.50,27.00 77.50,27.00 76.50,27.00 75.50,27.00 74.50,27.00 73.50,27.00 72.50,27.00 72.00,27.50 71.50,28.00 70.50,28.00 69.50,28.00 69.00,28.50 69.50,29.00 70.00,29.50 69.50,30.00 69.00,30.50 68.50,31.00 68.00,31.50 68.00,32.50 68.00,33.50 68.00,34.50 68.00,35.50 68.00,36.50 68.00,37.50 68.00,38.50 68.00,39.50 68.00,40.50 68.00,41.50 68.00,42.50 68.00,43.50 68.00,44.50 68.00,45.50 68.00,46.50 68.00,47.50 68.00,48.50 68.00,49.50 68.00,50.50 68.00,51.50 68.00,52.50 68.00,53.50 68.00,54.50 68.00,55.50 68.00,56.50 68.50,57.00 69.00,57.50 69.50,58.00 70.00,58.50 70.50,59.00 71.00,59.50 71.50,60.00 72.50,60.00 73.00,60.50 73.50,61.00 74.50,61.00 75.50,61.00 76.00,61.50 76.50,62.00 77.50,62.00 78.50,62.00 79.50,62.00 80.00,62.50 80.50,63.00 81.50,63.00 82.50,63.00 83.50,63.00 84.00,63.50 84.50,64.00 85.50,64.00 86.50,64.00 87.50,64.00 88.00,64.50 88.50,65.00 89.00,65.50 89.50,66.00 90.50,66.00 91.50,66.00 92.00,66.50 92.50,67.00 93.00,66.50 93.50,66.00 94.00,66.50 94.50,67.00 95.50,67.00 96.00,67.50 96.50,68.00 97.50,68.00 98.50,68.00 99.50,68.00 100.00,68.50 100.50,69.00 101.50,69.00 102.00,69.50 102.50,70.00 103.00,69.50 103.50,69.00 104.00,69.50 104.00,70.50 104.50,71.00 105.50,71.00 106.00,70.50 106.50,70.00 107.50,70.00 108.00,70.50 108.50,71.00 109.00,71.50 109.50,72.00 110.50,72.00 111.50,72.00 112.50,72.00 113.50,72.00 114.00,72.50 113.50,73.00 112.50,73.00 112.00,73.50 112.00,74.50 112.50,75.00 113.50,75.00 114.00,75.50 114.00,76.50 114.50,77.00 115.00,77.50 115.00,78.50 115.00,79.50 115.00,80.50 115.00,81.50 115.00,82.50 115.00,83.50 114.50,84.00 114.00,83.50 113.50,83.00 112.50,83.00 112.00,83.50 112.50,84.00 113.00,84.50 113.50,85.00 114.00,85.50 114.00,86.50 114.00,87.50 113.50,88.00 113.00,88.50 113.50,89.00 114.00,89.50 114.00,90.50 114.00,91.50 114.00,92.50 114.00,93.50 114.00,94.50 114.00,95.50 113.50,96.00 113.00,96.50 113.00,97.50 113.00,98.50 113.00,99.50 113.00,100.50 113.00,101.50 113.00,102.50 113.00,103.50 112.50,104.00 112.00,104.50 112.00,105.50 112.00,106.50 112.00,107.50 112.00,108.50 112.00,109.50 112.00,110.50 112.00,111.50 112.00,112.50 112.00,113.50 112.00,114.50 112.00,115.50 112.00,116.50 112.00,117.50 111.50,118.00 111.00,118.50 111.00,119.50 111.00,120.50 111.00,121.50 111.00,122.50 111.00,123.50 111.00,124.50 110.50,125.00 109.50,125.00 108.50,125.00 108.00,124.50 107.50,124.00 106.50,124.00 105.50,124.00 104.50,124.00 103.50,124.00 102.50,124.00 101.50,124.00 100.50,124.00 99.50,124.00 98.50,124.00 97.50,124.00 96.50,124.00 95.50,124.00 94.50,124.00 93.50,124.00 92.50,124.00 91.50,124.00 90.50,124.00 89.50,124.00 88.50,124.00 87.50,124.00 86.50,124.00 85.50,124.00 84.50,124.00 83.50,124.00 82.50,124.00 81.50,124.00 80.50,124.00 79.50,124.00 78.50,124.00 77.50,124.00 76.50,124.00 75.50,124.00 74.50,124.00 73.50,124.00 72.50,124.00 71.50,124.00 70.50,124.00 69.50,124.00 68.50,124.00 67.50,124.00 66.50,124.00 65.50,124.00 64.50,124.00 63.50,124.00 62.50,124.00 61.50,124.00 60.50,124.00 59.50,124.00 58.50,124.00 57.50,124.00 56.50,124.00 55.50,124.00 54.50,124.00 53.50,124.00 52.50,124.00 51.50,124.00 50.50,124.00 49.50,124.00 48.50,124.00 47.50,124.00 46.50,124.00 45.50,124.00 44.50,124.00 43.50,124.00 42.50,124.00 41.50,124.00 40.50,124.00 39.50,124.00 38.50,124.00 37.50,124.00 36.50,124.00 35.50,124.00 34.50,124.00 33.50,124.00 32.50,124.00 31.50,124.00 30.50,124.00 29.50,124.00 28.50,124.00 27.50,124.00 26.50,124.00 25.50,124.00 24.50,124.00 23.50,124.00 22.50,124.00 21.50,124.00 20.50,124.00 19.50,124.00 18.50,124.00 17.50,124.00 16.50,124.00 15.50,124.00 14.50,124.00 13.50,124.00 12.50,124.00 11.50,124.00 10.50,124.00 9.50,124.00 8.50,124.00 7.50,124.00 7.00,124.50 6.50,125.00 5.50,125.00 5.00,125.50 4.50,126.00 3.50,126.00 2.50,126.00 2.00,126.50 1.50,127.00 1.00,126.50 1.00,125.50 0.50,125.00 0.00,125.50 0.00,126.50 0.00,127.50 0.50,128.00 1.00,128.50 0.50,129.00 0.00,129.50 0.00,130.50 0.00,131.50 0.00,132.50 0.00,133.50 0.00,134.50 0.00,135.50 0.00,136.50 0.00,137.50 0.00,138.50 0.00,139.50 0.00,140.50 0.00,141.50 0.00,142.50 0.00,143.50 0.00,144.50 0.00,145.50 0.00,146.50 0.00,147.50 0.00,148.50 0.00,149.50 0.00,150.50 0.00,151.50 0.00,152.50 0.00,153.50 0.00,154.50 0.00,155.50 0.00,156.50 0.00,157.50 0.00,158.50 0.00,159.50 0.00,160.50 0.00,161.50 0.00,162.50 0.00,163.50 0.00,164.50 0.00,165.50 0.50,166.00 1.00,166.50 0.50,167.00 0.00,167.50 0.00,168.50 0.50,169.00 1.00,169.50 1.50,170.00 2.00,169.50 2.50,169.00 3.00,169.50 3.50,170.00 4.00,170.50 4.50,171.00 5.00,170.50 5.50,170.00 6.50,170.00 7.00,170.50 7.50,171.00 8.50,171.00 9.00,171.50 9.50,172.00 10.50,172.00 11.50,172.00 12.50,172.00 13.50,172.00 14.50,172.00 15.50,172.00 16.50,172.00 17.00,172.50 17.50,173.00 18.50,173.00 19.50,173.00 20.50,173.00 21.00,173.50 21.50,174.00 22.50,174.00 23.50,174.00 24.00,174.50 24.50,175.00 25.00,175.50 25.00,176.50 25.00,177.50 25.00,178.50 25.00,179.50 25.00,180.50 25.00,181.50 25.00,182.50 25.00,183.50 24.50,184.00 24.00,184.50 24.00,185.50 24.50,186.00 25.00,186.50 25.50,187.00 26.00,187.50 26.00,188.50 26.00,189.50 26.00,190.50 26.00,191.50 26.00,192.50 26.00,193.50 26.00,194.50 26.00,195.50 26.50,196.00 27.50,196.00 28.00,196.50 28.50,197.00 29.50,197.00 30.50,197.00 31.00,197.50 31.50,198.00 32.00,198.50 32.00,199.50 32.50,200.00 33.00,199.50 33.50,199.00 34.00,199.50 34.50,200.00 35.50,200.00 36.00,200.50 36.50,201.00 37.00,201.50 37.50,202.00 38.50,202.00 39.50,202.00 40.50,202.00 41.50,202.00 42.50,202.00 43.50,202.00 44.50,202.00 45.50,202.00 46.50,202.00 47.50,202.00 48.00,201.50 48.50,201.00 49.50,201.00 50.50,201.00 51.00,200.50 51.50,200.00 52.50,200.00 53.50,200.00 54.50,200.00 55.50,200.00 56.00,199.50 55.50,199.00 54.50,199.00 54.00,198.50 54.50,198.00 55.50,198.00 56.00,197.50 56.50,197.00 57.00,196.50 57.50,196.00 58.00,195.50 58.00,194.50 58.50,194.00 59.00,194.50 59.50,195.00 60.00,194.50 60.00,193.50 60.00,192.50 60.50,192.00 61.50,192.00 62.50,192.00 63.00,191.50 63.00,190.50 62.50,190.00 61.50,190.00 61.00,189.50 61.00,188.50 61.50,188.00 62.00,187.50 62.00,186.50 62.00,185.50 62.00,184.50 62.00,183.50 62.50,183.00 63.00,183.50 63.50,184.00 64.00,184.50 64.00,185.50 63.50,186.00 63.00,186.50 63.00,187.50 63.50,188.00 64.00,188.50 64.00,189.50 64.00,190.50 64.00,191.50 64.00,192.50 64.00,193.50 64.00,194.50 64.00,195.50 64.00,196.50 64.00,197.50 64.00,198.50 64.00,199.50 64.00,200.50 64.00,201.50 64.50,202.00 65.00,202.50 65.00,203.50 64.50,204.00 64.00,204.50 64.50,205.00 65.00,205.50 65.00,206.50 65.00,207.50 65.00,208.50 65.50,209.00 66.00,208.50 66.50,208.00 67.00,207.50 67.50,207.00 68.00,207.50 68.00,208.50 68.50,209.00 69.00,209.50 69.50,210.00 70.00,210.50 70.00,211.50 70.50,212.00 71.50,212.00 72.00,211.50 72.50,211.00 73.00,211.50 73.50,212.00 74.50,212.00 75.50,212.00 76.00,212.50 76.00,213.50 76.50,214.00 77.50,214.00 78.50,214.00 79.50,214.00 80.50,214.00 81.00,214.50 81.50,215.00 82.50,215.00 83.50,215.00 84.50,215.00 85.00,214.50 84.50,214.00 83.50,214.00 83.00,213.50 83.50,213.00 84.50,213.00 85.50,213.00 86.50,213.00 87.50,213.00 88.00,212.50 88.50,212.00 89.50,212.00 90.50,212.00 91.50,212.00 92.00,211.50 92.00,210.50 92.50,210.00 93.00,209.50 93.50,209.00 94.50,209.00 95.00,208.50 95.00,207.50 95.50,207.00 96.00,206.50 96.50,206.00 97.00,205.50 97.00,204.50 97.50,204.00 98.00,203.50 98.00,202.50 98.50,202.00 99.00,201.50 99.50,201.00 100.00,200.50 99.50,200.00 99.00,199.50 99.00,198.50 99.00,197.50 99.00,196.50 99.50,196.00 100.00,195.50 100.00,194.50 100.00,193.50 100.00,192.50 100.00,191.50 100.50,191.00 101.00,191.50 101.50,192.00 102.50,192.00 103.00,191.50 103.50,191.00 104.00,191.50 104.50,192.00 105.50,192.00 106.50,192.00 107.00,192.50 107.00,193.50 107.00,194.50 107.00,195.50 107.00,196.50 107.00,197.50 107.00,198.50 107.00,199.50 107.00,200.50 107.00,201.50 107.00,202.50 107.00,203.50 107.00,204.50 107.00,205.50 107.00,206.50 107.00,207.50 107.00,208.50 107.00,209.50 107.00,210.50 107.00,211.50 107.00,212.50 107.00,213.50 107.00,214.50 107.00,215.50 107.00,216.50 107.00,217.50 107.00,218.50 107.00,219.50 107.00,220.50 107.00,221.50 107.00,222.50 107.00,223.50 107.50,224.00 108.00,224.50 108.00,225.50 108.00,226.50 108.00,227.50 108.00,228.50 108.00,229.50 108.00,230.50 108.00,231.50 108.50,232.00 109.00,232.50 109.00,233.50 109.00,234.50 109.00,235.50 109.00,236.50 109.50,237.00 110.00,237.50 110.00,238.50 109.50,239.00 109.00,239.50 108.50,240.00 108.00,240.50 108.50,241.00 109.00,241.50 109.00,242.50 109.50,243.00 110.00,242.50 110.00,241.50 110.50,241.00 111.00,241.50 111.00,242.50 111.00,243.50 111.50,244.00 112.00,244.50 112.00,245.50 112.00,246.50 112.50,247.00 113.00,247.50 112.50,248.00 112.00,248.50 112.50,249.00 113.00,249.50 113.00,250.50 113.50,251.00 114.00,250.50 114.50,250.00 115.00,250.50 115.00,251.50 115.50,252.00 116.00,252.50 116.50,253.00 117.00,253.50 116.50,254.00 116.00,254.50 116.50,255.00 117.00,255.50 117.50,256.00 118.00,255.50 118.50,255.00 119.00,255.50 119.50,256.00 120.00,256.50 120.50,257.00 121.00,257.50 120.50,258.00 120.00,258.50 120.50,259.00 121.00,259.50 121.50,260.00 122.00,259.50 122.50,259.00 123.00,259.50 123.50,260.00 124.00,260.50 123.50,261.00 123.00,261.50 123.50,262.00 124.50,262.00 125.00,262.50 125.50,263.00 126.50,263.00 127.50,263.00 128.00,262.50 128.50,262.00 129.50,262.00 130.00,262.50 130.50,263.00 131.50,263.00 132.50,263.00 133.50,263.00 134.50,263.00 135.50,263.00 136.50,263.00 137.50,263.00 138.50,263.00 139.50,263.00 140.50,263.00 141.50,263.00 142.50,263.00 143.50,263.00 144.00,262.50 144.50,262.00 145.50,262.00 146.50,262.00 147.50,262.00 148.00,261.50 148.50,261.00 149.00,260.50 149.50,260.00 150.50,260.00 151.00,259.50 151.50,259.00 152.00,258.50 152.50,258.00 153.50,258.00 154.00,258.50 154.00,259.50 154.50,260.00 155.00,259.50 155.00,258.50 155.00,257.50 155.50,257.00 156.00,256.50 156.00,255.50 156.00,254.50 156.50,254.00 157.00,254.50 157.00,255.50 157.50,256.00 158.00,255.50 158.00,254.50 158.00,253.50 158.00,252.50 158.50,252.00 159.00,252.50 159.50,253.00 160.00,252.50 160.00,251.50 159.50,251.00 159.00,250.50 159.50,250.00 160.00,249.50 160.00,248.50 160.50,248.00 161.00,247.50 161.00,246.50 161.50,246.00 162.00,245.50 162.00,244.50 162.50,244.00 163.50,244.00 164.00,243.50 163.50,243.00 163.00,242.50 163.50,242.00 164.00,241.50 163.50,241.00 163.00,240.50 163.50,240.00 164.00,239.50 164.00,238.50 164.00,237.50 164.00,236.50 164.50,236.00 165.00,235.50 165.00,234.50 165.50,234.00 166.00,233.50 166.00,232.50 166.00,231.50 166.00,230.50 166.00,229.50 166.50,229.00 167.00,228.50 167.00,227.50 166.50,227.00 166.00,226.50 166.00,225.50 166.00,224.50 166.00,223.50 166.50,223.00 167.00,223.50 167.00,224.50 167.00,225.50 167.50,226.00 168.00,225.50 168.00,224.50 168.00,223.50 168.00,222.50 167.50,222.00 167.00,221.50 167.00,220.50 167.00,219.50 167.00,218.50 167.00,217.50 167.00,216.50 167.00,215.50 167.00,214.50 167.00,213.50 167.00,212.50 167.00,211.50 167.00,210.50 167.00,209.50 167.00,208.50 167.50,208.00 168.00,207.50 168.00,206.50 168.00,205.50 168.00,204.50 168.00,203.50 168.00,202.50 167.50,202.00 167.00,201.50 167.00,200.50 167.00,199.50 167.00,198.50 167.00,197.50 167.00,196.50 167.00,195.50 167.50,195.00 168.00,194.50 168.00,193.50 168.00,192.50 168.00,191.50 168.50,191.00 169.50,191.00 170.50,191.00 171.50,191.00 172.00,191.50 172.50,192.00 173.50,192.00 174.00,192.50 174.00,193.50 174.00,194.50 174.00,195.50 174.50,196.00 175.00,196.50 175.00,197.50 175.00,198.50 175.00,199.50 175.00,200.50 175.00,201.50 175.50,202.00 176.00,202.50 176.00,203.50 176.00,204.50 176.00,205.50 176.00,206.50 176.00,207.50 176.00,208.50 176.50,209.00 177.00,208.50 177.00,207.50 177.50,207.00 178.50,207.00 179.00,207.50 179.50,208.00 180.00,208.50 180.00,209.50 180.00,210.50 180.50,211.00 181.00,210.50 181.50,210.00 182.50,210.00 183.00,210.50 183.50,211.00 184.00,211.50 184.50,212.00 185.50,212.00 186.00,212.50 186.50,213.00 187.00,213.50 187.50,214.00 188.50,214.00 189.50,214.00 190.50,214.00 191.00,214.50 190.50,215.00 190.00,215.50 190.50,216.00 191.50,216.00 192.50,216.00 193.50,216.00 194.50,216.00 195.50,216.00 196.00,215.50 195.50,215.00 195.00,214.50 195.50,214.00 196.50,214.00 197.00,213.50 197.50,213.00 198.00,212.50 198.50,212.00 199.50,212.00 200.50,212.00 201.00,211.50 201.50,211.00 202.00,211.50 202.50,212.00 203.50,212.00 204.00,211.50 204.00,210.50 204.50,210.00 205.00,209.50 205.00,208.50 205.50,208.00 206.00,207.50 206.50,207.00 207.00,206.50 207.50,206.00 208.00,205.50 208.00,204.50 208.50,204.00 209.00,203.50 209.00,202.50 209.50,202.00 210.00,201.50 210.00,200.50 210.00,199.50 210.00,198.50 210.00,197.50 210.50,197.00 211.00,196.50 210.50,196.00 210.00,195.50 210.00,194.50 210.00,193.50 210.00,192.50 210.00,191.50 210.00,190.50 210.50,190.00 211.00,189.50 211.00,188.50 211.00,187.50 211.00,186.50 211.00,185.50 211.00,184.50 210.50,184.00 210.00,183.50 210.50,183.00 211.00,182.50 211.50,182.00 212.00,182.50 212.50,183.00 213.00,183.50 213.00,184.50 213.00,185.50 213.00,186.50 212.50,187.00 212.00,187.50 212.50,188.00 213.00,188.50 213.00,189.50 212.50,190.00 212.00,190.50 212.50,191.00 213.00,191.50 213.50,192.00 214.50,192.00 215.00,192.50 215.00,193.50 215.50,194.00 216.00,194.50 216.50,195.00 217.00,195.50 217.00,196.50 217.50,197.00 218.50,197.00 219.00,197.50 219.50,198.00 220.00,198.50 220.50,199.00 221.00,199.50 220.50,200.00 219.50,200.00 219.00,200.50 219.50,201.00 220.50,201.00 221.00,201.50 221.50,202.00 222.50,202.00 223.50,202.00 224.00,201.50 224.50,201.00 225.50,201.00 226.00,201.50 226.50,202.00 227.00,202.50 227.50,203.00 228.00,202.50 228.50,202.00 229.50,202.00 230.50,202.00 231.50,202.00 232.50,202.00 233.50,202.00 234.50,202.00 235.00,202.50 235.50,203.00 236.50,203.00 237.00,202.50 237.50,202.00 238.50,202.00 239.00,201.50 239.50,201.00 240.00,200.50 240.50,200.00 241.50,200.00 242.00,199.50 241.50,199.00 241.00,198.50 241.50,198.00 242.50,198.00 243.50,198.00 244.00,197.50 244.00,196.50 244.50,196.00 245.50,196.00 246.00,195.50 245.50,195.00 245.00,194.50 245.50,194.00 246.50,194.00 247.00,193.50 247.00,192.50 247.00,191.50 247.50,191.00 248.00,190.50 248.00,189.50 248.00,188.50 248.00,187.50 248.50,187.00 249.50,187.00 250.00,186.50 250.00,185.50 250.00,184.50 250.00,183.50 250.00,182.50 250.00,181.50 250.00,180.50 250.00,179.50 250.00,178.50 250.00,177.50 250.00,176.50 250.00,175.50 249.50,175.00 249.00,174.50 249.50,174.00 250.50,174.00 251.00,174.50 251.50,175.00 252.00,174.50 252.50,174.00 253.50,174.00 254.00,173.50 254.50,173.00 255.50,173.00 256.00,172.50 256.50,172.00 257.50,172.00 258.50,172.00 259.50,172.00 260.50,172.00 261.50,172.00 262.00,171.50 262.50,171.00 263.50,171.00 264.50,171.00 265.50,171.00 266.50,171.00 267.00,170.50 267.50,170.00 268.50,170.00 269.50,170.00 270.50,170.00 271.50,170.00 272.00,170.50 272.50,171.00 273.00,170.50 273.50,170.00 274.00,169.50 274.50,169.00 275.00,168.50 274.50,168.00 274.00,167.50 274.50,167.00 275.50,167.00 276.00,166.50 275.50,166.00 274.50,166.00 274.00,165.50 274.00,164.50 274.00,163.50 274.00,162.50 274.00,161.50 274.00,160.50 274.00,159.50 274.00,158.50 274.00,157.50 274.00,156.50 274.00,155.50 274.00,154.50 274.00,153.50 274.00,152.50 274.00,151.50 274.00,150.50 274.00,149.50 274.00,148.50 274.00,147.50 274.00,146.50 274.00,145.50 274.00,144.50 274.00,143.50 274.00,142.50 274.00,141.50 274.00,140.50 274.00,139.50 274.00,138.50 274.00,137.50 274.00,136.50 274.00,135.50 274.00,134.50 274.00,133.50 274.00,132.50 274.00,131.50 274.00,130.50 274.00,129.50 273.50,129.00 273.00,128.50 273.00,127.50 272.50,127.00 272.00,126.50 271.50,126.00 271.00,125.50 271.50,125.00 272.00,124.50 271.50,124.00 270.50,124.00 269.50,124.00 269.00,124.50 268.50,125.00 268.00,124.50 267.50,124.00 266.50,124.00 265.50,124.00 264.50,124.00 263.50,124.00 262.50,124.00 261.50,124.00 260.50,124.00 259.50,124.00 258.50,124.00 257.50,124.00 256.50,124.00 255.50,124.00 254.50,124.00 253.50,124.00 252.50,124.00 251.50,124.00 250.50,124.00 249.50,124.00 248.50,124.00 247.50,124.00 246.50,124.00 245.50,124.00 244.50,124.00 243.50,124.00 242.50,124.00 241.50,124.00 240.50,124.00 239.50,124.00 238.50,124.00 237.50,124.00 236.50,124.00 235.50,124.00 234.50,124.00 233.50,124.00 232.50,124.00 231.50,124.00 230.50,124.00 229.50,124.00 228.50,124.00 227.50,124.00 226.50,124.00 225.50,124.00 224.50,124.00 223.50,124.00 222.50,124.00 221.50,124.00 220.50,124.00 219.50,124.00 218.50,124.00 217.50,124.00 216.50,124.00 215.50,124.00 214.50,124.00 213.50,124.00 212.50,124.00 211.50,124.00 210.50,124.00 209.50,124.00 208.50,124.00 207.50,124.00 206.50,124.00 205.50,124.00 204.50,124.00 203.50,124.00 202.50,124.00 201.50,124.00 200.50,124.00 199.50,124.00 198.50,124.00 197.50,124.00 196.50,124.00 195.50,124.00 194.50,124.00 193.50,124.00 192.50,124.00 191.50,124.00 190.50,124.00 189.50,124.00 188.50,124.00 187.50,124.00 186.50,124.00 185.50,124.00 184.50,124.00 183.50,124.00 182.50,124.00 181.50,124.00 180.50,124.00 179.50,124.00 178.50,124.00 177.50,124.00 176.50,124.00 175.50,124.00 174.50,124.00 173.50,124.00 172.50,124.00 171.50,124.00 170.50,124.00 169.50,124.00 168.50,124.00 167.50,124.00 166.50,124.00 165.50,124.00 164.50,124.00 164.00,124.50 163.50,125.00 163.00,124.50 163.00,123.50 163.00,122.50 163.00,121.50 163.00,120.50 163.00,119.50 163.00,118.50 163.00,117.50 163.00,116.50 162.50,116.00 162.00,115.50 162.00,114.50 162.00,113.50 162.00,112.50 162.00,111.50 162.00,110.50 162.50,110.00 163.00,109.50 163.00,108.50 163.50,108.00 164.00,107.50 164.00,106.50 163.50,106.00 163.00,105.50 163.00,104.50 162.50,104.00 161.50,104.00 161.00,103.50 161.00,102.50 161.00,101.50 161.00,100.50 161.00,99.50 161.00,98.50 161.00,97.50 161.00,96.50 161.00,95.50 160.50,95.00 160.00,94.50 160.00,93.50 160.00,92.50 160.00,91.50 160.00,90.50 160.00,89.50 160.00,88.50 160.00,87.50 160.00,86.50 160.00,85.50 159.50,85.00 159.00,84.50 159.00,83.50 159.00,82.50 159.00,81.50 159.00,80.50 159.00,79.50 159.00,78.50 159.00,77.50 159.00,76.50 159.00,75.50 158.50,75.00 158.00,74.50 158.00,73.50 158.50,73.00 159.00,72.50 159.50,72.00 160.50,72.00 161.50,72.00 162.00,71.50 162.50,71.00 163.50,71.00 164.50,71.00 165.00,71.50 165.50,72.00 166.50,72.00 167.00,71.50 166.50,71.00 166.00,70.50 166.50,70.00 167.50,70.00 168.50,70.00 169.50,70.00 170.50,70.00 171.50,70.00 172.00,70.50 172.50,71.00 173.50,71.00 174.00,70.50 174.00,69.50 174.00,68.50 174.50,68.00 175.50,68.00 176.00,67.50 176.50,67.00 177.50,67.00 178.00,67.50 178.50,68.00 179.00,67.50 179.50,67.00 180.00,66.50 180.50,66.00 181.00,66.50 181.50,67.00 182.00,66.50 182.50,66.00 183.50,66.00 184.00,65.50 184.50,65.00 185.50,65.00 186.00,64.50 186.50,64.00 187.50,64.00 188.50,64.00 189.50,64.00 190.00,63.50 190.50,63.00 191.50,63.00 192.00,63.50 192.50,64.00 193.00,63.50 193.50,63.00 194.00,62.50 194.50,62.00 195.00,62.50 195.50,63.00 196.00,62.50 196.50,62.00 197.50,62.00 198.00,61.50 198.50,61.00 199.00,61.50 199.50,62.00 200.00,61.50 200.50,61.00 201.00,60.50 201.50,60.00 202.50,60.00 203.50,60.00 204.00,59.50 204.50,59.00 205.00,58.50 205.00,57.50 205.50,57.00 206.00,56.50 206.00,55.50 206.00,54.50 206.00,53.50 206.00,52.50 206.00,51.50 206.50,51.00 207.50,51.00 208.00,50.50 208.00,49.50 208.00,48.50 207.50,48.00 206.50,48.00 206.00,47.50 206.00,46.50 206.00,45.50 206.00,44.50 206.00,43.50 206.00,42.50 206.00,41.50 206.00,40.50 206.00,39.50 206.00,38.50 206.00,37.50 206.00,36.50 206.00,35.50 206.00,34.50 206.00,33.50 206.00,32.50 206.00,31.50 205.50,31.00 205.00,30.50 205.00,29.50 205.00,28.50 204.50,28.00 203.50,28.00 202.50,28.00 202.00,27.50 202.00,26.50 202.00,25.50 202.00,24.50 201.50,24.00 200.50,24.00 199.50,24.00 198.50,24.00 197.50,24.00 196.50,24.00 195.50,24.00 194.50,24.00 193.50,24.00 192.50,24.00 191.50,24.00 190.50,24.00 189.50,24.00 188.50,24.00 187.50,24.00 186.50,24.00 185.50,24.00 184.50,24.00 183.50,24.00 182.50,24.00 181.50,24.00 180.50,24.00 179.50,24.00 178.50,24.00 177.50,24.00 176.50,24.00 175.50,24.00 174.50,24.00 173.50,24.00 172.50,24.00 171.50,24.00 170.50,24.00 169.50,24.00 168.50,24.00 167.50,24.00 166.50,24.00 165.50,24.00 164.50,24.00 163.50,24.00 162.50,24.00 161.50,24.00 160.50,24.00 160.00,24.50 160.50,25.00 161.50,25.00 162.50,25.00 163.50,25.00 164.50,25.00 165.50,25.00 166.50,25.00 167.50,25.00 168.50,25.00 169.50,25.00 170.50,25.00 171.50,25.00 172.50,25.00 173.50,25.00 174.50,25.00 175.50,25.00 176.50,25.00 177.50,25.00 178.50,25.00 179.50,25.00 180.50,25.00 181.50,25.00 182.50,25.00 183.50,25.00 184.50,25.00 185.50,25.00 186.50,25.00 187.50,25.00 188.50,25.00 189.50,25.00 190.50,25.00 191.50,25.00 192.50,25.00 193.50,25.00 194.50,25.00 195.50,25.00 196.50,25.00 197.50,25.00 198.50,25.00 199.50,25.00 200.50,25.00 201.00,25.50 200.50,26.00 199.50,26.00 198.50,26.00 197.50,26.00 196.50,26.00 195.50,26.00 194.50,26.00 193.50,26.00 192.50,26.00 191.50,26.00 190.50,26.00 189.50,26.00 188.50,26.00 187.50,26.00 186.50,26.00 185.50,26.00 184.50,26.00 183.50,26.00 182.50,26.00 181.50,26.00 180.50,26.00 179.50,26.00 178.50,26.00 177.50,26.00 176.50,26.00 175.50,26.00 174.50,26.00 173.50,26.00 172.50,26.00 171.50,26.00 170.50,26.00 169.50,26.00 168.50,26.00 167.50,26.00 166.50,26.00 165.50,26.00 164.50,26.00 163.50,26.00 162.50,26.00 161.50,26.00 160.50,26.00 159.50,26.00 158.50,26.00 157.50,26.00 156.50,26.00 155.50,26.00 154.50,26.00 153.50,26.00 152.50,26.00 152.00,26.50 151.50,27.00 151.00,26.50 151.00,25.50 151.50,25.00 152.50,25.00 153.50,25.00 154.50,25.00 155.50,25.00 156.50,25.00 157.50,25.00 158.50,25.00 159.00,24.50 158.50,24.00 157.50,24.00 156.50,24.00 155.50,24.00 154.50,24.00 153.50,24.00 152.50,24.00 151.50,24.00 151.00,23.50 151.50,23.00 152.00,22.50 152.00,21.50 152.00,20.50 151.50,20.00 151.00,19.50 150.50,19.00 150.00,18.50 149.50,18.00 149.00,17.50 149.00,16.50 149.50,16.00 150.00,15.50 149.50,15.00 148.50,15.00 148.00,14.50 148.00,13.50 148.00,12.50 147.50,12.00 147.00,11.50 147.00,10.50 146.50,10.00 146.00,9.50 146.00,8.50 146.00,7.50 145.50,7.00 145.00,6.50 145.50,6.00 146.50,6.00 147.50,6.00 148.00,5.50 147.50,5.00 146.50,5.00 145.50,5.00 145.00,4.50 144.50,4.00 144.00,3.50 144.00,2.50 143.50,2.00 143.00,1.50 142.50,1.00 141.50,1.00 140.50,1.00 139.50,1.00 138.50,1.00 138.00,0.50 137.50,0.00 Z" fill="#FFFFFF" stroke="none"/>
</svg>
