<?xml version='1.0' encoding='utf-8'?>
<svg xmlns="http://www.w3.org/2000/svg" width="776" height="726" viewBox="0.000000 338.800000 776.000000 387.200000" preserveAspectRatio="xMidYMid meet">
<path d="M697 415 L696 416 L689 416 L688 417 L682 417 L681 418 L680 418 L679 419 L674 419 L673 420 L671 420 L670 421 L668 421 L667 422 L663 422 L662 423 L661 423 L660 424 L658 424 L657 425 L655 425 L654 426 L653 426 L652 427 L649 427 L648 428 L647 428 L646 429 L645 429 L644 430 L643 430 L642 431 L641 431 L640 432 L639 432 L638 433 L637 433 L636 434 L635 434 L634 435 L633 435 L632 436 L631 436 L630 437 L629 437 L628 438 L627 438 L624 441 L623 441 L622 442 L621 442 L618 445 L616 445 L612 449 L611 449 L611 450 L610 451 L609 451 L604 456 L603 456 L600 459 L599 459 L599 460 L598 461 L597 461 L597 462 L596 463 L595 463 L595 464 L587 472 L587 473 L585 475 L585 476 L584 477 L583 477 L583 478 L581 480 L581 482 L580 483 L579 483 L578 484 L578 485 L577 486 L577 487 L576 488 L576 489 L574 491 L574 492 L573 493 L573 495 L572 496 L571 496 L571 497 L570 498 L570 500 L568 502 L568 503 L567 504 L567 506 L566 507 L566 508 L565 509 L565 510 L564 511 L564 514 L563 515 L563 516 L562 517 L562 520 L561 521 L561 525 L560 526 L560 530 L559 531 L559 540 L558 541 L558 553 L559 554 L559 563 L560 564 L560 567 L561 568 L561 571 L562 572 L562 574 L563 575 L563 578 L564 579 L564 580 L565 581 L565 582 L566 583 L566 585 L567 586 L567 587 L569 589 L569 591 L571 593 L571 594 L574 597 L574 598 L575 599 L575 600 L576 600 L577 601 L577 602 L578 603 L578 605 L581 608 L581 610 L582 611 L582 612 L583 613 L583 614 L584 615 L584 617 L585 618 L585 624 L586 625 L586 631 L585 632 L585 638 L584 639 L584 641 L583 642 L583 644 L581 646 L581 647 L580 648 L580 649 L578 651 L578 652 L576 654 L576 655 L572 659 L572 660 L571 661 L570 661 L564 667 L563 667 L561 669 L560 669 L558 671 L557 671 L556 672 L555 672 L553 674 L552 674 L551 675 L550 675 L549 676 L546 676 L545 677 L545 679 L547 679 L548 680 L559 680 L560 681 L566 681 L567 680 L569 680 L570 681 L577 681 L578 680 L589 680 L590 679 L593 679 L594 678 L600 678 L601 677 L606 677 L607 676 L610 676 L611 675 L613 675 L614 674 L616 674 L617 673 L620 673 L621 672 L622 672 L623 671 L625 671 L626 670 L628 670 L629 669 L630 669 L631 668 L633 668 L634 667 L635 667 L636 666 L638 666 L639 665 L640 665 L641 664 L643 664 L644 663 L645 663 L647 661 L648 661 L649 660 L651 660 L652 659 L653 659 L655 657 L657 657 L660 654 L661 654 L663 652 L664 652 L665 651 L666 651 L668 649 L669 649 L671 647 L672 647 L676 643 L677 643 L679 641 L680 641 L682 639 L682 638 L683 637 L684 637 L687 634 L688 634 L688 633 L689 632 L690 632 L690 631 L698 623 L698 622 L699 621 L700 621 L700 620 L704 616 L704 615 L707 612 L707 611 L710 608 L710 607 L711 606 L711 605 L713 603 L713 602 L714 601 L714 600 L716 598 L716 597 L717 596 L717 595 L718 594 L718 592 L720 590 L720 589 L721 588 L721 586 L722 585 L722 584 L723 583 L723 582 L724 581 L724 579 L725 578 L725 576 L726 575 L726 572 L727 571 L727 569 L728 568 L728 565 L729 564 L729 560 L730 559 L730 534 L729 533 L729 529 L728 528 L728 524 L727 523 L727 521 L726 520 L726 518 L725 517 L725 514 L724 513 L724 512 L723 511 L723 510 L722 509 L722 507 L720 505 L720 504 L719 503 L719 502 L717 500 L717 499 L715 497 L715 496 L713 494 L713 493 L710 490 L710 489 L708 487 L708 486 L707 485 L707 484 L706 483 L706 482 L705 481 L705 479 L704 478 L704 473 L703 472 L703 464 L704 463 L704 460 L705 459 L705 458 L706 457 L706 455 L709 452 L709 451 L713 447 L713 446 L714 445 L715 445 L718 442 L719 442 L721 440 L722 440 L724 438 L725 438 L725 437 L726 436 L728 436 L730 434 L731 434 L732 433 L733 433 L734 432 L735 432 L737 430 L739 430 L741 428 L742 428 L743 427 L745 427 L746 426 L748 426 L749 425 L750 425 L751 424 L753 424 L755 422 L755 420 L751 420 L750 419 L748 419 L747 418 L743 418 L742 417 L737 417 L736 416 L730 416 L729 415 z M636 512 L637 511 L650 511 L651 512 L655 512 L656 513 L657 513 L658 514 L659 514 L660 515 L661 515 L662 516 L663 516 L672 525 L672 526 L673 527 L673 528 L674 529 L674 530 L675 531 L675 532 L676 533 L676 535 L677 536 L677 549 L676 550 L676 552 L675 553 L675 555 L674 556 L674 557 L673 558 L673 559 L671 561 L671 562 L663 570 L662 570 L661 571 L660 571 L659 572 L658 572 L657 573 L656 573 L655 574 L652 574 L651 575 L637 575 L636 574 L634 574 L633 573 L632 573 L631 572 L630 572 L629 571 L628 571 L627 570 L626 570 L624 568 L623 568 L620 565 L620 564 L618 562 L618 561 L615 558 L615 557 L614 556 L614 555 L613 554 L613 550 L612 549 L612 536 L613 535 L613 533 L614 532 L614 530 L615 529 L615 528 L617 526 L617 525 L619 523 L619 522 L620 521 L621 521 L621 520 L622 519 L623 519 L627 515 L628 515 L629 514 L630 514 L631 513 L632 513 L633 512 z" fill="#ffffff" stroke="#000000" stroke-width="2.4" stroke-linejoin="round" stroke-linecap="round" fill-rule="evenodd" />
<path d="M260 0 L260 1 L259 2 L259 3 L258 4 L257 4 L257 5 L255 7 L255 9 L253 11 L253 12 L251 14 L251 15 L248 18 L248 20 L247 21 L247 22 L246 23 L246 24 L244 26 L244 27 L243 28 L243 29 L241 31 L241 32 L240 33 L240 35 L238 37 L238 39 L237 40 L237 41 L236 42 L236 43 L235 44 L235 45 L234 46 L234 49 L232 51 L232 52 L231 53 L231 55 L230 56 L230 57 L229 58 L229 60 L228 61 L228 62 L227 63 L227 65 L226 66 L226 68 L225 69 L225 71 L224 72 L224 73 L223 74 L223 77 L222 78 L222 81 L221 82 L221 84 L220 85 L220 88 L219 89 L219 91 L218 92 L218 95 L217 96 L217 100 L216 101 L216 104 L215 105 L215 110 L214 111 L214 114 L213 115 L213 119 L212 120 L212 127 L211 128 L211 135 L210 136 L210 149 L209 150 L209 197 L210 198 L210 208 L211 209 L211 215 L212 216 L212 225 L213 226 L213 229 L214 229 L215 230 L215 232 L214 233 L214 236 L215 237 L215 242 L216 243 L216 248 L217 249 L217 250 L218 251 L218 254 L219 255 L219 259 L220 260 L220 265 L221 266 L221 269 L222 270 L222 273 L223 274 L223 277 L224 278 L224 279 L225 280 L225 283 L226 284 L226 285 L227 286 L227 289 L228 290 L228 293 L229 294 L229 297 L230 298 L230 299 L231 300 L231 303 L232 304 L232 306 L233 307 L233 308 L234 309 L234 312 L235 313 L235 315 L236 316 L236 319 L237 320 L237 321 L238 322 L238 323 L239 324 L239 327 L240 328 L240 330 L242 332 L242 335 L243 336 L243 338 L244 339 L244 340 L245 341 L245 343 L246 344 L246 345 L247 346 L247 347 L248 348 L248 349 L249 350 L249 353 L250 354 L250 355 L251 356 L251 357 L252 358 L252 360 L254 362 L254 365 L255 366 L255 367 L256 368 L256 369 L257 370 L257 372 L259 374 L259 376 L260 377 L260 378 L261 379 L261 380 L262 381 L262 382 L263 383 L263 384 L264 385 L264 386 L265 387 L265 388 L266 389 L266 392 L268 394 L268 395 L269 396 L269 397 L270 398 L270 399 L271 400 L271 403 L272 404 L272 405 L274 407 L274 408 L275 409 L275 410 L276 411 L276 413 L277 414 L277 415 L278 416 L278 417 L279 418 L279 420 L281 422 L281 425 L283 427 L283 429 L284 430 L284 431 L285 432 L285 434 L287 436 L287 437 L288 438 L288 440 L289 441 L289 442 L290 443 L290 445 L292 447 L292 449 L293 450 L293 452 L294 452 L295 453 L295 456 L296 457 L296 458 L297 459 L297 460 L298 461 L298 464 L299 465 L299 466 L300 467 L300 468 L301 469 L301 471 L302 472 L302 474 L303 475 L303 476 L304 477 L304 479 L305 480 L305 482 L307 484 L307 485 L308 486 L308 488 L309 489 L309 491 L310 492 L310 494 L311 494 L312 495 L312 497 L313 498 L313 499 L314 500 L314 502 L315 503 L315 504 L316 505 L316 506 L317 507 L317 508 L319 510 L319 511 L321 513 L321 514 L322 515 L322 516 L323 517 L323 518 L326 521 L326 522 L328 524 L328 525 L333 530 L333 531 L337 535 L338 535 L340 537 L340 538 L341 539 L342 539 L343 540 L343 541 L344 542 L346 542 L347 543 L347 544 L349 546 L350 546 L351 547 L351 548 L352 548 L354 550 L355 550 L358 553 L359 553 L361 555 L362 555 L365 558 L366 558 L367 559 L368 559 L370 561 L372 561 L374 563 L375 563 L376 564 L377 564 L378 565 L379 565 L380 566 L381 566 L382 567 L383 567 L384 568 L385 568 L386 569 L388 569 L389 570 L390 570 L392 572 L394 572 L395 573 L396 573 L397 574 L399 574 L400 575 L402 575 L404 577 L406 577 L407 578 L409 578 L410 579 L412 579 L413 580 L415 580 L416 581 L418 581 L419 582 L421 582 L422 583 L426 583 L427 584 L430 584 L431 585 L433 585 L434 586 L435 586 L436 587 L441 587 L442 588 L445 588 L446 589 L450 589 L451 590 L456 590 L457 591 L460 591 L461 592 L466 592 L467 593 L473 593 L474 594 L482 594 L483 595 L490 595 L491 596 L514 596 L515 597 L557 597 L558 596 L562 596 L562 594 L561 593 L561 591 L559 589 L559 587 L557 585 L557 583 L556 582 L541 582 L540 583 L533 583 L532 582 L528 582 L527 583 L525 583 L524 582 L509 582 L508 581 L500 581 L499 580 L489 580 L488 579 L482 579 L481 578 L479 578 L478 577 L471 577 L470 576 L467 576 L466 575 L461 575 L460 574 L456 574 L455 573 L452 573 L451 572 L448 572 L447 571 L445 571 L444 570 L442 570 L441 569 L437 569 L436 568 L434 568 L433 567 L432 567 L431 566 L428 566 L427 565 L425 565 L424 564 L422 564 L421 563 L419 563 L418 562 L417 562 L416 561 L415 561 L414 560 L412 560 L411 559 L410 559 L409 558 L408 558 L407 557 L404 557 L402 555 L400 555 L399 554 L397 554 L394 551 L393 551 L392 550 L391 550 L390 549 L389 549 L388 548 L387 548 L385 546 L384 546 L382 544 L379 544 L378 543 L378 542 L377 541 L376 541 L375 540 L374 540 L373 539 L372 539 L371 538 L371 537 L370 536 L369 536 L366 533 L364 533 L363 532 L363 531 L353 521 L353 520 L352 520 L350 518 L350 517 L349 516 L348 516 L347 515 L347 513 L345 511 L345 510 L342 507 L342 505 L339 502 L339 501 L338 500 L338 498 L337 497 L337 495 L335 493 L335 491 L334 490 L334 487 L333 486 L333 484 L332 483 L332 480 L331 479 L331 477 L330 476 L330 471 L329 470 L329 463 L328 462 L328 450 L327 449 L327 438 L328 437 L328 418 L329 417 L329 407 L330 406 L330 397 L331 396 L331 392 L332 391 L332 382 L333 381 L333 380 L334 379 L334 375 L335 374 L335 369 L336 368 L336 362 L337 361 L337 359 L338 358 L338 353 L339 352 L339 348 L340 347 L340 346 L341 345 L341 341 L342 340 L342 338 L343 337 L343 334 L344 333 L344 330 L345 329 L345 327 L346 326 L346 322 L347 321 L347 319 L348 318 L348 316 L349 315 L349 312 L350 311 L350 308 L351 307 L353 307 L354 308 L354 313 L355 314 L355 316 L354 317 L354 320 L355 321 L355 325 L354 326 L354 344 L353 345 L353 356 L352 357 L352 366 L351 367 L351 371 L350 372 L350 378 L349 379 L349 384 L348 385 L348 389 L347 390 L347 394 L346 395 L346 398 L345 399 L345 407 L344 408 L344 412 L343 413 L343 418 L342 419 L342 421 L341 422 L341 429 L340 430 L340 438 L339 439 L339 474 L340 475 L340 478 L341 479 L341 483 L342 484 L342 486 L343 487 L343 489 L344 490 L344 492 L345 493 L345 495 L347 497 L347 499 L348 500 L348 501 L349 502 L349 503 L350 504 L350 505 L353 508 L353 509 L354 510 L354 511 L359 516 L361 516 L362 517 L362 519 L363 520 L363 521 L364 521 L365 522 L365 523 L366 524 L367 524 L369 526 L370 526 L371 527 L371 528 L372 528 L375 531 L376 531 L377 532 L378 532 L380 534 L380 535 L381 535 L382 536 L383 536 L384 537 L386 537 L387 538 L387 539 L388 539 L389 540 L390 540 L391 541 L392 541 L393 542 L394 542 L395 543 L396 543 L398 545 L400 545 L402 547 L403 547 L404 548 L406 548 L407 549 L409 549 L410 550 L411 550 L412 551 L413 551 L414 552 L416 552 L417 553 L418 553 L419 554 L422 554 L424 556 L427 556 L428 557 L430 557 L431 558 L434 558 L435 559 L436 559 L437 560 L439 560 L440 561 L443 561 L444 562 L446 562 L447 563 L450 563 L451 564 L456 564 L457 565 L458 565 L459 566 L465 566 L466 567 L468 567 L469 568 L473 568 L474 569 L479 569 L480 570 L486 570 L487 571 L491 571 L492 572 L502 572 L503 573 L509 573 L510 574 L519 574 L520 575 L538 575 L539 576 L550 576 L551 575 L554 575 L554 573 L553 572 L553 569 L552 568 L552 564 L551 563 L551 558 L550 557 L541 557 L540 556 L519 556 L518 555 L508 555 L507 554 L497 554 L496 553 L492 553 L491 552 L485 552 L484 551 L477 551 L476 550 L472 550 L471 549 L468 549 L467 548 L463 548 L462 547 L458 547 L457 546 L453 546 L452 545 L450 545 L449 544 L445 544 L444 543 L443 543 L442 542 L440 542 L439 541 L435 541 L434 540 L433 540 L432 539 L430 539 L429 538 L427 538 L426 537 L425 537 L424 536 L423 536 L422 535 L420 535 L419 534 L417 534 L416 533 L415 533 L414 532 L413 532 L412 531 L410 531 L409 530 L408 530 L406 528 L405 528 L404 527 L402 527 L400 525 L399 525 L397 523 L396 523 L394 521 L393 521 L392 520 L391 520 L387 516 L386 516 L372 502 L372 501 L370 499 L370 498 L369 497 L369 496 L368 496 L367 495 L367 493 L365 491 L365 490 L364 489 L364 488 L363 487 L363 484 L362 483 L362 481 L361 480 L361 477 L360 476 L360 472 L359 471 L359 442 L360 441 L360 435 L361 434 L361 427 L362 426 L362 424 L363 423 L363 419 L364 418 L364 413 L365 412 L365 408 L366 407 L366 404 L367 403 L367 398 L368 397 L368 392 L369 391 L369 388 L370 387 L370 383 L371 382 L371 378 L372 377 L372 371 L373 370 L373 363 L374 362 L374 356 L375 355 L375 346 L376 345 L376 322 L375 321 L375 306 L374 305 L374 297 L373 296 L373 291 L372 290 L372 285 L371 284 L371 282 L370 281 L370 279 L369 278 L369 271 L368 270 L368 269 L367 268 L367 263 L368 262 L368 260 L369 259 L369 257 L370 256 L371 256 L371 254 L372 253 L372 252 L373 251 L373 250 L374 249 L374 248 L375 247 L375 246 L377 244 L377 243 L378 242 L378 241 L379 240 L379 239 L380 238 L380 236 L381 235 L381 234 L382 233 L382 232 L383 231 L383 230 L384 229 L384 228 L385 227 L385 226 L386 225 L386 223 L387 222 L388 222 L388 220 L390 218 L390 217 L391 216 L391 214 L393 212 L393 211 L394 210 L394 208 L396 206 L396 205 L398 203 L398 202 L399 201 L399 200 L400 199 L400 198 L402 196 L402 194 L404 192 L404 189 L405 188 L406 188 L407 187 L407 186 L408 185 L408 184 L409 183 L409 182 L410 181 L410 180 L412 178 L412 177 L414 175 L414 174 L416 172 L416 171 L417 170 L417 169 L419 167 L419 166 L420 165 L420 164 L422 162 L422 161 L424 159 L424 158 L425 157 L425 155 L428 152 L428 151 L430 149 L430 148 L431 147 L432 147 L432 146 L433 145 L433 144 L435 142 L435 141 L436 140 L436 139 L438 137 L438 136 L441 133 L441 132 L442 131 L442 129 L443 128 L444 128 L446 126 L446 125 L448 123 L448 122 L451 119 L451 118 L452 117 L452 116 L455 113 L455 112 L457 110 L457 109 L460 106 L460 105 L462 103 L462 102 L466 98 L466 97 L468 95 L468 94 L471 91 L471 90 L472 89 L473 89 L474 88 L474 87 L475 86 L475 85 L480 80 L480 79 L484 75 L484 74 L485 73 L486 73 L486 72 L489 69 L489 67 L490 66 L491 66 L493 64 L493 62 L494 61 L496 61 L496 60 L498 58 L498 57 L500 55 L501 55 L501 54 L503 52 L503 51 L505 49 L506 49 L506 48 L511 43 L511 42 L515 38 L515 37 L516 36 L517 36 L518 35 L518 34 L522 30 L522 29 L524 27 L525 27 L525 26 L532 19 L532 18 L542 8 L542 7 L543 6 L544 6 L545 5 L545 3 L546 2 L547 2 L548 1 L548 0 L518 0 L518 1 L517 2 L516 2 L512 6 L512 7 L510 9 L509 9 L509 10 L508 11 L507 11 L507 12 L504 15 L504 16 L503 17 L503 20 L502 21 L499 21 L496 24 L496 26 L494 28 L493 28 L491 30 L491 31 L490 32 L489 32 L488 33 L488 34 L483 39 L483 40 L482 41 L481 41 L481 42 L479 44 L479 45 L474 50 L474 52 L473 53 L472 53 L469 56 L469 57 L466 60 L466 61 L461 66 L461 68 L460 69 L459 69 L459 71 L458 72 L457 72 L455 74 L455 76 L454 77 L453 77 L451 79 L451 80 L449 82 L449 84 L448 85 L447 85 L445 87 L445 88 L444 89 L444 90 L440 94 L440 95 L438 97 L438 98 L435 101 L435 102 L433 104 L433 105 L431 107 L431 108 L427 112 L427 115 L425 117 L424 117 L423 118 L423 119 L422 120 L422 121 L419 124 L419 125 L418 126 L418 127 L416 129 L416 130 L413 133 L413 134 L411 136 L411 139 L409 141 L408 141 L408 142 L406 144 L406 145 L405 146 L405 147 L404 148 L404 149 L402 151 L402 152 L401 153 L401 154 L399 156 L399 157 L398 158 L398 160 L397 161 L396 161 L396 162 L394 164 L394 165 L393 166 L393 167 L391 169 L391 170 L390 171 L390 172 L388 174 L388 176 L386 178 L386 179 L385 180 L385 181 L384 182 L384 183 L383 184 L383 185 L382 186 L382 187 L380 189 L380 191 L379 192 L379 193 L377 195 L377 196 L376 197 L376 198 L375 199 L375 200 L374 201 L374 202 L373 203 L373 204 L372 205 L372 206 L370 208 L370 209 L369 210 L369 212 L367 214 L367 215 L366 216 L366 217 L365 218 L365 219 L364 220 L364 222 L362 224 L362 226 L360 228 L360 230 L359 231 L357 231 L356 230 L356 228 L355 227 L355 223 L354 222 L354 221 L353 220 L353 218 L352 217 L352 214 L351 213 L351 212 L350 211 L350 208 L349 207 L349 204 L348 203 L348 202 L347 201 L347 198 L346 197 L346 195 L344 193 L344 190 L342 188 L342 184 L341 183 L341 181 L340 180 L340 178 L339 177 L339 175 L338 174 L338 172 L337 171 L337 170 L336 169 L336 166 L335 165 L335 163 L334 162 L334 160 L333 159 L333 158 L332 157 L332 155 L331 154 L331 151 L330 150 L330 149 L329 148 L329 146 L328 145 L328 143 L327 142 L327 138 L329 136 L329 134 L331 132 L331 129 L334 126 L334 124 L335 123 L335 122 L336 121 L336 120 L337 119 L337 118 L338 117 L338 116 L339 115 L339 114 L340 113 L340 112 L342 110 L342 108 L344 106 L344 105 L345 104 L345 103 L347 101 L347 99 L349 97 L349 96 L350 95 L350 94 L352 92 L352 91 L353 90 L353 89 L355 87 L355 85 L357 83 L357 82 L359 80 L359 79 L361 77 L361 73 L362 72 L364 72 L364 71 L365 70 L365 69 L367 67 L367 66 L369 64 L369 63 L370 62 L370 61 L372 59 L372 58 L374 56 L374 55 L376 53 L376 51 L377 50 L378 50 L379 49 L379 48 L381 46 L381 45 L385 41 L385 40 L387 38 L387 37 L390 34 L390 33 L393 30 L393 29 L398 24 L398 23 L402 19 L402 17 L403 16 L404 16 L408 12 L408 11 L412 7 L412 5 L413 4 L414 4 L415 3 L416 3 L416 2 L417 1 L417 0 L386 0 L386 2 L385 3 L384 3 L384 4 L383 5 L382 5 L382 6 L378 10 L378 11 L376 13 L376 14 L374 16 L374 18 L373 19 L372 19 L371 20 L371 22 L370 23 L369 23 L368 24 L368 25 L366 27 L366 28 L363 31 L363 32 L362 33 L362 34 L360 36 L360 37 L358 39 L358 40 L356 42 L356 43 L354 45 L354 46 L352 48 L352 49 L351 50 L351 51 L348 54 L348 55 L347 56 L347 58 L344 61 L344 62 L343 63 L343 64 L342 65 L342 66 L341 67 L341 68 L340 69 L340 70 L338 72 L338 73 L337 74 L337 75 L335 77 L335 78 L334 79 L334 80 L333 81 L333 82 L332 83 L332 84 L331 85 L331 86 L330 87 L330 88 L329 89 L329 90 L328 91 L328 92 L326 94 L326 97 L325 98 L325 99 L323 101 L321 101 L320 100 L320 87 L321 86 L321 81 L322 80 L322 73 L323 72 L323 68 L324 67 L324 63 L325 62 L325 59 L326 58 L326 54 L327 53 L327 51 L328 50 L328 47 L329 46 L329 42 L330 41 L330 40 L331 39 L331 34 L332 33 L333 33 L333 32 L334 31 L334 28 L335 27 L335 26 L336 25 L336 23 L337 22 L337 21 L338 20 L338 19 L339 18 L339 16 L341 14 L341 12 L342 11 L342 10 L344 8 L344 7 L345 6 L345 2 L346 1 L347 1 L347 0 L322 0 L322 1 L321 2 L321 3 L320 4 L320 5 L319 6 L319 8 L317 10 L317 12 L316 13 L316 14 L315 15 L315 17 L314 18 L314 20 L313 21 L313 22 L312 23 L312 26 L311 27 L311 29 L309 31 L309 34 L308 35 L308 37 L307 38 L307 42 L306 43 L306 45 L305 46 L305 51 L304 52 L304 57 L303 58 L303 62 L302 63 L302 71 L301 72 L301 83 L300 84 L300 107 L301 108 L301 118 L302 119 L302 123 L303 124 L303 131 L304 132 L304 136 L305 137 L305 146 L303 148 L303 150 L302 151 L302 152 L301 153 L301 154 L300 155 L300 157 L299 158 L299 159 L298 160 L298 161 L297 162 L297 163 L296 164 L296 165 L295 166 L295 168 L294 169 L294 170 L293 171 L293 172 L292 173 L292 174 L291 175 L291 177 L290 178 L290 180 L289 181 L289 183 L288 184 L288 186 L287 187 L287 189 L286 190 L286 191 L285 192 L285 194 L284 195 L284 196 L283 197 L283 199 L282 200 L282 202 L281 203 L281 206 L280 207 L280 210 L279 211 L279 213 L278 214 L278 218 L277 219 L277 221 L276 222 L276 223 L275 224 L275 227 L274 228 L274 232 L273 233 L271 233 L270 232 L270 226 L269 225 L269 217 L268 216 L268 208 L267 207 L267 199 L266 198 L266 187 L265 186 L265 172 L264 171 L264 123 L265 122 L265 111 L266 110 L266 102 L267 101 L267 95 L268 94 L268 87 L269 86 L269 81 L270 80 L270 76 L271 75 L271 70 L272 69 L272 67 L273 66 L273 62 L274 61 L274 58 L275 57 L275 54 L276 53 L276 50 L277 49 L277 47 L278 46 L278 44 L279 43 L279 40 L280 39 L280 36 L281 35 L281 33 L282 32 L282 30 L283 29 L283 28 L284 27 L284 25 L285 24 L285 22 L286 21 L286 20 L287 19 L287 16 L288 15 L288 14 L289 13 L289 11 L291 9 L291 7 L292 6 L292 5 L293 4 L293 3 L294 2 L294 0 z M312 174 L313 173 L316 173 L317 174 L317 177 L318 178 L318 180 L319 181 L319 182 L320 183 L320 186 L321 187 L321 190 L323 192 L323 194 L324 195 L324 198 L325 199 L325 201 L326 202 L326 204 L327 205 L327 207 L328 208 L328 210 L329 211 L329 212 L330 213 L330 217 L331 218 L331 220 L332 221 L332 223 L333 224 L333 227 L335 229 L335 231 L336 232 L336 235 L337 236 L337 238 L338 238 L339 239 L339 244 L340 245 L340 246 L341 247 L341 251 L343 253 L343 256 L344 257 L344 259 L345 260 L345 263 L344 264 L344 266 L343 267 L343 268 L342 269 L342 271 L341 272 L341 273 L340 274 L340 275 L339 276 L339 279 L338 280 L338 281 L337 282 L337 285 L335 287 L335 290 L334 291 L334 293 L333 294 L333 295 L332 296 L332 299 L331 300 L331 301 L330 302 L330 305 L329 306 L329 307 L328 308 L328 310 L327 311 L327 314 L326 315 L326 318 L325 319 L325 320 L324 321 L324 325 L323 326 L323 328 L322 329 L322 331 L321 332 L321 336 L320 337 L320 339 L319 340 L319 345 L318 346 L318 348 L317 349 L317 355 L316 356 L316 358 L315 359 L315 363 L314 364 L314 370 L313 371 L313 375 L312 376 L312 386 L311 387 L311 395 L310 396 L310 400 L309 401 L307 401 L306 400 L306 392 L305 391 L305 381 L304 380 L304 369 L303 368 L303 362 L302 361 L302 354 L301 353 L301 347 L300 346 L300 341 L299 340 L299 334 L298 333 L298 331 L297 330 L297 326 L296 325 L296 321 L295 320 L295 317 L294 316 L294 312 L293 311 L293 308 L292 307 L292 304 L291 303 L291 300 L290 299 L290 296 L289 295 L289 293 L288 292 L288 291 L287 290 L287 287 L286 286 L286 283 L285 282 L285 280 L284 279 L284 277 L285 276 L285 272 L286 271 L286 266 L287 265 L287 262 L288 261 L288 257 L289 256 L289 251 L290 250 L290 247 L291 246 L291 243 L292 242 L292 238 L293 237 L293 234 L294 233 L294 229 L295 228 L295 225 L296 224 L296 222 L297 221 L297 219 L298 218 L298 215 L299 214 L299 211 L300 210 L300 209 L301 208 L301 206 L302 205 L302 202 L303 201 L303 199 L304 198 L304 197 L305 196 L305 193 L306 192 L306 190 L307 189 L307 187 L308 186 L308 185 L309 184 L309 182 L310 181 L310 180 L311 179 L311 177 L312 176 z M262 23 L263 22 L265 22 L266 23 L266 26 L265 27 L265 29 L264 30 L264 31 L263 32 L263 35 L261 37 L261 40 L260 41 L260 44 L259 45 L259 46 L258 47 L258 50 L257 51 L257 53 L256 54 L256 56 L255 57 L255 61 L254 62 L254 65 L253 66 L253 68 L252 69 L252 73 L251 74 L251 77 L250 78 L250 83 L249 84 L249 88 L248 89 L248 92 L247 93 L247 100 L246 101 L246 106 L245 107 L245 115 L244 116 L244 127 L243 128 L243 171 L244 172 L244 178 L245 179 L245 191 L246 192 L246 200 L247 201 L247 207 L248 208 L248 213 L249 214 L249 219 L250 220 L250 227 L251 228 L251 232 L252 233 L252 238 L253 239 L253 243 L254 244 L254 247 L255 248 L255 254 L256 255 L256 257 L257 258 L257 263 L258 264 L258 269 L259 270 L259 273 L260 274 L260 277 L261 278 L261 281 L262 282 L262 284 L263 285 L263 287 L264 288 L264 292 L265 293 L265 297 L266 298 L266 300 L267 301 L267 304 L268 305 L268 308 L269 309 L269 312 L270 313 L270 314 L271 315 L271 318 L272 319 L272 324 L273 325 L273 326 L274 326 L275 327 L275 329 L274 330 L274 332 L275 333 L275 337 L276 338 L276 342 L277 343 L277 348 L276 349 L274 349 L273 348 L273 347 L272 346 L272 345 L271 344 L271 343 L270 342 L270 339 L269 338 L269 337 L267 335 L267 332 L266 331 L266 329 L265 328 L265 327 L264 326 L264 325 L263 324 L263 322 L262 321 L262 319 L261 318 L261 317 L260 316 L260 314 L259 313 L259 312 L258 311 L258 309 L257 308 L257 305 L255 303 L255 300 L254 299 L254 297 L252 295 L252 292 L251 291 L251 289 L250 288 L250 287 L249 286 L249 284 L248 283 L248 281 L247 280 L247 278 L246 277 L246 275 L245 274 L245 271 L244 270 L244 267 L243 266 L243 264 L242 263 L242 262 L241 261 L241 256 L240 255 L240 252 L238 250 L238 245 L237 244 L237 239 L236 238 L236 233 L235 232 L235 229 L234 228 L234 221 L233 220 L233 215 L232 214 L232 204 L231 203 L231 191 L230 190 L230 136 L231 135 L231 127 L232 126 L232 119 L233 118 L233 111 L234 110 L234 106 L235 105 L235 99 L236 98 L236 95 L237 94 L237 89 L238 88 L238 84 L239 83 L239 81 L240 80 L240 77 L241 76 L241 74 L242 73 L242 71 L243 70 L243 67 L244 66 L244 64 L245 63 L245 61 L246 60 L246 58 L247 57 L247 56 L248 55 L248 53 L249 52 L249 51 L250 50 L250 48 L251 47 L251 46 L252 45 L252 44 L253 43 L253 40 L255 38 L255 37 L257 35 L257 33 L258 32 L258 31 L259 30 L259 29 L261 27 L261 25 L262 24 z" fill="#ffffff" stroke="#000000" stroke-width="2.4" stroke-linejoin="round" stroke-linecap="round" fill-rule="evenodd" />
<path d="M191 0 L191 1 L188 4 L187 4 L187 5 L181 11 L180 11 L179 12 L179 14 L178 15 L176 15 L176 16 L175 17 L174 17 L174 18 L172 20 L171 20 L170 21 L169 21 L168 22 L168 23 L166 25 L165 25 L165 26 L164 27 L163 27 L162 28 L162 29 L161 30 L160 30 L160 33 L159 34 L157 34 L155 36 L154 36 L154 37 L153 38 L152 38 L152 39 L146 45 L146 46 L145 47 L144 47 L140 51 L140 52 L133 59 L133 60 L128 65 L128 66 L123 71 L123 72 L120 75 L120 76 L119 77 L118 77 L118 78 L117 79 L117 80 L116 81 L115 81 L115 82 L114 83 L113 83 L113 84 L112 85 L112 86 L109 89 L109 90 L106 93 L106 94 L105 95 L105 97 L104 98 L103 98 L102 99 L102 100 L101 101 L101 102 L100 103 L99 103 L99 104 L97 106 L97 107 L95 109 L95 111 L94 112 L93 112 L93 113 L91 115 L91 116 L90 117 L90 118 L89 119 L88 119 L88 121 L86 123 L86 124 L83 127 L83 130 L82 131 L81 131 L81 133 L80 134 L79 134 L79 135 L78 136 L78 137 L77 138 L77 139 L75 141 L75 142 L74 143 L74 145 L71 148 L71 150 L70 151 L70 152 L69 153 L69 155 L68 156 L67 156 L67 159 L66 160 L65 160 L65 161 L64 162 L64 163 L63 164 L63 166 L61 168 L61 170 L59 172 L59 175 L58 176 L58 177 L57 178 L57 180 L56 181 L56 182 L55 183 L55 185 L53 187 L53 190 L52 191 L52 193 L51 194 L51 196 L50 197 L50 198 L49 199 L49 200 L48 201 L48 204 L47 205 L47 208 L46 209 L46 211 L45 212 L45 213 L44 214 L44 218 L43 219 L43 224 L42 225 L42 227 L41 228 L41 231 L40 232 L40 236 L39 237 L39 243 L38 244 L38 249 L37 250 L37 256 L36 257 L36 268 L35 269 L35 290 L34 291 L34 294 L35 295 L35 310 L36 311 L36 313 L35 314 L35 316 L36 317 L36 323 L37 324 L37 332 L38 333 L38 339 L39 340 L39 343 L40 344 L40 351 L41 352 L41 356 L42 357 L42 358 L43 359 L43 366 L44 367 L44 369 L45 370 L45 373 L46 374 L46 375 L47 376 L47 380 L48 381 L48 384 L49 385 L49 387 L50 388 L50 389 L51 390 L51 394 L52 395 L52 396 L53 397 L53 398 L54 399 L54 402 L55 403 L55 405 L56 406 L56 407 L57 408 L57 409 L58 410 L58 413 L59 414 L59 416 L60 417 L60 418 L62 420 L62 422 L63 423 L63 424 L64 425 L64 426 L65 427 L65 429 L66 430 L66 431 L67 432 L67 434 L69 436 L69 438 L70 438 L71 439 L71 441 L72 442 L72 443 L73 444 L73 445 L75 447 L75 449 L76 450 L76 451 L79 454 L79 456 L80 457 L80 458 L83 461 L83 462 L84 463 L84 464 L86 466 L86 467 L88 469 L88 470 L90 472 L90 474 L93 477 L93 478 L96 481 L96 482 L99 485 L99 486 L101 488 L101 489 L104 492 L104 493 L108 497 L108 498 L110 500 L110 501 L111 501 L112 502 L112 503 L113 503 L114 504 L114 505 L120 511 L120 512 L126 518 L126 519 L127 519 L129 521 L129 522 L130 523 L131 523 L133 525 L133 526 L135 526 L136 527 L136 528 L140 532 L141 532 L142 533 L142 534 L143 534 L150 541 L151 541 L153 543 L154 543 L155 544 L155 545 L156 545 L157 546 L158 546 L163 551 L164 551 L166 553 L167 553 L170 556 L171 556 L172 557 L173 557 L174 558 L175 558 L178 561 L180 561 L181 562 L181 563 L182 563 L183 564 L184 564 L186 566 L188 566 L190 568 L192 568 L193 569 L194 569 L196 571 L197 571 L198 572 L199 572 L200 573 L202 573 L203 574 L204 574 L205 575 L206 575 L207 576 L209 576 L211 578 L212 578 L213 579 L216 579 L218 581 L220 581 L221 582 L221 583 L223 585 L223 586 L224 587 L224 588 L225 589 L225 590 L226 590 L227 591 L227 594 L228 595 L228 596 L229 596 L230 597 L230 598 L231 599 L231 600 L233 602 L233 603 L234 604 L234 605 L237 608 L237 609 L239 611 L239 612 L241 614 L241 615 L243 617 L243 618 L244 619 L245 619 L246 620 L246 621 L248 623 L248 624 L252 628 L253 628 L254 629 L254 630 L262 638 L263 638 L265 640 L265 641 L266 641 L269 644 L270 644 L271 645 L271 646 L272 646 L273 647 L274 647 L275 648 L275 649 L276 650 L278 650 L279 651 L279 652 L280 652 L281 653 L282 653 L283 654 L283 655 L284 655 L285 656 L286 656 L287 657 L288 657 L290 659 L291 659 L292 660 L293 660 L294 661 L295 661 L296 662 L297 662 L298 663 L299 663 L301 665 L302 665 L303 666 L304 666 L305 667 L307 667 L308 668 L309 668 L310 669 L311 669 L312 670 L313 670 L314 671 L316 671 L317 672 L319 672 L320 673 L322 673 L323 674 L325 674 L326 675 L330 675 L331 676 L334 676 L335 677 L337 677 L338 678 L341 678 L342 679 L346 679 L347 680 L352 680 L353 681 L358 681 L359 682 L370 682 L371 683 L387 683 L388 684 L391 684 L392 683 L417 683 L418 682 L422 682 L423 681 L431 681 L432 680 L439 680 L440 679 L445 679 L446 678 L451 678 L452 677 L455 677 L456 676 L458 676 L459 675 L465 675 L466 674 L469 674 L470 673 L474 673 L475 672 L478 672 L479 671 L483 671 L484 670 L485 670 L486 669 L491 669 L492 668 L494 668 L495 667 L498 667 L499 666 L503 666 L504 665 L506 665 L507 664 L510 664 L511 663 L515 663 L516 662 L519 662 L520 661 L522 661 L523 660 L526 660 L527 659 L531 659 L532 658 L535 658 L536 657 L538 657 L539 656 L542 656 L543 655 L546 655 L547 654 L550 654 L551 653 L554 653 L555 652 L559 652 L560 651 L562 651 L563 650 L565 650 L566 649 L570 649 L570 648 L572 646 L572 645 L574 643 L574 641 L575 640 L575 639 L576 638 L576 637 L577 636 L577 632 L575 632 L574 633 L569 633 L568 634 L565 634 L564 635 L559 635 L558 636 L553 636 L552 637 L548 637 L547 638 L542 638 L541 639 L537 639 L536 640 L533 640 L532 641 L527 641 L526 642 L522 642 L521 643 L520 643 L519 644 L514 644 L513 645 L507 645 L506 646 L504 646 L503 647 L498 647 L497 648 L492 648 L491 649 L490 649 L489 650 L484 650 L483 651 L480 651 L479 652 L475 652 L474 653 L469 653 L468 654 L465 654 L464 655 L459 655 L458 656 L453 656 L452 657 L447 657 L446 658 L443 658 L442 659 L436 659 L435 660 L429 660 L428 661 L417 661 L416 662 L379 662 L378 661 L369 661 L368 660 L363 660 L362 659 L354 659 L353 658 L352 658 L351 657 L347 657 L346 656 L342 656 L341 655 L338 655 L337 654 L334 654 L333 653 L332 653 L331 652 L329 652 L328 651 L327 651 L326 650 L324 650 L323 649 L322 649 L321 648 L319 648 L318 647 L317 647 L316 646 L315 646 L314 645 L313 645 L312 644 L311 644 L310 643 L308 643 L307 642 L307 641 L306 641 L304 639 L303 639 L301 637 L300 637 L298 635 L297 635 L296 634 L295 634 L293 632 L292 632 L291 631 L291 630 L290 630 L288 628 L286 628 L285 627 L285 626 L273 614 L273 613 L272 613 L270 611 L270 610 L265 605 L265 603 L266 602 L268 602 L269 603 L270 603 L271 604 L273 604 L274 605 L275 605 L276 606 L277 606 L278 607 L279 607 L280 608 L281 608 L282 609 L285 609 L286 610 L287 610 L289 612 L292 612 L293 613 L294 613 L295 614 L297 614 L299 616 L300 616 L301 617 L303 617 L304 618 L305 618 L306 619 L308 619 L309 620 L310 620 L311 621 L314 621 L315 622 L316 622 L317 623 L318 623 L319 624 L322 624 L323 625 L325 625 L327 627 L331 627 L332 628 L334 628 L335 629 L337 629 L338 630 L339 630 L340 631 L345 631 L347 633 L351 633 L352 634 L355 634 L356 635 L359 635 L360 636 L365 636 L366 637 L371 637 L372 638 L375 638 L376 639 L381 639 L382 640 L387 640 L388 641 L397 641 L398 642 L404 642 L405 643 L412 643 L413 644 L458 644 L459 643 L471 643 L472 642 L478 642 L479 641 L486 641 L487 640 L491 640 L492 639 L499 639 L500 638 L503 638 L504 637 L509 637 L510 636 L517 636 L518 635 L522 635 L523 634 L526 634 L527 633 L533 633 L534 632 L538 632 L539 631 L542 631 L543 630 L549 630 L550 629 L552 629 L553 628 L559 628 L560 627 L565 627 L566 626 L571 626 L572 625 L577 625 L577 622 L576 621 L576 617 L575 616 L575 614 L574 613 L574 612 L573 611 L573 610 L570 607 L570 606 L569 605 L569 604 L543 604 L542 605 L503 605 L502 604 L498 604 L497 605 L494 605 L493 604 L475 604 L474 603 L463 603 L462 604 L460 604 L458 602 L454 602 L453 601 L443 601 L442 600 L437 600 L436 599 L429 599 L428 598 L425 598 L424 597 L420 597 L419 596 L415 596 L414 595 L411 595 L410 594 L406 594 L405 593 L402 593 L401 592 L398 592 L397 591 L396 591 L395 590 L392 590 L391 589 L388 589 L387 588 L385 588 L384 587 L383 587 L382 586 L381 586 L380 585 L377 585 L376 584 L374 584 L372 582 L370 582 L369 581 L368 581 L367 580 L365 580 L364 579 L363 579 L361 577 L359 577 L358 576 L357 576 L356 575 L355 575 L354 574 L353 574 L352 573 L351 573 L350 572 L349 572 L348 571 L347 571 L345 569 L344 569 L343 568 L342 568 L341 567 L340 567 L338 565 L337 565 L336 564 L335 564 L334 563 L333 563 L331 561 L330 561 L328 559 L327 559 L324 556 L323 556 L322 555 L320 555 L319 554 L319 553 L316 550 L315 550 L310 545 L309 545 L308 544 L308 543 L307 543 L300 536 L299 536 L298 535 L298 534 L295 531 L295 530 L292 527 L292 526 L291 526 L290 525 L290 524 L288 522 L288 521 L285 518 L285 517 L283 515 L283 514 L282 513 L282 512 L280 510 L280 509 L278 507 L278 506 L277 505 L277 504 L276 503 L276 502 L275 501 L275 500 L274 499 L274 498 L273 497 L273 496 L272 495 L272 494 L271 493 L271 492 L270 491 L270 490 L268 488 L268 487 L267 486 L267 483 L266 482 L266 481 L265 480 L265 479 L264 478 L264 477 L263 476 L263 475 L262 474 L262 472 L260 470 L260 468 L258 466 L258 465 L257 464 L257 462 L256 461 L256 460 L255 459 L255 457 L254 456 L254 454 L253 453 L253 452 L252 451 L252 450 L251 449 L251 448 L250 447 L250 446 L249 445 L249 443 L248 442 L248 440 L246 438 L246 437 L245 436 L245 434 L244 433 L244 431 L243 430 L243 429 L242 428 L242 426 L241 425 L241 424 L240 423 L240 422 L239 421 L239 419 L238 418 L238 416 L236 414 L236 413 L235 412 L235 410 L234 409 L234 407 L233 406 L233 404 L231 402 L231 399 L230 398 L230 397 L229 396 L229 395 L228 394 L228 392 L227 391 L227 389 L226 388 L226 387 L225 386 L225 384 L223 382 L223 380 L222 379 L222 377 L221 376 L221 373 L220 372 L220 371 L219 370 L219 369 L218 368 L218 366 L217 365 L217 363 L216 362 L216 360 L215 359 L215 358 L214 357 L214 353 L212 351 L212 349 L211 348 L211 345 L210 344 L210 343 L209 342 L209 340 L208 339 L208 336 L207 335 L207 334 L206 333 L206 331 L205 330 L205 327 L204 326 L204 324 L203 323 L203 320 L202 319 L202 317 L201 316 L201 314 L200 313 L200 311 L199 310 L199 307 L198 306 L198 302 L197 301 L197 300 L196 299 L196 296 L195 295 L195 291 L194 290 L194 289 L193 288 L193 285 L192 284 L192 279 L191 278 L191 274 L190 273 L190 271 L189 270 L189 267 L188 266 L188 261 L187 260 L187 256 L186 255 L186 253 L185 252 L185 245 L184 244 L184 239 L183 238 L183 230 L182 229 L182 223 L181 222 L181 214 L180 213 L180 198 L179 197 L179 182 L178 181 L178 177 L179 176 L179 150 L180 149 L180 138 L181 137 L181 130 L182 129 L182 121 L183 120 L183 116 L184 115 L184 111 L185 110 L185 105 L186 104 L186 102 L187 101 L187 99 L188 98 L188 93 L189 92 L189 91 L190 90 L190 87 L191 86 L191 84 L192 83 L192 82 L193 81 L193 79 L194 78 L194 74 L196 72 L196 69 L197 68 L197 67 L198 66 L198 65 L199 64 L199 62 L200 61 L200 60 L201 59 L201 57 L203 55 L203 52 L204 51 L204 50 L206 48 L206 46 L207 45 L207 44 L208 43 L208 42 L210 40 L210 38 L211 37 L211 36 L212 35 L212 34 L214 32 L214 31 L215 30 L215 29 L217 27 L217 26 L219 24 L219 22 L221 20 L221 19 L223 17 L223 16 L225 14 L225 13 L227 11 L227 10 L230 7 L230 6 L231 5 L231 3 L232 2 L233 2 L234 1 L234 0 z M120 103 L121 102 L123 102 L124 103 L124 105 L123 106 L123 108 L122 109 L122 113 L121 114 L121 115 L120 116 L120 118 L119 119 L119 121 L118 122 L118 124 L117 125 L117 128 L116 129 L116 131 L115 132 L115 134 L114 135 L114 140 L113 141 L113 143 L112 144 L112 149 L111 150 L111 155 L110 156 L110 158 L109 159 L109 165 L108 166 L108 170 L107 171 L107 176 L106 177 L106 184 L105 185 L105 193 L104 194 L104 204 L103 205 L103 224 L102 225 L102 264 L103 265 L103 280 L104 281 L104 290 L105 291 L105 299 L106 300 L106 303 L107 304 L107 313 L108 314 L108 319 L109 320 L109 323 L110 324 L110 327 L111 328 L111 331 L112 332 L112 338 L113 339 L113 341 L114 342 L114 346 L115 347 L115 349 L116 350 L116 353 L117 354 L117 358 L119 360 L119 364 L120 365 L120 368 L121 369 L121 371 L122 372 L122 373 L123 374 L123 378 L124 379 L124 380 L125 381 L125 384 L126 385 L126 386 L127 387 L127 390 L128 391 L128 394 L130 396 L130 399 L131 400 L131 402 L132 403 L132 405 L133 406 L133 408 L134 409 L134 410 L135 411 L135 414 L136 415 L136 416 L138 418 L138 422 L139 423 L139 425 L141 427 L141 428 L142 429 L142 431 L143 432 L143 435 L145 437 L145 439 L146 440 L146 441 L147 442 L147 444 L148 445 L148 446 L149 447 L149 450 L150 451 L150 452 L151 453 L151 454 L152 455 L152 457 L153 458 L153 459 L154 460 L154 461 L155 462 L155 464 L156 465 L156 467 L158 469 L158 470 L159 471 L159 472 L160 473 L160 475 L161 476 L161 477 L162 478 L162 479 L163 480 L163 482 L164 483 L164 484 L166 486 L166 488 L167 489 L167 490 L168 491 L168 492 L169 493 L169 494 L170 495 L170 496 L171 497 L171 498 L172 499 L172 500 L173 501 L173 502 L174 503 L174 504 L175 504 L176 505 L176 508 L177 509 L177 511 L179 513 L179 515 L181 517 L181 518 L182 518 L183 519 L183 521 L184 522 L184 524 L185 525 L185 526 L187 528 L187 529 L188 530 L188 532 L191 535 L191 536 L192 537 L192 539 L191 540 L189 540 L187 538 L186 538 L184 536 L183 536 L181 534 L180 534 L177 531 L175 531 L174 530 L174 529 L173 529 L172 528 L172 527 L171 527 L168 524 L167 524 L164 521 L163 521 L162 520 L162 519 L159 516 L158 516 L144 502 L144 501 L143 501 L142 500 L141 500 L140 499 L140 497 L139 497 L138 496 L138 495 L137 495 L136 494 L136 492 L135 491 L134 491 L133 490 L133 489 L130 486 L130 485 L127 482 L127 481 L126 481 L125 480 L125 479 L121 475 L121 474 L120 473 L120 472 L117 469 L117 468 L115 466 L115 465 L112 462 L112 461 L109 458 L109 457 L108 457 L107 456 L107 453 L105 451 L105 450 L104 449 L104 448 L102 446 L102 445 L100 443 L100 442 L99 441 L99 440 L97 438 L97 437 L96 436 L96 434 L95 433 L95 432 L93 430 L93 428 L91 426 L91 425 L90 424 L90 422 L88 420 L88 418 L87 417 L87 416 L86 415 L86 414 L85 413 L85 411 L84 410 L84 409 L83 408 L83 407 L82 406 L82 405 L81 404 L81 403 L80 402 L80 400 L79 399 L79 396 L78 395 L78 393 L76 391 L76 389 L75 388 L75 385 L74 384 L74 382 L73 381 L73 378 L72 377 L72 375 L71 374 L71 371 L70 370 L70 368 L69 367 L69 365 L68 364 L68 361 L67 360 L67 358 L66 357 L66 354 L65 353 L65 347 L64 346 L64 342 L63 341 L63 337 L62 336 L62 332 L61 331 L61 324 L60 323 L60 312 L59 311 L59 291 L58 290 L58 269 L59 268 L59 260 L60 259 L60 250 L61 249 L61 243 L62 242 L62 238 L63 237 L63 230 L64 229 L64 226 L65 225 L65 223 L66 222 L66 217 L67 216 L67 215 L68 214 L68 211 L69 210 L69 207 L70 206 L70 204 L71 203 L71 201 L72 200 L72 197 L73 196 L73 195 L74 194 L74 192 L75 191 L75 188 L76 187 L76 186 L77 185 L77 184 L78 183 L78 180 L80 178 L80 176 L81 175 L81 173 L83 171 L83 169 L84 168 L84 166 L85 165 L85 164 L86 163 L86 162 L88 160 L88 158 L89 157 L89 155 L90 154 L90 153 L91 152 L91 151 L93 149 L93 148 L94 147 L94 146 L96 144 L96 142 L98 140 L98 138 L100 136 L100 135 L102 133 L102 132 L103 131 L103 130 L104 129 L104 128 L105 127 L105 126 L107 124 L107 123 L108 122 L108 121 L110 119 L110 118 L112 116 L112 115 L114 113 L114 112 L116 110 L116 109 L118 107 L118 106 L120 104 z M203 10 L204 9 L206 9 L207 10 L207 12 L206 13 L206 14 L205 15 L205 17 L204 18 L203 18 L203 20 L202 21 L201 21 L201 22 L200 23 L200 24 L199 25 L199 26 L196 29 L196 31 L195 32 L195 33 L194 34 L194 36 L193 37 L192 37 L192 39 L191 40 L190 40 L190 42 L189 43 L189 45 L187 47 L187 48 L185 50 L185 53 L184 54 L184 57 L183 58 L182 58 L182 60 L181 61 L180 61 L180 63 L179 64 L179 65 L178 66 L178 69 L176 71 L176 74 L175 75 L175 76 L174 77 L174 80 L173 81 L173 84 L171 86 L171 89 L170 90 L170 92 L169 93 L169 95 L168 96 L168 98 L167 99 L167 103 L166 104 L166 106 L165 107 L165 112 L164 113 L164 116 L163 117 L163 120 L162 121 L162 125 L161 126 L161 131 L160 132 L160 140 L159 141 L159 150 L158 151 L158 158 L157 159 L157 184 L156 185 L156 190 L157 191 L157 214 L158 215 L158 226 L159 227 L159 232 L160 233 L160 242 L161 243 L161 251 L162 252 L162 255 L163 256 L163 261 L164 262 L164 268 L165 269 L165 275 L166 276 L166 278 L167 279 L167 283 L168 284 L168 290 L169 291 L169 294 L170 295 L170 297 L171 298 L171 302 L172 303 L172 304 L173 305 L173 309 L174 310 L174 313 L175 314 L175 317 L176 318 L176 320 L177 321 L177 323 L179 325 L179 331 L180 332 L180 334 L181 335 L181 337 L182 338 L182 341 L184 343 L184 346 L185 347 L185 349 L186 350 L186 351 L187 352 L187 356 L188 357 L188 358 L189 359 L189 361 L190 362 L190 364 L191 365 L191 366 L192 367 L192 370 L194 372 L194 376 L195 377 L195 378 L196 379 L196 380 L197 381 L197 382 L198 383 L198 385 L199 386 L199 389 L200 390 L200 391 L201 392 L201 393 L202 394 L202 396 L203 397 L203 399 L204 400 L204 402 L205 403 L205 404 L206 405 L206 408 L208 410 L208 412 L209 413 L209 415 L210 416 L210 417 L211 418 L211 420 L212 421 L212 422 L213 423 L213 425 L214 426 L214 427 L215 428 L215 430 L216 431 L216 432 L217 433 L217 435 L218 436 L218 437 L219 438 L219 440 L220 441 L220 443 L221 444 L221 445 L223 447 L223 450 L224 451 L224 452 L225 453 L225 454 L226 455 L226 456 L227 457 L227 459 L228 460 L228 462 L230 464 L230 466 L231 467 L231 468 L232 469 L232 471 L235 474 L235 478 L237 480 L237 482 L238 483 L238 484 L239 485 L239 486 L240 487 L240 488 L241 489 L241 491 L243 493 L243 495 L244 496 L244 497 L245 498 L245 499 L246 500 L246 501 L247 502 L247 503 L248 504 L248 506 L250 508 L250 510 L252 512 L252 513 L253 514 L253 515 L254 516 L254 517 L256 519 L256 520 L258 522 L258 523 L259 524 L259 525 L261 527 L261 528 L263 530 L263 531 L265 533 L265 534 L266 534 L267 535 L267 536 L268 537 L268 538 L271 541 L271 542 L272 542 L273 543 L273 544 L287 558 L288 558 L290 560 L290 561 L291 562 L292 562 L296 566 L297 566 L300 569 L301 569 L303 571 L304 571 L305 572 L305 573 L306 573 L308 575 L309 575 L312 578 L313 578 L314 579 L315 579 L317 581 L318 581 L319 582 L320 582 L321 583 L322 583 L324 585 L325 585 L327 587 L329 587 L330 588 L331 588 L332 589 L333 589 L334 590 L335 590 L337 592 L339 592 L340 593 L341 593 L342 594 L343 594 L344 595 L346 595 L347 596 L348 596 L350 598 L352 598 L353 599 L354 599 L355 600 L358 600 L359 601 L361 601 L362 602 L363 602 L364 603 L367 603 L369 605 L372 605 L373 606 L375 606 L376 607 L379 607 L380 608 L382 608 L383 609 L385 609 L386 610 L388 610 L389 611 L395 611 L396 612 L399 612 L400 613 L403 613 L404 614 L409 614 L410 615 L412 615 L413 616 L418 616 L419 617 L426 617 L427 618 L432 618 L433 619 L444 619 L445 620 L456 620 L457 621 L474 621 L475 622 L475 624 L474 625 L437 625 L436 624 L419 624 L418 623 L411 623 L410 622 L402 622 L401 621 L395 621 L394 620 L389 620 L388 619 L382 619 L381 618 L379 618 L378 617 L371 617 L370 616 L369 616 L368 615 L364 615 L363 614 L361 614 L360 613 L356 613 L355 612 L353 612 L352 611 L349 611 L348 610 L346 610 L345 609 L342 609 L341 608 L339 608 L338 607 L336 607 L335 606 L332 606 L331 605 L329 605 L328 604 L326 604 L325 603 L323 603 L322 602 L321 602 L320 601 L319 601 L318 600 L316 600 L315 599 L312 599 L310 597 L307 597 L306 596 L305 596 L304 595 L302 595 L301 594 L300 594 L299 593 L298 593 L297 592 L295 592 L294 591 L293 591 L292 590 L290 590 L289 589 L287 589 L286 588 L285 588 L284 587 L283 587 L282 586 L281 586 L280 585 L279 585 L278 584 L277 584 L276 583 L273 583 L271 581 L270 581 L269 580 L267 580 L266 579 L264 579 L263 578 L262 578 L261 577 L260 577 L258 575 L256 575 L255 574 L254 574 L253 573 L251 573 L249 571 L248 571 L247 570 L246 570 L245 569 L244 569 L243 568 L242 568 L236 562 L236 561 L234 559 L234 558 L232 556 L232 554 L231 554 L230 553 L230 552 L229 551 L229 550 L227 548 L227 547 L225 545 L225 544 L224 543 L224 542 L222 540 L222 539 L221 538 L221 537 L219 535 L219 534 L217 532 L217 531 L216 530 L216 529 L215 528 L215 527 L213 525 L213 524 L212 523 L212 522 L211 521 L211 520 L209 518 L209 516 L208 515 L208 514 L206 512 L206 511 L205 510 L205 509 L204 508 L204 507 L203 506 L203 505 L202 504 L202 503 L201 502 L201 500 L200 499 L200 498 L199 497 L199 496 L198 495 L198 494 L197 493 L197 492 L196 491 L196 490 L194 488 L194 487 L193 486 L193 485 L192 484 L192 482 L191 481 L191 480 L189 478 L189 476 L188 475 L188 473 L187 472 L187 471 L185 469 L185 467 L184 466 L184 465 L183 464 L183 462 L181 460 L181 457 L179 455 L179 453 L178 452 L178 450 L176 448 L176 446 L174 444 L174 441 L173 440 L173 439 L171 437 L171 434 L170 433 L170 431 L169 430 L169 429 L168 428 L168 425 L167 424 L167 423 L166 422 L166 420 L165 419 L165 418 L164 417 L164 416 L163 415 L163 413 L162 412 L162 410 L161 409 L161 407 L160 406 L160 405 L159 404 L159 402 L158 401 L158 399 L157 398 L157 397 L156 396 L156 393 L155 392 L155 391 L154 390 L154 387 L153 386 L153 384 L151 382 L151 379 L150 378 L150 376 L149 375 L149 372 L148 371 L148 369 L147 368 L147 366 L146 365 L146 364 L145 363 L145 359 L143 357 L143 353 L142 352 L142 350 L141 349 L141 346 L140 345 L140 341 L139 340 L139 337 L138 336 L138 333 L137 332 L137 329 L136 328 L136 326 L135 325 L135 321 L134 320 L134 316 L133 315 L133 312 L132 311 L132 305 L131 304 L131 302 L130 301 L130 295 L129 294 L129 286 L128 285 L128 279 L127 278 L127 267 L126 266 L126 250 L125 249 L125 240 L124 239 L124 237 L125 236 L125 201 L126 200 L126 185 L127 184 L127 174 L128 173 L128 168 L129 167 L129 160 L130 159 L130 153 L131 152 L131 147 L132 146 L132 142 L133 141 L133 139 L134 138 L134 134 L135 133 L135 129 L136 128 L136 125 L137 124 L137 121 L138 120 L138 118 L139 117 L139 115 L140 114 L140 112 L141 111 L141 109 L142 108 L142 105 L143 104 L143 102 L144 101 L144 100 L145 99 L145 97 L146 96 L146 95 L147 94 L147 91 L148 90 L148 89 L149 88 L149 87 L150 86 L150 84 L151 83 L151 82 L152 81 L152 79 L153 78 L153 77 L154 76 L154 75 L155 74 L155 73 L156 72 L156 71 L158 69 L158 68 L159 67 L159 66 L161 64 L161 62 L163 60 L163 59 L165 57 L165 56 L167 54 L167 53 L169 51 L169 50 L171 48 L171 47 L173 45 L173 44 L174 43 L174 42 L175 41 L176 41 L176 40 L178 38 L179 38 L179 37 L182 34 L182 33 L188 27 L188 26 L195 19 L195 18 L196 17 L197 17 L197 16 L198 15 L199 15 L199 13 L200 12 L201 12 L202 11 L203 11 z" fill="#ffffff" stroke="#000000" stroke-width="2.4" stroke-linejoin="round" stroke-linecap="round" fill-rule="evenodd" />
</svg>