<svg xmlns="http://www.w3.org/2000/svg" width="776" height="726" viewBox="0 0 776 726">
<g fill="none"></g>
<path d="M 574.00,681.50 L 548.00,680.50 L 540.50,678.00 L 556.00,671.50 L 566.00,664.50 L 578.50,651.00 L 584.50,638.00 L 585.50,624.00 L 583.50,615.00 L 564.50,583.00 L 557.50,554.00 L 557.50,539.00 L 562.50,514.00 L 572.50,492.00 L 582.50,477.00 L 615.00,445.50 L 629.00,436.50 L 663.00,421.50 L 697.00,414.50 L 729.00,414.50 L 758.00,420.50 L 721.00,440.50 L 709.50,451.00 L 704.50,460.00 L 703.50,472.00 L 706.50,483.00 L 724.50,512.00 L 730.50,535.00 L 730.50,558.00 L 727.50,572.00 L 723.50,584.00 L 708.50,611.00 L 681.00,640.50 L 655.00,658.50 L 617.00,674.50 L 574.00,681.50 Z M 651.50,574.00 L 661.00,570.50 L 671.50,560.00 L 676.50,548.00 L 676.50,538.00 L 672.50,527.00 L 664.00,517.50 L 651.00,511.50 L 637.00,511.50 L 626.00,516.50 L 615.50,528.00 L 612.50,536.00 L 612.50,549.00 L 617.50,561.00 L 628.00,570.50 L 638.00,574.50 L 651.50,574.00 Z" fill="white" stroke="none" />
<path d="M 0.00,2.50 L 1.00,-0.50 L 0.00,2.50 Z M 407.00,690.50 L 375.00,690.50 L 327.00,682.50 L 289.00,666.50 L 262.00,647.50 L 237.50,621.00 L 216.00,586.50 L 180.00,570.50 L 157.00,555.50 L 134.00,536.50 L 103.50,504.00 L 80.50,472.00 L 65.50,446.00 L 42.50,390.00 L 30.50,336.00 L 27.50,282.00 L 31.50,240.00 L 44.50,190.00 L 69.50,137.00 L 103.50,85.00 L 135.50,46.00 L 183.00,-0.50 L 190.50,0.00 L 148.50,40.00 L 106.50,90.00 L 74.50,139.00 L 56.50,175.00 L 42.50,215.00 L 34.50,258.00 L 33.50,311.00 L 36.50,339.00 L 47.50,387.00 L 62.50,427.00 L 83.50,466.00 L 105.50,497.00 L 133.00,527.50 L 163.00,552.50 L 192.00,570.50 L 220.00,582.50 L 242.50,619.00 L 266.00,643.50 L 279.00,653.50 L 303.00,667.50 L 334.00,678.50 L 371.00,684.50 L 413.00,684.50 L 460.00,677.50 L 566.00,651.50 L 571.00,649.50 L 575.50,643.00 L 578.50,631.00 L 435.00,658.50 L 377.00,660.50 L 338.00,653.50 L 311.00,642.50 L 285.00,624.50 L 267.00,603.50 L 314.00,623.50 L 348.00,634.50 L 388.00,642.50 L 418.00,645.50 L 456.00,645.50 L 491.00,641.50 L 575.00,626.50 L 578.50,625.00 L 578.50,621.00 L 568.00,601.50 L 544.00,603.50 L 461.00,601.50 L 419.00,595.50 L 380.00,584.50 L 343.00,567.50 L 320.00,552.50 L 297.50,532.00 L 278.50,505.00 L 237.50,414.00 L 208.50,336.00 L 188.50,261.00 L 181.50,213.00 L 180.50,147.00 L 190.50,90.00 L 211.50,38.00 L 236.00,-0.50 L 242.50,0.00 L 226.50,22.00 L 211.50,49.00 L 201.50,73.00 L 190.50,111.00 L 185.50,149.00 L 185.50,197.00 L 188.50,230.00 L 196.50,274.00 L 212.50,331.00 L 250.50,431.00 L 287.50,509.00 L 302.50,529.00 L 320.00,545.50 L 342.00,560.50 L 365.00,572.50 L 398.00,584.50 L 412.50,587.00 L 373.00,570.50 L 348.00,554.50 L 326.50,534.00 L 316.50,520.00 L 305.50,500.00 L 283.50,445.00 L 244.50,359.00 L 217.50,281.00 L 207.50,239.00 L 203.50,209.00 L 202.50,150.00 L 204.50,129.00 L 209.50,100.00 L 219.50,64.00 L 238.50,22.00 L 253.00,-0.50 L 258.50,1.00 L 244.50,22.00 L 228.50,55.00 L 217.50,88.00 L 211.50,115.00 L 207.50,150.00 L 207.50,192.00 L 212.50,236.00 L 228.50,300.00 L 257.50,376.00 L 289.50,445.00 L 313.50,504.00 L 326.50,525.00 L 346.00,545.50 L 367.00,560.50 L 390.00,572.50 L 437.00,588.50 L 494.00,597.50 L 565.50,597.00 L 557.00,581.50 L 509.00,580.50 L 461.00,573.50 L 422.00,562.50 L 382.00,543.50 L 363.00,529.50 L 342.50,505.00 L 332.50,480.00 L 328.50,453.00 L 332.50,390.00 L 340.50,349.00 L 352.00,307.50 L 352.50,347.00 L 338.50,431.00 L 337.50,471.00 L 341.50,490.00 L 353.50,512.00 L 365.00,524.50 L 385.00,539.50 L 402.00,548.50 L 434.00,560.50 L 460.00,567.50 L 501.00,574.50 L 555.50,576.00 L 551.00,555.50 L 506.00,553.50 L 466.00,547.50 L 427.00,536.50 L 399.00,523.50 L 386.00,514.50 L 369.50,496.00 L 362.50,481.00 L 359.50,464.00 L 361.50,434.00 L 373.50,377.00 L 377.50,342.00 L 376.50,306.00 L 368.50,262.00 L 407.50,187.00 L 448.50,123.00 L 495.50,62.00 L 551.00,-0.50 L 559.50,0.00 L 496.50,70.00 L 444.50,139.00 L 407.50,198.00 L 373.50,264.00 L 382.50,315.00 L 380.50,367.00 L 365.50,448.00 L 366.50,474.00 L 373.50,492.00 L 385.00,506.50 L 400.00,517.50 L 436.00,533.50 L 487.00,545.50 L 551.00,550.50 L 553.50,522.00 L 565.50,491.00 L 586.50,462.00 L 621.00,433.50 L 648.00,419.50 L 675.00,411.50 L 699.00,407.50 L 730.00,407.50 L 756.00,412.50 L 766.50,418.00 L 766.50,424.00 L 763.00,427.50 L 729.00,443.50 L 711.50,461.00 L 710.50,473.00 L 712.50,479.00 L 727.50,502.00 L 735.50,523.00 L 737.50,537.00 L 736.50,563.00 L 729.50,587.00 L 716.50,611.00 L 701.50,630.00 L 677.00,652.50 L 662.00,662.50 L 635.00,675.50 L 610.00,683.50 L 587.00,687.50 L 548.00,687.50 L 532.50,682.00 L 531.50,677.00 L 534.00,673.50 L 551.00,666.50 L 562.00,659.50 L 559.00,658.50 L 472.00,680.50 L 407.00,690.50 Z M 272.00,231.50 L 265.50,172.00 L 265.50,120.00 L 272.50,70.00 L 280.50,39.00 L 291.50,9.00 L 296.00,-0.50 L 301.50,0.00 L 284.50,43.00 L 274.50,88.00 L 270.50,152.00 L 273.50,203.00 L 275.50,202.00 L 280.50,185.00 L 298.50,144.00 L 293.50,108.00 L 293.50,82.00 L 299.50,42.00 L 312.50,5.00 L 316.00,-0.50 L 320.00,-0.50 L 305.50,39.00 L 299.50,72.00 L 298.50,102.00 L 304.50,143.00 L 285.50,186.00 L 272.00,231.50 Z M 322.00,100.50 L 321.50,88.00 L 327.50,53.00 L 333.50,33.00 L 346.50,4.00 L 350.00,-0.50 L 355.50,0.00 L 337.50,38.00 L 331.50,60.00 L 331.00,70.50 L 363.50,19.00 L 379.00,-0.50 L 384.00,-0.50 L 348.50,51.00 L 322.00,100.50 Z M 358.00,229.50 L 328.50,138.00 L 355.50,87.00 L 380.50,48.00 L 416.50,3.00 L 420.00,-0.50 L 427.50,1.00 L 410.50,19.00 L 382.50,55.00 L 355.50,98.00 L 334.50,138.00 L 346.50,178.00 L 360.00,212.50 L 395.50,148.00 L 441.50,80.00 L 499.50,9.00 L 509.00,-0.50 L 516.00,-0.50 L 475.50,46.00 L 423.50,115.00 L 393.50,162.00 L 358.00,229.50 Z M 775.00,15.50 L 762.00,-0.50 L 772.00,-0.50 L 775.50,3.00 L 775.00,15.50 Z M 477.00,623.50 L 418.00,622.50 L 368.00,614.50 L 310.00,596.50 L 242.00,566.50 L 213.50,523.00 L 184.50,464.00 L 154.50,387.00 L 135.50,321.00 L 126.50,255.00 L 126.50,196.00 L 133.50,142.00 L 150.50,86.00 L 161.50,64.00 L 175.50,43.00 L 207.00,8.50 L 180.50,57.00 L 166.50,96.00 L 156.50,149.00 L 155.50,210.00 L 162.50,269.00 L 178.50,334.00 L 205.50,410.00 L 235.50,482.00 L 255.50,522.00 L 271.50,544.00 L 291.00,563.50 L 322.00,585.50 L 358.00,602.50 L 399.00,614.50 L 436.00,620.50 L 477.00,623.50 Z M 267.00,19.50 L 267.00,17.50 L 267.00,19.50 Z M 266.00,21.50 L 266.00,19.50 L 266.00,21.50 Z M 265.00,23.50 L 265.00,21.50 L 265.00,23.50 Z M 276.00,352.50 L 241.50,257.00 L 234.50,223.00 L 230.50,172.00 L 231.50,136.00 L 238.50,89.00 L 248.50,55.00 L 264.00,23.50 L 252.50,61.00 L 244.50,100.00 L 241.50,130.00 L 241.50,166.00 L 251.50,243.00 L 271.50,324.00 L 276.00,352.50 Z M 321.00,102.50 L 321.00,100.50 L 321.00,102.50 Z M 190.00,538.50 L 166.00,521.50 L 146.50,503.00 L 123.50,476.00 L 107.50,453.00 L 91.50,424.00 L 79.50,396.00 L 70.50,368.00 L 62.50,330.00 L 59.50,301.00 L 59.50,270.00 L 62.50,242.00 L 69.50,210.00 L 86.50,164.00 L 103.50,131.00 L 123.00,101.50 L 110.50,145.00 L 102.50,195.00 L 100.50,262.00 L 104.50,305.00 L 115.50,357.00 L 138.50,427.00 L 160.50,480.00 L 190.00,538.50 Z M 308.00,406.50 L 300.50,336.00 L 285.50,276.00 L 298.50,218.00 L 314.00,173.50 L 343.50,263.00 L 326.50,308.00 L 316.50,345.00 L 308.00,406.50 Z M 250.50,264.00 L 250.00,261.50 L 250.50,264.00 Z M 277.00,354.50 L 277.00,352.50 L 277.00,354.50 Z M 338.50,399.00 L 338.00,396.50 L 338.50,399.00 Z M 586.50,681.00 L 623.00,673.50 L 660.00,656.50 L 691.00,632.50 L 716.50,600.00 L 729.50,568.00 L 731.50,536.00 L 725.50,512.00 L 706.50,481.00 L 704.50,463.00 L 709.50,452.00 L 718.00,443.50 L 730.00,435.50 L 759.00,422.50 L 759.00,420.50 L 736.00,414.50 L 698.00,413.50 L 679.00,416.50 L 652.00,424.50 L 631.00,434.50 L 611.00,447.50 L 586.50,471.00 L 573.50,489.00 L 560.50,518.00 L 556.50,553.00 L 564.50,585.00 L 581.50,612.00 L 584.50,634.00 L 577.50,651.00 L 565.00,664.50 L 538.50,679.00 L 549.00,681.50 L 586.50,681.00 Z M 651.00,573.50 L 637.00,573.50 L 626.00,568.50 L 618.50,561.00 L 613.50,550.00 L 613.50,536.00 L 616.50,528.00 L 627.00,516.50 L 637.00,512.50 L 651.00,512.50 L 661.00,516.50 L 669.50,524.00 L 675.50,537.00 L 674.50,552.00 L 668.50,563.00 L 661.00,569.50 L 651.00,573.50 Z" fill="black" stroke="none" />
</svg>