<?xml version='1.0' encoding='utf-8'?>
<svg xmlns="http://www.w3.org/2000/svg" viewBox="0.0 0.0 1280.0 1206.0" width="1280" height="1206" preserveAspectRatio="xMidYMid meet"><g fill="black" stroke="none"><rect x="6.095" y="345.476" width="6.095" height="3.048" /><rect x="54.857" y="345.476" width="6.095" height="3.048" /><rect x="143.238" y="345.476" width="6.095" height="3.048" /><rect x="192.000" y="345.476" width="6.095" height="3.048" /><rect x="271.238" y="345.476" width="6.095" height="3.048" /><rect x="320.000" y="345.476" width="6.095" height="3.048" /><rect x="390.095" y="345.476" width="6.095" height="3.048" /><rect x="490.667" y="345.476" width="6.095" height="3.048" /><rect x="554.667" y="345.476" width="6.095" height="3.048" /><rect x="9.143" y="348.524" width="6.095" height="3.048" /><rect x="54.857" y="348.524" width="6.095" height="3.048" /><rect x="143.238" y="348.524" width="6.095" height="3.048" /><rect x="192.000" y="348.524" width="6.095" height="3.048" /><rect x="274.286" y="348.524" width="3.048" height="3.048" /><rect x="323.048" y="348.524" width="3.048" height="3.048" /><rect x="393.143" y="348.524" width="6.095" height="3.048" /><rect x="515.048" y="348.524" width="6.095" height="3.048" /><rect x="554.667" y="348.524" width="3.048" height="3.048" /><rect x="9.143" y="351.571" width="6.095" height="3.048" /><rect x="57.905" y="351.571" width="6.095" height="3.048" /><rect x="146.286" y="351.571" width="6.095" height="3.048" /><rect x="195.048" y="351.571" width="3.048" height="3.048" /><rect x="323.048" y="351.571" width="6.095" height="3.048" /><rect x="393.143" y="351.571" width="6.095" height="3.048" /><rect x="515.048" y="351.571" width="6.095" height="3.048" /><rect x="551.619" y="351.571" width="6.095" height="3.048" /><rect x="12.190" y="354.619" width="3.048" height="3.048" /><rect x="57.905" y="354.619" width="6.095" height="3.048" /><rect x="146.286" y="354.619" width="6.095" height="3.048" /><rect x="195.048" y="354.619" width="6.095" height="3.048" /><rect x="277.333" y="354.619" width="3.048" height="3.048" /><rect x="323.048" y="354.619" width="6.095" height="3.048" /><rect x="396.190" y="354.619" width="3.048" height="3.048" /><rect x="515.048" y="354.619" width="6.095" height="3.048" /><rect x="551.619" y="354.619" width="6.095" height="3.048" /><rect x="12.190" y="357.667" width="6.095" height="3.048" /><rect x="60.952" y="357.667" width="3.048" height="3.048" /><rect x="146.286" y="357.667" width="6.095" height="3.048" /><rect x="195.048" y="357.667" width="6.095" height="3.048" /><rect x="277.333" y="357.667" width="6.095" height="3.048" /><rect x="326.095" y="357.667" width="3.048" height="3.048" /><rect x="515.048" y="357.667" width="6.095" height="3.048" /><rect x="551.619" y="357.667" width="6.095" height="3.048" /><rect x="12.190" y="360.714" width="6.095" height="3.048" /><rect x="149.333" y="360.714" width="3.048" height="3.048" /><rect x="198.095" y="360.714" width="3.048" height="3.048" /><rect x="277.333" y="360.714" width="6.095" height="3.048" /><rect x="329.143" y="360.714" width="3.048" height="3.048" /><rect x="399.238" y="360.714" width="3.048" height="3.048" /><rect x="1127.619" y="360.714" width="12.190" height="3.048" /><rect x="1197.714" y="360.714" width="12.190" height="3.048" /><rect x="15.238" y="363.762" width="3.048" height="3.048" /><rect x="64.000" y="363.762" width="3.048" height="3.048" /><rect x="152.381" y="363.762" width="3.048" height="3.048" /><rect x="280.381" y="363.762" width="6.095" height="3.048" /><rect x="329.143" y="363.762" width="6.095" height="3.048" /><rect x="399.238" y="363.762" width="6.095" height="3.048" /><rect x="487.619" y="363.762" width="6.095" height="3.048" /><rect x="1109.333" y="363.762" width="6.095" height="3.048" /><rect x="1127.619" y="363.762" width="12.190" height="3.048" /><rect x="1197.714" y="363.762" width="12.190" height="3.048" /><rect x="1216.000" y="363.762" width="12.190" height="3.048" /><rect x="18.286" y="366.810" width="3.048" height="3.048" /><rect x="64.000" y="366.810" width="6.095" height="3.048" /><rect x="152.381" y="366.810" width="6.095" height="3.048" /><rect x="201.143" y="366.810" width="3.048" height="3.048" /><rect x="280.381" y="366.810" width="6.095" height="3.048" /><rect x="329.143" y="366.810" width="6.095" height="3.048" /><rect x="399.238" y="366.810" width="6.095" height="3.048" /><rect x="487.619" y="366.810" width="6.095" height="3.048" /><rect x="512.000" y="366.810" width="6.095" height="3.048" /><rect x="548.571" y="366.810" width="6.095" height="3.048" /><rect x="1097.143" y="366.810" width="18.286" height="3.048" /><rect x="1216.000" y="366.810" width="21.333" height="3.048" /><rect x="18.286" y="369.857" width="6.095" height="3.048" /><rect x="64.000" y="369.857" width="6.095" height="3.048" /><rect x="152.381" y="369.857" width="6.095" height="3.048" /><rect x="201.143" y="369.857" width="6.095" height="3.048" /><rect x="280.381" y="369.857" width="6.095" height="3.048" /><rect x="332.190" y="369.857" width="3.048" height="3.048" /><rect x="402.286" y="369.857" width="6.095" height="3.048" /><rect x="487.619" y="369.857" width="6.095" height="3.048" /><rect x="512.000" y="369.857" width="6.095" height="3.048" /><rect x="548.571" y="369.857" width="6.095" height="3.048" /><rect x="1088.000" y="369.857" width="21.333" height="3.048" /><rect x="1228.190" y="369.857" width="15.238" height="3.048" /><rect x="18.286" y="372.905" width="6.095" height="3.048" /><rect x="67.048" y="372.905" width="6.095" height="3.048" /><rect x="152.381" y="372.905" width="6.095" height="3.048" /><rect x="201.143" y="372.905" width="6.095" height="3.048" /><rect x="283.429" y="372.905" width="6.095" height="3.048" /><rect x="332.190" y="372.905" width="6.095" height="3.048" /><rect x="402.286" y="372.905" width="6.095" height="3.048" /><rect x="487.619" y="372.905" width="6.095" height="3.048" /><rect x="548.571" y="372.905" width="6.095" height="3.048" /><rect x="1075.810" y="372.905" width="6.095" height="3.048" /><rect x="1088.000" y="372.905" width="6.095" height="3.048" /><rect x="1231.238" y="372.905" width="15.238" height="3.048" /><rect x="21.333" y="375.952" width="6.095" height="3.048" /><rect x="67.048" y="375.952" width="6.095" height="3.048" /><rect x="155.429" y="375.952" width="3.048" height="3.048" /><rect x="204.190" y="375.952" width="6.095" height="3.048" /><rect x="283.429" y="375.952" width="6.095" height="3.048" /><rect x="332.190" y="375.952" width="6.095" height="3.048" /><rect x="405.333" y="375.952" width="3.048" height="3.048" /><rect x="487.619" y="375.952" width="6.095" height="3.048" /><rect x="548.571" y="375.952" width="6.095" height="3.048" /><rect x="1066.667" y="375.952" width="15.238" height="3.048" /><rect x="1231.238" y="375.952" width="12.190" height="3.048" /><rect x="21.333" y="379.000" width="6.095" height="3.048" /><rect x="70.095" y="379.000" width="6.095" height="3.048" /><rect x="155.429" y="379.000" width="6.095" height="3.048" /><rect x="204.190" y="379.000" width="6.095" height="3.048" /><rect x="286.476" y="379.000" width="3.048" height="3.048" /><rect x="335.238" y="379.000" width="6.095" height="3.048" /><rect x="487.619" y="379.000" width="6.095" height="3.048" /><rect x="548.571" y="379.000" width="3.048" height="3.048" /><rect x="1060.571" y="379.000" width="15.238" height="3.048" /><rect x="1225.143" y="379.000" width="15.238" height="3.048" /><rect x="24.381" y="382.048" width="3.048" height="3.048" /><rect x="70.095" y="382.048" width="6.095" height="3.048" /><rect x="155.429" y="382.048" width="6.095" height="3.048" /><rect x="207.238" y="382.048" width="3.048" height="3.048" /><rect x="335.238" y="382.048" width="6.095" height="3.048" /><rect x="408.381" y="382.048" width="3.048" height="3.048" /><rect x="487.619" y="382.048" width="6.095" height="3.048" /><rect x="545.524" y="382.048" width="6.095" height="3.048" /><rect x="1051.429" y="382.048" width="15.238" height="3.048" /><rect x="1216.000" y="382.048" width="15.238" height="3.048" /><rect x="24.381" y="385.095" width="6.095" height="3.048" /><rect x="73.143" y="385.095" width="6.095" height="3.048" /><rect x="158.476" y="385.095" width="6.095" height="3.048" /><rect x="207.238" y="385.095" width="6.095" height="3.048" /><rect x="289.524" y="385.095" width="3.048" height="3.048" /><rect x="338.286" y="385.095" width="3.048" height="3.048" /><rect x="408.381" y="385.095" width="6.095" height="3.048" /><rect x="487.619" y="385.095" width="6.095" height="3.048" /><rect x="508.952" y="385.095" width="6.095" height="3.048" /><rect x="545.524" y="385.095" width="6.095" height="3.048" /><rect x="1045.333" y="385.095" width="12.190" height="3.048" /><rect x="1209.905" y="385.095" width="12.190" height="3.048" /><rect x="24.381" y="388.143" width="6.095" height="3.048" /><rect x="73.143" y="388.143" width="6.095" height="3.048" /><rect x="158.476" y="388.143" width="6.095" height="3.048" /><rect x="207.238" y="388.143" width="6.095" height="3.048" /><rect x="289.524" y="388.143" width="6.095" height="3.048" /><rect x="338.286" y="388.143" width="6.095" height="3.048" /><rect x="408.381" y="388.143" width="6.095" height="3.048" /><rect x="487.619" y="388.143" width="6.095" height="3.048" /><rect x="508.952" y="388.143" width="6.095" height="3.048" /><rect x="545.524" y="388.143" width="6.095" height="3.048" /><rect x="1039.238" y="388.143" width="12.190" height="3.048" /><rect x="1206.857" y="388.143" width="9.143" height="3.048" /><rect x="27.429" y="391.190" width="6.095" height="3.048" /><rect x="76.190" y="391.190" width="6.095" height="3.048" /><rect x="161.524" y="391.190" width="3.048" height="3.048" /><rect x="210.286" y="391.190" width="3.048" height="3.048" /><rect x="289.524" y="391.190" width="6.095" height="3.048" /><rect x="338.286" y="391.190" width="6.095" height="3.048" /><rect x="411.429" y="391.190" width="6.095" height="3.048" /><rect x="487.619" y="391.190" width="6.095" height="3.048" /><rect x="508.952" y="391.190" width="6.095" height="3.048" /><rect x="545.524" y="391.190" width="6.095" height="3.048" /><rect x="1033.143" y="391.190" width="12.190" height="3.048" /><rect x="1200.762" y="391.190" width="9.143" height="3.048" /><rect x="27.429" y="394.238" width="6.095" height="3.048" /><rect x="76.190" y="394.238" width="6.095" height="3.048" /><rect x="161.524" y="394.238" width="6.095" height="3.048" /><rect x="210.286" y="394.238" width="6.095" height="3.048" /><rect x="292.571" y="394.238" width="3.048" height="3.048" /><rect x="341.333" y="394.238" width="3.048" height="3.048" /><rect x="411.429" y="394.238" width="6.095" height="3.048" /><rect x="487.619" y="394.238" width="6.095" height="3.048" /><rect x="508.952" y="394.238" width="6.095" height="3.048" /><rect x="545.524" y="394.238" width="6.095" height="3.048" /><rect x="1027.048" y="394.238" width="12.190" height="3.048" /><rect x="1194.667" y="394.238" width="12.190" height="3.048" /><rect x="30.476" y="397.286" width="6.095" height="3.048" /><rect x="79.238" y="397.286" width="6.095" height="3.048" /><rect x="161.524" y="397.286" width="6.095" height="3.048" /><rect x="210.286" y="397.286" width="6.095" height="3.048" /><rect x="341.333" y="397.286" width="6.095" height="3.048" /><rect x="414.476" y="397.286" width="6.095" height="3.048" /><rect x="487.619" y="397.286" width="6.095" height="3.048" /><rect x="508.952" y="397.286" width="6.095" height="3.048" /><rect x="1020.952" y="397.286" width="12.190" height="3.048" /><rect x="1188.571" y="397.286" width="12.190" height="3.048" /><rect x="30.476" y="400.333" width="6.095" height="3.048" /><rect x="79.238" y="400.333" width="6.095" height="3.048" /><rect x="164.571" y="400.333" width="6.095" height="3.048" /><rect x="210.286" y="400.333" width="6.095" height="3.048" /><rect x="295.619" y="400.333" width="3.048" height="3.048" /><rect x="341.333" y="400.333" width="6.095" height="3.048" /><rect x="414.476" y="400.333" width="6.095" height="3.048" /><rect x="487.619" y="400.333" width="3.048" height="3.048" /><rect x="508.952" y="400.333" width="3.048" height="3.048" /><rect x="1014.857" y="400.333" width="12.190" height="3.048" /><rect x="1185.524" y="400.333" width="9.143" height="3.048" /><rect x="33.524" y="403.381" width="6.095" height="3.048" /><rect x="82.286" y="403.381" width="3.048" height="3.048" /><rect x="164.571" y="403.381" width="6.095" height="3.048" /><rect x="213.333" y="403.381" width="3.048" height="3.048" /><rect x="295.619" y="403.381" width="6.095" height="3.048" /><rect x="344.381" y="403.381" width="3.048" height="3.048" /><rect x="417.524" y="403.381" width="6.095" height="3.048" /><rect x="484.571" y="403.381" width="6.095" height="3.048" /><rect x="505.905" y="403.381" width="6.095" height="3.048" /><rect x="1011.810" y="403.381" width="9.143" height="3.048" /><rect x="1182.476" y="403.381" width="9.143" height="3.048" /><rect x="33.524" y="406.429" width="6.095" height="3.048" /><rect x="85.333" y="406.429" width="3.048" height="3.048" /><rect x="167.619" y="406.429" width="6.095" height="3.048" /><rect x="216.381" y="406.429" width="3.048" height="3.048" /><rect x="295.619" y="406.429" width="6.095" height="3.048" /><rect x="347.429" y="406.429" width="3.048" height="3.048" /><rect x="417.524" y="406.429" width="6.095" height="3.048" /><rect x="484.571" y="406.429" width="6.095" height="3.048" /><rect x="505.905" y="406.429" width="6.095" height="3.048" /><rect x="542.476" y="406.429" width="6.095" height="3.048" /><rect x="1005.714" y="406.429" width="9.143" height="3.048" /><rect x="1176.381" y="406.429" width="9.143" height="3.048" /><rect x="36.571" y="409.476" width="6.095" height="3.048" /><rect x="88.381" y="409.476" width="3.048" height="3.048" /><rect x="167.619" y="409.476" width="6.095" height="3.048" /><rect x="216.381" y="409.476" width="6.095" height="3.048" /><rect x="298.667" y="409.476" width="3.048" height="3.048" /><rect x="347.429" y="409.476" width="6.095" height="3.048" /><rect x="420.571" y="409.476" width="3.048" height="3.048" /><rect x="484.571" y="409.476" width="6.095" height="3.048" /><rect x="505.905" y="409.476" width="6.095" height="3.048" /><rect x="542.476" y="409.476" width="6.095" height="3.048" /><rect x="1002.667" y="409.476" width="9.143" height="3.048" /><rect x="1173.333" y="409.476" width="9.143" height="3.048" /><rect x="36.571" y="412.524" width="6.095" height="3.048" /><rect x="88.381" y="412.524" width="6.095" height="3.048" /><rect x="167.619" y="412.524" width="6.095" height="3.048" /><rect x="216.381" y="412.524" width="6.095" height="3.048" /><rect x="298.667" y="412.524" width="6.095" height="3.048" /><rect x="347.429" y="412.524" width="6.095" height="3.048" /><rect x="420.571" y="412.524" width="6.095" height="3.048" /><rect x="484.571" y="412.524" width="6.095" height="3.048" /><rect x="505.905" y="412.524" width="6.095" height="3.048" /><rect x="542.476" y="412.524" width="6.095" height="3.048" /><rect x="996.571" y="412.524" width="9.143" height="3.048" /><rect x="1170.286" y="412.524" width="6.095" height="3.048" /><rect x="39.619" y="415.571" width="3.048" height="3.048" /><rect x="88.381" y="415.571" width="6.095" height="3.048" /><rect x="170.667" y="415.571" width="6.095" height="3.048" /><rect x="219.429" y="415.571" width="6.095" height="3.048" /><rect x="298.667" y="415.571" width="9.143" height="3.048" /><rect x="350.476" y="415.571" width="3.048" height="3.048" /><rect x="420.571" y="415.571" width="9.143" height="3.048" /><rect x="484.571" y="415.571" width="6.095" height="3.048" /><rect x="505.905" y="415.571" width="6.095" height="3.048" /><rect x="542.476" y="415.571" width="6.095" height="3.048" /><rect x="993.524" y="415.571" width="9.143" height="3.048" /><rect x="1167.238" y="415.571" width="6.095" height="3.048" /><rect x="42.667" y="418.619" width="3.048" height="3.048" /><rect x="91.429" y="418.619" width="3.048" height="3.048" /><rect x="170.667" y="418.619" width="6.095" height="3.048" /><rect x="219.429" y="418.619" width="6.095" height="3.048" /><rect x="301.714" y="418.619" width="6.095" height="3.048" /><rect x="353.524" y="418.619" width="3.048" height="3.048" /><rect x="423.619" y="418.619" width="6.095" height="3.048" /><rect x="484.571" y="418.619" width="6.095" height="3.048" /><rect x="505.905" y="418.619" width="6.095" height="3.048" /><rect x="542.476" y="418.619" width="6.095" height="3.048" /><rect x="987.429" y="418.619" width="9.143" height="3.048" /><rect x="1164.190" y="418.619" width="6.095" height="3.048" /><rect x="42.667" y="421.667" width="6.095" height="3.048" /><rect x="94.476" y="421.667" width="3.048" height="3.048" /><rect x="173.714" y="421.667" width="3.048" height="3.048" /><rect x="222.476" y="421.667" width="6.095" height="3.048" /><rect x="301.714" y="421.667" width="6.095" height="3.048" /><rect x="353.524" y="421.667" width="6.095" height="3.048" /><rect x="423.619" y="421.667" width="6.095" height="3.048" /><rect x="487.619" y="421.667" width="3.048" height="3.048" /><rect x="505.905" y="421.667" width="6.095" height="3.048" /><rect x="542.476" y="421.667" width="6.095" height="3.048" /><rect x="984.381" y="421.667" width="9.143" height="3.048" /><rect x="1161.143" y="421.667" width="6.095" height="3.048" /><rect x="42.667" y="424.714" width="6.095" height="3.048" /><rect x="97.524" y="424.714" width="3.048" height="3.048" /><rect x="173.714" y="424.714" width="6.095" height="3.048" /><rect x="222.476" y="424.714" width="6.095" height="3.048" /><rect x="304.762" y="424.714" width="6.095" height="3.048" /><rect x="353.524" y="424.714" width="6.095" height="3.048" /><rect x="426.667" y="424.714" width="6.095" height="3.048" /><rect x="487.619" y="424.714" width="6.095" height="3.048" /><rect x="505.905" y="424.714" width="6.095" height="3.048" /><rect x="542.476" y="424.714" width="6.095" height="3.048" /><rect x="981.333" y="424.714" width="9.143" height="3.048" /><rect x="1158.095" y="424.714" width="6.095" height="3.048" /><rect x="45.714" y="427.762" width="6.095" height="3.048" /><rect x="97.524" y="427.762" width="6.095" height="3.048" /><rect x="173.714" y="427.762" width="6.095" height="3.048" /><rect x="225.524" y="427.762" width="3.048" height="3.048" /><rect x="304.762" y="427.762" width="6.095" height="3.048" /><rect x="356.571" y="427.762" width="6.095" height="3.048" /><rect x="426.667" y="427.762" width="6.095" height="3.048" /><rect x="487.619" y="427.762" width="6.095" height="3.048" /><rect x="505.905" y="427.762" width="6.095" height="3.048" /><rect x="542.476" y="427.762" width="6.095" height="3.048" /><rect x="978.286" y="427.762" width="6.095" height="3.048" /><rect x="1158.095" y="427.762" width="6.095" height="3.048" /><rect x="48.762" y="430.810" width="6.095" height="3.048" /><rect x="97.524" y="430.810" width="6.095" height="3.048" /><rect x="176.762" y="430.810" width="6.095" height="3.048" /><rect x="225.524" y="430.810" width="6.095" height="3.048" /><rect x="307.810" y="430.810" width="6.095" height="3.048" /><rect x="356.571" y="430.810" width="6.095" height="3.048" /><rect x="429.714" y="430.810" width="6.095" height="3.048" /><rect x="487.619" y="430.810" width="6.095" height="3.048" /><rect x="505.905" y="430.810" width="6.095" height="3.048" /><rect x="542.476" y="430.810" width="6.095" height="3.048" /><rect x="975.238" y="430.810" width="6.095" height="3.048" /><rect x="1158.095" y="430.810" width="3.048" height="3.048" /><rect x="48.762" y="433.857" width="6.095" height="3.048" /><rect x="97.524" y="433.857" width="9.143" height="3.048" /><rect x="176.762" y="433.857" width="6.095" height="3.048" /><rect x="225.524" y="433.857" width="6.095" height="3.048" /><rect x="307.810" y="433.857" width="6.095" height="3.048" /><rect x="356.571" y="433.857" width="6.095" height="3.048" /><rect x="429.714" y="433.857" width="6.095" height="3.048" /><rect x="487.619" y="433.857" width="6.095" height="3.048" /><rect x="505.905" y="433.857" width="6.095" height="3.048" /><rect x="542.476" y="433.857" width="6.095" height="3.048" /><rect x="969.143" y="433.857" width="9.143" height="3.048" /><rect x="1155.048" y="433.857" width="3.048" height="3.048" /><rect x="51.810" y="436.905" width="6.095" height="3.048" /><rect x="100.571" y="436.905" width="6.095" height="3.048" /><rect x="179.810" y="436.905" width="3.048" height="3.048" /><rect x="228.571" y="436.905" width="6.095" height="3.048" /><rect x="310.857" y="436.905" width="3.048" height="3.048" /><rect x="359.619" y="436.905" width="3.048" height="3.048" /><rect x="432.762" y="436.905" width="3.048" height="3.048" /><rect x="487.619" y="436.905" width="6.095" height="3.048" /><rect x="505.905" y="436.905" width="6.095" height="3.048" /><rect x="542.476" y="436.905" width="6.095" height="3.048" /><rect x="966.095" y="436.905" width="9.143" height="3.048" /><rect x="51.810" y="439.952" width="9.143" height="3.048" /><rect x="103.619" y="439.952" width="6.095" height="3.048" /><rect x="228.571" y="439.952" width="6.095" height="3.048" /><rect x="310.857" y="439.952" width="6.095" height="3.048" /><rect x="487.619" y="439.952" width="6.095" height="3.048" /><rect x="505.905" y="439.952" width="6.095" height="3.048" /><rect x="542.476" y="439.952" width="6.095" height="3.048" /><rect x="963.048" y="439.952" width="9.143" height="3.048" /><rect x="54.857" y="443.000" width="6.095" height="3.048" /><rect x="106.667" y="443.000" width="6.095" height="3.048" /><rect x="182.857" y="443.000" width="3.048" height="3.048" /><rect x="231.619" y="443.000" width="6.095" height="3.048" /><rect x="310.857" y="443.000" width="6.095" height="3.048" /><rect x="362.667" y="443.000" width="3.048" height="3.048" /><rect x="487.619" y="443.000" width="6.095" height="3.048" /><rect x="505.905" y="443.000" width="6.095" height="3.048" /><rect x="542.476" y="443.000" width="6.095" height="3.048" /><rect x="960.000" y="443.000" width="9.143" height="3.048" /><rect x="57.905" y="446.048" width="6.095" height="3.048" /><rect x="109.714" y="446.048" width="6.095" height="3.048" /><rect x="182.857" y="446.048" width="6.095" height="3.048" /><rect x="231.619" y="446.048" width="6.095" height="3.048" /><rect x="313.905" y="446.048" width="6.095" height="3.048" /><rect x="362.667" y="446.048" width="6.095" height="3.048" /><rect x="487.619" y="446.048" width="6.095" height="3.048" /><rect x="505.905" y="446.048" width="6.095" height="3.048" /><rect x="542.476" y="446.048" width="6.095" height="3.048" /><rect x="956.952" y="446.048" width="9.143" height="3.048" /><rect x="1148.952" y="446.048" width="6.095" height="3.048" /><rect x="57.905" y="449.095" width="6.095" height="3.048" /><rect x="109.714" y="449.095" width="6.095" height="3.048" /><rect x="182.857" y="449.095" width="6.095" height="3.048" /><rect x="231.619" y="449.095" width="6.095" height="3.048" /><rect x="313.905" y="449.095" width="6.095" height="3.048" /><rect x="362.667" y="449.095" width="6.095" height="3.048" /><rect x="505.905" y="449.095" width="6.095" height="3.048" /><rect x="542.476" y="449.095" width="6.095" height="3.048" /><rect x="953.905" y="449.095" width="9.143" height="3.048" /><rect x="1148.952" y="449.095" width="6.095" height="3.048" /><rect x="60.952" y="452.143" width="6.095" height="3.048" /><rect x="112.762" y="452.143" width="6.095" height="3.048" /><rect x="185.905" y="452.143" width="3.048" height="3.048" /><rect x="234.667" y="452.143" width="6.095" height="3.048" /><rect x="316.952" y="452.143" width="3.048" height="3.048" /><rect x="365.714" y="452.143" width="3.048" height="3.048" /><rect x="438.857" y="452.143" width="3.048" height="3.048" /><rect x="505.905" y="452.143" width="6.095" height="3.048" /><rect x="542.476" y="452.143" width="6.095" height="3.048" /><rect x="950.857" y="452.143" width="9.143" height="3.048" /><rect x="1148.952" y="452.143" width="6.095" height="3.048" /><rect x="64.000" y="455.190" width="6.095" height="3.048" /><rect x="115.810" y="455.190" width="6.095" height="3.048" /><rect x="188.952" y="455.190" width="3.048" height="3.048" /><rect x="234.667" y="455.190" width="6.095" height="3.048" /><rect x="368.762" y="455.190" width="3.048" height="3.048" /><rect x="438.857" y="455.190" width="6.095" height="3.048" /><rect x="505.905" y="455.190" width="6.095" height="3.048" /><rect x="542.476" y="455.190" width="6.095" height="3.048" /><rect x="947.810" y="455.190" width="9.143" height="3.048" /><rect x="1148.952" y="455.190" width="6.095" height="3.048" /><rect x="64.000" y="458.238" width="6.095" height="3.048" /><rect x="115.810" y="458.238" width="9.143" height="3.048" /><rect x="188.952" y="458.238" width="6.095" height="3.048" /><rect x="237.714" y="458.238" width="3.048" height="3.048" /><rect x="320.000" y="458.238" width="3.048" height="3.048" /><rect x="368.762" y="458.238" width="6.095" height="3.048" /><rect x="438.857" y="458.238" width="6.095" height="3.048" /><rect x="490.667" y="458.238" width="6.095" height="3.048" /><rect x="505.905" y="458.238" width="6.095" height="3.048" /><rect x="542.476" y="458.238" width="6.095" height="3.048" /><rect x="944.762" y="458.238" width="9.143" height="3.048" /><rect x="1148.952" y="458.238" width="6.095" height="3.048" /><rect x="67.048" y="461.286" width="6.095" height="3.048" /><rect x="118.857" y="461.286" width="6.095" height="3.048" /><rect x="188.952" y="461.286" width="6.095" height="3.048" /><rect x="240.762" y="461.286" width="3.048" height="3.048" /><rect x="323.048" y="461.286" width="3.048" height="3.048" /><rect x="368.762" y="461.286" width="6.095" height="3.048" /><rect x="441.905" y="461.286" width="3.048" height="3.048" /><rect x="490.667" y="461.286" width="6.095" height="3.048" /><rect x="505.905" y="461.286" width="6.095" height="3.048" /><rect x="542.476" y="461.286" width="6.095" height="3.048" /><rect x="944.762" y="461.286" width="6.095" height="3.048" /><rect x="1148.952" y="461.286" width="6.095" height="3.048" /><rect x="67.048" y="464.333" width="6.095" height="3.048" /><rect x="121.905" y="464.333" width="6.095" height="3.048" /><rect x="192.000" y="464.333" width="3.048" height="3.048" /><rect x="240.762" y="464.333" width="6.095" height="3.048" /><rect x="323.048" y="464.333" width="6.095" height="3.048" /><rect x="371.810" y="464.333" width="6.095" height="3.048" /><rect x="490.667" y="464.333" width="6.095" height="3.048" /><rect x="505.905" y="464.333" width="6.095" height="3.048" /><rect x="941.714" y="464.333" width="6.095" height="3.048" /><rect x="70.095" y="467.381" width="6.095" height="3.048" /><rect x="121.905" y="467.381" width="9.143" height="3.048" /><rect x="240.762" y="467.381" width="6.095" height="3.048" /><rect x="323.048" y="467.381" width="6.095" height="3.048" /><rect x="371.810" y="467.381" width="6.095" height="3.048" /><rect x="444.952" y="467.381" width="3.048" height="3.048" /><rect x="490.667" y="467.381" width="6.095" height="3.048" /><rect x="508.952" y="467.381" width="3.048" height="3.048" /><rect x="938.667" y="467.381" width="6.095" height="3.048" /><rect x="73.143" y="470.429" width="6.095" height="3.048" /><rect x="124.952" y="470.429" width="9.143" height="3.048" /><rect x="195.048" y="470.429" width="3.048" height="3.048" /><rect x="243.810" y="470.429" width="3.048" height="3.048" /><rect x="323.048" y="470.429" width="6.095" height="3.048" /><rect x="374.857" y="470.429" width="6.095" height="3.048" /><rect x="444.952" y="470.429" width="6.095" height="3.048" /><rect x="493.714" y="470.429" width="3.048" height="3.048" /><rect x="508.952" y="470.429" width="6.095" height="3.048" /><rect x="545.524" y="470.429" width="6.095" height="3.048" /><rect x="935.619" y="470.429" width="9.143" height="3.048" /><rect x="73.143" y="473.476" width="9.143" height="3.048" /><rect x="128.000" y="473.476" width="6.095" height="3.048" /><rect x="195.048" y="473.476" width="6.095" height="3.048" /><rect x="246.857" y="473.476" width="3.048" height="3.048" /><rect x="326.095" y="473.476" width="6.095" height="3.048" /><rect x="374.857" y="473.476" width="6.095" height="3.048" /><rect x="444.952" y="473.476" width="6.095" height="3.048" /><rect x="493.714" y="473.476" width="6.095" height="3.048" /><rect x="508.952" y="473.476" width="6.095" height="3.048" /><rect x="545.524" y="473.476" width="6.095" height="3.048" /><rect x="935.619" y="473.476" width="6.095" height="3.048" /><rect x="1152.000" y="473.476" width="6.095" height="3.048" /><rect x="76.190" y="476.524" width="6.095" height="3.048" /><rect x="131.048" y="476.524" width="6.095" height="3.048" /><rect x="195.048" y="476.524" width="6.095" height="3.048" /><rect x="246.857" y="476.524" width="6.095" height="3.048" /><rect x="326.095" y="476.524" width="6.095" height="3.048" /><rect x="377.905" y="476.524" width="6.095" height="3.048" /><rect x="448.000" y="476.524" width="3.048" height="3.048" /><rect x="493.714" y="476.524" width="6.095" height="3.048" /><rect x="545.524" y="476.524" width="6.095" height="3.048" /><rect x="932.571" y="476.524" width="6.095" height="3.048" /><rect x="1152.000" y="476.524" width="6.095" height="3.048" /><rect x="79.238" y="479.571" width="6.095" height="3.048" /><rect x="134.095" y="479.571" width="6.095" height="3.048" /><rect x="198.095" y="479.571" width="6.095" height="3.048" /><rect x="246.857" y="479.571" width="6.095" height="3.048" /><rect x="329.143" y="479.571" width="3.048" height="3.048" /><rect x="377.905" y="479.571" width="6.095" height="3.048" /><rect x="493.714" y="479.571" width="6.095" height="3.048" /><rect x="548.571" y="479.571" width="3.048" height="3.048" /><rect x="929.524" y="479.571" width="9.143" height="3.048" /><rect x="1155.048" y="479.571" width="3.048" height="3.048" /><rect x="82.286" y="482.619" width="3.048" height="3.048" /><rect x="137.143" y="482.619" width="3.048" height="3.048" /><rect x="198.095" y="482.619" width="6.095" height="3.048" /><rect x="246.857" y="482.619" width="6.095" height="3.048" /><rect x="380.952" y="482.619" width="3.048" height="3.048" /><rect x="451.048" y="482.619" width="3.048" height="3.048" /><rect x="496.762" y="482.619" width="3.048" height="3.048" /><rect x="512.000" y="482.619" width="6.095" height="3.048" /><rect x="548.571" y="482.619" width="6.095" height="3.048" /><rect x="929.524" y="482.619" width="6.095" height="3.048" /><rect x="85.333" y="485.667" width="3.048" height="3.048" /><rect x="140.190" y="485.667" width="3.048" height="3.048" /><rect x="201.143" y="485.667" width="6.095" height="3.048" /><rect x="249.905" y="485.667" width="6.095" height="3.048" /><rect x="332.190" y="485.667" width="3.048" height="3.048" /><rect x="380.952" y="485.667" width="6.095" height="3.048" /><rect x="496.762" y="485.667" width="6.095" height="3.048" /><rect x="512.000" y="485.667" width="6.095" height="3.048" /><rect x="548.571" y="485.667" width="6.095" height="3.048" /><rect x="929.524" y="485.667" width="3.048" height="3.048" /><rect x="1158.095" y="485.667" width="3.048" height="3.048" /><rect x="88.381" y="488.714" width="3.048" height="3.048" /><rect x="143.238" y="488.714" width="3.048" height="3.048" /><rect x="201.143" y="488.714" width="6.095" height="3.048" /><rect x="249.905" y="488.714" width="6.095" height="3.048" /><rect x="380.952" y="488.714" width="6.095" height="3.048" /><rect x="454.095" y="488.714" width="3.048" height="3.048" /><rect x="496.762" y="488.714" width="6.095" height="3.048" /><rect x="515.048" y="488.714" width="3.048" height="3.048" /><rect x="551.619" y="488.714" width="3.048" height="3.048" /><rect x="926.476" y="488.714" width="3.048" height="3.048" /><rect x="1161.143" y="488.714" width="3.048" height="3.048" /><rect x="88.381" y="491.762" width="6.095" height="3.048" /><rect x="143.238" y="491.762" width="6.095" height="3.048" /><rect x="204.190" y="491.762" width="6.095" height="3.048" /><rect x="252.952" y="491.762" width="6.095" height="3.048" /><rect x="335.238" y="491.762" width="3.048" height="3.048" /><rect x="384.000" y="491.762" width="3.048" height="3.048" /><rect x="454.095" y="491.762" width="6.095" height="3.048" /><rect x="499.810" y="491.762" width="3.048" height="3.048" /><rect x="515.048" y="491.762" width="6.095" height="3.048" /><rect x="923.429" y="491.762" width="3.048" height="3.048" /><rect x="1161.143" y="491.762" width="6.095" height="3.048" /><rect x="91.429" y="494.810" width="6.095" height="3.048" /><rect x="146.286" y="494.810" width="6.095" height="3.048" /><rect x="204.190" y="494.810" width="6.095" height="3.048" /><rect x="256.000" y="494.810" width="6.095" height="3.048" /><rect x="335.238" y="494.810" width="6.095" height="3.048" /><rect x="387.048" y="494.810" width="3.048" height="3.048" /><rect x="454.095" y="494.810" width="6.095" height="3.048" /><rect x="499.810" y="494.810" width="6.095" height="3.048" /><rect x="515.048" y="494.810" width="6.095" height="3.048" /><rect x="554.667" y="494.810" width="3.048" height="3.048" /><rect x="920.381" y="494.810" width="6.095" height="3.048" /><rect x="1161.143" y="494.810" width="9.143" height="3.048" /><rect x="91.429" y="497.857" width="6.095" height="3.048" /><rect x="149.333" y="497.857" width="6.095" height="3.048" /><rect x="207.238" y="497.857" width="6.095" height="3.048" /><rect x="256.000" y="497.857" width="6.095" height="3.048" /><rect x="335.238" y="497.857" width="6.095" height="3.048" /><rect x="457.143" y="497.857" width="3.048" height="3.048" /><rect x="499.810" y="497.857" width="6.095" height="3.048" /><rect x="518.095" y="497.857" width="3.048" height="3.048" /><rect x="557.714" y="497.857" width="3.048" height="3.048" /><rect x="920.381" y="497.857" width="6.095" height="3.048" /><rect x="1164.190" y="497.857" width="6.095" height="3.048" /><rect x="94.476" y="500.905" width="6.095" height="3.048" /><rect x="149.333" y="500.905" width="9.143" height="3.048" /><rect x="207.238" y="500.905" width="6.095" height="3.048" /><rect x="259.048" y="500.905" width="6.095" height="3.048" /><rect x="338.286" y="500.905" width="6.095" height="3.048" /><rect x="390.095" y="500.905" width="3.048" height="3.048" /><rect x="460.190" y="500.905" width="3.048" height="3.048" /><rect x="502.857" y="500.905" width="6.095" height="3.048" /><rect x="518.095" y="500.905" width="6.095" height="3.048" /><rect x="557.714" y="500.905" width="6.095" height="3.048" /><rect x="917.333" y="500.905" width="6.095" height="3.048" /><rect x="1167.238" y="500.905" width="6.095" height="3.048" /><rect x="97.524" y="503.952" width="6.095" height="3.048" /><rect x="152.381" y="503.952" width="9.143" height="3.048" /><rect x="210.286" y="503.952" width="6.095" height="3.048" /><rect x="259.048" y="503.952" width="6.095" height="3.048" /><rect x="338.286" y="503.952" width="6.095" height="3.048" /><rect x="390.095" y="503.952" width="6.095" height="3.048" /><rect x="460.190" y="503.952" width="6.095" height="3.048" /><rect x="502.857" y="503.952" width="6.095" height="3.048" /><rect x="518.095" y="503.952" width="6.095" height="3.048" /><rect x="557.714" y="503.952" width="6.095" height="3.048" /><rect x="917.333" y="503.952" width="6.095" height="3.048" /><rect x="1170.286" y="503.952" width="6.095" height="3.048" /><rect x="100.571" y="507.000" width="6.095" height="3.048" /><rect x="155.429" y="507.000" width="9.143" height="3.048" /><rect x="210.286" y="507.000" width="6.095" height="3.048" /><rect x="262.095" y="507.000" width="6.095" height="3.048" /><rect x="341.333" y="507.000" width="6.095" height="3.048" /><rect x="390.095" y="507.000" width="6.095" height="3.048" /><rect x="460.190" y="507.000" width="6.095" height="3.048" /><rect x="505.905" y="507.000" width="3.048" height="3.048" /><rect x="521.143" y="507.000" width="6.095" height="3.048" /><rect x="560.762" y="507.000" width="6.095" height="3.048" /><rect x="914.286" y="507.000" width="6.095" height="3.048" /><rect x="1170.286" y="507.000" width="6.095" height="3.048" /><rect x="100.571" y="510.048" width="9.143" height="3.048" /><rect x="158.476" y="510.048" width="6.095" height="3.048" /><rect x="213.333" y="510.048" width="6.095" height="3.048" /><rect x="262.095" y="510.048" width="6.095" height="3.048" /><rect x="341.333" y="510.048" width="6.095" height="3.048" /><rect x="393.143" y="510.048" width="3.048" height="3.048" /><rect x="463.238" y="510.048" width="3.048" height="3.048" /><rect x="505.905" y="510.048" width="6.095" height="3.048" /><rect x="521.143" y="510.048" width="6.095" height="3.048" /><rect x="563.810" y="510.048" width="6.095" height="3.048" /><rect x="914.286" y="510.048" width="6.095" height="3.048" /><rect x="1173.333" y="510.048" width="6.095" height="3.048" /><rect x="103.619" y="513.095" width="9.143" height="3.048" /><rect x="161.524" y="513.095" width="6.095" height="3.048" /><rect x="213.333" y="513.095" width="6.095" height="3.048" /><rect x="265.143" y="513.095" width="3.048" height="3.048" /><rect x="344.381" y="513.095" width="6.095" height="3.048" /><rect x="396.190" y="513.095" width="3.048" height="3.048" /><rect x="463.238" y="513.095" width="6.095" height="3.048" /><rect x="505.905" y="513.095" width="6.095" height="3.048" /><rect x="524.190" y="513.095" width="6.095" height="3.048" /><rect x="563.810" y="513.095" width="6.095" height="3.048" /><rect x="914.286" y="513.095" width="3.048" height="3.048" /><rect x="1176.381" y="513.095" width="6.095" height="3.048" /><rect x="106.667" y="516.143" width="9.143" height="3.048" /><rect x="164.571" y="516.143" width="6.095" height="3.048" /><rect x="216.381" y="516.143" width="6.095" height="3.048" /><rect x="265.143" y="516.143" width="6.095" height="3.048" /><rect x="344.381" y="516.143" width="6.095" height="3.048" /><rect x="463.238" y="516.143" width="6.095" height="3.048" /><rect x="508.952" y="516.143" width="6.095" height="3.048" /><rect x="524.190" y="516.143" width="6.095" height="3.048" /><rect x="566.857" y="516.143" width="6.095" height="3.048" /><rect x="911.238" y="516.143" width="3.048" height="3.048" /><rect x="1176.381" y="516.143" width="6.095" height="3.048" /><rect x="109.714" y="519.190" width="6.095" height="3.048" /><rect x="167.619" y="519.190" width="6.095" height="3.048" /><rect x="216.381" y="519.190" width="9.143" height="3.048" /><rect x="265.143" y="519.190" width="6.095" height="3.048" /><rect x="347.429" y="519.190" width="3.048" height="3.048" /><rect x="399.238" y="519.190" width="3.048" height="3.048" /><rect x="466.286" y="519.190" width="6.095" height="3.048" /><rect x="512.000" y="519.190" width="6.095" height="3.048" /><rect x="527.238" y="519.190" width="6.095" height="3.048" /><rect x="569.905" y="519.190" width="6.095" height="3.048" /><rect x="908.190" y="519.190" width="6.095" height="3.048" /><rect x="1179.429" y="519.190" width="3.048" height="3.048" /><rect x="112.762" y="522.238" width="6.095" height="3.048" /><rect x="170.667" y="522.238" width="6.095" height="3.048" /><rect x="219.429" y="522.238" width="6.095" height="3.048" /><rect x="268.190" y="522.238" width="6.095" height="3.048" /><rect x="402.286" y="522.238" width="3.048" height="3.048" /><rect x="466.286" y="522.238" width="6.095" height="3.048" /><rect x="512.000" y="522.238" width="6.095" height="3.048" /><rect x="527.238" y="522.238" width="9.143" height="3.048" /><rect x="572.952" y="522.238" width="6.095" height="3.048" /><rect x="908.190" y="522.238" width="6.095" height="3.048" /><rect x="1182.476" y="522.238" width="3.048" height="3.048" /><rect x="115.810" y="525.286" width="6.095" height="3.048" /><rect x="173.714" y="525.286" width="6.095" height="3.048" /><rect x="219.429" y="525.286" width="6.095" height="3.048" /><rect x="268.190" y="525.286" width="6.095" height="3.048" /><rect x="350.476" y="525.286" width="3.048" height="3.048" /><rect x="402.286" y="525.286" width="6.095" height="3.048" /><rect x="469.333" y="525.286" width="3.048" height="3.048" /><rect x="515.048" y="525.286" width="3.048" height="3.048" /><rect x="530.286" y="525.286" width="6.095" height="3.048" /><rect x="576.000" y="525.286" width="6.095" height="3.048" /><rect x="905.143" y="525.286" width="6.095" height="3.048" /><rect x="1182.476" y="525.286" width="6.095" height="3.048" /><rect x="118.857" y="528.333" width="6.095" height="3.048" /><rect x="176.762" y="528.333" width="6.095" height="3.048" /><rect x="222.476" y="528.333" width="3.048" height="3.048" /><rect x="271.238" y="528.333" width="6.095" height="3.048" /><rect x="353.524" y="528.333" width="3.048" height="3.048" /><rect x="402.286" y="528.333" width="6.095" height="3.048" /><rect x="472.381" y="528.333" width="3.048" height="3.048" /><rect x="518.095" y="528.333" width="3.048" height="3.048" /><rect x="533.333" y="528.333" width="6.095" height="3.048" /><rect x="579.048" y="528.333" width="6.095" height="3.048" /><rect x="905.143" y="528.333" width="6.095" height="3.048" /><rect x="1033.143" y="528.333" width="27.429" height="3.048" /><rect x="1182.476" y="528.333" width="6.095" height="3.048" /><rect x="121.905" y="531.381" width="6.095" height="3.048" /><rect x="179.810" y="531.381" width="6.095" height="3.048" /><rect x="271.238" y="531.381" width="6.095" height="3.048" /><rect x="353.524" y="531.381" width="6.095" height="3.048" /><rect x="405.333" y="531.381" width="3.048" height="3.048" /><rect x="475.429" y="531.381" width="3.048" height="3.048" /><rect x="521.143" y="531.381" width="3.048" height="3.048" /><rect x="533.333" y="531.381" width="9.143" height="3.048" /><rect x="582.095" y="531.381" width="6.095" height="3.048" /><rect x="905.143" y="531.381" width="3.048" height="3.048" /><rect x="1033.143" y="531.381" width="27.429" height="3.048" /><rect x="1066.667" y="531.381" width="6.095" height="3.048" /><rect x="1185.524" y="531.381" width="6.095" height="3.048" /><rect x="121.905" y="534.429" width="9.143" height="3.048" /><rect x="182.857" y="534.429" width="6.095" height="3.048" /><rect x="225.524" y="534.429" width="3.048" height="3.048" /><rect x="274.286" y="534.429" width="6.095" height="3.048" /><rect x="353.524" y="534.429" width="6.095" height="3.048" /><rect x="408.381" y="534.429" width="3.048" height="3.048" /><rect x="475.429" y="534.429" width="6.095" height="3.048" /><rect x="521.143" y="534.429" width="6.095" height="3.048" /><rect x="536.381" y="534.429" width="9.143" height="3.048" /><rect x="585.143" y="534.429" width="6.095" height="3.048" /><rect x="902.095" y="534.429" width="6.095" height="3.048" /><rect x="1020.952" y="534.429" width="3.048" height="3.048" /><rect x="1066.667" y="534.429" width="12.190" height="3.048" /><rect x="1185.524" y="534.429" width="6.095" height="3.048" /><rect x="124.952" y="537.476" width="9.143" height="3.048" /><rect x="185.905" y="537.476" width="9.143" height="3.048" /><rect x="228.571" y="537.476" width="3.048" height="3.048" /><rect x="277.333" y="537.476" width="6.095" height="3.048" /><rect x="356.571" y="537.476" width="6.095" height="3.048" /><rect x="411.429" y="537.476" width="3.048" height="3.048" /><rect x="475.429" y="537.476" width="6.095" height="3.048" /><rect x="521.143" y="537.476" width="9.143" height="3.048" /><rect x="539.429" y="537.476" width="9.143" height="3.048" /><rect x="588.190" y="537.476" width="9.143" height="3.048" /><rect x="902.095" y="537.476" width="6.095" height="3.048" /><rect x="1011.810" y="537.476" width="9.143" height="3.048" /><rect x="1072.762" y="537.476" width="9.143" height="3.048" /><rect x="1188.571" y="537.476" width="3.048" height="3.048" /><rect x="128.000" y="540.524" width="9.143" height="3.048" /><rect x="188.952" y="540.524" width="9.143" height="3.048" /><rect x="228.571" y="540.524" width="6.095" height="3.048" /><rect x="277.333" y="540.524" width="6.095" height="3.048" /><rect x="356.571" y="540.524" width="6.095" height="3.048" /><rect x="411.429" y="540.524" width="6.095" height="3.048" /><rect x="478.476" y="540.524" width="6.095" height="3.048" /><rect x="524.190" y="540.524" width="6.095" height="3.048" /><rect x="545.524" y="540.524" width="6.095" height="3.048" /><rect x="591.238" y="540.524" width="9.143" height="3.048" /><rect x="902.095" y="540.524" width="3.048" height="3.048" /><rect x="1008.762" y="540.524" width="9.143" height="3.048" /><rect x="1078.857" y="540.524" width="6.095" height="3.048" /><rect x="1188.571" y="540.524" width="6.095" height="3.048" /><rect x="131.048" y="543.571" width="9.143" height="3.048" /><rect x="192.000" y="543.571" width="9.143" height="3.048" /><rect x="228.571" y="543.571" width="9.143" height="3.048" /><rect x="277.333" y="543.571" width="9.143" height="3.048" /><rect x="359.619" y="543.571" width="6.095" height="3.048" /><rect x="411.429" y="543.571" width="9.143" height="3.048" /><rect x="478.476" y="543.571" width="9.143" height="3.048" /><rect x="527.238" y="543.571" width="6.095" height="3.048" /><rect x="548.571" y="543.571" width="6.095" height="3.048" /><rect x="597.333" y="543.571" width="6.095" height="3.048" /><rect x="899.048" y="543.571" width="6.095" height="3.048" /><rect x="1005.714" y="543.571" width="9.143" height="3.048" /><rect x="1081.905" y="543.571" width="6.095" height="3.048" /><rect x="1188.571" y="543.571" width="6.095" height="3.048" /><rect x="134.095" y="546.619" width="9.143" height="3.048" /><rect x="195.048" y="546.619" width="9.143" height="3.048" /><rect x="231.619" y="546.619" width="6.095" height="3.048" /><rect x="280.381" y="546.619" width="6.095" height="3.048" /><rect x="362.667" y="546.619" width="6.095" height="3.048" /><rect x="414.476" y="546.619" width="6.095" height="3.048" /><rect x="481.524" y="546.619" width="6.095" height="3.048" /><rect x="530.286" y="546.619" width="6.095" height="3.048" /><rect x="548.571" y="546.619" width="9.143" height="3.048" /><rect x="600.381" y="546.619" width="9.143" height="3.048" /><rect x="899.048" y="546.619" width="6.095" height="3.048" /><rect x="1002.667" y="546.619" width="6.095" height="3.048" /><rect x="1084.952" y="546.619" width="6.095" height="3.048" /><rect x="1188.571" y="546.619" width="6.095" height="3.048" /><rect x="137.143" y="549.667" width="9.143" height="3.048" /><rect x="198.095" y="549.667" width="9.143" height="3.048" /><rect x="234.667" y="549.667" width="3.048" height="3.048" /><rect x="283.429" y="549.667" width="6.095" height="3.048" /><rect x="362.667" y="549.667" width="6.095" height="3.048" /><rect x="417.524" y="549.667" width="6.095" height="3.048" /><rect x="484.571" y="549.667" width="6.095" height="3.048" /><rect x="533.333" y="549.667" width="6.095" height="3.048" /><rect x="551.619" y="549.667" width="9.143" height="3.048" /><rect x="603.429" y="549.667" width="9.143" height="3.048" /><rect x="999.619" y="549.667" width="6.095" height="3.048" /><rect x="1088.000" y="549.667" width="6.095" height="3.048" /><rect x="1191.619" y="549.667" width="6.095" height="3.048" /><rect x="140.190" y="552.714" width="9.143" height="3.048" /><rect x="204.190" y="552.714" width="6.095" height="3.048" /><rect x="234.667" y="552.714" width="6.095" height="3.048" /><rect x="283.429" y="552.714" width="6.095" height="3.048" /><rect x="365.714" y="552.714" width="6.095" height="3.048" /><rect x="420.571" y="552.714" width="6.095" height="3.048" /><rect x="487.619" y="552.714" width="6.095" height="3.048" /><rect x="536.381" y="552.714" width="6.095" height="3.048" /><rect x="554.667" y="552.714" width="9.143" height="3.048" /><rect x="609.524" y="552.714" width="9.143" height="3.048" /><rect x="999.619" y="552.714" width="6.095" height="3.048" /><rect x="1091.048" y="552.714" width="6.095" height="3.048" /><rect x="1191.619" y="552.714" width="6.095" height="3.048" /><rect x="143.238" y="555.762" width="9.143" height="3.048" /><rect x="207.238" y="555.762" width="9.143" height="3.048" /><rect x="234.667" y="555.762" width="6.095" height="3.048" /><rect x="286.476" y="555.762" width="3.048" height="3.048" /><rect x="365.714" y="555.762" width="9.143" height="3.048" /><rect x="420.571" y="555.762" width="9.143" height="3.048" /><rect x="487.619" y="555.762" width="9.143" height="3.048" /><rect x="539.429" y="555.762" width="6.095" height="3.048" /><rect x="557.714" y="555.762" width="9.143" height="3.048" /><rect x="612.571" y="555.762" width="12.190" height="3.048" /><rect x="896.000" y="555.762" width="6.095" height="3.048" /><rect x="996.571" y="555.762" width="6.095" height="3.048" /><rect x="1094.095" y="555.762" width="3.048" height="3.048" /><rect x="1191.619" y="555.762" width="6.095" height="3.048" /><rect x="146.286" y="558.810" width="9.143" height="3.048" /><rect x="210.286" y="558.810" width="9.143" height="3.048" /><rect x="237.714" y="558.810" width="3.048" height="3.048" /><rect x="289.524" y="558.810" width="3.048" height="3.048" /><rect x="368.762" y="558.810" width="6.095" height="3.048" /><rect x="423.619" y="558.810" width="9.143" height="3.048" /><rect x="490.667" y="558.810" width="6.095" height="3.048" /><rect x="542.476" y="558.810" width="6.095" height="3.048" /><rect x="563.810" y="558.810" width="6.095" height="3.048" /><rect x="618.667" y="558.810" width="12.190" height="3.048" /><rect x="896.000" y="558.810" width="6.095" height="3.048" /><rect x="993.524" y="558.810" width="6.095" height="3.048" /><rect x="1097.143" y="558.810" width="3.048" height="3.048" /><rect x="1194.667" y="558.810" width="3.048" height="3.048" /><rect x="149.333" y="561.857" width="9.143" height="3.048" /><rect x="213.333" y="561.857" width="9.143" height="3.048" /><rect x="240.762" y="561.857" width="3.048" height="3.048" /><rect x="371.810" y="561.857" width="6.095" height="3.048" /><rect x="426.667" y="561.857" width="6.095" height="3.048" /><rect x="493.714" y="561.857" width="6.095" height="3.048" /><rect x="545.524" y="561.857" width="6.095" height="3.048" /><rect x="566.857" y="561.857" width="6.095" height="3.048" /><rect x="624.762" y="561.857" width="9.143" height="3.048" /><rect x="896.000" y="561.857" width="6.095" height="3.048" /><rect x="993.524" y="561.857" width="6.095" height="3.048" /><rect x="1097.143" y="561.857" width="6.095" height="3.048" /><rect x="1194.667" y="561.857" width="6.095" height="3.048" /><rect x="152.381" y="564.905" width="9.143" height="3.048" /><rect x="216.381" y="564.905" width="12.190" height="3.048" /><rect x="240.762" y="564.905" width="6.095" height="3.048" /><rect x="292.571" y="564.905" width="3.048" height="3.048" /><rect x="371.810" y="564.905" width="6.095" height="3.048" /><rect x="429.714" y="564.905" width="6.095" height="3.048" /><rect x="496.762" y="564.905" width="6.095" height="3.048" /><rect x="548.571" y="564.905" width="6.095" height="3.048" /><rect x="572.952" y="564.905" width="3.048" height="3.048" /><rect x="633.905" y="564.905" width="9.143" height="3.048" /><rect x="896.000" y="564.905" width="6.095" height="3.048" /><rect x="990.476" y="564.905" width="6.095" height="3.048" /><rect x="1097.143" y="564.905" width="6.095" height="3.048" /><rect x="1194.667" y="564.905" width="6.095" height="3.048" /><rect x="155.429" y="567.952" width="9.143" height="3.048" /><rect x="222.476" y="567.952" width="9.143" height="3.048" /><rect x="240.762" y="567.952" width="6.095" height="3.048" /><rect x="295.619" y="567.952" width="3.048" height="3.048" /><rect x="374.857" y="567.952" width="6.095" height="3.048" /><rect x="432.762" y="567.952" width="6.095" height="3.048" /><rect x="499.810" y="567.952" width="6.095" height="3.048" /><rect x="551.619" y="567.952" width="9.143" height="3.048" /><rect x="576.000" y="567.952" width="6.095" height="3.048" /><rect x="636.952" y="567.952" width="15.238" height="3.048" /><rect x="990.476" y="567.952" width="6.095" height="3.048" /><rect x="1100.190" y="567.952" width="6.095" height="3.048" /><rect x="1194.667" y="567.952" width="6.095" height="3.048" /><rect x="161.524" y="571.000" width="6.095" height="3.048" /><rect x="225.524" y="571.000" width="9.143" height="3.048" /><rect x="243.810" y="571.000" width="6.095" height="3.048" /><rect x="295.619" y="571.000" width="6.095" height="3.048" /><rect x="377.905" y="571.000" width="6.095" height="3.048" /><rect x="435.810" y="571.000" width="6.095" height="3.048" /><rect x="502.857" y="571.000" width="6.095" height="3.048" /><rect x="554.667" y="571.000" width="9.143" height="3.048" /><rect x="579.048" y="571.000" width="9.143" height="3.048" /><rect x="643.048" y="571.000" width="15.238" height="3.048" /><rect x="990.476" y="571.000" width="3.048" height="3.048" /><rect x="1100.190" y="571.000" width="6.095" height="3.048" /><rect x="1194.667" y="571.000" width="6.095" height="3.048" /><rect x="164.571" y="574.048" width="6.095" height="3.048" /><rect x="231.619" y="574.048" width="9.143" height="3.048" /><rect x="243.810" y="574.048" width="9.143" height="3.048" /><rect x="295.619" y="574.048" width="6.095" height="3.048" /><rect x="380.952" y="574.048" width="6.095" height="3.048" /><rect x="438.857" y="574.048" width="6.095" height="3.048" /><rect x="505.905" y="574.048" width="6.095" height="3.048" /><rect x="560.762" y="574.048" width="6.095" height="3.048" /><rect x="582.095" y="574.048" width="12.190" height="3.048" /><rect x="652.190" y="574.048" width="12.190" height="3.048" /><rect x="987.429" y="574.048" width="6.095" height="3.048" /><rect x="167.619" y="577.095" width="6.095" height="3.048" /><rect x="234.667" y="577.095" width="18.286" height="3.048" /><rect x="298.667" y="577.095" width="6.095" height="3.048" /><rect x="380.952" y="577.095" width="6.095" height="3.048" /><rect x="441.905" y="577.095" width="6.095" height="3.048" /><rect x="508.952" y="577.095" width="6.095" height="3.048" /><rect x="563.810" y="577.095" width="6.095" height="3.048" /><rect x="588.190" y="577.095" width="9.143" height="3.048" /><rect x="658.286" y="577.095" width="15.238" height="3.048" /><rect x="987.429" y="577.095" width="6.095" height="3.048" /><rect x="170.667" y="580.143" width="9.143" height="3.048" /><rect x="243.810" y="580.143" width="6.095" height="3.048" /><rect x="301.714" y="580.143" width="6.095" height="3.048" /><rect x="384.000" y="580.143" width="6.095" height="3.048" /><rect x="444.952" y="580.143" width="6.095" height="3.048" /><rect x="512.000" y="580.143" width="6.095" height="3.048" /><rect x="569.905" y="580.143" width="3.048" height="3.048" /><rect x="591.238" y="580.143" width="12.190" height="3.048" /><rect x="667.429" y="580.143" width="18.286" height="3.048" /><rect x="892.952" y="580.143" width="6.095" height="3.048" /><rect x="987.429" y="580.143" width="6.095" height="3.048" /><rect x="173.714" y="583.190" width="9.143" height="3.048" /><rect x="301.714" y="583.190" width="6.095" height="3.048" /><rect x="387.048" y="583.190" width="6.095" height="3.048" /><rect x="448.000" y="583.190" width="6.095" height="3.048" /><rect x="515.048" y="583.190" width="9.143" height="3.048" /><rect x="572.952" y="583.190" width="6.095" height="3.048" /><rect x="597.333" y="583.190" width="12.190" height="3.048" /><rect x="676.571" y="583.190" width="18.286" height="3.048" /><rect x="892.952" y="583.190" width="6.095" height="3.048" /><rect x="987.429" y="583.190" width="6.095" height="3.048" /><rect x="179.810" y="586.238" width="6.095" height="3.048" /><rect x="304.762" y="586.238" width="6.095" height="3.048" /><rect x="390.095" y="586.238" width="6.095" height="3.048" /><rect x="451.048" y="586.238" width="6.095" height="3.048" /><rect x="518.095" y="586.238" width="9.143" height="3.048" /><rect x="576.000" y="586.238" width="12.190" height="3.048" /><rect x="603.429" y="586.238" width="9.143" height="3.048" /><rect x="685.714" y="586.238" width="18.286" height="3.048" /><rect x="892.952" y="586.238" width="6.095" height="3.048" /><rect x="987.429" y="586.238" width="6.095" height="3.048" /><rect x="182.857" y="589.286" width="9.143" height="3.048" /><rect x="304.762" y="589.286" width="6.095" height="3.048" /><rect x="390.095" y="589.286" width="9.143" height="3.048" /><rect x="454.095" y="589.286" width="9.143" height="3.048" /><rect x="521.143" y="589.286" width="9.143" height="3.048" /><rect x="579.048" y="589.286" width="12.190" height="3.048" /><rect x="612.571" y="589.286" width="9.143" height="3.048" /><rect x="694.857" y="589.286" width="24.381" height="3.048" /><rect x="892.952" y="589.286" width="6.095" height="3.048" /><rect x="987.429" y="589.286" width="6.095" height="3.048" /><rect x="185.905" y="592.333" width="9.143" height="3.048" /><rect x="307.810" y="592.333" width="6.095" height="3.048" /><rect x="393.143" y="592.333" width="9.143" height="3.048" /><rect x="457.143" y="592.333" width="9.143" height="3.048" /><rect x="524.190" y="592.333" width="9.143" height="3.048" /><rect x="588.190" y="592.333" width="9.143" height="3.048" /><rect x="615.619" y="592.333" width="12.190" height="3.048" /><rect x="707.048" y="592.333" width="12.190" height="3.048" /><rect x="725.333" y="592.333" width="9.143" height="3.048" /><rect x="892.952" y="592.333" width="6.095" height="3.048" /><rect x="987.429" y="592.333" width="6.095" height="3.048" /><rect x="192.000" y="595.381" width="6.095" height="3.048" /><rect x="310.857" y="595.381" width="6.095" height="3.048" /><rect x="396.190" y="595.381" width="9.143" height="3.048" /><rect x="460.190" y="595.381" width="9.143" height="3.048" /><rect x="530.286" y="595.381" width="6.095" height="3.048" /><rect x="591.238" y="595.381" width="12.190" height="3.048" /><rect x="621.714" y="595.381" width="15.238" height="3.048" /><rect x="725.333" y="595.381" width="21.333" height="3.048" /><rect x="892.952" y="595.381" width="6.095" height="3.048" /><rect x="987.429" y="595.381" width="6.095" height="3.048" /><rect x="195.048" y="598.429" width="6.095" height="3.048" /><rect x="310.857" y="598.429" width="6.095" height="3.048" /><rect x="399.238" y="598.429" width="9.143" height="3.048" /><rect x="463.238" y="598.429" width="9.143" height="3.048" /><rect x="533.333" y="598.429" width="9.143" height="3.048" /><rect x="597.333" y="598.429" width="9.143" height="3.048" /><rect x="627.810" y="598.429" width="15.238" height="3.048" /><rect x="734.476" y="598.429" width="33.524" height="3.048" /><rect x="892.952" y="598.429" width="6.095" height="3.048" /><rect x="1100.190" y="598.429" width="6.095" height="3.048" /><rect x="198.095" y="601.476" width="9.143" height="3.048" /><rect x="313.905" y="601.476" width="6.095" height="3.048" /><rect x="402.286" y="601.476" width="9.143" height="3.048" /><rect x="469.333" y="601.476" width="6.095" height="3.048" /><rect x="536.381" y="601.476" width="9.143" height="3.048" /><rect x="603.429" y="601.476" width="9.143" height="3.048" /><rect x="636.952" y="601.476" width="9.143" height="3.048" /><rect x="749.714" y="601.476" width="18.286" height="3.048" /><rect x="777.143" y="601.476" width="9.143" height="3.048" /><rect x="892.952" y="601.476" width="6.095" height="3.048" /><rect x="1100.190" y="601.476" width="6.095" height="3.048" /><rect x="201.143" y="604.524" width="9.143" height="3.048" /><rect x="316.952" y="604.524" width="6.095" height="3.048" /><rect x="405.333" y="604.524" width="9.143" height="3.048" /><rect x="472.381" y="604.524" width="6.095" height="3.048" /><rect x="542.476" y="604.524" width="9.143" height="3.048" /><rect x="606.476" y="604.524" width="12.190" height="3.048" /><rect x="649.143" y="604.524" width="9.143" height="3.048" /><rect x="777.143" y="604.524" width="33.524" height="3.048" /><rect x="892.952" y="604.524" width="6.095" height="3.048" /><rect x="990.476" y="604.524" width="6.095" height="3.048" /><rect x="1100.190" y="604.524" width="3.048" height="3.048" /><rect x="207.238" y="607.571" width="9.143" height="3.048" /><rect x="316.952" y="607.571" width="6.095" height="3.048" /><rect x="408.381" y="607.571" width="9.143" height="3.048" /><rect x="475.429" y="607.571" width="9.143" height="3.048" /><rect x="545.524" y="607.571" width="9.143" height="3.048" /><rect x="612.571" y="607.571" width="9.143" height="3.048" /><rect x="652.190" y="607.571" width="15.238" height="3.048" /><rect x="789.333" y="607.571" width="21.333" height="3.048" /><rect x="825.905" y="607.571" width="39.619" height="3.048" /><rect x="990.476" y="607.571" width="6.095" height="3.048" /><rect x="1097.143" y="607.571" width="6.095" height="3.048" /><rect x="210.286" y="610.619" width="12.190" height="3.048" /><rect x="320.000" y="610.619" width="6.095" height="3.048" /><rect x="411.429" y="610.619" width="9.143" height="3.048" /><rect x="478.476" y="610.619" width="9.143" height="3.048" /><rect x="548.571" y="610.619" width="9.143" height="3.048" /><rect x="624.762" y="610.619" width="9.143" height="3.048" /><rect x="658.286" y="610.619" width="21.333" height="3.048" /><rect x="825.905" y="610.619" width="39.619" height="3.048" /><rect x="993.524" y="610.619" width="6.095" height="3.048" /><rect x="1097.143" y="610.619" width="6.095" height="3.048" /><rect x="216.381" y="613.667" width="9.143" height="3.048" /><rect x="323.048" y="613.667" width="6.095" height="3.048" /><rect x="417.524" y="613.667" width="6.095" height="3.048" /><rect x="484.571" y="613.667" width="9.143" height="3.048" /><rect x="557.714" y="613.667" width="3.048" height="3.048" /><rect x="627.810" y="613.667" width="15.238" height="3.048" /><rect x="670.476" y="613.667" width="15.238" height="3.048" /><rect x="877.714" y="613.667" width="9.143" height="3.048" /><rect x="993.524" y="613.667" width="9.143" height="3.048" /><rect x="1094.095" y="613.667" width="6.095" height="3.048" /><rect x="1194.667" y="613.667" width="6.095" height="3.048" /><rect x="222.476" y="616.714" width="9.143" height="3.048" /><rect x="323.048" y="616.714" width="6.095" height="3.048" /><rect x="420.571" y="616.714" width="6.095" height="3.048" /><rect x="487.619" y="616.714" width="9.143" height="3.048" /><rect x="560.762" y="616.714" width="9.143" height="3.048" /><rect x="636.952" y="616.714" width="12.190" height="3.048" /><rect x="679.619" y="616.714" width="18.286" height="3.048" /><rect x="880.762" y="616.714" width="6.095" height="3.048" /><rect x="996.571" y="616.714" width="6.095" height="3.048" /><rect x="1094.095" y="616.714" width="6.095" height="3.048" /><rect x="1194.667" y="616.714" width="6.095" height="3.048" /><rect x="225.524" y="619.762" width="9.143" height="3.048" /><rect x="326.095" y="619.762" width="6.095" height="3.048" /><rect x="423.619" y="619.762" width="6.095" height="3.048" /><rect x="493.714" y="619.762" width="9.143" height="3.048" /><rect x="563.810" y="619.762" width="12.190" height="3.048" /><rect x="643.048" y="619.762" width="12.190" height="3.048" /><rect x="688.762" y="619.762" width="18.286" height="3.048" /><rect x="880.762" y="619.762" width="6.095" height="3.048" /><rect x="999.619" y="619.762" width="3.048" height="3.048" /><rect x="1091.048" y="619.762" width="6.095" height="3.048" /><rect x="1194.667" y="619.762" width="6.095" height="3.048" /><rect x="228.571" y="622.810" width="12.190" height="3.048" /><rect x="329.143" y="622.810" width="6.095" height="3.048" /><rect x="426.667" y="622.810" width="6.095" height="3.048" /><rect x="496.762" y="622.810" width="12.190" height="3.048" /><rect x="569.905" y="622.810" width="12.190" height="3.048" /><rect x="649.143" y="622.810" width="15.238" height="3.048" /><rect x="697.905" y="622.810" width="9.143" height="3.048" /><rect x="880.762" y="622.810" width="6.095" height="3.048" /><rect x="896.000" y="622.810" width="6.095" height="3.048" /><rect x="1002.667" y="622.810" width="3.048" height="3.048" /><rect x="1088.000" y="622.810" width="6.095" height="3.048" /><rect x="1194.667" y="622.810" width="3.048" height="3.048" /><rect x="234.667" y="625.857" width="12.190" height="3.048" /><rect x="332.190" y="625.857" width="6.095" height="3.048" /><rect x="429.714" y="625.857" width="9.143" height="3.048" /><rect x="502.857" y="625.857" width="9.143" height="3.048" /><rect x="576.000" y="625.857" width="12.190" height="3.048" /><rect x="658.286" y="625.857" width="6.095" height="3.048" /><rect x="670.476" y="625.857" width="6.095" height="3.048" /><rect x="731.429" y="625.857" width="6.095" height="3.048" /><rect x="896.000" y="625.857" width="6.095" height="3.048" /><rect x="1005.714" y="625.857" width="3.048" height="3.048" /><rect x="1084.952" y="625.857" width="6.095" height="3.048" /><rect x="1191.619" y="625.857" width="6.095" height="3.048" /><rect x="240.762" y="628.905" width="12.190" height="3.048" /><rect x="335.238" y="628.905" width="9.143" height="3.048" /><rect x="432.762" y="628.905" width="9.143" height="3.048" /><rect x="512.000" y="628.905" width="9.143" height="3.048" /><rect x="582.095" y="628.905" width="12.190" height="3.048" /><rect x="670.476" y="628.905" width="12.190" height="3.048" /><rect x="731.429" y="628.905" width="18.286" height="3.048" /><rect x="896.000" y="628.905" width="6.095" height="3.048" /><rect x="1005.714" y="628.905" width="9.143" height="3.048" /><rect x="1081.905" y="628.905" width="6.095" height="3.048" /><rect x="1191.619" y="628.905" width="6.095" height="3.048" /><rect x="246.857" y="631.952" width="12.190" height="3.048" /><rect x="338.286" y="631.952" width="12.190" height="3.048" /><rect x="438.857" y="631.952" width="6.095" height="3.048" /><rect x="515.048" y="631.952" width="9.143" height="3.048" /><rect x="588.190" y="631.952" width="9.143" height="3.048" /><rect x="676.571" y="631.952" width="6.095" height="3.048" /><rect x="688.762" y="631.952" width="9.143" height="3.048" /><rect x="737.524" y="631.952" width="12.190" height="3.048" /><rect x="755.810" y="631.952" width="15.238" height="3.048" /><rect x="883.810" y="631.952" width="6.095" height="3.048" /><rect x="899.048" y="631.952" width="3.048" height="3.048" /><rect x="1008.762" y="631.952" width="9.143" height="3.048" /><rect x="1075.810" y="631.952" width="9.143" height="3.048" /><rect x="1191.619" y="631.952" width="6.095" height="3.048" /><rect x="252.952" y="635.000" width="12.190" height="3.048" /><rect x="344.381" y="635.000" width="9.143" height="3.048" /><rect x="444.952" y="635.000" width="3.048" height="3.048" /><rect x="521.143" y="635.000" width="9.143" height="3.048" /><rect x="597.333" y="635.000" width="9.143" height="3.048" /><rect x="688.762" y="635.000" width="18.286" height="3.048" /><rect x="755.810" y="635.000" width="15.238" height="3.048" /><rect x="777.143" y="635.000" width="21.333" height="3.048" /><rect x="883.810" y="635.000" width="6.095" height="3.048" /><rect x="899.048" y="635.000" width="6.095" height="3.048" /><rect x="1017.905" y="635.000" width="3.048" height="3.048" /><rect x="1069.714" y="635.000" width="12.190" height="3.048" /><rect x="1191.619" y="635.000" width="3.048" height="3.048" /><rect x="259.048" y="638.048" width="12.190" height="3.048" /><rect x="353.524" y="638.048" width="9.143" height="3.048" /><rect x="448.000" y="638.048" width="6.095" height="3.048" /><rect x="524.190" y="638.048" width="12.190" height="3.048" /><rect x="600.381" y="638.048" width="15.238" height="3.048" /><rect x="700.952" y="638.048" width="6.095" height="3.048" /><rect x="713.143" y="638.048" width="9.143" height="3.048" /><rect x="777.143" y="638.048" width="21.333" height="3.048" /><rect x="807.619" y="638.048" width="18.286" height="3.048" /><rect x="883.810" y="638.048" width="6.095" height="3.048" /><rect x="899.048" y="638.048" width="6.095" height="3.048" /><rect x="1024.000" y="638.048" width="9.143" height="3.048" /><rect x="1060.571" y="638.048" width="15.238" height="3.048" /><rect x="1188.571" y="638.048" width="6.095" height="3.048" /><rect x="265.143" y="641.095" width="12.190" height="3.048" /><rect x="356.571" y="641.095" width="12.190" height="3.048" /><rect x="451.048" y="641.095" width="9.143" height="3.048" /><rect x="530.286" y="641.095" width="12.190" height="3.048" /><rect x="609.524" y="641.095" width="12.190" height="3.048" /><rect x="713.143" y="641.095" width="24.381" height="3.048" /><rect x="807.619" y="641.095" width="54.857" height="3.048" /><rect x="880.762" y="641.095" width="9.143" height="3.048" /><rect x="902.095" y="641.095" width="3.048" height="3.048" /><rect x="1027.048" y="641.095" width="42.667" height="3.048" /><rect x="1188.571" y="641.095" width="6.095" height="3.048" /><rect x="271.238" y="644.143" width="9.143" height="3.048" /><rect x="362.667" y="644.143" width="12.190" height="3.048" /><rect x="454.095" y="644.143" width="9.143" height="3.048" /><rect x="536.381" y="644.143" width="12.190" height="3.048" /><rect x="615.619" y="644.143" width="12.190" height="3.048" /><rect x="722.286" y="644.143" width="33.524" height="3.048" /><rect x="828.952" y="644.143" width="33.524" height="3.048" /><rect x="880.762" y="644.143" width="6.095" height="3.048" /><rect x="902.095" y="644.143" width="6.095" height="3.048" /><rect x="1033.143" y="644.143" width="27.429" height="3.048" /><rect x="1188.571" y="644.143" width="6.095" height="3.048" /><rect x="283.429" y="647.190" width="9.143" height="3.048" /><rect x="368.762" y="647.190" width="12.190" height="3.048" /><rect x="457.143" y="647.190" width="12.190" height="3.048" /><rect x="542.476" y="647.190" width="12.190" height="3.048" /><rect x="621.714" y="647.190" width="6.095" height="3.048" /><rect x="633.905" y="647.190" width="6.095" height="3.048" /><rect x="740.571" y="647.190" width="30.476" height="3.048" /><rect x="902.095" y="647.190" width="6.095" height="3.048" /><rect x="1185.524" y="647.190" width="6.095" height="3.048" /><rect x="286.476" y="650.238" width="12.190" height="3.048" /><rect x="374.857" y="650.238" width="15.238" height="3.048" /><rect x="463.238" y="650.238" width="9.143" height="3.048" /><rect x="548.571" y="650.238" width="15.238" height="3.048" /><rect x="633.905" y="650.238" width="15.238" height="3.048" /><rect x="758.857" y="650.238" width="12.190" height="3.048" /><rect x="786.286" y="650.238" width="12.190" height="3.048" /><rect x="905.143" y="650.238" width="3.048" height="3.048" /><rect x="1185.524" y="650.238" width="6.095" height="3.048" /><rect x="292.571" y="653.286" width="9.143" height="3.048" /><rect x="384.000" y="653.286" width="9.143" height="3.048" /><rect x="469.333" y="653.286" width="9.143" height="3.048" /><rect x="554.667" y="653.286" width="15.238" height="3.048" /><rect x="640.000" y="653.286" width="15.238" height="3.048" /><rect x="786.286" y="653.286" width="12.190" height="3.048" /><rect x="807.619" y="653.286" width="45.714" height="3.048" /><rect x="862.476" y="653.286" width="30.476" height="3.048" /><rect x="905.143" y="653.286" width="6.095" height="3.048" /><rect x="1185.524" y="653.286" width="6.095" height="3.048" /><rect x="298.667" y="656.333" width="6.095" height="3.048" /><rect x="472.381" y="656.333" width="12.190" height="3.048" /><rect x="563.810" y="656.333" width="12.190" height="3.048" /><rect x="649.143" y="656.333" width="6.095" height="3.048" /><rect x="661.333" y="656.333" width="9.143" height="3.048" /><rect x="807.619" y="656.333" width="45.714" height="3.048" /><rect x="862.476" y="656.333" width="30.476" height="3.048" /><rect x="905.143" y="656.333" width="6.095" height="3.048" /><rect x="1182.476" y="656.333" width="6.095" height="3.048" /><rect x="301.714" y="659.381" width="6.095" height="3.048" /><rect x="402.286" y="659.381" width="3.048" height="3.048" /><rect x="478.476" y="659.381" width="9.143" height="3.048" /><rect x="569.905" y="659.381" width="6.095" height="3.048" /><rect x="661.333" y="659.381" width="18.286" height="3.048" /><rect x="889.905" y="659.381" width="6.095" height="3.048" /><rect x="908.190" y="659.381" width="6.095" height="3.048" /><rect x="1182.476" y="659.381" width="6.095" height="3.048" /><rect x="301.714" y="662.429" width="6.095" height="3.048" /><rect x="408.381" y="662.429" width="3.048" height="3.048" /><rect x="484.571" y="662.429" width="12.190" height="3.048" /><rect x="585.143" y="662.429" width="3.048" height="3.048" /><rect x="673.524" y="662.429" width="18.286" height="3.048" /><rect x="908.190" y="662.429" width="6.095" height="3.048" /><rect x="1179.429" y="662.429" width="6.095" height="3.048" /><rect x="304.762" y="665.476" width="6.095" height="3.048" /><rect x="414.476" y="665.476" width="9.143" height="3.048" /><rect x="487.619" y="665.476" width="12.190" height="3.048" /><rect x="591.238" y="665.476" width="12.190" height="3.048" /><rect x="679.619" y="665.476" width="12.190" height="3.048" /><rect x="697.905" y="665.476" width="9.143" height="3.048" /><rect x="896.000" y="665.476" width="3.048" height="3.048" /><rect x="911.238" y="665.476" width="6.095" height="3.048" /><rect x="1179.429" y="665.476" width="6.095" height="3.048" /><rect x="307.810" y="668.524" width="6.095" height="3.048" /><rect x="417.524" y="668.524" width="15.238" height="3.048" /><rect x="499.810" y="668.524" width="3.048" height="3.048" /><rect x="594.286" y="668.524" width="9.143" height="3.048" /><rect x="697.905" y="668.524" width="9.143" height="3.048" /><rect x="716.190" y="668.524" width="9.143" height="3.048" /><rect x="911.238" y="668.524" width="6.095" height="3.048" /><rect x="1176.381" y="668.524" width="6.095" height="3.048" /><rect x="307.810" y="671.571" width="6.095" height="3.048" /><rect x="426.667" y="671.571" width="12.190" height="3.048" /><rect x="505.905" y="671.571" width="3.048" height="3.048" /><rect x="618.667" y="671.571" width="6.095" height="3.048" /><rect x="716.190" y="671.571" width="9.143" height="3.048" /><rect x="731.429" y="671.571" width="15.238" height="3.048" /><rect x="899.048" y="671.571" width="3.048" height="3.048" /><rect x="914.286" y="671.571" width="6.095" height="3.048" /><rect x="1176.381" y="671.571" width="6.095" height="3.048" /><rect x="310.857" y="674.619" width="3.048" height="3.048" /><rect x="432.762" y="674.619" width="12.190" height="3.048" /><rect x="512.000" y="674.619" width="9.143" height="3.048" /><rect x="618.667" y="674.619" width="18.286" height="3.048" /><rect x="731.429" y="674.619" width="33.524" height="3.048" /><rect x="896.000" y="674.619" width="9.143" height="3.048" /><rect x="914.286" y="674.619" width="6.095" height="3.048" /><rect x="1173.333" y="674.619" width="6.095" height="3.048" /><rect x="313.905" y="677.667" width="3.048" height="3.048" /><rect x="438.857" y="677.667" width="15.238" height="3.048" /><rect x="515.048" y="677.667" width="12.190" height="3.048" /><rect x="627.810" y="677.667" width="9.143" height="3.048" /><rect x="643.048" y="677.667" width="9.143" height="3.048" /><rect x="746.667" y="677.667" width="18.286" height="3.048" /><rect x="777.143" y="677.667" width="42.667" height="3.048" /><rect x="892.952" y="677.667" width="12.190" height="3.048" /><rect x="917.333" y="677.667" width="6.095" height="3.048" /><rect x="1173.333" y="677.667" width="6.095" height="3.048" /><rect x="313.905" y="680.714" width="3.048" height="3.048" /><rect x="448.000" y="680.714" width="15.238" height="3.048" /><rect x="521.143" y="680.714" width="12.190" height="3.048" /><rect x="643.048" y="680.714" width="9.143" height="3.048" /><rect x="658.286" y="680.714" width="9.143" height="3.048" /><rect x="777.143" y="680.714" width="42.667" height="3.048" /><rect x="892.952" y="680.714" width="9.143" height="3.048" /><rect x="920.381" y="680.714" width="6.095" height="3.048" /><rect x="1173.333" y="680.714" width="3.048" height="3.048" /><rect x="316.952" y="683.762" width="3.048" height="3.048" /><rect x="457.143" y="683.762" width="15.238" height="3.048" /><rect x="527.238" y="683.762" width="15.238" height="3.048" /><rect x="658.286" y="683.762" width="9.143" height="3.048" /><rect x="679.619" y="683.762" width="12.190" height="3.048" /><rect x="923.429" y="683.762" width="6.095" height="3.048" /><rect x="1170.286" y="683.762" width="3.048" height="3.048" /><rect x="320.000" y="686.810" width="3.048" height="3.048" /><rect x="466.286" y="686.810" width="12.190" height="3.048" /><rect x="533.333" y="686.810" width="18.286" height="3.048" /><rect x="679.619" y="686.810" width="33.524" height="3.048" /><rect x="923.429" y="686.810" width="6.095" height="3.048" /><rect x="1167.238" y="686.810" width="6.095" height="3.048" /><rect x="320.000" y="689.857" width="6.095" height="3.048" /><rect x="380.952" y="689.857" width="9.143" height="3.048" /><rect x="472.381" y="689.857" width="15.238" height="3.048" /><rect x="542.476" y="689.857" width="18.286" height="3.048" /><rect x="691.810" y="689.857" width="21.333" height="3.048" /><rect x="722.286" y="689.857" width="27.429" height="3.048" /><rect x="926.476" y="689.857" width="3.048" height="3.048" /><rect x="1167.238" y="689.857" width="6.095" height="3.048" /><rect x="320.000" y="692.905" width="6.095" height="3.048" /><rect x="377.905" y="692.905" width="15.238" height="3.048" /><rect x="478.476" y="692.905" width="18.286" height="3.048" /><rect x="551.619" y="692.905" width="15.238" height="3.048" /><rect x="722.286" y="692.905" width="27.429" height="3.048" /><rect x="780.190" y="692.905" width="9.143" height="3.048" /><rect x="795.429" y="692.905" width="73.143" height="3.048" /><rect x="911.238" y="692.905" width="3.048" height="3.048" /><rect x="929.524" y="692.905" width="3.048" height="3.048" /><rect x="1164.190" y="692.905" width="6.095" height="3.048" /><rect x="323.048" y="695.952" width="6.095" height="3.048" /><rect x="380.952" y="695.952" width="6.095" height="3.048" /><rect x="396.190" y="695.952" width="3.048" height="3.048" /><rect x="490.667" y="695.952" width="15.238" height="3.048" /><rect x="560.762" y="695.952" width="18.286" height="3.048" /><rect x="780.190" y="695.952" width="9.143" height="3.048" /><rect x="795.429" y="695.952" width="73.143" height="3.048" /><rect x="911.238" y="695.952" width="6.095" height="3.048" /><rect x="932.571" y="695.952" width="3.048" height="3.048" /><rect x="1161.143" y="695.952" width="6.095" height="3.048" /><rect x="326.095" y="699.000" width="6.095" height="3.048" /><rect x="380.952" y="699.000" width="6.095" height="3.048" /><rect x="402.286" y="699.000" width="3.048" height="3.048" /><rect x="499.810" y="699.000" width="15.238" height="3.048" /><rect x="569.905" y="699.000" width="18.286" height="3.048" /><rect x="914.286" y="699.000" width="6.095" height="3.048" /><rect x="932.571" y="699.000" width="6.095" height="3.048" /><rect x="1161.143" y="699.000" width="6.095" height="3.048" /><rect x="326.095" y="702.048" width="6.095" height="3.048" /><rect x="384.000" y="702.048" width="6.095" height="3.048" /><rect x="414.476" y="702.048" width="6.095" height="3.048" /><rect x="508.952" y="702.048" width="6.095" height="3.048" /><rect x="521.143" y="702.048" width="6.095" height="3.048" /><rect x="579.048" y="702.048" width="18.286" height="3.048" /><rect x="917.333" y="702.048" width="6.095" height="3.048" /><rect x="932.571" y="702.048" width="6.095" height="3.048" /><rect x="1158.095" y="702.048" width="6.095" height="3.048" /><rect x="329.143" y="705.095" width="6.095" height="3.048" /><rect x="384.000" y="705.095" width="9.143" height="3.048" /><rect x="414.476" y="705.095" width="12.190" height="3.048" /><rect x="521.143" y="705.095" width="15.238" height="3.048" /><rect x="591.238" y="705.095" width="6.095" height="3.048" /><rect x="606.476" y="705.095" width="9.143" height="3.048" /><rect x="920.381" y="705.095" width="6.095" height="3.048" /><rect x="935.619" y="705.095" width="3.048" height="3.048" /><rect x="1155.048" y="705.095" width="6.095" height="3.048" /><rect x="332.190" y="708.143" width="6.095" height="3.048" /><rect x="387.048" y="708.143" width="6.095" height="3.048" /><rect x="420.571" y="708.143" width="12.190" height="3.048" /><rect x="530.286" y="708.143" width="21.333" height="3.048" /><rect x="606.476" y="708.143" width="18.286" height="3.048" /><rect x="920.381" y="708.143" width="6.095" height="3.048" /><rect x="1155.048" y="708.143" width="6.095" height="3.048" /><rect x="332.190" y="711.190" width="6.095" height="3.048" /><rect x="390.095" y="711.190" width="6.095" height="3.048" /><rect x="426.667" y="711.190" width="9.143" height="3.048" /><rect x="539.429" y="711.190" width="24.381" height="3.048" /><rect x="618.667" y="711.190" width="6.095" height="3.048" /><rect x="633.905" y="711.190" width="6.095" height="3.048" /><rect x="923.429" y="711.190" width="3.048" height="3.048" /><rect x="938.667" y="711.190" width="3.048" height="3.048" /><rect x="1152.000" y="711.190" width="6.095" height="3.048" /><rect x="335.238" y="714.238" width="6.095" height="3.048" /><rect x="393.143" y="714.238" width="6.095" height="3.048" /><rect x="438.857" y="714.238" width="9.143" height="3.048" /><rect x="551.619" y="714.238" width="27.429" height="3.048" /><rect x="633.905" y="714.238" width="6.095" height="3.048" /><rect x="649.143" y="714.238" width="15.238" height="3.048" /><rect x="923.429" y="714.238" width="6.095" height="3.048" /><rect x="938.667" y="714.238" width="6.095" height="3.048" /><rect x="1148.952" y="714.238" width="6.095" height="3.048" /><rect x="338.286" y="717.286" width="6.095" height="3.048" /><rect x="396.190" y="717.286" width="6.095" height="3.048" /><rect x="441.905" y="717.286" width="12.190" height="3.048" /><rect x="563.810" y="717.286" width="30.476" height="3.048" /><rect x="649.143" y="717.286" width="15.238" height="3.048" /><rect x="670.476" y="717.286" width="24.381" height="3.048" /><rect x="923.429" y="717.286" width="6.095" height="3.048" /><rect x="938.667" y="717.286" width="6.095" height="3.048" /><rect x="1145.905" y="717.286" width="6.095" height="3.048" /><rect x="341.333" y="720.333" width="6.095" height="3.048" /><rect x="399.238" y="720.333" width="6.095" height="3.048" /><rect x="448.000" y="720.333" width="15.238" height="3.048" /><rect x="582.095" y="720.333" width="27.429" height="3.048" /><rect x="670.476" y="720.333" width="48.762" height="3.048" /><rect x="1142.857" y="720.333" width="6.095" height="3.048" /><rect x="341.333" y="723.381" width="9.143" height="3.048" /><rect x="402.286" y="723.381" width="6.095" height="3.048" /><rect x="457.143" y="723.381" width="9.143" height="3.048" /><rect x="597.333" y="723.381" width="12.190" height="3.048" /><rect x="618.667" y="723.381" width="18.286" height="3.048" /><rect x="670.476" y="723.381" width="12.190" height="3.048" /><rect x="694.857" y="723.381" width="24.381" height="3.048" /><rect x="1139.810" y="723.381" width="9.143" height="3.048" /><rect x="344.381" y="726.429" width="6.095" height="3.048" /><rect x="405.333" y="726.429" width="6.095" height="3.048" /><rect x="469.333" y="726.429" width="12.190" height="3.048" /><rect x="618.667" y="726.429" width="18.286" height="3.048" /><rect x="649.143" y="726.429" width="33.524" height="3.048" /><rect x="694.857" y="726.429" width="54.857" height="3.048" /><rect x="923.429" y="726.429" width="9.143" height="3.048" /><rect x="1139.810" y="726.429" width="6.095" height="3.048" /><rect x="347.429" y="729.476" width="6.095" height="3.048" /><rect x="408.381" y="729.476" width="6.095" height="3.048" /><rect x="472.381" y="729.476" width="15.238" height="3.048" /><rect x="649.143" y="729.476" width="33.524" height="3.048" /><rect x="911.238" y="729.476" width="18.286" height="3.048" /><rect x="941.714" y="729.476" width="6.095" height="3.048" /><rect x="1136.762" y="729.476" width="6.095" height="3.048" /><rect x="350.476" y="732.524" width="6.095" height="3.048" /><rect x="411.429" y="732.524" width="6.095" height="3.048" /><rect x="481.524" y="732.524" width="18.286" height="3.048" /><rect x="896.000" y="732.524" width="27.429" height="3.048" /><rect x="941.714" y="732.524" width="6.095" height="3.048" /><rect x="1133.714" y="732.524" width="6.095" height="3.048" /><rect x="353.524" y="735.571" width="6.095" height="3.048" /><rect x="414.476" y="735.571" width="6.095" height="3.048" /><rect x="487.619" y="735.571" width="21.333" height="3.048" /><rect x="880.762" y="735.571" width="6.095" height="3.048" /><rect x="896.000" y="735.571" width="12.190" height="3.048" /><rect x="941.714" y="735.571" width="6.095" height="3.048" /><rect x="1130.667" y="735.571" width="6.095" height="3.048" /><rect x="356.571" y="738.619" width="6.095" height="3.048" /><rect x="420.571" y="738.619" width="6.095" height="3.048" /><rect x="499.810" y="738.619" width="21.333" height="3.048" /><rect x="862.476" y="738.619" width="6.095" height="3.048" /><rect x="880.762" y="738.619" width="6.095" height="3.048" /><rect x="941.714" y="738.619" width="6.095" height="3.048" /><rect x="1127.619" y="738.619" width="6.095" height="3.048" /><rect x="359.619" y="741.667" width="6.095" height="3.048" /><rect x="423.619" y="741.667" width="9.143" height="3.048" /><rect x="508.952" y="741.667" width="18.286" height="3.048" /><rect x="844.190" y="741.667" width="12.190" height="3.048" /><rect x="862.476" y="741.667" width="6.095" height="3.048" /><rect x="917.333" y="741.667" width="12.190" height="3.048" /><rect x="941.714" y="741.667" width="6.095" height="3.048" /><rect x="1124.571" y="741.667" width="6.095" height="3.048" /><rect x="362.667" y="744.714" width="6.095" height="3.048" /><rect x="426.667" y="744.714" width="9.143" height="3.048" /><rect x="521.143" y="744.714" width="18.286" height="3.048" /><rect x="832.000" y="744.714" width="24.381" height="3.048" /><rect x="905.143" y="744.714" width="27.429" height="3.048" /><rect x="1121.524" y="744.714" width="6.095" height="3.048" /><rect x="365.714" y="747.762" width="6.095" height="3.048" /><rect x="429.714" y="747.762" width="12.190" height="3.048" /><rect x="530.286" y="747.762" width="9.143" height="3.048" /><rect x="545.524" y="747.762" width="12.190" height="3.048" /><rect x="810.667" y="747.762" width="15.238" height="3.048" /><rect x="832.000" y="747.762" width="9.143" height="3.048" /><rect x="886.857" y="747.762" width="9.143" height="3.048" /><rect x="905.143" y="747.762" width="9.143" height="3.048" /><rect x="923.429" y="747.762" width="9.143" height="3.048" /><rect x="1118.476" y="747.762" width="6.095" height="3.048" /><rect x="368.762" y="750.810" width="6.095" height="3.048" /><rect x="435.810" y="750.810" width="9.143" height="3.048" /><rect x="545.524" y="750.810" width="12.190" height="3.048" /><rect x="563.810" y="750.810" width="9.143" height="3.048" /><rect x="792.381" y="750.810" width="9.143" height="3.048" /><rect x="810.667" y="750.810" width="15.238" height="3.048" /><rect x="868.571" y="750.810" width="9.143" height="3.048" /><rect x="886.857" y="750.810" width="9.143" height="3.048" /><rect x="926.476" y="750.810" width="3.048" height="3.048" /><rect x="1115.429" y="750.810" width="6.095" height="3.048" /><rect x="371.810" y="753.857" width="9.143" height="3.048" /><rect x="441.905" y="753.857" width="9.143" height="3.048" /><rect x="563.810" y="753.857" width="24.381" height="3.048" /><rect x="774.095" y="753.857" width="27.429" height="3.048" /><rect x="853.333" y="753.857" width="24.381" height="3.048" /><rect x="938.667" y="753.857" width="6.095" height="3.048" /><rect x="1109.333" y="753.857" width="9.143" height="3.048" /><rect x="374.857" y="756.905" width="9.143" height="3.048" /><rect x="444.952" y="756.905" width="9.143" height="3.048" /><rect x="576.000" y="756.905" width="12.190" height="3.048" /><rect x="594.286" y="756.905" width="18.286" height="3.048" /><rect x="752.762" y="756.905" width="39.619" height="3.048" /><rect x="838.095" y="756.905" width="27.429" height="3.048" /><rect x="923.429" y="756.905" width="3.048" height="3.048" /><rect x="938.667" y="756.905" width="6.095" height="3.048" /><rect x="1106.286" y="756.905" width="9.143" height="3.048" /><rect x="377.905" y="759.952" width="9.143" height="3.048" /><rect x="451.048" y="759.952" width="9.143" height="3.048" /><rect x="594.286" y="759.952" width="18.286" height="3.048" /><rect x="624.762" y="759.952" width="15.238" height="3.048" /><rect x="719.238" y="759.952" width="24.381" height="3.048" /><rect x="752.762" y="759.952" width="18.286" height="3.048" /><rect x="825.905" y="759.952" width="6.095" height="3.048" /><rect x="838.095" y="759.952" width="12.190" height="3.048" /><rect x="920.381" y="759.952" width="6.095" height="3.048" /><rect x="938.667" y="759.952" width="3.048" height="3.048" /><rect x="1103.238" y="759.952" width="9.143" height="3.048" /><rect x="380.952" y="763.000" width="9.143" height="3.048" /><rect x="454.095" y="763.000" width="12.190" height="3.048" /><rect x="624.762" y="763.000" width="15.238" height="3.048" /><rect x="719.238" y="763.000" width="24.381" height="3.048" /><rect x="804.571" y="763.000" width="15.238" height="3.048" /><rect x="825.905" y="763.000" width="6.095" height="3.048" /><rect x="920.381" y="763.000" width="6.095" height="3.048" /><rect x="935.619" y="763.000" width="6.095" height="3.048" /><rect x="1100.190" y="763.000" width="6.095" height="3.048" /><rect x="387.048" y="766.048" width="6.095" height="3.048" /><rect x="460.190" y="766.048" width="12.190" height="3.048" /><rect x="795.429" y="766.048" width="24.381" height="3.048" /><rect x="917.333" y="766.048" width="6.095" height="3.048" /><rect x="935.619" y="766.048" width="6.095" height="3.048" /><rect x="1094.095" y="766.048" width="9.143" height="3.048" /><rect x="390.095" y="769.095" width="9.143" height="3.048" /><rect x="466.286" y="769.095" width="12.190" height="3.048" /><rect x="777.143" y="769.095" width="12.190" height="3.048" /><rect x="795.429" y="769.095" width="9.143" height="3.048" /><rect x="914.286" y="769.095" width="6.095" height="3.048" /><rect x="932.571" y="769.095" width="6.095" height="3.048" /><rect x="1091.048" y="769.095" width="9.143" height="3.048" /><rect x="393.143" y="772.143" width="9.143" height="3.048" /><rect x="472.381" y="772.143" width="15.238" height="3.048" /><rect x="764.952" y="772.143" width="24.381" height="3.048" /><rect x="905.143" y="772.143" width="12.190" height="3.048" /><rect x="929.524" y="772.143" width="6.095" height="3.048" /><rect x="1084.952" y="772.143" width="9.143" height="3.048" /><rect x="396.190" y="775.190" width="9.143" height="3.048" /><rect x="481.524" y="775.190" width="12.190" height="3.048" /><rect x="749.714" y="775.190" width="9.143" height="3.048" /><rect x="764.952" y="775.190" width="12.190" height="3.048" /><rect x="889.905" y="775.190" width="21.333" height="3.048" /><rect x="929.524" y="775.190" width="6.095" height="3.048" /><rect x="1081.905" y="775.190" width="9.143" height="3.048" /><rect x="402.286" y="778.238" width="9.143" height="3.048" /><rect x="487.619" y="778.238" width="15.238" height="3.048" /><rect x="734.476" y="778.238" width="24.381" height="3.048" /><rect x="880.762" y="778.238" width="21.333" height="3.048" /><rect x="929.524" y="778.238" width="3.048" height="3.048" /><rect x="1075.810" y="778.238" width="9.143" height="3.048" /><rect x="405.333" y="781.286" width="9.143" height="3.048" /><rect x="496.762" y="781.286" width="18.286" height="3.048" /><rect x="719.238" y="781.286" width="30.476" height="3.048" /><rect x="868.571" y="781.286" width="6.095" height="3.048" /><rect x="880.762" y="781.286" width="9.143" height="3.048" /><rect x="926.476" y="781.286" width="3.048" height="3.048" /><rect x="1072.762" y="781.286" width="9.143" height="3.048" /><rect x="408.381" y="784.333" width="12.190" height="3.048" /><rect x="505.905" y="784.333" width="9.143" height="3.048" /><rect x="521.143" y="784.333" width="9.143" height="3.048" /><rect x="700.952" y="784.333" width="9.143" height="3.048" /><rect x="719.238" y="784.333" width="12.190" height="3.048" /><rect x="856.381" y="784.333" width="6.095" height="3.048" /><rect x="868.571" y="784.333" width="6.095" height="3.048" /><rect x="923.429" y="784.333" width="3.048" height="3.048" /><rect x="1066.667" y="784.333" width="9.143" height="3.048" /><rect x="414.476" y="787.381" width="9.143" height="3.048" /><rect x="521.143" y="787.381" width="27.429" height="3.048" /><rect x="682.667" y="787.381" width="12.190" height="3.048" /><rect x="700.952" y="787.381" width="9.143" height="3.048" /><rect x="844.190" y="787.381" width="18.286" height="3.048" /><rect x="920.381" y="787.381" width="6.095" height="3.048" /><rect x="1060.571" y="787.381" width="12.190" height="3.048" /><rect x="423.619" y="790.429" width="3.048" height="3.048" /><rect x="533.333" y="790.429" width="30.476" height="3.048" /><rect x="664.381" y="790.429" width="30.476" height="3.048" /><rect x="832.000" y="790.429" width="21.333" height="3.048" /><rect x="917.333" y="790.429" width="6.095" height="3.048" /><rect x="1054.476" y="790.429" width="12.190" height="3.048" /><rect x="429.714" y="793.476" width="3.048" height="3.048" /><rect x="551.619" y="793.476" width="12.190" height="3.048" /><rect x="579.048" y="793.476" width="67.048" height="3.048" /><rect x="664.381" y="793.476" width="15.238" height="3.048" /><rect x="819.810" y="793.476" width="21.333" height="3.048" /><rect x="914.286" y="793.476" width="6.095" height="3.048" /><rect x="1051.429" y="793.476" width="9.143" height="3.048" /><rect x="435.810" y="796.524" width="3.048" height="3.048" /><rect x="579.048" y="796.524" width="67.048" height="3.048" /><rect x="804.571" y="796.524" width="9.143" height="3.048" /><rect x="819.810" y="796.524" width="9.143" height="3.048" /><rect x="911.238" y="796.524" width="6.095" height="3.048" /><rect x="1042.286" y="796.524" width="9.143" height="3.048" /><rect x="438.857" y="799.571" width="9.143" height="3.048" /><rect x="795.429" y="799.571" width="18.286" height="3.048" /><rect x="908.190" y="799.571" width="6.095" height="3.048" /><rect x="1033.143" y="799.571" width="15.238" height="3.048" /><rect x="441.905" y="802.619" width="12.190" height="3.048" /><rect x="783.238" y="802.619" width="21.333" height="3.048" /><rect x="902.095" y="802.619" width="9.143" height="3.048" /><rect x="1027.048" y="802.619" width="12.190" height="3.048" /><rect x="448.000" y="805.667" width="9.143" height="3.048" /><rect x="768.000" y="805.667" width="24.381" height="3.048" /><rect x="899.048" y="805.667" width="9.143" height="3.048" /><rect x="1024.000" y="805.667" width="9.143" height="3.048" /><rect x="460.190" y="808.714" width="9.143" height="3.048" /><rect x="755.810" y="808.714" width="24.381" height="3.048" /><rect x="892.952" y="808.714" width="9.143" height="3.048" /><rect x="1008.762" y="808.714" width="12.190" height="3.048" /><rect x="463.238" y="811.762" width="15.238" height="3.048" /><rect x="746.667" y="811.762" width="18.286" height="3.048" /><rect x="886.857" y="811.762" width="12.190" height="3.048" /><rect x="1002.667" y="811.762" width="15.238" height="3.048" /><rect x="469.333" y="814.810" width="18.286" height="3.048" /><rect x="731.429" y="814.810" width="9.143" height="3.048" /><rect x="746.667" y="814.810" width="9.143" height="3.048" /><rect x="883.810" y="814.810" width="9.143" height="3.048" /><rect x="993.524" y="814.810" width="15.238" height="3.048" /><rect x="478.476" y="817.857" width="9.143" height="3.048" /><rect x="493.714" y="817.857" width="9.143" height="3.048" /><rect x="716.190" y="817.857" width="6.095" height="3.048" /><rect x="731.429" y="817.857" width="9.143" height="3.048" /><rect x="874.667" y="817.857" width="9.143" height="3.048" /><rect x="981.333" y="817.857" width="18.286" height="3.048" /><rect x="493.714" y="820.905" width="18.286" height="3.048" /><rect x="697.905" y="820.905" width="12.190" height="3.048" /><rect x="716.190" y="820.905" width="6.095" height="3.048" /><rect x="871.619" y="820.905" width="12.190" height="3.048" /><rect x="960.000" y="820.905" width="12.190" height="3.048" /><rect x="981.333" y="820.905" width="9.143" height="3.048" /><rect x="502.857" y="823.952" width="21.333" height="3.048" /><rect x="685.714" y="823.952" width="24.381" height="3.048" /><rect x="871.619" y="823.952" width="12.190" height="3.048" /><rect x="947.810" y="823.952" width="24.381" height="3.048" /><rect x="515.048" y="827.000" width="9.143" height="3.048" /><rect x="533.333" y="827.000" width="12.190" height="3.048" /><rect x="655.238" y="827.000" width="18.286" height="3.048" /><rect x="685.714" y="827.000" width="12.190" height="3.048" /><rect x="874.667" y="827.000" width="6.095" height="3.048" /><rect x="896.000" y="827.000" width="33.524" height="3.048" /><rect x="947.810" y="827.000" width="9.143" height="3.048" /><rect x="533.333" y="830.048" width="12.190" height="3.048" /><rect x="563.810" y="830.048" width="30.476" height="3.048" /><rect x="603.429" y="830.048" width="45.714" height="3.048" /><rect x="655.238" y="830.048" width="18.286" height="3.048" /><rect x="896.000" y="830.048" width="33.524" height="3.048" /><rect x="563.810" y="833.095" width="30.476" height="3.048" /><rect x="603.429" y="833.095" width="45.714" height="3.048" /></g></svg>