<svg xmlns="http://www.w3.org/2000/svg" width="1024" height="1024" viewBox="0 0 1024 1024">
<path d="M852 566 L851 567 L836 567 L835 568 L827 568 L826 569 L821 569 L820 570 L818 570 L817 571 L812 571 L811 572 L810 572 L809 573 L806 573 L805 574 L801 574 L800 575 L799 575 L798 576 L797 576 L796 577 L793 577 L792 578 L791 578 L790 579 L788 579 L787 580 L786 580 L785 581 L784 581 L783 582 L781 582 L780 583 L779 583 L778 584 L777 584 L776 585 L775 585 L774 586 L773 586 L772 587 L771 587 L770 588 L769 588 L767 590 L765 590 L763 592 L762 592 L760 594 L759 594 L756 597 L755 597 L754 598 L753 598 L752 599 L751 599 L746 604 L745 604 L744 605 L743 605 L743 606 L742 607 L741 607 L735 613 L734 613 L733 614 L733 615 L731 617 L730 617 L729 618 L729 619 L721 627 L721 628 L717 632 L717 633 L714 636 L714 637 L713 638 L713 639 L712 640 L712 641 L709 644 L709 645 L708 646 L708 647 L707 648 L707 649 L706 650 L705 650 L705 652 L704 653 L704 654 L703 655 L703 656 L701 658 L701 660 L700 661 L700 663 L698 665 L698 667 L697 668 L697 671 L696 672 L696 673 L695 674 L695 677 L694 678 L694 681 L693 682 L693 687 L692 688 L692 694 L691 695 L691 716 L692 717 L692 723 L693 724 L693 728 L694 729 L694 732 L695 733 L695 735 L696 736 L696 738 L697 739 L697 741 L698 742 L698 743 L699 744 L699 745 L700 746 L700 748 L702 750 L702 752 L703 752 L704 753 L704 755 L707 758 L707 759 L709 761 L709 762 L712 765 L712 766 L713 767 L713 768 L715 770 L715 772 L716 773 L716 774 L717 775 L717 777 L718 778 L718 780 L719 781 L719 787 L720 788 L720 794 L719 795 L719 801 L718 802 L718 805 L717 806 L717 807 L716 808 L716 809 L715 810 L715 811 L714 812 L714 813 L712 815 L712 816 L711 817 L711 818 L710 819 L709 819 L709 820 L701 828 L700 828 L700 829 L699 830 L698 830 L694 834 L692 834 L690 836 L689 836 L688 837 L687 837 L685 839 L684 839 L683 840 L682 840 L680 842 L677 842 L677 844 L678 845 L685 845 L686 846 L716 846 L717 845 L723 845 L724 844 L730 844 L731 843 L736 843 L737 842 L741 842 L742 841 L745 841 L746 840 L749 840 L750 839 L752 839 L753 838 L756 838 L757 837 L760 837 L761 836 L762 836 L763 835 L765 835 L766 834 L767 834 L768 833 L769 833 L770 832 L772 832 L773 831 L774 831 L775 830 L776 830 L777 829 L779 829 L780 828 L781 828 L782 827 L783 827 L784 826 L785 826 L786 825 L787 825 L788 824 L789 824 L790 823 L791 823 L793 821 L794 821 L795 820 L796 820 L797 819 L798 819 L800 817 L801 817 L802 816 L803 816 L805 814 L806 814 L808 812 L809 812 L814 807 L815 807 L818 804 L819 804 L825 798 L826 798 L830 794 L830 793 L831 792 L832 792 L835 789 L835 788 L836 787 L837 787 L837 786 L842 781 L842 780 L844 778 L844 777 L845 776 L846 776 L846 775 L848 773 L848 772 L851 769 L851 767 L855 763 L855 762 L856 761 L856 760 L858 758 L858 756 L859 755 L859 753 L861 751 L861 750 L862 749 L862 748 L863 747 L863 745 L864 744 L864 743 L865 742 L865 740 L866 739 L866 737 L867 736 L867 734 L868 733 L868 730 L869 729 L869 725 L870 724 L870 721 L871 720 L871 691 L870 690 L870 684 L869 683 L869 680 L868 679 L868 678 L867 677 L867 675 L866 674 L866 671 L865 670 L865 668 L864 667 L864 666 L863 665 L863 664 L862 663 L862 662 L861 661 L861 660 L860 659 L860 658 L858 656 L858 655 L857 654 L856 654 L855 653 L855 651 L853 649 L853 648 L852 648 L851 647 L851 646 L849 644 L849 642 L848 641 L848 640 L846 638 L846 635 L845 634 L845 633 L844 632 L844 626 L843 625 L843 620 L844 619 L844 615 L845 614 L845 612 L846 611 L846 610 L847 609 L847 608 L848 607 L848 606 L850 604 L850 603 L851 602 L852 602 L858 596 L859 596 L861 594 L862 594 L864 592 L865 592 L868 589 L869 589 L872 586 L873 586 L874 585 L875 585 L876 584 L878 584 L880 582 L881 582 L882 581 L883 581 L884 580 L886 580 L887 579 L888 579 L889 578 L890 578 L891 577 L893 577 L894 576 L895 576 L896 575 L898 575 L898 572 L894 572 L893 571 L890 571 L889 570 L886 570 L885 569 L880 569 L879 568 L872 568 L871 567 L857 567 L856 566 z M776 668 L777 667 L787 667 L788 668 L790 668 L791 669 L793 669 L794 670 L795 670 L796 671 L797 671 L798 672 L799 672 L800 673 L801 673 L805 677 L806 677 L807 678 L807 679 L811 683 L811 685 L813 687 L813 689 L814 690 L814 691 L815 692 L815 696 L816 697 L816 706 L815 707 L815 710 L814 711 L814 713 L813 714 L813 716 L811 718 L811 719 L810 720 L810 721 L802 729 L801 729 L799 731 L798 731 L797 732 L796 732 L795 733 L794 733 L793 734 L790 734 L789 735 L786 735 L785 736 L780 736 L779 735 L773 735 L772 734 L770 734 L769 733 L768 733 L767 732 L766 732 L765 731 L764 731 L763 730 L762 730 L752 720 L752 719 L751 718 L751 717 L750 716 L750 715 L749 714 L749 712 L748 711 L748 708 L747 707 L747 696 L748 695 L748 691 L749 690 L749 688 L751 686 L751 685 L753 683 L753 682 L754 681 L754 680 L756 678 L757 678 L762 673 L763 673 L765 671 L766 671 L767 670 L769 670 L770 669 L773 669 L774 668 z" fill="#ffffff" stroke="#000000" stroke-width="2.4" stroke-linejoin="round" stroke-linecap="round" fill-rule="evenodd"/>
<path d="M377 130 L376 131 L376 132 L375 133 L375 134 L372 137 L372 138 L371 139 L371 141 L370 142 L369 142 L369 143 L367 145 L367 147 L366 148 L365 148 L365 149 L364 150 L364 151 L363 152 L363 153 L361 155 L361 156 L360 157 L360 158 L359 159 L359 160 L358 161 L358 162 L357 163 L357 164 L356 165 L356 166 L355 167 L355 168 L354 169 L354 170 L353 171 L353 172 L352 173 L352 175 L351 176 L351 177 L350 178 L350 179 L349 180 L349 181 L348 182 L348 183 L347 184 L347 185 L346 186 L346 188 L345 189 L345 190 L344 191 L344 193 L343 194 L343 196 L342 197 L342 199 L341 200 L341 201 L340 202 L340 203 L339 204 L339 207 L338 208 L338 210 L337 211 L337 213 L336 214 L336 217 L335 218 L335 220 L334 221 L334 224 L333 225 L333 228 L332 229 L332 233 L331 234 L331 237 L330 238 L330 243 L329 244 L329 248 L328 249 L328 252 L327 253 L327 257 L326 258 L326 264 L325 265 L325 273 L324 274 L324 283 L323 284 L323 335 L324 336 L324 347 L325 348 L325 353 L326 354 L326 366 L327 367 L327 368 L328 369 L328 376 L329 377 L329 381 L330 382 L330 386 L331 387 L331 391 L332 392 L332 394 L333 395 L333 400 L334 401 L334 406 L335 407 L335 409 L336 410 L336 413 L337 414 L337 417 L338 418 L338 422 L339 423 L339 426 L340 427 L340 428 L341 429 L341 433 L342 434 L342 436 L343 437 L343 438 L344 439 L344 443 L345 444 L345 445 L346 446 L346 447 L347 448 L347 451 L348 452 L348 453 L349 454 L349 456 L350 457 L350 461 L351 461 L352 462 L352 465 L353 466 L353 469 L354 470 L354 472 L355 473 L355 474 L356 475 L356 477 L357 478 L357 480 L358 481 L358 483 L359 484 L359 486 L360 487 L360 488 L361 489 L361 491 L363 493 L363 494 L364 495 L364 497 L365 498 L365 501 L366 502 L366 503 L367 504 L367 505 L368 506 L368 508 L370 510 L370 511 L371 512 L371 514 L372 515 L372 516 L373 517 L373 519 L374 520 L374 521 L375 522 L375 524 L376 525 L376 526 L377 527 L377 529 L379 531 L379 532 L380 533 L380 535 L381 536 L381 537 L382 538 L382 540 L383 540 L384 541 L384 543 L385 544 L385 545 L386 546 L386 547 L387 548 L387 549 L388 550 L388 553 L390 555 L390 556 L391 557 L391 558 L392 559 L392 560 L393 561 L393 563 L394 564 L394 565 L395 566 L395 567 L396 568 L396 570 L397 571 L397 572 L398 573 L398 575 L399 576 L399 577 L400 578 L400 579 L401 580 L401 582 L402 583 L402 584 L403 585 L403 586 L404 587 L404 588 L405 589 L405 590 L407 592 L407 594 L408 595 L408 597 L409 598 L409 599 L410 600 L410 602 L411 603 L411 604 L412 605 L412 606 L413 607 L413 609 L414 610 L414 611 L415 612 L415 613 L416 614 L416 616 L417 617 L417 618 L418 619 L418 621 L419 622 L419 623 L420 624 L420 626 L421 627 L421 628 L422 629 L422 631 L423 632 L423 634 L424 635 L424 637 L425 637 L426 638 L426 640 L427 641 L427 643 L428 644 L428 646 L430 648 L430 650 L431 651 L431 652 L432 653 L432 655 L433 656 L433 657 L435 659 L435 661 L437 663 L437 664 L438 665 L438 666 L439 667 L439 668 L440 669 L440 670 L442 672 L442 673 L443 674 L443 675 L444 675 L445 676 L445 677 L446 678 L446 679 L447 679 L448 680 L448 682 L449 683 L450 683 L451 684 L451 685 L452 685 L453 686 L453 688 L454 688 L455 689 L455 690 L460 695 L460 696 L461 696 L466 701 L468 701 L469 702 L469 703 L472 706 L473 706 L475 708 L476 708 L477 709 L477 710 L478 710 L481 713 L482 713 L483 714 L485 714 L486 715 L486 716 L487 716 L489 718 L490 718 L491 719 L492 719 L493 720 L494 720 L495 721 L496 721 L497 722 L498 722 L500 724 L502 724 L504 726 L506 726 L507 727 L508 727 L509 728 L510 728 L512 730 L513 730 L514 731 L516 731 L517 732 L518 732 L519 733 L520 733 L521 734 L523 734 L524 735 L525 735 L526 736 L528 736 L529 737 L530 737 L531 738 L534 738 L535 739 L536 739 L537 740 L539 740 L540 741 L542 741 L543 742 L546 742 L547 743 L549 743 L550 744 L552 744 L553 745 L557 745 L558 746 L560 746 L561 747 L563 747 L564 748 L569 748 L570 749 L573 749 L574 750 L577 750 L578 751 L582 751 L583 752 L587 752 L588 753 L593 753 L594 754 L601 754 L602 755 L610 755 L611 756 L619 756 L620 757 L636 757 L637 758 L692 758 L693 757 L695 757 L695 755 L693 753 L693 752 L691 750 L691 747 L690 746 L690 745 L689 744 L689 743 L643 743 L642 742 L631 742 L630 741 L623 741 L622 740 L615 740 L614 739 L608 739 L607 738 L604 738 L603 737 L598 737 L597 736 L595 736 L594 735 L588 735 L587 734 L583 734 L582 733 L579 733 L578 732 L575 732 L574 731 L572 731 L571 730 L568 730 L567 729 L565 729 L564 728 L560 728 L559 727 L558 727 L557 726 L555 726 L554 725 L552 725 L551 724 L549 724 L548 723 L546 723 L545 722 L543 722 L542 721 L541 721 L540 720 L538 720 L536 718 L533 718 L532 717 L531 717 L530 716 L528 716 L526 714 L524 714 L522 712 L521 712 L520 711 L519 711 L517 709 L515 709 L514 708 L513 708 L511 706 L510 706 L509 705 L508 705 L507 704 L506 704 L505 703 L504 703 L501 700 L500 700 L499 699 L498 699 L496 697 L495 697 L491 693 L490 693 L480 683 L479 683 L477 681 L477 680 L475 678 L474 678 L473 677 L473 676 L469 672 L469 671 L467 669 L467 668 L465 666 L465 665 L463 663 L463 661 L461 659 L461 658 L459 656 L459 655 L458 654 L458 652 L457 651 L457 650 L456 649 L456 648 L455 647 L455 645 L454 644 L454 641 L453 640 L453 639 L452 638 L452 635 L451 634 L451 630 L450 629 L450 625 L449 624 L449 617 L448 616 L448 571 L449 570 L449 562 L450 561 L450 552 L451 551 L451 545 L452 544 L452 536 L453 535 L453 531 L454 530 L454 526 L455 525 L455 521 L456 520 L456 514 L457 513 L457 510 L458 509 L458 508 L459 507 L459 502 L460 501 L460 496 L461 495 L461 494 L462 493 L462 489 L463 488 L463 486 L464 485 L464 481 L465 480 L465 477 L466 476 L466 474 L467 473 L467 471 L468 470 L468 467 L469 466 L469 463 L470 462 L470 459 L471 458 L471 456 L472 455 L472 453 L473 452 L475 452 L476 453 L476 490 L475 491 L475 502 L474 503 L474 512 L473 513 L473 519 L472 520 L472 527 L471 528 L471 532 L470 533 L470 538 L469 539 L469 543 L468 544 L468 549 L467 550 L467 554 L466 555 L466 559 L465 560 L465 564 L464 565 L464 570 L463 571 L463 574 L462 575 L462 581 L461 582 L461 591 L460 592 L460 628 L461 629 L461 633 L462 634 L462 639 L463 640 L463 641 L464 642 L464 644 L465 645 L465 647 L467 649 L467 652 L468 653 L468 654 L469 655 L469 656 L470 657 L470 658 L471 659 L471 660 L473 662 L473 663 L475 665 L475 666 L477 668 L477 669 L485 677 L485 678 L486 678 L487 679 L487 680 L488 681 L489 681 L493 685 L494 685 L497 688 L498 688 L500 690 L501 690 L503 692 L503 693 L504 693 L505 694 L506 694 L507 695 L508 695 L510 697 L511 697 L512 698 L514 698 L516 700 L517 700 L519 702 L520 702 L521 703 L523 703 L524 704 L525 704 L526 705 L527 705 L529 707 L531 707 L532 708 L535 708 L537 710 L539 710 L540 711 L542 711 L544 713 L547 713 L549 715 L551 715 L552 716 L555 716 L556 717 L559 717 L560 718 L561 718 L562 719 L565 719 L566 720 L569 720 L570 721 L573 721 L574 722 L576 722 L577 723 L581 723 L582 724 L585 724 L586 725 L589 725 L590 726 L593 726 L594 727 L599 727 L600 728 L604 728 L605 729 L610 729 L611 730 L615 730 L616 731 L620 731 L621 732 L631 732 L632 733 L639 733 L640 734 L649 734 L650 735 L669 735 L670 736 L686 736 L686 734 L685 733 L685 730 L684 729 L684 724 L683 723 L683 716 L671 716 L670 715 L644 715 L643 714 L638 714 L637 713 L626 713 L625 712 L621 712 L620 711 L614 711 L613 710 L606 710 L605 709 L600 709 L599 708 L596 708 L595 707 L591 707 L590 706 L586 706 L585 705 L581 705 L580 704 L578 704 L577 703 L574 703 L573 702 L570 702 L569 701 L568 701 L567 700 L564 700 L563 699 L562 699 L561 698 L557 698 L556 697 L555 697 L554 696 L552 696 L550 694 L548 694 L547 693 L545 693 L544 692 L543 692 L542 691 L540 691 L539 690 L538 690 L537 689 L536 689 L535 688 L534 688 L533 687 L532 687 L531 686 L530 686 L529 685 L528 685 L527 684 L526 684 L525 683 L523 683 L520 680 L519 680 L517 678 L516 678 L512 674 L511 674 L507 670 L506 670 L496 660 L496 659 L493 656 L493 655 L491 653 L491 652 L490 651 L490 650 L488 648 L488 647 L486 645 L486 642 L485 641 L485 639 L484 638 L484 636 L483 635 L483 632 L482 631 L482 627 L481 626 L481 598 L482 597 L482 588 L483 587 L483 583 L484 582 L484 576 L485 575 L485 571 L486 570 L486 565 L487 564 L487 559 L488 558 L488 557 L489 556 L489 551 L490 550 L490 547 L491 546 L491 542 L492 541 L492 536 L493 535 L493 530 L494 529 L494 524 L495 523 L495 517 L496 516 L496 509 L497 508 L497 505 L498 504 L498 494 L499 493 L499 464 L498 463 L498 455 L497 454 L497 447 L496 446 L496 439 L495 438 L495 434 L494 433 L494 430 L493 429 L493 425 L492 424 L492 420 L491 419 L491 415 L490 414 L490 411 L489 410 L489 407 L490 406 L490 405 L491 404 L491 402 L492 401 L492 400 L494 398 L494 396 L496 394 L496 393 L497 392 L497 391 L498 390 L498 389 L499 388 L499 387 L500 386 L500 384 L502 382 L502 381 L503 380 L503 379 L504 378 L504 377 L505 376 L505 375 L506 374 L506 373 L507 372 L507 371 L508 370 L508 369 L509 368 L509 367 L510 366 L510 365 L511 364 L511 363 L512 362 L512 360 L513 359 L513 358 L514 357 L514 356 L515 355 L516 355 L516 353 L517 352 L517 351 L518 350 L518 349 L520 347 L520 346 L521 345 L521 344 L522 343 L522 342 L523 341 L523 340 L525 338 L525 337 L526 336 L526 334 L527 333 L528 333 L528 332 L529 331 L529 330 L530 329 L530 328 L531 327 L531 326 L533 324 L533 323 L534 322 L534 321 L536 319 L536 317 L538 315 L538 314 L541 311 L541 310 L542 309 L542 308 L543 307 L543 306 L545 304 L545 302 L546 301 L547 301 L547 300 L548 299 L548 298 L550 296 L550 294 L551 293 L552 293 L552 292 L553 291 L553 290 L556 287 L556 286 L558 284 L558 283 L560 281 L560 280 L562 278 L562 277 L564 275 L564 274 L565 273 L565 272 L567 270 L567 269 L568 268 L568 267 L569 266 L570 266 L570 263 L571 262 L572 262 L575 259 L575 257 L576 256 L577 256 L578 255 L578 254 L579 253 L579 252 L583 248 L583 247 L585 245 L585 244 L586 243 L586 242 L590 238 L590 237 L592 235 L592 234 L596 230 L596 229 L599 226 L599 225 L600 224 L601 224 L601 223 L604 220 L604 219 L606 217 L606 216 L610 212 L610 211 L614 207 L614 206 L618 202 L618 201 L619 200 L620 200 L620 199 L623 196 L623 195 L624 194 L625 194 L625 193 L629 189 L629 188 L630 187 L631 187 L632 186 L632 185 L633 184 L633 183 L634 182 L635 182 L636 181 L636 180 L643 173 L643 172 L646 169 L646 168 L647 167 L648 167 L649 166 L649 165 L652 162 L652 161 L654 159 L655 159 L655 158 L657 156 L658 156 L658 155 L663 150 L663 149 L671 141 L671 140 L673 138 L674 138 L674 137 L675 136 L676 136 L676 135 L679 132 L679 130 L648 130 L647 131 L647 132 L646 133 L645 133 L644 134 L644 135 L635 144 L635 145 L628 152 L628 153 L622 159 L622 160 L617 165 L617 166 L616 167 L615 167 L615 168 L612 171 L612 172 L611 173 L610 173 L609 174 L609 175 L606 178 L606 179 L601 184 L601 185 L600 186 L600 187 L599 188 L598 188 L596 190 L596 191 L593 194 L593 195 L591 197 L591 199 L590 200 L588 200 L588 201 L587 202 L587 203 L586 204 L586 205 L585 206 L584 206 L583 207 L583 208 L582 209 L582 210 L581 211 L580 211 L578 213 L578 214 L576 216 L576 217 L574 219 L574 221 L573 222 L572 222 L570 224 L570 225 L568 227 L568 228 L565 231 L565 232 L563 234 L563 235 L560 238 L560 239 L557 242 L557 243 L554 246 L554 247 L553 248 L553 249 L551 251 L551 252 L548 255 L548 256 L547 257 L547 258 L544 261 L544 263 L540 267 L540 268 L538 270 L538 271 L536 273 L536 274 L535 275 L535 276 L534 277 L534 278 L532 280 L532 281 L530 283 L530 284 L529 285 L529 286 L527 288 L527 289 L525 291 L525 292 L523 294 L523 295 L522 296 L522 297 L520 299 L520 300 L519 301 L519 302 L517 304 L517 305 L516 306 L516 307 L515 308 L515 309 L513 311 L513 312 L512 313 L512 314 L511 315 L511 316 L510 317 L510 318 L509 319 L509 320 L508 321 L508 322 L507 323 L507 325 L506 326 L505 326 L505 327 L503 329 L503 331 L502 332 L502 333 L500 335 L500 336 L499 337 L499 338 L498 339 L498 340 L497 341 L497 342 L496 343 L496 344 L494 346 L494 348 L493 349 L493 350 L491 352 L491 354 L490 355 L490 356 L488 358 L488 359 L487 360 L487 362 L485 364 L485 365 L484 366 L484 368 L483 369 L483 371 L481 373 L479 373 L478 372 L478 370 L477 369 L477 367 L476 366 L476 363 L475 362 L475 360 L474 359 L474 357 L473 356 L473 354 L472 353 L472 351 L471 350 L471 348 L470 347 L470 345 L469 344 L469 342 L468 341 L468 339 L467 338 L467 335 L466 334 L466 332 L465 331 L465 330 L464 329 L464 327 L463 326 L463 324 L462 323 L462 320 L461 319 L461 318 L460 317 L460 314 L459 313 L459 312 L458 311 L458 309 L457 308 L457 307 L456 306 L456 304 L455 303 L455 300 L454 299 L454 298 L453 297 L453 294 L452 293 L452 291 L451 290 L451 289 L450 288 L450 286 L449 285 L449 283 L448 282 L448 274 L449 273 L449 271 L451 269 L451 268 L452 267 L452 266 L453 265 L453 263 L455 261 L455 260 L456 259 L456 258 L457 257 L457 256 L458 255 L458 254 L459 253 L459 252 L460 251 L460 250 L461 249 L461 248 L463 246 L463 245 L464 244 L464 243 L465 242 L465 241 L466 240 L466 239 L467 238 L467 237 L468 236 L468 235 L469 234 L469 233 L471 231 L471 230 L472 229 L472 228 L473 227 L473 226 L476 223 L476 222 L477 221 L477 219 L478 218 L478 217 L482 213 L482 212 L483 211 L483 210 L484 209 L484 208 L486 206 L486 205 L487 204 L487 203 L489 201 L489 199 L490 198 L491 198 L491 197 L493 195 L493 194 L494 193 L494 192 L496 190 L496 189 L499 186 L499 185 L500 184 L500 183 L501 182 L502 182 L502 181 L504 179 L504 178 L507 175 L507 174 L509 172 L509 171 L512 168 L512 167 L515 164 L515 163 L518 160 L518 159 L524 153 L524 152 L527 149 L527 148 L534 141 L534 140 L541 133 L541 130 L510 130 L507 133 L507 134 L505 136 L505 137 L500 142 L500 143 L498 145 L498 146 L496 148 L496 149 L493 152 L493 153 L491 155 L491 156 L488 159 L488 160 L485 163 L485 164 L484 165 L484 166 L482 168 L482 169 L480 171 L480 172 L477 175 L477 176 L475 178 L475 179 L474 180 L474 181 L473 182 L473 183 L471 185 L471 186 L470 187 L470 188 L468 190 L468 192 L465 195 L465 196 L463 198 L463 199 L462 200 L462 201 L461 202 L461 203 L459 205 L459 206 L458 207 L458 208 L457 209 L457 210 L456 211 L456 212 L455 213 L455 214 L454 215 L454 216 L452 218 L452 220 L450 222 L450 224 L449 225 L449 226 L447 228 L447 230 L446 231 L446 232 L445 233 L445 235 L443 237 L441 237 L440 236 L440 222 L441 221 L441 216 L442 215 L442 206 L443 205 L443 201 L444 200 L444 197 L445 196 L445 192 L446 191 L446 187 L447 186 L447 184 L448 183 L448 180 L449 179 L449 176 L450 175 L450 174 L451 173 L451 169 L452 168 L452 166 L453 165 L453 164 L454 163 L454 161 L455 160 L455 159 L456 158 L456 156 L457 155 L457 154 L458 153 L458 151 L460 149 L460 146 L461 145 L462 145 L462 143 L463 142 L463 141 L464 140 L464 139 L465 138 L465 137 L466 136 L466 135 L467 134 L467 133 L468 132 L468 130 L442 130 L442 131 L441 132 L441 133 L440 134 L440 135 L439 136 L439 138 L438 139 L438 140 L437 141 L437 143 L435 145 L435 147 L434 148 L434 150 L433 151 L433 152 L432 153 L432 156 L431 157 L431 158 L430 159 L430 162 L429 163 L429 165 L428 166 L428 168 L427 169 L427 171 L426 172 L426 174 L425 175 L425 180 L424 181 L424 185 L423 186 L423 191 L422 192 L422 196 L421 197 L421 202 L420 203 L420 214 L419 215 L419 243 L420 244 L420 255 L421 256 L421 260 L422 261 L422 265 L423 266 L423 272 L424 273 L424 277 L425 278 L425 282 L424 283 L424 284 L422 286 L422 288 L421 289 L421 290 L420 291 L420 292 L419 293 L419 294 L418 295 L418 296 L417 297 L417 299 L416 300 L416 301 L415 302 L415 303 L414 304 L414 306 L412 308 L412 311 L411 312 L411 313 L410 314 L410 315 L409 316 L409 318 L408 319 L408 321 L407 322 L407 323 L406 324 L406 326 L405 327 L405 329 L404 330 L404 331 L403 332 L403 334 L402 335 L402 336 L401 337 L401 340 L400 341 L400 343 L399 344 L399 346 L398 347 L398 350 L397 351 L397 353 L396 354 L396 356 L395 357 L395 360 L394 361 L394 364 L393 365 L393 367 L392 368 L392 372 L391 373 L389 373 L387 371 L387 364 L386 363 L386 356 L385 355 L385 349 L384 348 L384 336 L383 335 L383 327 L382 326 L382 307 L381 306 L381 259 L382 258 L382 247 L383 246 L383 238 L384 237 L384 230 L385 229 L385 223 L386 222 L386 216 L387 215 L387 211 L388 210 L388 206 L389 205 L389 201 L390 200 L390 196 L391 195 L391 192 L392 191 L392 188 L393 187 L393 184 L394 183 L394 180 L395 179 L395 178 L396 177 L396 175 L397 174 L397 171 L398 170 L398 168 L399 167 L399 164 L400 163 L400 162 L401 161 L401 160 L402 159 L402 156 L403 155 L403 153 L404 152 L404 151 L405 150 L405 148 L406 147 L406 144 L408 142 L408 141 L409 140 L409 139 L410 138 L410 136 L411 135 L411 133 L412 132 L412 130 z M432 312 L433 311 L435 311 L436 312 L436 314 L437 315 L437 317 L438 318 L438 320 L439 321 L439 323 L440 324 L440 326 L441 327 L441 330 L443 332 L443 333 L444 334 L444 338 L445 339 L445 340 L446 341 L446 342 L447 343 L447 347 L448 348 L448 349 L449 350 L449 352 L450 353 L450 356 L451 357 L451 358 L452 359 L452 363 L453 364 L453 365 L454 366 L454 369 L455 370 L455 372 L456 373 L456 375 L457 376 L457 378 L458 379 L458 381 L459 382 L459 384 L460 385 L460 386 L461 387 L461 389 L462 390 L462 394 L464 396 L464 399 L465 400 L465 402 L466 403 L466 407 L465 408 L465 411 L463 413 L463 416 L461 418 L461 420 L460 421 L460 423 L459 424 L459 425 L458 426 L458 429 L457 430 L457 431 L456 432 L456 434 L455 435 L455 436 L454 437 L454 439 L453 440 L453 444 L452 445 L452 446 L451 447 L451 449 L450 450 L450 452 L449 453 L449 456 L448 457 L448 459 L447 460 L447 462 L446 463 L446 464 L445 465 L445 468 L444 469 L444 472 L443 473 L443 476 L442 477 L442 478 L441 479 L441 484 L440 485 L440 487 L439 488 L439 492 L438 493 L438 496 L437 497 L437 500 L436 501 L436 505 L435 506 L435 512 L434 513 L434 517 L433 518 L433 525 L432 526 L432 533 L431 534 L431 542 L430 543 L430 557 L429 558 L427 558 L426 557 L426 551 L425 550 L425 540 L424 539 L424 528 L423 527 L423 517 L422 516 L422 510 L421 509 L421 503 L420 502 L420 496 L419 495 L419 489 L418 488 L418 483 L417 482 L417 479 L416 478 L416 473 L415 472 L415 471 L414 470 L414 467 L413 466 L413 461 L412 460 L412 457 L411 456 L411 453 L410 452 L410 449 L409 448 L409 446 L408 445 L408 441 L407 440 L407 439 L406 438 L406 435 L405 434 L405 431 L404 430 L404 427 L403 426 L403 425 L402 424 L402 422 L403 421 L403 416 L404 415 L404 412 L405 411 L405 406 L406 405 L406 400 L407 399 L407 394 L408 393 L408 390 L409 389 L409 386 L410 385 L410 381 L411 380 L411 377 L412 376 L412 374 L413 373 L413 369 L414 368 L414 366 L415 365 L415 362 L416 361 L416 360 L417 359 L417 356 L418 355 L418 352 L419 351 L419 350 L420 349 L420 347 L421 346 L421 342 L422 341 L422 340 L423 339 L423 337 L424 336 L424 334 L425 333 L425 331 L426 330 L426 328 L427 327 L427 325 L428 324 L428 323 L429 322 L429 319 L430 318 L430 317 L431 316 L431 314 L432 313 z M381 152 L383 152 L384 153 L384 155 L383 156 L383 158 L381 160 L381 163 L380 164 L380 165 L379 166 L379 168 L378 169 L378 171 L377 172 L377 174 L376 175 L376 178 L375 179 L375 181 L374 182 L374 185 L373 186 L373 189 L372 190 L372 192 L371 193 L371 196 L370 197 L370 201 L369 202 L369 203 L368 204 L368 207 L367 208 L367 214 L366 215 L366 217 L365 218 L365 223 L364 224 L364 227 L363 228 L363 235 L362 236 L362 241 L361 242 L361 251 L360 252 L360 264 L359 265 L359 311 L360 312 L360 322 L361 323 L361 331 L362 332 L362 341 L363 342 L363 348 L364 349 L364 353 L365 354 L365 360 L366 361 L366 364 L367 365 L367 370 L368 371 L368 378 L369 379 L369 383 L370 384 L370 388 L371 389 L371 393 L372 394 L372 398 L373 399 L373 404 L374 405 L374 407 L375 408 L375 413 L376 414 L376 417 L377 418 L377 423 L378 424 L378 426 L379 427 L379 430 L380 431 L380 434 L381 435 L381 438 L382 439 L382 443 L384 445 L384 449 L385 450 L385 451 L386 452 L386 455 L387 456 L387 459 L388 460 L388 464 L389 465 L389 468 L390 469 L390 473 L391 474 L391 476 L392 477 L392 481 L393 482 L393 487 L394 488 L394 492 L395 493 L395 497 L396 498 L396 501 L395 502 L393 502 L392 501 L392 500 L391 499 L391 497 L390 496 L390 495 L389 494 L389 492 L388 491 L388 490 L387 489 L387 487 L386 486 L386 485 L385 484 L385 482 L384 481 L384 479 L383 478 L383 476 L382 475 L382 474 L381 473 L381 472 L380 471 L380 470 L379 469 L379 466 L378 465 L378 464 L377 463 L377 462 L376 461 L376 458 L374 456 L374 454 L373 453 L373 451 L372 450 L372 448 L371 447 L371 446 L370 445 L370 443 L369 442 L369 440 L368 439 L368 437 L367 436 L367 433 L366 432 L366 431 L365 430 L365 428 L364 427 L364 425 L363 424 L363 422 L362 421 L362 418 L361 417 L361 415 L360 414 L360 412 L359 411 L359 408 L357 406 L357 403 L356 402 L356 399 L355 398 L355 394 L354 393 L354 391 L353 390 L353 385 L352 384 L352 380 L351 379 L351 375 L350 374 L350 370 L349 369 L349 363 L348 362 L348 354 L347 353 L347 345 L346 344 L346 331 L345 330 L345 279 L346 278 L346 265 L347 264 L347 256 L348 255 L348 249 L349 248 L349 241 L350 240 L350 235 L351 234 L351 230 L352 229 L352 226 L353 225 L353 221 L354 220 L354 218 L355 217 L355 213 L356 212 L356 210 L357 209 L357 205 L359 203 L359 200 L360 199 L360 197 L361 196 L361 194 L362 193 L362 191 L363 190 L363 189 L364 188 L364 186 L365 185 L365 184 L366 183 L366 181 L367 180 L367 179 L368 178 L368 176 L369 175 L369 174 L370 173 L370 172 L371 171 L371 170 L372 169 L372 168 L373 167 L373 166 L374 165 L374 164 L375 163 L375 160 L376 159 L377 159 L378 158 L378 156 L379 155 L379 154 z" fill="#ffffff" stroke="#000000" stroke-width="2.4" stroke-linejoin="round" stroke-linecap="round" fill-rule="evenodd"/>
<path d="M305 130 L293 142 L292 142 L287 147 L287 148 L286 149 L285 149 L281 153 L280 153 L280 154 L273 161 L272 161 L272 162 L264 170 L263 170 L263 171 L254 180 L254 182 L253 183 L252 183 L245 190 L245 191 L244 192 L243 192 L243 193 L239 197 L239 198 L233 204 L233 205 L230 208 L230 209 L226 213 L226 214 L222 218 L222 219 L219 222 L219 223 L216 226 L216 227 L215 228 L215 229 L211 233 L211 234 L210 235 L210 236 L207 239 L207 240 L205 242 L205 244 L204 245 L203 245 L202 246 L202 247 L199 250 L199 251 L198 252 L198 253 L197 254 L197 255 L195 257 L195 258 L194 259 L194 260 L192 262 L192 263 L191 264 L191 265 L189 267 L189 268 L188 269 L188 270 L185 273 L185 275 L182 278 L182 280 L180 282 L180 284 L177 287 L177 289 L176 290 L176 291 L175 292 L175 293 L173 295 L173 297 L172 298 L172 299 L171 300 L171 302 L169 304 L169 306 L168 307 L168 308 L166 310 L166 311 L165 312 L165 315 L164 316 L164 317 L162 319 L162 321 L161 322 L161 324 L160 325 L160 326 L159 327 L159 328 L158 329 L158 331 L157 332 L157 335 L156 336 L156 337 L155 338 L155 341 L154 342 L154 343 L153 344 L153 347 L152 348 L152 351 L151 352 L151 354 L150 355 L150 358 L149 359 L149 362 L148 363 L148 367 L147 368 L147 370 L146 371 L146 376 L145 377 L145 380 L144 381 L144 385 L143 386 L143 393 L142 394 L142 398 L141 399 L141 409 L140 410 L140 431 L139 432 L139 443 L140 444 L140 461 L141 462 L141 473 L142 474 L142 480 L143 481 L143 487 L144 488 L144 491 L145 492 L145 497 L146 498 L146 501 L147 502 L147 507 L148 508 L148 512 L149 513 L149 516 L150 517 L150 520 L151 521 L151 524 L152 525 L152 527 L153 528 L153 531 L154 532 L154 534 L155 535 L155 537 L156 538 L156 542 L157 543 L157 545 L158 546 L158 548 L159 549 L159 551 L160 552 L160 553 L161 554 L161 556 L162 557 L162 558 L163 559 L163 561 L164 562 L164 565 L166 567 L166 569 L167 570 L167 571 L168 572 L168 573 L169 574 L169 575 L170 576 L170 577 L171 578 L171 580 L172 581 L172 583 L174 585 L174 587 L175 588 L175 589 L176 590 L176 591 L177 592 L177 593 L178 594 L178 595 L180 597 L180 599 L182 601 L182 603 L184 605 L184 606 L186 608 L186 609 L187 610 L187 611 L189 613 L189 614 L191 616 L191 617 L192 618 L192 619 L193 620 L193 621 L196 624 L196 625 L197 626 L197 627 L198 628 L198 629 L201 632 L201 633 L204 636 L204 637 L206 639 L206 640 L208 642 L208 643 L213 648 L213 649 L215 651 L215 652 L218 655 L218 656 L222 660 L222 661 L223 661 L225 663 L225 664 L232 671 L232 672 L241 681 L242 681 L243 682 L243 683 L246 686 L247 686 L248 687 L248 688 L249 688 L250 689 L250 690 L251 690 L258 697 L259 697 L261 699 L262 699 L263 700 L263 701 L264 701 L266 703 L267 703 L268 704 L268 705 L269 705 L270 706 L271 706 L275 710 L276 710 L279 713 L280 713 L282 715 L283 715 L284 716 L285 716 L287 718 L288 718 L290 720 L291 720 L292 721 L293 721 L294 722 L295 722 L297 724 L298 724 L299 725 L301 725 L302 726 L302 727 L303 727 L304 728 L306 728 L307 729 L307 730 L308 730 L309 731 L310 731 L311 732 L313 732 L315 734 L317 734 L318 735 L320 735 L321 736 L322 736 L323 737 L324 737 L325 738 L326 738 L327 739 L328 739 L329 740 L331 740 L332 741 L334 741 L338 745 L338 747 L339 748 L339 749 L340 750 L340 751 L341 752 L341 753 L342 754 L342 755 L343 756 L343 757 L347 761 L347 763 L349 765 L349 766 L351 768 L351 769 L353 771 L353 772 L356 775 L356 776 L358 778 L358 779 L364 785 L364 786 L373 795 L373 796 L374 797 L375 797 L376 798 L377 798 L378 799 L378 800 L386 808 L387 808 L389 810 L390 810 L395 815 L396 815 L398 817 L399 817 L401 819 L402 819 L404 821 L407 821 L408 822 L408 823 L409 823 L410 824 L411 824 L412 825 L413 825 L415 827 L416 827 L417 828 L418 828 L420 830 L421 830 L422 831 L423 831 L424 832 L427 832 L429 834 L431 834 L432 835 L433 835 L434 836 L436 836 L437 837 L439 837 L440 838 L442 838 L443 839 L445 839 L446 840 L449 840 L450 841 L453 841 L454 842 L457 842 L458 843 L460 843 L461 844 L466 844 L467 845 L472 845 L473 846 L479 846 L480 847 L486 847 L487 848 L496 848 L497 849 L510 849 L511 850 L514 850 L515 849 L532 849 L533 848 L535 848 L536 849 L538 849 L539 848 L548 848 L549 847 L554 847 L555 846 L561 846 L562 845 L567 845 L568 844 L573 844 L574 843 L578 843 L579 842 L583 842 L584 841 L589 841 L590 840 L593 840 L594 839 L598 839 L599 838 L602 838 L603 837 L606 837 L607 836 L612 836 L613 835 L614 835 L615 834 L620 834 L621 833 L623 833 L624 832 L628 832 L629 831 L632 831 L633 830 L635 830 L636 829 L639 829 L640 828 L642 828 L643 827 L648 827 L649 826 L650 826 L651 825 L654 825 L655 824 L658 824 L659 823 L663 823 L664 822 L667 822 L668 821 L672 821 L673 820 L675 820 L676 819 L680 819 L681 818 L683 818 L684 817 L687 817 L688 816 L692 816 L693 815 L694 815 L695 814 L699 814 L700 813 L703 813 L704 812 L704 811 L705 810 L705 808 L706 807 L707 807 L707 806 L708 805 L708 804 L709 803 L709 801 L710 800 L710 795 L707 795 L706 796 L702 796 L701 797 L700 797 L699 798 L694 798 L693 799 L689 799 L688 800 L684 800 L683 801 L678 801 L677 802 L673 802 L672 803 L668 803 L667 804 L662 804 L661 805 L657 805 L656 806 L652 806 L651 807 L646 807 L645 808 L642 808 L641 809 L637 809 L636 810 L633 810 L632 811 L626 811 L625 812 L621 812 L620 813 L618 813 L617 814 L615 814 L614 815 L611 815 L610 816 L603 816 L602 817 L600 817 L599 818 L592 818 L591 819 L588 819 L587 820 L584 820 L583 821 L579 821 L578 822 L573 822 L572 823 L567 823 L566 824 L558 824 L557 825 L550 825 L549 826 L539 826 L538 827 L504 827 L503 826 L493 826 L492 825 L485 825 L484 824 L479 824 L478 823 L475 823 L474 822 L469 822 L468 821 L465 821 L464 820 L461 820 L460 819 L458 819 L457 818 L455 818 L454 817 L453 817 L452 816 L449 816 L448 815 L447 815 L446 814 L444 814 L443 813 L442 813 L441 812 L440 812 L439 811 L437 811 L436 810 L435 810 L434 809 L433 809 L431 807 L430 807 L429 806 L428 806 L427 805 L426 805 L424 803 L423 803 L422 802 L421 802 L420 801 L419 801 L417 799 L416 799 L414 797 L413 797 L412 796 L412 795 L411 795 L408 792 L407 792 L405 790 L404 790 L403 789 L403 788 L402 788 L400 786 L400 785 L399 784 L398 784 L389 775 L389 774 L385 770 L385 769 L382 766 L382 764 L383 763 L385 763 L386 764 L387 764 L388 765 L390 765 L391 766 L392 766 L393 767 L394 767 L396 769 L397 769 L398 770 L401 770 L402 771 L403 771 L404 772 L405 772 L407 774 L410 774 L412 776 L414 776 L415 777 L417 777 L418 778 L419 778 L420 779 L422 779 L423 780 L424 780 L425 781 L427 781 L428 782 L429 782 L430 783 L431 783 L432 784 L434 784 L435 785 L437 785 L438 786 L440 786 L441 787 L442 787 L443 788 L446 788 L448 790 L450 790 L451 791 L455 791 L456 792 L458 792 L459 793 L461 793 L462 794 L466 794 L468 796 L472 796 L473 797 L477 797 L478 798 L480 798 L481 799 L486 799 L487 800 L491 800 L492 801 L496 801 L497 802 L501 802 L502 803 L508 803 L509 804 L513 804 L514 805 L524 805 L525 806 L531 806 L532 807 L552 807 L553 808 L572 808 L573 807 L592 807 L593 806 L601 806 L602 805 L609 805 L610 804 L615 804 L616 803 L622 803 L623 802 L629 802 L630 801 L636 801 L637 800 L641 800 L642 799 L648 799 L649 798 L654 798 L655 797 L657 797 L658 796 L664 796 L665 795 L670 795 L671 794 L674 794 L675 793 L681 793 L682 792 L685 792 L686 791 L694 791 L695 790 L698 790 L699 789 L701 789 L702 788 L706 788 L707 787 L710 787 L710 781 L709 780 L709 779 L708 778 L708 776 L707 775 L707 774 L706 773 L706 772 L705 771 L705 770 L703 768 L703 767 L701 765 L692 765 L691 766 L660 766 L659 767 L651 767 L650 766 L646 766 L645 767 L642 767 L641 766 L608 766 L607 765 L592 765 L591 764 L581 764 L580 763 L573 763 L572 762 L565 762 L564 761 L558 761 L557 760 L554 760 L553 759 L549 759 L548 758 L545 758 L544 757 L538 757 L537 756 L535 756 L534 755 L530 755 L529 754 L526 754 L525 753 L523 753 L522 752 L520 752 L519 751 L516 751 L515 750 L513 750 L512 749 L510 749 L509 748 L506 748 L505 747 L504 747 L503 746 L502 746 L501 745 L499 745 L498 744 L496 744 L495 743 L494 743 L493 742 L491 742 L490 741 L488 741 L487 740 L486 740 L485 739 L484 739 L482 737 L481 737 L480 736 L479 736 L478 735 L476 735 L474 733 L472 733 L471 732 L470 732 L468 730 L467 730 L466 729 L465 729 L464 728 L463 728 L461 726 L460 726 L459 725 L458 725 L456 723 L454 723 L452 721 L450 721 L449 720 L449 719 L448 719 L444 715 L443 715 L442 714 L441 714 L438 711 L437 711 L436 710 L436 709 L435 709 L432 706 L431 706 L412 687 L412 686 L408 682 L408 681 L405 678 L405 677 L404 677 L403 676 L403 674 L401 672 L401 671 L400 670 L400 669 L399 668 L399 667 L398 667 L397 666 L397 665 L396 664 L396 663 L395 662 L395 661 L393 659 L393 657 L391 655 L391 653 L389 651 L389 650 L388 649 L388 647 L387 646 L387 645 L386 644 L386 643 L385 642 L385 641 L384 640 L384 638 L383 637 L383 636 L382 635 L382 634 L381 633 L381 632 L380 631 L380 630 L379 629 L379 627 L377 625 L377 624 L376 623 L376 622 L375 621 L375 619 L374 618 L374 617 L373 616 L373 614 L372 613 L372 612 L371 611 L371 610 L370 609 L370 608 L369 607 L369 605 L368 604 L368 603 L366 601 L366 598 L365 597 L365 596 L364 595 L364 594 L363 593 L363 591 L362 590 L362 589 L361 588 L361 587 L360 586 L360 585 L359 584 L359 581 L358 581 L357 580 L357 577 L356 576 L356 575 L354 573 L354 571 L353 570 L353 568 L352 567 L352 566 L351 565 L351 562 L349 560 L349 557 L348 556 L348 555 L347 554 L347 553 L346 552 L346 550 L345 549 L345 548 L344 547 L344 545 L343 544 L343 542 L342 541 L342 539 L341 538 L341 537 L340 536 L340 535 L339 534 L339 533 L338 532 L338 529 L337 528 L337 527 L336 526 L336 525 L335 524 L335 522 L334 521 L334 520 L333 519 L333 517 L332 516 L332 514 L331 513 L331 512 L330 511 L330 508 L329 507 L329 505 L328 504 L328 501 L327 500 L327 499 L326 498 L326 496 L325 495 L325 493 L324 492 L324 490 L323 489 L323 487 L322 486 L322 484 L321 483 L321 481 L320 480 L320 478 L319 477 L319 475 L318 474 L318 471 L317 470 L317 467 L315 465 L315 461 L314 460 L314 459 L313 458 L313 455 L312 454 L312 452 L311 451 L311 448 L310 447 L310 444 L309 443 L309 441 L308 440 L308 436 L307 435 L307 432 L306 431 L306 429 L305 428 L305 423 L304 422 L304 419 L303 418 L303 416 L302 415 L302 411 L301 410 L301 405 L300 404 L300 400 L299 399 L299 396 L298 395 L298 390 L297 389 L297 384 L296 383 L296 377 L295 376 L295 370 L294 369 L294 358 L293 357 L293 350 L292 349 L292 337 L291 336 L291 292 L292 291 L292 276 L293 275 L293 268 L294 267 L294 263 L295 262 L295 257 L296 256 L296 250 L297 249 L297 245 L298 244 L298 238 L299 237 L300 237 L300 234 L301 233 L301 228 L302 227 L302 226 L303 225 L303 222 L304 221 L304 219 L305 218 L305 216 L306 215 L306 213 L307 212 L307 209 L308 208 L308 207 L309 206 L309 204 L310 203 L310 201 L311 200 L311 199 L312 198 L312 196 L313 195 L313 194 L314 193 L314 192 L315 191 L315 189 L316 188 L316 187 L317 186 L317 184 L318 183 L319 183 L319 179 L322 176 L322 175 L323 174 L323 173 L324 172 L324 171 L325 170 L325 169 L326 168 L326 167 L327 166 L327 165 L328 164 L328 163 L329 162 L329 161 L330 160 L330 159 L333 156 L333 155 L334 154 L334 153 L336 151 L336 149 L340 145 L340 144 L341 143 L341 142 L343 140 L343 139 L345 137 L345 136 L347 134 L347 133 L348 132 L348 130 z M231 237 L233 237 L234 238 L234 240 L233 241 L233 243 L232 244 L232 246 L231 247 L231 249 L230 250 L230 253 L229 254 L229 256 L228 257 L228 259 L227 260 L227 261 L226 262 L226 267 L224 269 L224 271 L223 272 L223 277 L222 278 L222 280 L221 281 L221 286 L220 287 L220 291 L219 292 L219 296 L218 297 L218 302 L217 303 L217 306 L216 307 L216 315 L215 316 L215 322 L214 323 L214 331 L213 332 L213 342 L212 343 L212 357 L211 358 L211 413 L212 414 L212 427 L213 428 L213 438 L214 439 L214 446 L215 447 L215 453 L216 454 L216 460 L217 461 L217 466 L218 467 L218 471 L219 472 L219 476 L220 477 L220 481 L221 482 L221 485 L222 486 L222 489 L223 490 L223 494 L225 496 L225 500 L226 501 L226 504 L227 505 L227 507 L228 508 L228 511 L229 512 L229 514 L230 515 L230 519 L231 520 L231 522 L232 523 L232 525 L233 526 L233 529 L234 530 L234 531 L235 532 L235 535 L236 536 L236 538 L237 539 L237 541 L238 542 L238 545 L239 546 L239 547 L240 548 L240 550 L241 551 L241 552 L242 553 L242 556 L243 557 L243 559 L244 560 L244 562 L245 563 L245 565 L247 567 L247 569 L248 570 L248 572 L249 573 L249 574 L250 575 L250 577 L251 578 L251 580 L252 581 L252 583 L253 584 L253 585 L254 586 L254 588 L255 589 L255 591 L256 592 L256 593 L257 594 L257 596 L258 597 L258 599 L259 600 L259 601 L260 602 L260 604 L261 605 L261 606 L263 608 L263 611 L265 613 L265 615 L266 616 L266 618 L268 620 L268 622 L269 623 L269 624 L270 625 L270 626 L271 627 L271 628 L272 629 L272 631 L273 632 L273 634 L275 636 L275 638 L276 639 L276 640 L277 641 L277 642 L278 643 L278 644 L280 646 L280 649 L282 651 L282 652 L283 653 L283 654 L284 655 L284 656 L285 657 L285 659 L288 662 L288 664 L289 665 L289 667 L291 669 L291 670 L292 671 L292 672 L293 673 L293 674 L294 675 L294 676 L295 677 L295 678 L296 678 L297 679 L297 681 L298 682 L298 683 L299 684 L299 685 L300 686 L300 687 L301 688 L301 689 L303 691 L303 692 L304 693 L304 694 L306 696 L306 698 L305 699 L303 699 L301 697 L300 697 L298 695 L297 695 L294 692 L293 692 L291 690 L290 690 L289 689 L288 689 L287 688 L287 687 L286 687 L283 684 L282 684 L279 681 L278 681 L269 672 L268 672 L264 668 L264 667 L261 664 L260 664 L258 662 L258 661 L257 661 L254 658 L254 657 L248 651 L248 650 L241 643 L241 642 L237 638 L237 637 L232 632 L232 631 L230 629 L230 628 L227 625 L227 624 L225 622 L225 621 L223 619 L223 618 L221 616 L221 615 L217 611 L217 610 L216 609 L216 608 L215 607 L215 606 L212 603 L212 601 L210 599 L210 598 L208 596 L208 594 L206 592 L206 591 L205 590 L205 589 L204 588 L204 587 L203 586 L203 585 L202 584 L202 583 L201 582 L201 581 L199 579 L199 577 L198 576 L198 575 L197 574 L197 573 L196 572 L196 571 L195 570 L195 569 L194 568 L194 567 L192 565 L192 562 L191 561 L191 559 L190 559 L189 558 L189 554 L188 553 L188 552 L187 551 L187 550 L186 549 L186 547 L185 546 L185 544 L184 543 L184 541 L183 540 L183 539 L182 538 L182 535 L181 534 L181 532 L179 530 L179 526 L178 525 L178 523 L177 522 L177 520 L176 519 L176 516 L175 515 L175 511 L174 510 L174 506 L173 506 L172 505 L172 499 L171 498 L171 494 L170 493 L170 489 L169 488 L169 483 L168 482 L168 477 L167 476 L167 469 L166 468 L166 458 L165 457 L165 438 L164 437 L164 418 L165 417 L165 404 L166 403 L166 394 L167 393 L167 387 L168 386 L168 381 L169 380 L169 375 L170 374 L170 370 L171 369 L171 365 L172 364 L172 362 L173 361 L173 357 L174 356 L174 353 L175 352 L175 350 L176 349 L176 347 L177 346 L177 344 L178 343 L178 341 L179 340 L179 337 L180 336 L180 335 L181 334 L181 332 L182 331 L182 329 L183 328 L183 326 L184 325 L184 324 L185 323 L185 321 L186 320 L186 318 L187 317 L187 316 L188 315 L188 314 L189 313 L189 311 L190 310 L190 308 L191 307 L191 306 L192 305 L192 302 L193 301 L194 301 L194 299 L195 298 L195 297 L196 296 L196 295 L197 294 L197 293 L198 292 L198 291 L199 290 L199 289 L200 288 L200 287 L201 286 L201 285 L203 283 L203 282 L204 281 L204 280 L205 279 L205 278 L206 277 L206 276 L207 275 L207 274 L208 273 L208 272 L210 270 L210 269 L211 268 L211 267 L213 265 L213 264 L214 263 L214 261 L215 260 L216 260 L216 259 L217 258 L217 257 L218 256 L218 255 L222 251 L222 250 L223 249 L223 248 L224 247 L224 246 L226 244 L226 243 L227 242 L227 241 L228 240 L229 240 L229 239 z M318 140 L320 140 L321 141 L321 143 L319 145 L319 146 L318 147 L318 148 L317 149 L317 150 L316 151 L316 152 L313 155 L313 156 L312 157 L312 158 L311 159 L311 160 L310 161 L310 162 L309 163 L309 164 L308 165 L308 166 L306 168 L306 169 L305 170 L305 171 L304 172 L304 173 L302 175 L302 176 L301 177 L301 179 L299 181 L299 182 L298 183 L298 184 L297 185 L297 187 L296 188 L296 189 L295 190 L295 191 L294 192 L294 193 L293 194 L293 195 L292 196 L292 199 L291 200 L291 201 L290 202 L290 204 L289 205 L289 206 L288 207 L288 209 L287 210 L287 211 L286 212 L286 214 L285 215 L285 218 L283 220 L283 224 L282 225 L282 227 L281 228 L281 229 L280 230 L280 233 L279 234 L279 237 L278 238 L278 241 L277 242 L277 245 L276 246 L276 249 L275 250 L275 255 L274 256 L274 261 L273 262 L273 265 L272 266 L272 274 L271 275 L271 283 L270 284 L270 293 L269 294 L269 308 L268 309 L268 339 L269 340 L269 358 L270 359 L270 370 L271 371 L271 380 L272 381 L272 390 L273 391 L273 396 L274 397 L274 403 L275 404 L275 408 L276 409 L276 414 L277 415 L277 419 L278 420 L278 425 L279 426 L279 430 L280 431 L280 434 L281 435 L281 440 L282 441 L282 442 L283 443 L283 448 L284 449 L284 452 L286 454 L286 457 L287 458 L287 460 L288 461 L288 466 L289 467 L289 468 L290 469 L290 471 L291 472 L291 475 L292 476 L292 479 L293 480 L293 483 L294 484 L294 485 L295 486 L295 489 L296 490 L296 492 L297 493 L297 495 L298 496 L298 497 L299 498 L299 500 L300 501 L300 504 L301 505 L301 507 L302 508 L302 510 L303 511 L303 513 L304 514 L304 515 L305 516 L305 517 L306 518 L306 521 L307 522 L307 523 L308 524 L308 526 L309 527 L309 529 L310 530 L310 532 L311 533 L311 535 L312 536 L312 537 L313 538 L313 540 L315 542 L315 545 L316 546 L316 548 L317 549 L317 551 L318 552 L318 553 L319 554 L319 556 L320 557 L320 559 L321 560 L321 561 L322 562 L322 564 L324 566 L324 569 L325 570 L325 572 L326 573 L326 574 L327 575 L327 576 L328 577 L328 578 L329 579 L329 580 L330 581 L330 583 L331 584 L331 586 L332 587 L332 589 L333 590 L333 592 L335 594 L335 596 L336 597 L336 599 L337 600 L337 601 L338 602 L338 604 L339 605 L339 606 L340 607 L340 608 L341 609 L341 610 L342 611 L342 613 L343 614 L343 616 L345 618 L345 620 L346 621 L346 622 L347 623 L347 624 L348 625 L348 627 L350 629 L350 631 L351 632 L351 634 L352 634 L353 635 L353 637 L354 638 L354 640 L355 641 L355 642 L356 643 L356 644 L357 645 L357 647 L358 648 L358 649 L359 650 L359 651 L360 652 L360 653 L361 654 L361 656 L363 658 L363 659 L364 660 L364 662 L366 664 L366 666 L368 668 L368 669 L369 670 L369 671 L371 673 L371 674 L372 675 L372 676 L373 677 L373 678 L374 679 L374 680 L375 681 L375 682 L378 685 L378 686 L380 688 L380 689 L382 691 L382 692 L383 692 L385 694 L385 696 L386 696 L387 697 L387 698 L395 706 L395 707 L408 720 L409 720 L413 724 L414 724 L415 725 L416 725 L417 726 L417 727 L418 727 L422 731 L423 731 L424 732 L424 733 L425 733 L427 735 L428 735 L429 736 L430 736 L432 738 L433 738 L435 740 L436 740 L437 741 L438 741 L440 743 L441 743 L443 745 L444 745 L445 746 L446 746 L448 748 L449 748 L450 749 L452 749 L453 750 L454 750 L455 751 L456 751 L458 753 L460 753 L461 754 L462 754 L463 755 L464 755 L465 756 L466 756 L467 757 L469 757 L471 759 L473 759 L474 760 L476 760 L477 761 L478 761 L479 762 L481 762 L482 763 L485 763 L486 764 L487 764 L488 765 L490 765 L491 766 L493 766 L494 767 L497 767 L498 768 L499 768 L500 769 L503 769 L504 770 L507 770 L509 772 L512 772 L513 773 L518 773 L519 774 L522 774 L523 775 L528 775 L529 776 L532 776 L533 777 L537 777 L538 778 L542 778 L543 779 L548 779 L549 780 L558 780 L559 781 L568 781 L569 782 L580 782 L581 783 L597 783 L598 784 L598 786 L597 787 L597 788 L596 789 L594 789 L593 788 L566 788 L565 787 L547 787 L546 786 L538 786 L537 785 L529 785 L528 784 L520 784 L519 783 L514 783 L513 782 L508 782 L507 781 L502 781 L501 780 L500 780 L499 779 L493 779 L492 778 L488 778 L487 777 L486 777 L485 776 L482 776 L481 775 L477 775 L476 774 L474 774 L473 773 L470 773 L469 772 L467 772 L466 771 L463 771 L462 770 L460 770 L459 769 L457 769 L456 768 L454 768 L453 767 L451 767 L450 766 L449 766 L448 765 L445 765 L444 764 L442 764 L441 763 L439 763 L438 762 L436 762 L435 761 L434 761 L433 760 L431 760 L430 759 L428 759 L427 758 L425 758 L423 756 L421 756 L420 755 L419 755 L418 754 L416 754 L415 753 L413 753 L412 752 L411 752 L410 751 L409 751 L408 750 L407 750 L406 749 L404 749 L403 748 L402 748 L401 747 L400 747 L399 746 L397 746 L396 745 L395 745 L394 744 L392 744 L391 743 L390 743 L389 742 L387 742 L386 741 L385 741 L384 740 L383 740 L382 739 L381 739 L380 738 L378 738 L376 736 L375 736 L374 735 L372 735 L370 733 L368 733 L367 732 L366 732 L365 731 L364 731 L362 729 L361 729 L360 728 L357 728 L356 727 L356 726 L355 726 L354 725 L354 724 L352 722 L352 721 L351 720 L351 719 L348 716 L348 715 L347 714 L347 713 L345 711 L345 710 L343 708 L343 707 L341 705 L341 704 L339 702 L339 701 L337 699 L337 698 L336 697 L336 696 L334 694 L334 693 L332 691 L332 690 L331 689 L331 688 L330 687 L330 686 L329 685 L329 684 L327 682 L327 680 L325 678 L325 676 L323 674 L323 673 L322 672 L322 671 L321 671 L320 670 L320 668 L319 667 L319 665 L317 663 L317 662 L316 661 L316 660 L315 659 L315 658 L313 656 L313 654 L312 653 L312 652 L311 651 L311 650 L310 649 L310 648 L309 647 L309 646 L308 645 L308 644 L306 642 L306 639 L304 637 L304 635 L303 634 L303 633 L302 632 L302 631 L301 630 L301 628 L300 627 L300 626 L298 624 L298 622 L297 621 L297 619 L295 617 L295 615 L294 614 L294 613 L293 612 L293 611 L292 610 L292 608 L291 607 L291 606 L290 605 L290 603 L289 602 L289 601 L288 600 L288 599 L287 598 L287 596 L286 595 L286 593 L285 592 L285 591 L284 590 L284 589 L283 588 L283 586 L282 585 L282 583 L281 582 L281 581 L280 580 L280 577 L278 575 L278 573 L277 572 L277 571 L276 570 L276 568 L275 567 L275 565 L274 564 L274 563 L273 562 L273 560 L272 559 L272 557 L271 556 L271 555 L270 554 L270 553 L269 552 L269 549 L268 548 L268 546 L267 545 L267 543 L266 542 L266 540 L265 539 L265 537 L264 536 L264 534 L263 533 L263 532 L262 531 L262 528 L261 527 L261 524 L260 523 L260 522 L259 521 L259 518 L258 517 L258 515 L256 513 L256 511 L255 510 L255 507 L254 506 L254 503 L253 502 L253 500 L252 499 L252 496 L251 495 L251 493 L250 492 L250 489 L249 488 L249 485 L248 484 L248 480 L247 479 L247 476 L246 475 L246 472 L245 471 L245 468 L244 467 L244 463 L243 462 L243 458 L242 457 L242 451 L241 450 L241 448 L240 447 L240 441 L239 440 L239 431 L238 430 L238 426 L237 425 L237 419 L236 418 L236 404 L235 403 L235 388 L234 387 L234 379 L235 378 L235 375 L234 374 L234 346 L235 345 L235 328 L236 327 L236 318 L237 317 L237 311 L238 310 L238 305 L239 304 L239 298 L240 297 L240 291 L241 290 L241 285 L242 284 L242 279 L243 278 L243 276 L244 275 L244 272 L245 271 L245 267 L246 266 L246 263 L247 262 L247 259 L248 258 L248 254 L249 253 L249 252 L250 251 L250 248 L251 247 L251 244 L252 243 L252 242 L253 241 L253 238 L254 237 L254 235 L255 234 L255 233 L256 232 L256 230 L257 229 L257 226 L259 224 L259 222 L261 220 L261 218 L262 217 L262 216 L263 215 L263 214 L264 213 L264 212 L265 211 L265 210 L266 209 L266 208 L267 207 L267 206 L269 204 L269 202 L270 201 L270 200 L271 199 L271 198 L272 197 L272 196 L275 193 L275 191 L278 188 L278 187 L281 184 L281 183 L282 182 L282 181 L286 177 L286 176 L289 173 L289 172 L291 170 L291 169 L295 165 L295 164 L301 158 L301 157 L302 156 L303 156 L303 155 L311 147 L311 146 L312 145 L313 145 L313 144 L314 143 L315 143 z" fill="#ffffff" stroke="#000000" stroke-width="2.4" stroke-linejoin="round" stroke-linecap="round" fill-rule="evenodd"/>
</svg>