<svg xmlns="http://www.w3.org/2000/svg" width="1024" height="1024" viewBox="0 0 776 726" preserveAspectRatio="xMidYMid meet">
  <path d="M 156.00,191.50 L 156.00,187.50 L 156.00,191.50 Z M 34.00,292.50 L 34.00,287.50 L 34.00,292.50 Z M 575.00,681.50 L 548.00,680.50 L 540.50,678.00 L 556.00,671.50 L 566.00,664.50 L 575.50,655.00 L 584.50,638.00 L 584.50,619.00 L 578.50,605.00 L 564.50,583.00 L 557.50,555.00 L 557.50,539.00 L 561.50,517.00 L 579.50,481.00 L 594.50,463.00 L 611.00,448.50 L 629.00,436.50 L 654.00,424.50 L 696.00,414.50 L 729.00,414.50 L 758.00,420.50 L 721.00,440.50 L 709.50,451.00 L 704.50,460.00 L 703.50,472.00 L 706.50,483.00 L 725.50,514.00 L 730.50,535.00 L 730.50,558.00 L 727.50,572.00 L 723.50,584.00 L 708.50,611.00 L 681.00,640.50 L 655.00,658.50 L 617.00,674.50 L 575.00,681.50 Z M 651.50,574.00 L 665.00,567.50 L 671.50,560.00 L 676.50,548.00 L 676.50,538.00 L 672.50,527.00 L 664.00,517.50 L 650.00,511.50 L 637.00,511.50 L 626.00,516.50 L 617.50,525.00 L 612.50,537.00 L 612.50,549.00 L 618.50,562.00 L 628.00,570.50 L 638.00,574.50 L 651.50,574.00 Z M 555.00,582.50 L 552.50,582.00 L 555.00,582.50 Z M 539.00,604.50 L 535.50,604.00 L 539.00,604.50 Z M 393.00,684.50 L 389.50,684.00 L 393.00,684.50 Z M 397.00,684.50 L 394.50,684.00 L 397.00,684.50 Z" fill="white" fill-rule="evenodd" stroke="none"/>
</svg>