<?xml version="1.0" encoding="UTF-8" standalone="no"?>
<svg xmlns="http://www.w3.org/2000/svg" width="1024" height="383" viewBox="0 0 685 256" version="1.1">
  <path d="M 339 20 L 339 21 L 339 22 L 339 23 L 339 24 L 339 25 L 339 26 L 339 27 L 339 28 L 338 29 L 338 30 L 338 31 L 338 32 L 338 33 L 338 34 L 338 35 L 338 36 L 338 37 L 338 38 L 338 39 L 338 40 L 338 41 L 338 42 L 337 43 L 337 44 L 337 45 L 337 46 L 337 47 L 337 48 L 337 49 L 337 50 L 337 51 L 337 52 L 337 53 L 337 54 L 337 55 L 336 56 L 336 57 L 336 58 L 336 59 L 336 60 L 336 61 L 336 62 L 336 63 L 336 64 L 336 65 L 336 66 L 336 67 L 336 68 L 336 69 L 336 70 L 336 71 L 336 72 L 336 73 L 336 74 L 336 75 L 335 76 L 335 77 L 335 78 L 335 79 L 335 80 L 335 81 L 335 82 L 335 83 L 335 84 L 335 85 L 335 86 L 335 87 L 335 88 L 335 89 L 335 90 L 335 91 L 335 92 L 335 93 L 335 94 L 335 95 L 335 96 L 335 97 L 335 98 L 335 99 L 335 100 L 334 101 L 334 102 L 334 103 L 334 104 L 334 105 L 334 106 L 334 107 L 334 108 L 334 109 L 334 110 L 334 111 L 334 112 L 334 113 L 334 114 L 334 115 L 334 116 L 334 117 L 334 118 L 333 119 L 333 120 L 333 121 L 333 122 L 333 123 L 333 124 L 333 125 L 332 126 L 331 126 L 330 127 L 329 127 L 328 127 L 327 127 L 326 128 L 325 128 L 324 128 L 323 129 L 322 129 L 321 130 L 320 130 L 319 131 L 318 131 L 317 132 L 316 133 L 315 134 L 314 134 L 313 135 L 312 136 L 311 137 L 310 138 L 309 138 L 308 138 L 307 138 L 306 138 L 305 138 L 304 137 L 303 137 L 302 137 L 301 137 L 300 137 L 299 137 L 298 137 L 297 137 L 296 137 L 295 136 L 294 136 L 293 136 L 292 136 L 291 136 L 290 135 L 289 135 L 288 135 L 287 135 L 286 135 L 285 135 L 284 134 L 283 134 L 282 134 L 281 134 L 280 134 L 279 134 L 278 134 L 277 134 L 276 134 L 275 133 L 274 133 L 273 133 L 272 133 L 271 133 L 270 133 L 269 133 L 268 133 L 267 132 L 266 132 L 265 132 L 264 132 L 263 131 L 262 131 L 261 131 L 260 131 L 259 131 L 258 131 L 257 131 L 256 131 L 255 130 L 254 130 L 253 130 L 252 130 L 251 130 L 250 130 L 249 130 L 248 130 L 247 129 L 246 129 L 245 129 L 244 129 L 243 129 L 242 129 L 241 128 L 240 128 L 239 128 L 238 128 L 237 128 L 236 128 L 235 128 L 234 127 L 233 127 L 232 127 L 231 127 L 230 127 L 229 127 L 228 127 L 227 127 L 226 126 L 225 126 L 224 126 L 223 126 L 223 127 L 223 128 L 224 128 L 225 128 L 226 128 L 227 129 L 228 129 L 229 129 L 230 129 L 231 129 L 232 130 L 233 130 L 234 130 L 235 130 L 236 130 L 237 131 L 238 131 L 239 131 L 240 131 L 241 131 L 242 132 L 243 132 L 244 132 L 245 132 L 246 133 L 247 133 L 248 133 L 249 133 L 250 133 L 251 133 L 252 134 L 253 134 L 254 134 L 255 134 L 256 135 L 257 135 L 258 135 L 259 135 L 260 135 L 261 136 L 261 137 L 261 138 L 260 139 L 259 139 L 258 140 L 257 140 L 256 141 L 255 141 L 254 142 L 253 143 L 252 144 L 251 145 L 250 146 L 250 147 L 249 148 L 248 149 L 247 150 L 247 151 L 246 152 L 245 153 L 244 153 L 243 153 L 242 153 L 241 153 L 240 152 L 239 152 L 238 151 L 237 151 L 236 151 L 235 151 L 234 151 L 233 151 L 232 152 L 231 152 L 230 153 L 229 154 L 228 154 L 227 155 L 227 156 L 226 157 L 225 157 L 224 157 L 223 156 L 222 155 L 221 154 L 220 153 L 220 152 L 219 151 L 218 150 L 217 149 L 216 148 L 215 147 L 214 146 L 213 145 L 212 144 L 211 143 L 210 143 L 209 142 L 208 142 L 207 141 L 206 141 L 205 141 L 204 141 L 203 141 L 202 142 L 201 143 L 201 144 L 201 145 L 201 146 L 201 147 L 201 148 L 202 149 L 203 150 L 203 151 L 204 152 L 205 153 L 206 154 L 207 155 L 208 156 L 209 157 L 210 157 L 211 158 L 212 159 L 213 160 L 214 160 L 215 161 L 216 162 L 217 162 L 218 163 L 219 163 L 220 164 L 221 164 L 222 165 L 222 166 L 222 167 L 222 168 L 222 169 L 222 170 L 221 171 L 220 171 L 219 171 L 218 171 L 217 171 L 216 171 L 215 170 L 214 170 L 213 170 L 212 170 L 211 170 L 210 170 L 209 170 L 208 170 L 207 170 L 206 170 L 205 170 L 204 169 L 203 169 L 202 169 L 201 169 L 200 169 L 199 169 L 198 169 L 197 169 L 196 169 L 195 169 L 194 169 L 193 169 L 192 169 L 191 169 L 190 169 L 189 169 L 188 169 L 187 168 L 186 168 L 185 168 L 184 168 L 183 168 L 182 168 L 181 168 L 180 168 L 179 168 L 178 168 L 177 168 L 176 168 L 175 168 L 174 168 L 173 167 L 172 167 L 171 167 L 170 167 L 169 167 L 168 167 L 167 167 L 166 167 L 165 167 L 164 167 L 163 167 L 162 167 L 161 166 L 160 166 L 159 166 L 158 166 L 157 166 L 156 166 L 155 166 L 154 166 L 153 165 L 152 164 L 152 163 L 152 162 L 152 161 L 152 160 L 152 159 L 152 158 L 152 157 L 152 156 L 153 155 L 154 154 L 155 153 L 156 153 L 157 152 L 158 151 L 159 150 L 160 149 L 161 148 L 162 148 L 163 147 L 163 146 L 164 145 L 165 144 L 166 143 L 167 142 L 167 141 L 168 140 L 168 139 L 168 138 L 169 137 L 169 136 L 169 135 L 168 134 L 168 133 L 167 132 L 166 132 L 165 132 L 164 132 L 163 132 L 162 132 L 161 133 L 160 133 L 159 134 L 158 135 L 157 135 L 156 136 L 155 137 L 154 138 L 154 139 L 153 140 L 152 141 L 151 142 L 151 143 L 150 144 L 149 145 L 148 145 L 147 145 L 146 145 L 145 144 L 144 144 L 143 143 L 142 143 L 141 143 L 140 142 L 139 142 L 138 142 L 137 143 L 136 143 L 135 143 L 134 144 L 133 144 L 132 145 L 131 146 L 130 147 L 129 148 L 128 149 L 127 149 L 126 149 L 125 148 L 124 147 L 123 147 L 122 146 L 121 145 L 120 144 L 119 143 L 118 142 L 117 141 L 116 141 L 115 140 L 114 139 L 113 139 L 112 138 L 111 137 L 110 137 L 109 137 L 108 136 L 107 136 L 106 136 L 105 136 L 104 136 L 103 137 L 102 137 L 102 138 L 102 139 L 102 140 L 102 141 L 102 142 L 102 143 L 103 144 L 104 145 L 105 146 L 106 146 L 107 147 L 108 148 L 109 149 L 110 149 L 111 150 L 112 150 L 113 151 L 114 151 L 115 152 L 116 153 L 117 153 L 118 154 L 119 154 L 120 155 L 121 155 L 122 156 L 123 156 L 124 157 L 125 157 L 126 158 L 126 159 L 126 160 L 126 161 L 126 162 L 126 163 L 125 164 L 124 164 L 123 164 L 122 164 L 121 164 L 120 164 L 119 164 L 118 164 L 117 164 L 116 164 L 115 163 L 114 163 L 113 163 L 112 163 L 111 163 L 110 163 L 109 163 L 108 163 L 107 163 L 106 163 L 105 163 L 104 163 L 103 163 L 102 163 L 101 163 L 100 163 L 99 163 L 98 163 L 97 163 L 96 162 L 95 162 L 94 162 L 93 162 L 92 162 L 91 162 L 90 162 L 89 162 L 88 162 L 87 162 L 86 162 L 85 162 L 84 162 L 83 162 L 82 162 L 81 162 L 80 162 L 79 162 L 78 162 L 77 162 L 76 162 L 75 162 L 74 161 L 73 161 L 72 161 L 71 161 L 70 161 L 69 161 L 68 161 L 67 161 L 66 161 L 65 161 L 64 161 L 63 161 L 62 161 L 61 161 L 60 160 L 59 160 L 58 160 L 57 160 L 56 160 L 55 160 L 54 160 L 53 160 L 52 160 L 51 160 L 50 160 L 49 160 L 48 160 L 47 160 L 46 160 L 45 160 L 44 160 L 43 160 L 42 160 L 41 160 L 40 160 L 39 160 L 38 160 L 37 160 L 36 160 L 35 160 L 34 159 L 33 159 L 32 159 L 31 159 L 30 159 L 29 159 L 28 159 L 27 159 L 26 159 L 25 159 L 24 159 L 23 159 L 22 159 L 21 159 L 20 159 L 19 159 L 18 159 L 17 159 L 16 159 L 15 159 L 14 159 L 13 159 L 12 159 L 11 158 L 10 158 L 9 158 L 8 158 L 7 158 L 6 158 L 5 158 L 4 158 L 3 159 L 3 160 L 3 161 L 4 161 L 5 161 L 6 161 L 7 161 L 8 161 L 9 162 L 10 162 L 11 162 L 12 162 L 13 162 L 14 162 L 15 162 L 16 162 L 17 163 L 18 163 L 19 163 L 20 163 L 21 163 L 22 163 L 23 163 L 24 163 L 25 163 L 26 164 L 27 164 L 28 164 L 29 164 L 30 164 L 31 164 L 32 164 L 33 164 L 34 164 L 35 165 L 36 165 L 37 165 L 38 165 L 39 165 L 40 165 L 41 165 L 42 165 L 43 165 L 44 166 L 45 166 L 46 166 L 47 166 L 48 166 L 49 166 L 50 166 L 51 166 L 52 166 L 53 167 L 54 167 L 55 167 L 56 167 L 57 167 L 58 167 L 59 167 L 60 167 L 61 168 L 62 168 L 63 168 L 64 168 L 65 168 L 66 168 L 67 168 L 68 168 L 69 168 L 70 168 L 71 169 L 72 169 L 73 169 L 74 169 L 75 169 L 76 169 L 77 169 L 78 170 L 78 171 L 78 172 L 78 173 L 78 174 L 78 175 L 78 176 L 78 177 L 78 178 L 78 179 L 79 180 L 80 180 L 81 180 L 82 179 L 82 178 L 82 177 L 82 176 L 82 175 L 82 174 L 82 173 L 82 172 L 83 171 L 84 170 L 85 170 L 86 170 L 87 170 L 88 170 L 89 170 L 90 171 L 91 171 L 92 171 L 93 171 L 94 171 L 95 171 L 96 171 L 97 171 L 98 171 L 99 171 L 100 172 L 101 172 L 102 172 L 103 172 L 104 172 L 105 172 L 106 172 L 107 172 L 108 172 L 109 172 L 110 172 L 111 173 L 112 173 L 113 173 L 114 173 L 115 173 L 116 173 L 117 173 L 118 173 L 119 174 L 120 174 L 121 174 L 122 174 L 123 174 L 124 174 L 125 175 L 125 176 L 125 177 L 124 178 L 123 179 L 122 180 L 121 181 L 120 182 L 119 183 L 118 184 L 117 185 L 117 186 L 116 187 L 115 188 L 115 189 L 114 190 L 114 191 L 113 192 L 113 193 L 113 194 L 112 195 L 112 196 L 112 197 L 113 198 L 114 199 L 115 200 L 116 200 L 117 200 L 118 200 L 119 200 L 120 199 L 121 199 L 122 198 L 123 197 L 124 196 L 125 195 L 126 194 L 126 193 L 127 192 L 128 191 L 128 190 L 129 189 L 129 188 L 130 187 L 131 186 L 131 185 L 132 184 L 133 183 L 134 183 L 135 183 L 136 183 L 137 183 L 138 183 L 139 184 L 139 185 L 140 185 L 141 185 L 141 184 L 142 183 L 143 183 L 144 183 L 145 183 L 146 183 L 147 182 L 148 182 L 149 181 L 149 180 L 150 179 L 151 178 L 152 177 L 153 177 L 154 177 L 155 178 L 156 179 L 157 180 L 158 181 L 159 181 L 160 182 L 161 183 L 162 184 L 163 185 L 164 185 L 165 186 L 166 187 L 167 187 L 168 188 L 169 188 L 170 189 L 171 189 L 172 189 L 173 189 L 174 189 L 175 189 L 176 189 L 177 188 L 177 187 L 177 186 L 177 185 L 177 184 L 176 183 L 176 182 L 176 181 L 177 180 L 178 180 L 179 180 L 180 180 L 181 180 L 182 180 L 183 180 L 184 180 L 185 180 L 186 181 L 187 181 L 188 181 L 189 181 L 190 181 L 191 181 L 192 181 L 193 181 L 194 182 L 195 182 L 196 182 L 197 182 L 198 182 L 199 182 L 200 182 L 201 182 L 202 182 L 203 182 L 204 182 L 205 182 L 206 182 L 207 183 L 208 183 L 209 183 L 210 183 L 211 183 L 212 183 L 213 183 L 214 183 L 215 183 L 216 184 L 216 185 L 216 186 L 216 187 L 215 188 L 214 189 L 213 190 L 212 190 L 211 191 L 210 192 L 209 193 L 208 194 L 207 195 L 207 196 L 206 197 L 205 198 L 205 199 L 204 200 L 204 201 L 204 202 L 204 203 L 204 204 L 205 205 L 205 206 L 206 206 L 207 207 L 208 207 L 209 207 L 210 206 L 211 206 L 212 206 L 213 205 L 214 204 L 215 204 L 216 203 L 217 202 L 218 201 L 219 200 L 220 199 L 220 198 L 221 197 L 222 196 L 223 195 L 224 194 L 225 194 L 226 194 L 227 195 L 228 196 L 229 197 L 230 197 L 231 198 L 232 198 L 233 198 L 234 198 L 235 198 L 236 198 L 237 198 L 238 198 L 239 198 L 240 198 L 241 197 L 242 197 L 243 196 L 244 196 L 245 195 L 246 194 L 247 193 L 247 192 L 248 191 L 249 191 L 250 191 L 251 192 L 252 193 L 253 194 L 254 195 L 255 196 L 256 197 L 257 198 L 258 199 L 259 199 L 260 200 L 261 201 L 262 201 L 263 202 L 264 202 L 265 203 L 266 203 L 267 203 L 268 202 L 269 201 L 269 200 L 269 199 L 269 198 L 269 197 L 268 196 L 268 195 L 267 194 L 266 193 L 265 192 L 265 191 L 265 190 L 266 189 L 267 189 L 268 189 L 269 189 L 270 189 L 271 189 L 272 190 L 273 190 L 274 190 L 275 190 L 276 190 L 277 190 L 278 190 L 279 190 L 280 190 L 281 190 L 282 190 L 283 191 L 284 191 L 285 191 L 286 191 L 287 191 L 288 191 L 289 191 L 290 191 L 291 191 L 292 191 L 293 192 L 294 193 L 294 194 L 294 195 L 294 196 L 294 197 L 294 198 L 294 199 L 294 200 L 294 201 L 295 201 L 296 201 L 297 201 L 297 200 L 297 199 L 297 198 L 297 197 L 297 196 L 297 195 L 297 194 L 297 193 L 298 192 L 299 192 L 300 192 L 301 192 L 302 192 L 303 193 L 304 193 L 305 193 L 306 193 L 307 193 L 308 193 L 309 193 L 310 193 L 311 193 L 312 193 L 313 193 L 314 193 L 315 194 L 316 195 L 317 195 L 318 196 L 319 197 L 320 197 L 321 198 L 322 198 L 323 199 L 324 199 L 325 200 L 326 200 L 327 200 L 328 201 L 329 201 L 330 201 L 331 201 L 332 202 L 333 202 L 334 202 L 335 202 L 336 202 L 337 202 L 338 202 L 339 202 L 340 202 L 341 202 L 342 202 L 343 202 L 344 202 L 345 202 L 346 201 L 347 201 L 348 201 L 349 201 L 350 200 L 351 200 L 352 200 L 353 199 L 354 199 L 355 198 L 356 198 L 357 197 L 358 197 L 359 196 L 360 196 L 361 195 L 362 194 L 363 194 L 364 193 L 365 193 L 366 193 L 367 193 L 368 193 L 369 193 L 370 193 L 371 193 L 372 193 L 373 193 L 374 193 L 375 192 L 376 192 L 377 192 L 378 192 L 379 192 L 380 193 L 381 194 L 381 195 L 381 196 L 381 197 L 381 198 L 381 199 L 381 200 L 381 201 L 381 202 L 382 202 L 383 202 L 384 202 L 384 201 L 384 200 L 384 199 L 384 198 L 384 197 L 384 196 L 384 195 L 384 194 L 385 193 L 386 192 L 387 192 L 388 192 L 389 191 L 390 191 L 391 191 L 392 191 L 393 191 L 394 191 L 395 191 L 396 191 L 397 191 L 398 191 L 399 191 L 400 190 L 401 190 L 402 190 L 403 190 L 404 190 L 405 190 L 406 190 L 407 190 L 408 190 L 409 190 L 410 190 L 411 190 L 412 191 L 412 192 L 412 193 L 411 194 L 410 195 L 409 196 L 409 197 L 409 198 L 409 199 L 409 200 L 409 201 L 410 202 L 411 203 L 412 203 L 413 203 L 414 203 L 415 203 L 416 202 L 417 202 L 418 201 L 419 201 L 420 200 L 421 199 L 422 198 L 423 197 L 424 196 L 425 195 L 426 194 L 427 193 L 428 192 L 429 191 L 430 191 L 431 191 L 432 192 L 433 193 L 433 194 L 434 195 L 435 196 L 436 197 L 437 197 L 438 198 L 439 198 L 440 198 L 441 199 L 442 199 L 443 199 L 444 199 L 445 199 L 446 198 L 447 198 L 448 198 L 449 198 L 450 198 L 451 197 L 452 196 L 453 195 L 454 194 L 455 194 L 456 194 L 457 194 L 458 195 L 458 196 L 459 197 L 460 198 L 461 199 L 462 200 L 462 201 L 463 202 L 464 203 L 465 204 L 466 204 L 467 205 L 468 205 L 469 206 L 470 206 L 471 206 L 472 206 L 473 206 L 474 205 L 475 204 L 475 203 L 475 202 L 475 201 L 474 200 L 474 199 L 473 198 L 473 197 L 472 196 L 471 195 L 470 194 L 469 193 L 468 192 L 467 191 L 466 190 L 465 189 L 464 188 L 464 187 L 464 186 L 464 185 L 465 184 L 466 184 L 467 184 L 468 184 L 469 183 L 470 183 L 471 183 L 472 183 L 473 183 L 474 183 L 475 183 L 476 182 L 477 182 L 478 182 L 479 182 L 480 182 L 481 182 L 482 182 L 483 182 L 484 182 L 485 182 L 486 182 L 487 181 L 488 181 L 489 181 L 490 181 L 491 181 L 492 181 L 493 181 L 494 181 L 495 180 L 496 180 L 497 180 L 498 180 L 499 180 L 500 180 L 501 180 L 502 181 L 502 182 L 502 183 L 501 184 L 501 185 L 501 186 L 501 187 L 502 188 L 502 189 L 503 189 L 504 189 L 505 189 L 506 189 L 507 189 L 508 189 L 509 189 L 510 189 L 511 188 L 512 187 L 513 187 L 514 186 L 515 186 L 516 185 L 517 184 L 518 184 L 519 183 L 520 182 L 521 181 L 522 180 L 523 179 L 524 179 L 525 179 L 526 179 L 527 179 L 528 179 L 529 180 L 530 180 L 531 181 L 532 182 L 533 182 L 534 182 L 535 183 L 536 183 L 537 183 L 538 184 L 539 184 L 540 184 L 541 183 L 542 183 L 543 183 L 544 183 L 545 183 L 546 182 L 547 182 L 548 182 L 549 182 L 550 182 L 551 183 L 552 184 L 552 185 L 553 186 L 553 187 L 554 188 L 555 189 L 555 190 L 556 191 L 556 192 L 557 193 L 557 194 L 558 195 L 559 196 L 559 197 L 560 198 L 561 199 L 562 200 L 563 200 L 564 200 L 565 200 L 566 200 L 567 199 L 568 198 L 568 197 L 568 196 L 568 195 L 568 194 L 568 193 L 567 192 L 567 191 L 566 190 L 565 189 L 565 188 L 564 187 L 563 186 L 562 185 L 561 184 L 561 183 L 560 182 L 559 181 L 558 180 L 558 179 L 557 178 L 556 177 L 555 176 L 555 175 L 555 174 L 556 173 L 557 173 L 558 173 L 559 173 L 560 173 L 561 173 L 562 173 L 563 173 L 564 173 L 565 172 L 566 172 L 567 172 L 568 172 L 569 172 L 570 172 L 571 172 L 572 172 L 573 172 L 574 172 L 575 172 L 576 171 L 577 171 L 578 171 L 579 171 L 580 171 L 581 171 L 582 171 L 583 171 L 584 171 L 585 170 L 586 170 L 587 170 L 588 170 L 589 170 L 590 170 L 591 170 L 592 170 L 593 170 L 594 169 L 595 169 L 596 169 L 597 170 L 597 171 L 597 172 L 597 173 L 597 174 L 597 175 L 597 176 L 597 177 L 597 178 L 597 179 L 598 180 L 599 180 L 600 180 L 601 180 L 601 179 L 601 178 L 601 177 L 601 176 L 601 175 L 601 174 L 601 173 L 601 172 L 601 171 L 601 170 L 602 169 L 603 169 L 604 168 L 605 168 L 606 168 L 607 168 L 608 168 L 609 168 L 610 168 L 611 168 L 612 168 L 613 168 L 614 167 L 615 167 L 616 167 L 617 167 L 618 167 L 619 167 L 620 167 L 621 167 L 622 166 L 623 166 L 624 166 L 625 166 L 626 166 L 627 166 L 628 166 L 629 166 L 630 166 L 631 165 L 632 165 L 633 165 L 634 165 L 635 165 L 636 165 L 637 165 L 638 165 L 639 165 L 640 165 L 641 164 L 642 164 L 643 164 L 644 164 L 645 164 L 646 164 L 647 164 L 648 164 L 649 164 L 650 164 L 651 163 L 652 163 L 653 163 L 654 163 L 655 163 L 656 163 L 657 163 L 658 163 L 659 163 L 660 162 L 661 162 L 662 162 L 663 162 L 664 162 L 665 162 L 666 162 L 667 162 L 668 161 L 669 161 L 670 161 L 671 161 L 672 161 L 673 161 L 674 161 L 675 161 L 675 160 L 675 159 L 675 158 L 674 158 L 673 158 L 672 158 L 671 158 L 670 158 L 669 158 L 668 158 L 667 158 L 666 158 L 665 158 L 664 158 L 663 158 L 662 158 L 661 158 L 660 158 L 659 158 L 658 158 L 657 158 L 656 158 L 655 158 L 654 158 L 653 158 L 652 158 L 651 158 L 650 158 L 649 158 L 648 158 L 647 158 L 646 158 L 645 158 L 644 158 L 643 158 L 642 158 L 641 159 L 640 159 L 639 159 L 638 159 L 637 159 L 636 159 L 635 159 L 634 159 L 633 159 L 632 159 L 631 159 L 630 159 L 629 159 L 628 159 L 627 159 L 626 159 L 625 160 L 624 160 L 623 160 L 622 160 L 621 160 L 620 160 L 619 160 L 618 160 L 617 160 L 616 160 L 615 160 L 614 160 L 613 161 L 612 161 L 611 161 L 610 161 L 609 161 L 608 161 L 607 161 L 606 161 L 605 161 L 604 161 L 603 161 L 602 161 L 601 161 L 600 161 L 599 161 L 598 161 L 597 161 L 596 161 L 595 162 L 594 162 L 593 162 L 592 162 L 591 162 L 590 162 L 589 162 L 588 162 L 587 162 L 586 162 L 585 162 L 584 162 L 583 162 L 582 162 L 581 162 L 580 162 L 579 163 L 578 163 L 577 163 L 576 163 L 575 163 L 574 163 L 573 163 L 572 163 L 571 163 L 570 163 L 569 163 L 568 164 L 567 164 L 566 164 L 565 164 L 564 164 L 563 164 L 562 164 L 561 164 L 560 164 L 559 164 L 558 164 L 557 164 L 556 164 L 555 164 L 554 164 L 553 164 L 552 163 L 552 162 L 552 161 L 552 160 L 552 159 L 553 158 L 554 157 L 555 157 L 556 156 L 557 156 L 558 156 L 559 155 L 560 155 L 561 154 L 562 154 L 563 153 L 564 153 L 565 152 L 566 152 L 567 151 L 568 151 L 569 150 L 570 150 L 571 149 L 572 148 L 573 147 L 574 146 L 575 146 L 575 145 L 576 144 L 577 143 L 577 142 L 577 141 L 577 140 L 577 139 L 577 138 L 576 137 L 575 137 L 574 137 L 573 137 L 572 137 L 571 137 L 570 138 L 569 138 L 568 138 L 567 139 L 566 140 L 565 140 L 564 141 L 563 141 L 562 142 L 561 143 L 560 143 L 559 144 L 558 145 L 557 146 L 556 146 L 555 147 L 554 148 L 553 149 L 552 150 L 551 150 L 550 150 L 549 149 L 548 148 L 548 147 L 547 146 L 546 145 L 545 144 L 544 144 L 543 143 L 542 143 L 541 143 L 540 142 L 539 142 L 538 142 L 537 143 L 536 143 L 535 143 L 534 144 L 533 144 L 532 144 L 531 144 L 530 144 L 529 143 L 528 142 L 527 141 L 527 140 L 526 139 L 525 138 L 524 137 L 523 136 L 523 135 L 522 134 L 521 133 L 520 132 L 519 131 L 518 130 L 517 129 L 516 129 L 515 128 L 514 128 L 513 128 L 512 128 L 511 129 L 510 129 L 510 130 L 510 131 L 510 132 L 510 133 L 510 134 L 511 135 L 511 136 L 512 137 L 512 138 L 513 139 L 514 140 L 515 141 L 516 142 L 517 142 L 518 143 L 519 144 L 520 144 L 521 145 L 522 146 L 523 147 L 524 148 L 525 149 L 526 149 L 527 150 L 527 151 L 527 152 L 527 153 L 527 154 L 527 155 L 527 156 L 527 157 L 527 158 L 527 159 L 527 160 L 527 161 L 526 162 L 526 163 L 526 164 L 526 165 L 526 166 L 525 167 L 524 167 L 523 167 L 522 167 L 521 167 L 520 167 L 519 167 L 518 167 L 517 167 L 516 167 L 515 167 L 514 167 L 513 167 L 512 167 L 511 167 L 510 167 L 509 168 L 508 168 L 507 168 L 506 168 L 505 168 L 504 168 L 503 168 L 502 168 L 501 168 L 500 168 L 499 168 L 498 168 L 497 168 L 496 168 L 495 168 L 494 169 L 493 169 L 492 169 L 491 169 L 490 169 L 489 169 L 488 169 L 487 169 L 486 169 L 485 169 L 484 169 L 483 169 L 482 169 L 481 169 L 480 169 L 479 169 L 478 169 L 477 169 L 476 169 L 475 170 L 474 170 L 473 170 L 472 170 L 471 170 L 470 170 L 469 170 L 468 170 L 467 170 L 466 170 L 465 170 L 464 171 L 463 171 L 462 171 L 461 171 L 460 171 L 459 171 L 458 171 L 457 171 L 456 171 L 455 170 L 455 169 L 455 168 L 455 167 L 455 166 L 456 165 L 457 165 L 458 164 L 459 164 L 460 163 L 461 162 L 462 162 L 463 161 L 464 160 L 465 160 L 466 159 L 467 158 L 468 157 L 469 157 L 470 156 L 471 155 L 472 154 L 473 153 L 474 152 L 475 151 L 476 150 L 477 149 L 477 148 L 478 147 L 478 146 L 478 145 L 477 144 L 477 143 L 476 142 L 475 142 L 474 142 L 473 142 L 472 142 L 471 142 L 470 142 L 469 143 L 468 144 L 467 144 L 466 145 L 465 146 L 464 147 L 463 148 L 462 149 L 461 150 L 460 151 L 459 152 L 458 153 L 457 154 L 456 155 L 456 156 L 455 157 L 454 157 L 453 157 L 452 157 L 451 156 L 451 155 L 450 154 L 449 153 L 448 153 L 447 152 L 446 152 L 445 151 L 444 151 L 443 151 L 442 151 L 441 151 L 440 151 L 439 151 L 438 152 L 437 153 L 436 153 L 435 153 L 434 153 L 433 153 L 432 152 L 431 151 L 430 150 L 429 149 L 429 148 L 428 147 L 427 146 L 426 145 L 425 144 L 424 143 L 423 142 L 422 141 L 421 140 L 420 140 L 419 139 L 419 138 L 419 137 L 420 136 L 421 135 L 422 135 L 423 135 L 424 135 L 425 134 L 426 134 L 427 134 L 428 134 L 429 134 L 430 133 L 431 133 L 432 133 L 433 133 L 434 133 L 435 132 L 436 132 L 437 132 L 438 132 L 439 132 L 440 131 L 441 131 L 442 131 L 443 131 L 444 130 L 445 130 L 446 130 L 447 130 L 448 130 L 449 129 L 450 129 L 451 129 L 452 129 L 453 129 L 454 128 L 455 128 L 456 128 L 457 128 L 458 128 L 458 127 L 458 126 L 457 126 L 456 126 L 455 126 L 454 126 L 453 126 L 452 127 L 451 127 L 450 127 L 449 127 L 448 127 L 447 127 L 446 127 L 445 127 L 444 128 L 443 128 L 442 128 L 441 128 L 440 128 L 439 128 L 438 129 L 437 129 L 436 129 L 435 129 L 434 129 L 433 129 L 432 129 L 431 130 L 430 130 L 429 130 L 428 130 L 427 130 L 426 130 L 425 130 L 424 130 L 423 131 L 422 131 L 421 131 L 420 131 L 419 131 L 418 132 L 417 132 L 416 132 L 415 132 L 414 132 L 413 132 L 412 132 L 411 132 L 410 133 L 409 133 L 408 133 L 407 133 L 406 133 L 405 133 L 404 133 L 403 133 L 402 134 L 401 134 L 400 134 L 399 134 L 398 134 L 397 134 L 396 134 L 395 134 L 394 135 L 393 135 L 392 135 L 391 135 L 390 135 L 389 135 L 388 136 L 387 136 L 386 136 L 385 136 L 384 136 L 383 136 L 382 136 L 381 137 L 380 137 L 379 137 L 378 137 L 377 137 L 376 137 L 375 137 L 374 137 L 373 137 L 372 138 L 371 138 L 370 138 L 369 138 L 368 138 L 367 137 L 366 136 L 365 135 L 364 135 L 363 134 L 362 133 L 361 132 L 360 132 L 359 131 L 358 130 L 357 130 L 356 129 L 355 129 L 354 128 L 353 128 L 352 128 L 351 127 L 350 127 L 349 127 L 348 127 L 347 126 L 346 125 L 346 124 L 346 123 L 346 122 L 346 121 L 346 120 L 346 119 L 346 118 L 346 117 L 346 116 L 345 115 L 345 114 L 345 113 L 345 112 L 345 111 L 345 110 L 345 109 L 345 108 L 345 107 L 345 106 L 345 105 L 345 104 L 345 103 L 345 102 L 345 101 L 345 100 L 345 99 L 345 98 L 345 97 L 345 96 L 345 95 L 345 94 L 345 93 L 345 92 L 345 91 L 345 90 L 345 89 L 345 88 L 345 87 L 345 86 L 345 85 L 345 84 L 345 83 L 345 82 L 345 81 L 345 80 L 345 79 L 345 78 L 345 77 L 345 76 L 345 75 L 345 74 L 344 73 L 344 72 L 344 71 L 344 70 L 344 69 L 344 68 L 344 67 L 344 66 L 344 65 L 344 64 L 344 63 L 344 62 L 344 61 L 344 60 L 344 59 L 344 58 L 344 57 L 344 56 L 344 55 L 344 54 L 344 53 L 344 52 L 344 51 L 344 50 L 344 49 L 344 48 L 344 47 L 343 46 L 343 45 L 343 44 L 343 43 L 343 42 L 343 41 L 343 40 L 343 39 L 343 38 L 343 37 L 343 36 L 343 35 L 343 34 L 343 33 L 343 32 L 342 31 L 342 30 L 342 29 L 342 28 L 342 27 L 342 26 L 342 25 L 342 24 L 342 23 L 341 22 L 341 21 L 341 20 L 340 20 Z" fill="#FFFFFF" />
</svg>
