<?xml version="1.0" encoding="UTF-8" standalone="no"?>
<svg xmlns="http://www.w3.org/2000/svg" width="512" height="256" viewBox="0 0 512 256">
  <title>NOAA WP-3D Aircraft Icon (white, transparent background)</title>
  <desc>Minimal vector icon inspired by the NOAA WP-3D Orion; white fill, transparent background.</desc>
  <g fill="#FFFFFF" stroke="none">
    <!-- Fuselage (rounded capsule) -->
    <path d="M40 132
             C40 104, 62 88, 96 88
             L408 88
             C448 88, 472 108, 476 132
             C472 156, 448 176, 408 176
             L96 176
             C62 176, 40 160, 40 132 Z"/>
             
    <!-- Nose radome extension -->
    <path d="M28 132
             C28 118, 36 104, 52 98
             C60 96, 66 96, 74 96
             C62 110, 62 154, 74 168
             C66 168, 60 168, 52 166
             C36 160, 28 146, 28 132 Z"/>
             
    <!-- Cockpit probe -->
    <rect x="16" y="128" width="20" height="6" rx="3" ry="3"/>
    
    <!-- Vertical tail -->
    <path d="M438 88 L468 28 L480 30 L468 88 Z"/>
    
    <!-- Horizontal tail (left and right) -->
    <path d="M420 162 L472 152 L484 156 L444 172 Z"/>
    <path d="M420 102 L472 112 L484 108 L444 92 Z"/>
    
    <!-- Main wing -->
    <path d="M190 98 L356 78 L384 92 L228 142 Z"/>
    <path d="M190 166 L356 186 L384 172 L228 122 Z"/>
    
    <!-- Engines (four nacelles) -->
    <ellipse cx="238" cy="120" rx="14" ry="10"/>
    <ellipse cx="278" cy="112" rx="14" ry="10"/>
    <ellipse cx="318" cy="104" rx="14" ry="10"/>
    <ellipse cx="358" cy="98"  rx="14" ry="10"/>
    <ellipse cx="238" cy="168" rx="14" ry="10"/>
    <ellipse cx="278" cy="176" rx="14" ry="10"/>
    <ellipse cx="318" cy="184" rx="14" ry="10"/>
    <ellipse cx="358" cy="190" rx="14" ry="10"/>
    
    <!-- Prop disks (simple circles to suggest prop blur) -->
    <circle cx="254" cy="116" r="12"/>
    <circle cx="294" cy="108" r="12"/>
    <circle cx="334" cy="100" r="12"/>
    <circle cx="374" cy="94"  r="12"/>
    <circle cx="254" cy="172" r="12"/>
    <circle cx="294" cy="180" r="12"/>
    <circle cx="334" cy="188" r="12"/>
    <circle cx="374" cy="194" r="12"/>
    
    <!-- Window band (subtle indentation using white overlay shape) -->
    <path d="M120 124 L392 124 L392 136 L120 136 Z"/>
  </g>
</svg>
