<?xml version="1.0" encoding="UTF-8" standalone="no"?>
<svg xmlns="http://www.w3.org/2000/svg" width="253" height="239" viewBox="0 0 253 239" version="1.1">
  <path d="M126.50,0.00 L126.00,0.50 125.50,1.00 125.00,1.50 125.00,2.50 125.00,3.50 124.50,4.00 124.00,4.50 124.00,5.50 124.00,6.50 123.50,7.00 123.00,7.50 123.00,8.50 123.00,9.50 123.00,10.50 123.00,11.50 122.50,12.00 122.00,12.50 122.00,13.50 122.00,14.50 122.00,15.50 122.00,16.50 121.50,17.00 121.00,17.50 121.00,18.50 121.00,19.50 120.50,20.00 120.00,20.50 120.00,21.50 119.50,22.00 118.50,22.00 118.00,22.50 117.50,23.00 116.50,23.00 115.50,23.00 114.50,23.00 113.50,23.00 112.50,23.00 111.50,23.00 110.50,23.00 109.50,23.00 108.50,23.00 107.50,23.00 106.50,23.00 105.50,23.00 104.50,23.00 103.50,23.00 102.50,23.00 101.50,23.00 100.50,23.00 99.50,23.00 98.50,23.00 97.50,23.00 96.50,23.00 95.50,23.00 94.50,23.00 93.50,23.00 92.50,23.00 91.50,23.00 90.50,23.00 89.50,23.00 88.50,23.00 87.50,23.00 86.50,23.00 85.50,23.00 84.50,23.00 83.50,23.00 82.50,23.00 81.50,23.00 80.50,23.00 79.50,23.00 78.50,23.00 77.50,23.00 76.50,23.00 75.50,23.00 74.50,23.00 73.50,23.00 72.50,23.00 71.50,23.00 70.50,23.00 69.50,23.00 68.50,23.00 68.00,23.50 68.00,24.50 68.00,25.50 68.00,26.50 68.00,27.50 68.00,28.50 68.00,29.50 68.00,30.50 68.00,31.50 68.00,32.50 68.00,33.50 68.00,34.50 68.00,35.50 68.50,36.00 69.00,36.50 69.50,37.00 70.50,37.00 71.50,37.00 72.50,37.00 73.00,37.50 73.50,38.00 74.50,38.00 75.50,38.00 76.00,38.50 76.50,39.00 77.50,39.00 78.50,39.00 79.00,39.50 79.50,40.00 80.50,40.00 81.50,40.00 82.50,40.00 83.00,40.50 83.50,41.00 84.50,41.00 85.50,41.00 86.00,41.50 86.50,42.00 87.50,42.00 88.50,42.00 89.50,42.00 90.00,42.50 90.50,43.00 91.50,43.00 92.50,43.00 93.00,43.50 93.50,44.00 94.50,44.00 95.50,44.00 96.00,44.50 96.50,45.00 97.50,45.00 98.50,45.00 99.50,45.00 100.00,45.50 100.50,46.00 101.50,46.00 102.50,46.00 103.00,46.50 103.50,47.00 104.50,47.00 105.50,47.00 106.50,47.00 107.00,47.50 107.50,48.00 108.50,48.00 109.50,48.00 110.00,48.50 110.50,49.00 111.00,49.50 111.50,50.00 112.50,50.00 113.00,50.50 113.50,51.00 114.00,51.50 114.00,52.50 114.50,53.00 115.00,53.50 115.00,54.50 115.00,55.50 115.00,56.50 115.00,57.50 115.00,58.50 115.00,59.50 115.00,60.50 115.00,61.50 115.00,62.50 115.00,63.50 115.00,64.50 115.00,65.50 114.50,66.00 114.00,66.50 114.00,67.50 114.00,68.50 114.00,69.50 114.00,70.50 114.00,71.50 114.00,72.50 114.00,73.50 114.00,74.50 114.00,75.50 113.50,76.00 113.00,76.50 113.00,77.50 113.00,78.50 113.00,79.50 113.00,80.50 113.00,81.50 113.00,82.50 113.00,83.50 113.00,84.50 113.00,85.50 113.00,86.50 112.50,87.00 112.00,87.50 112.00,88.50 112.00,89.50 112.00,90.50 112.00,91.50 112.00,92.50 112.00,93.50 112.00,94.50 112.00,95.50 112.00,96.50 111.50,97.00 111.00,97.50 111.00,98.50 111.00,99.50 111.00,100.50 111.00,101.50 111.00,102.50 111.00,103.50 111.00,104.50 111.00,105.50 111.00,106.50 111.00,107.50 111.00,108.50 110.50,109.00 110.00,109.50 110.00,110.50 110.00,111.50 110.00,112.50 110.00,113.50 110.00,114.50 110.00,115.50 110.00,116.50 110.00,117.50 109.50,118.00 109.00,118.50 108.50,119.00 108.00,119.50 107.50,120.00 107.00,120.50 106.50,121.00 105.50,121.00 104.50,121.00 103.50,121.00 102.50,121.00 101.50,121.00 100.50,121.00 99.50,121.00 98.50,121.00 97.50,121.00 96.50,121.00 95.50,121.00 94.50,121.00 93.50,121.00 92.50,121.00 91.50,121.00 90.50,121.00 89.50,121.00 88.50,121.00 87.50,121.00 86.50,121.00 85.50,121.00 84.50,121.00 83.50,121.00 82.50,121.00 81.50,121.00 80.50,121.00 79.50,121.00 78.50,121.00 77.50,121.00 76.50,121.00 75.50,121.00 74.50,121.00 73.50,121.00 72.50,121.00 71.50,121.00 70.50,121.00 69.50,121.00 68.50,121.00 67.50,121.00 66.50,121.00 65.50,121.00 64.50,121.00 63.50,121.00 62.50,121.00 61.50,121.00 60.50,121.00 59.50,121.00 58.50,121.00 57.50,121.00 56.50,121.00 55.50,121.00 54.50,121.00 53.50,121.00 52.50,121.00 51.50,121.00 50.50,121.00 49.50,121.00 48.50,121.00 47.50,121.00 46.50,121.00 45.50,121.00 44.50,121.00 43.50,121.00 42.50,121.00 41.50,121.00 40.50,121.00 39.50,121.00 38.50,121.00 37.50,121.00 36.50,121.00 35.50,121.00 34.50,121.00 33.50,121.00 32.50,121.00 31.50,121.00 30.50,121.00 29.50,121.00 28.50,121.00 27.50,121.00 26.50,121.00 25.50,121.00 24.50,121.00 23.50,121.00 22.50,121.00 21.50,121.00 20.50,121.00 19.50,121.00 18.50,121.00 17.50,121.00 16.50,121.00 15.50,121.00 14.50,121.00 13.50,121.00 12.50,121.00 11.50,121.00 10.50,121.00 9.50,121.00 8.50,121.00 7.50,121.00 6.50,121.00 5.50,121.00 4.50,121.00 3.50,121.00 2.50,121.00 1.50,121.00 0.50,121.00 0.00,121.50 0.00,122.50 0.00,123.50 0.00,124.50 0.00,125.50 0.00,126.50 0.00,127.50 0.00,128.50 0.00,129.50 0.00,130.50 0.00,131.50 0.00,132.50 0.00,133.50 0.00,134.50 0.00,135.50 0.00,136.50 0.00,137.50 0.00,138.50 0.00,139.50 0.00,140.50 0.00,141.50 0.00,142.50 0.00,143.50 0.00,144.50 0.00,145.50 0.50,146.00 1.50,146.00 2.50,146.00 3.50,146.00 4.50,146.00 5.00,146.50 5.50,147.00 6.50,147.00 7.50,147.00 8.50,147.00 9.50,147.00 10.00,147.50 10.50,148.00 11.50,148.00 12.50,148.00 13.50,148.00 14.00,148.50 14.50,149.00 15.50,149.00 16.50,149.00 17.50,149.00 18.50,149.00 19.00,149.50 19.50,150.00 20.50,150.00 21.50,150.00 22.50,150.00 23.50,150.00 24.00,150.50 24.50,151.00 25.50,151.00 26.50,151.00 27.50,151.00 28.00,151.50 28.50,152.00 29.50,152.00 30.50,152.00 31.50,152.00 32.50,152.00 33.00,152.50 33.50,153.00 34.50,153.00 35.50,153.00 36.50,153.00 37.00,153.50 37.50,154.00 38.50,154.00 39.50,154.00 40.50,154.00 41.50,154.00 42.00,154.50 42.50,155.00 43.50,155.00 44.50,155.00 45.50,155.00 46.50,155.00 47.00,155.50 47.50,156.00 48.50,156.00 49.50,156.00 50.50,156.00 51.00,156.50 51.50,157.00 52.50,157.00 53.50,157.00 54.50,157.00 55.50,157.00 56.00,157.50 56.50,158.00 57.50,158.00 58.50,158.00 59.50,158.00 60.50,158.00 61.00,158.50 61.50,159.00 62.50,159.00 63.50,159.00 64.50,159.00 65.00,159.50 65.50,160.00 66.50,160.00 67.50,160.00 68.50,160.00 69.50,160.00 70.00,160.50 70.50,161.00 71.50,161.00 72.50,161.00 73.50,161.00 74.50,161.00 75.00,161.50 75.50,162.00 76.50,162.00 77.50,162.00 78.50,162.00 79.00,162.50 79.50,163.00 80.50,163.00 81.50,163.00 82.50,163.00 83.50,163.00 84.00,163.50 84.50,164.00 85.50,164.00 86.50,164.00 87.50,164.00 88.50,164.00 89.00,164.50 89.50,165.00 90.50,165.00 91.50,165.00 92.50,165.00 93.00,165.50 93.50,166.00 94.50,166.00 95.50,166.00 96.50,166.00 97.50,166.00 98.00,166.50 98.50,167.00 99.50,167.00 100.50,167.00 101.00,167.50 101.50,168.00 102.50,168.00 103.00,168.50 103.50,169.00 104.00,169.50 104.50,170.00 105.00,170.50 105.00,171.50 105.50,172.00 106.00,172.50 106.00,173.50 106.50,174.00 107.00,174.50 107.00,175.50 107.00,176.50 107.00,177.50 107.00,178.50 107.00,179.50 107.00,180.50 107.00,181.50 107.00,182.50 107.00,183.50 107.00,184.50 107.00,185.50 107.00,186.50 107.00,187.50 107.00,188.50 107.00,189.50 107.00,190.50 107.00,191.50 107.00,192.50 107.00,193.50 107.00,194.50 107.00,195.50 107.00,196.50 107.00,197.50 107.00,198.50 107.00,199.50 107.00,200.50 107.00,201.50 107.00,202.50 107.00,203.50 107.00,204.50 107.00,205.50 107.00,206.50 107.00,207.50 107.00,208.50 107.00,209.50 107.00,210.50 107.00,211.50 107.00,212.50 107.50,213.00 108.00,213.50 108.00,214.50 108.00,215.50 108.00,216.50 108.00,217.50 108.50,218.00 109.00,218.50 109.00,219.50 109.00,220.50 109.00,221.50 109.50,222.00 110.00,222.50 110.00,223.50 110.00,224.50 110.50,225.00 111.00,225.50 111.00,226.50 111.50,227.00 112.00,227.50 112.00,228.50 112.50,229.00 113.00,229.50 113.00,230.50 113.50,231.00 114.00,231.50 114.50,232.00 115.00,232.50 115.50,233.00 116.00,233.50 116.50,234.00 117.00,234.50 117.50,235.00 118.00,235.50 118.50,236.00 119.50,236.00 120.00,236.50 120.50,237.00 121.50,237.00 122.50,237.00 123.00,237.50 123.50,238.00 124.50,238.00 125.50,238.00 126.50,238.00 127.50,238.00 128.50,238.00 129.50,238.00 130.00,237.50 130.50,237.00 131.50,237.00 132.00,236.50 132.50,236.00 133.50,236.00 134.00,235.50 134.50,235.00 135.00,234.50 135.50,234.00 136.00,233.50 136.50,233.00 137.00,232.50 137.50,232.00 138.00,231.50 138.50,231.00 139.00,230.50 139.50,230.00 140.00,229.50 140.00,228.50 140.00,227.50 140.50,227.00 141.00,226.50 141.00,225.50 141.50,225.00 142.00,224.50 142.00,223.50 142.00,222.50 142.50,222.00 143.00,221.50 143.00,220.50 143.00,219.50 143.50,219.00 144.00,218.50 144.00,217.50 144.00,216.50 144.00,215.50 144.00,214.50 144.00,213.50 144.50,213.00 145.00,212.50 145.00,211.50 145.00,210.50 145.00,209.50 145.00,208.50 145.00,207.50 145.00,206.50 145.00,205.50 145.00,204.50 145.00,203.50 145.00,202.50 145.00,201.50 145.50,201.00 146.00,200.50 146.00,199.50 146.00,198.50 146.00,197.50 146.00,196.50 146.00,195.50 146.00,194.50 146.00,193.50 146.00,192.50 146.00,191.50 146.00,190.50 146.00,189.50 146.00,188.50 146.00,187.50 146.00,186.50 146.00,185.50 146.00,184.50 146.00,183.50 146.00,182.50 146.00,181.50 146.00,180.50 146.00,179.50 146.00,178.50 146.00,177.50 145.50,177.00 145.00,176.50 145.00,175.50 145.50,175.00 146.00,174.50 146.00,173.50 146.00,172.50 146.50,172.00 147.00,171.50 147.00,170.50 147.50,170.00 148.00,169.50 148.50,169.00 149.00,168.50 149.50,168.00 150.50,168.00 151.00,167.50 151.50,167.00 152.50,167.00 153.50,167.00 154.00,166.50 154.50,166.00 155.50,166.00 156.50,166.00 157.50,166.00 158.50,166.00 159.00,165.50 159.50,165.00 160.50,165.00 161.50,165.00 162.50,165.00 163.00,164.50 163.50,164.00 164.50,164.00 165.50,164.00 166.50,164.00 167.50,164.00 168.00,163.50 168.50,163.00 169.50,163.00 170.50,163.00 171.50,163.00 172.50,163.00 173.00,162.50 173.50,162.00 174.50,162.00 175.50,162.00 176.50,162.00 177.00,161.50 177.50,161.00 178.50,161.00 179.50,161.00 180.50,161.00 181.50,161.00 182.00,160.50 182.50,160.00 183.50,160.00 184.50,160.00 185.50,160.00 186.50,160.00 187.00,159.50 187.50,159.00 188.50,159.00 189.50,159.00 190.50,159.00 191.00,158.50 191.50,158.00 192.50,158.00 193.50,158.00 194.50,158.00 195.50,158.00 196.00,157.50 196.50,157.00 197.50,157.00 198.50,157.00 199.50,157.00 200.50,157.00 201.00,156.50 201.50,156.00 202.50,156.00 203.50,156.00 204.50,156.00 205.00,155.50 205.50,155.00 206.50,155.00 207.50,155.00 208.50,155.00 209.50,155.00 210.00,154.50 210.50,154.00 211.50,154.00 212.50,154.00 213.50,154.00 214.50,154.00 215.00,153.50 215.50,153.00 216.50,153.00 217.50,153.00 218.50,153.00 219.00,152.50 219.50,152.00 220.50,152.00 221.50,152.00 222.50,152.00 223.50,152.00 224.00,151.50 224.50,151.00 225.50,151.00 226.50,151.00 227.50,151.00 228.50,151.00 229.00,150.50 229.50,150.00 230.50,150.00 231.50,150.00 232.50,150.00 233.00,149.50 233.50,149.00 234.50,149.00 235.50,149.00 236.50,149.00 237.50,149.00 238.00,148.50 238.50,148.00 239.50,148.00 240.50,148.00 241.50,148.00 242.50,148.00 243.00,147.50 243.50,147.00 244.50,147.00 245.50,147.00 246.50,147.00 247.00,146.50 247.50,146.00 248.50,146.00 249.50,146.00 250.50,146.00 251.50,146.00 252.00,145.50 252.00,144.50 252.00,143.50 252.00,142.50 252.00,141.50 252.00,140.50 252.00,139.50 252.00,138.50 252.00,137.50 252.00,136.50 252.00,135.50 252.00,134.50 252.00,133.50 252.00,132.50 252.00,131.50 252.00,130.50 252.00,129.50 252.00,128.50 252.00,127.50 252.00,126.50 252.00,125.50 252.00,124.50 252.00,123.50 252.00,122.50 252.00,121.50 251.50,121.00 250.50,121.00 249.50,121.00 248.50,121.00 247.50,121.00 246.50,121.00 245.50,121.00 244.50,121.00 243.50,121.00 242.50,121.00 241.50,121.00 240.50,121.00 239.50,121.00 238.50,121.00 237.50,121.00 236.50,121.00 235.50,121.00 234.50,121.00 233.50,121.00 232.50,121.00 231.50,121.00 230.50,121.00 229.50,121.00 228.50,121.00 227.50,121.00 226.50,121.00 225.50,121.00 224.50,121.00 223.50,121.00 222.50,121.00 221.50,121.00 220.50,121.00 219.50,121.00 218.50,121.00 217.50,121.00 216.50,121.00 215.50,121.00 214.50,121.00 213.50,121.00 212.50,121.00 211.50,121.00 210.50,121.00 209.50,121.00 208.50,121.00 207.50,121.00 206.50,121.00 205.50,121.00 204.50,121.00 203.50,121.00 202.50,121.00 201.50,121.00 200.50,121.00 199.50,121.00 198.50,121.00 197.50,121.00 196.50,121.00 195.50,121.00 194.50,121.00 193.50,121.00 192.50,121.00 191.50,121.00 190.50,121.00 189.50,121.00 188.50,121.00 187.50,121.00 186.50,121.00 185.50,121.00 184.50,121.00 183.50,121.00 182.50,121.00 181.50,121.00 180.50,121.00 179.50,121.00 178.50,121.00 177.50,121.00 176.50,121.00 175.50,121.00 174.50,121.00 173.50,121.00 172.50,121.00 171.50,121.00 170.50,121.00 169.50,121.00 168.50,121.00 167.50,121.00 166.50,121.00 165.50,121.00 164.50,121.00 163.50,121.00 162.50,121.00 161.50,121.00 160.50,121.00 159.50,121.00 158.50,121.00 157.50,121.00 156.50,121.00 155.50,121.00 154.50,121.00 153.50,121.00 152.50,121.00 151.50,121.00 150.50,121.00 149.50,121.00 148.50,121.00 147.50,121.00 146.50,121.00 145.50,121.00 145.00,120.50 144.50,120.00 144.00,119.50 143.50,119.00 143.00,118.50 142.50,118.00 142.00,117.50 142.00,116.50 142.00,115.50 142.00,114.50 142.00,113.50 142.00,112.50 142.00,111.50 142.00,110.50 142.00,109.50 142.00,108.50 141.50,108.00 141.00,107.50 141.00,106.50 141.00,105.50 141.00,104.50 141.00,103.50 141.00,102.50 141.00,101.50 141.00,100.50 141.00,99.50 141.00,98.50 141.00,97.50 140.50,97.00 140.00,96.50 140.00,95.50 140.00,94.50 140.00,93.50 140.00,92.50 140.00,91.50 140.00,90.50 140.00,89.50 140.00,88.50 140.00,87.50 140.00,86.50 139.50,86.00 139.00,85.50 139.00,84.50 139.00,83.50 139.00,82.50 139.00,81.50 139.00,80.50 139.00,79.50 139.00,78.50 139.00,77.50 139.00,76.50 139.00,75.50 138.50,75.00 138.00,74.50 138.00,73.50 138.00,72.50 138.00,71.50 138.00,70.50 138.00,69.50 138.00,68.50 138.00,67.50 138.00,66.50 138.00,65.50 137.50,65.00 137.00,64.50 137.00,63.50 137.00,62.50 137.00,61.50 137.00,60.50 137.00,59.50 137.00,58.50 137.00,57.50 137.00,56.50 137.00,55.50 137.00,54.50 137.00,53.50 137.50,53.00 138.00,52.50 138.00,51.50 138.50,51.00 139.00,50.50 139.50,50.00 140.50,50.00 141.00,49.50 141.50,49.00 142.00,48.50 142.50,48.00 143.50,48.00 144.50,48.00 145.50,48.00 146.00,47.50 146.50,47.00 147.50,47.00 148.50,47.00 149.00,46.50 149.50,46.00 150.50,46.00 151.50,46.00 152.00,45.50 152.50,45.00 153.50,45.00 154.50,45.00 155.50,45.00 156.00,44.50 156.50,44.00 157.50,44.00 158.50,44.00 159.00,43.50 159.50,43.00 160.50,43.00 161.50,43.00 162.00,42.50 162.50,42.00 163.50,42.00 164.50,42.00 165.50,42.00 166.00,41.50 166.50,41.00 167.50,41.00 168.50,41.00 169.00,40.50 169.50,40.00 170.50,40.00 171.50,40.00 172.50,40.00 173.00,39.50 173.50,39.00 174.50,39.00 175.50,39.00 176.00,38.50 176.50,38.00 177.50,38.00 178.50,38.00 179.50,38.00 180.00,37.50 180.50,37.00 181.50,37.00 182.50,37.00 183.00,36.50 183.50,36.00 184.00,35.50 184.00,34.50 184.00,33.50 184.00,32.50 184.00,31.50 184.00,30.50 184.00,29.50 184.00,28.50 184.00,27.50 184.00,26.50 184.00,25.50 184.00,24.50 184.00,23.50 183.50,23.00 182.50,23.00 181.50,23.00 180.50,23.00 179.50,23.00 178.50,23.00 177.50,23.00 176.50,23.00 175.50,23.00 174.50,23.00 173.50,23.00 172.50,23.00 171.50,23.00 170.50,23.00 169.50,23.00 168.50,23.00 167.50,23.00 166.50,23.00 165.50,23.00 164.50,23.00 163.50,23.00 162.50,23.00 161.50,23.00 160.50,23.00 159.50,23.00 158.50,23.00 157.50,23.00 156.50,23.00 155.50,23.00 154.50,23.00 153.50,23.00 152.50,23.00 151.50,23.00 150.50,23.00 149.50,23.00 148.50,23.00 147.50,23.00 146.50,23.00 145.50,23.00 144.50,23.00 143.50,23.00 142.50,23.00 141.50,23.00 140.50,23.00 139.50,23.00 138.50,23.00 137.50,23.00 136.50,23.00 135.50,23.00 134.50,23.00 134.00,22.50 133.50,22.00 132.50,22.00 132.00,21.50 132.00,20.50 131.50,20.00 131.00,19.50 131.00,18.50 131.00,17.50 131.00,16.50 130.50,16.00 130.00,15.50 130.00,14.50 130.00,13.50 130.00,12.50 130.00,11.50 129.50,11.00 129.00,10.50 129.00,9.50 129.00,8.50 129.00,7.50 128.50,7.00 128.00,6.50 128.00,5.50 128.00,4.50 128.00,3.50 127.50,3.00 127.00,2.50 127.00,1.50 127.00,0.50 126.50,0.00 Z" fill="#FFFFFF" stroke="none"/>
</svg>
