<svg xmlns="http://www.w3.org/2000/svg" viewBox="0 0 608 608" width="608" height="608" aria-labelledby="title" role="img">
<title>Wind and house icon (vectorized)</title>
  <path d="M 577.00 325.50 L 563.00 324.50 L 557.00 320.50 L 553.50 316.00 L 457.00 164.50 L 283.00 225.50 L 272.00 224.50 L 268.00 222.50 L 261.50 216.00 L 258.50 209.00 L 259.50 197.00 L 261.50 193.00 L 267.00 187.50 L 273.00 184.50 L 293.00 178.50 L 296.00 176.50 L 319.00 169.50 L 322.00 167.50 L 345.00 160.50 L 348.00 158.50 L 371.00 151.50 L 374.00 149.50 L 397.00 142.50 L 400.00 140.50 L 423.00 133.50 L 426.00 131.50 L 449.00 124.50 L 461.00 119.50 L 466.00 118.50 L 472.00 119.50 L 478.00 122.50 L 481.50 126.00 L 489.50 138.00 L 507.50 168.00 L 587.50 293.00 L 591.50 302.00 L 591.50 311.00 L 588.50 318.00 L 584.00 322.50 L 577.00 325.50 Z" fill="currentColor" fill-rule="evenodd"/>
  <path d="M 188.00 336.50 L 36.00 336.50 L 28.50 330.00 L 27.50 320.00 L 28.50 317.00 L 34.00 311.50 L 42.00 309.50 L 185.00 309.50 L 195.00 306.50 L 205.00 300.50 L 213.50 292.00 L 220.50 279.00 L 222.50 272.00 L 222.50 255.00 L 217.50 239.00 L 210.50 227.00 L 203.00 218.50 L 189.00 209.50 L 182.00 207.50 L 170.00 207.50 L 159.00 210.50 L 151.00 214.50 L 139.50 225.00 L 132.50 237.00 L 130.50 244.00 L 129.50 256.00 L 134.50 267.00 L 144.00 272.50 L 154.00 272.50 L 160.00 269.50 L 165.50 264.00 L 167.50 260.00 L 168.50 251.00 L 163.50 239.00 L 163.50 233.00 L 165.50 228.00 L 170.00 223.50 L 176.00 221.50 L 183.00 222.50 L 189.50 228.00 L 192.50 233.00 L 196.50 245.00 L 196.50 263.00 L 194.50 270.00 L 189.50 280.00 L 181.00 289.50 L 174.00 294.50 L 159.00 300.50 L 141.00 300.50 L 126.00 294.50 L 117.50 288.00 L 109.50 278.00 L 105.50 270.00 L 102.50 258.00 L 103.50 241.00 L 107.50 227.00 L 113.50 215.00 L 118.50 208.00 L 132.00 194.50 L 141.00 188.50 L 158.00 181.50 L 167.00 179.50 L 187.00 179.50 L 201.00 183.50 L 211.00 188.50 L 228.50 203.00 L 238.50 216.00 L 244.50 227.00 L 249.50 241.00 L 251.50 250.00 L 251.50 257.00 L 252.50 258.00 L 251.50 275.00 L 246.50 292.00 L 240.50 303.00 L 234.50 311.00 L 227.00 318.50 L 216.00 326.50 L 201.00 333.50 L 188.00 336.50 Z" fill="currentColor" fill-rule="evenodd"/>
  <path d="M 539.00 446.50 L 447.50 446.00 L 447.00 346.50 L 358.50 347.00 L 358.00 446.50 L 267.00 446.50 L 265.50 445.00 L 265.50 300.00 L 397.00 195.50 L 404.00 191.50 L 540.50 301.00 L 540.50 445.00 L 539.00 446.50 Z" fill="currentColor" fill-rule="evenodd"/>
  <path d="M 142.00 472.50 L 121.00 471.50 L 112.00 468.50 L 98.00 460.50 L 87.50 450.00 L 78.50 434.00 L 75.50 423.00 L 75.50 410.00 L 81.00 403.50 L 85.00 401.50 L 93.00 402.50 L 98.50 409.00 L 99.50 422.00 L 104.50 433.00 L 114.00 442.50 L 127.00 448.50 L 132.00 449.50 L 144.00 448.50 L 157.00 442.50 L 165.50 434.00 L 171.50 422.00 L 172.50 417.00 L 171.50 403.00 L 168.50 395.00 L 159.00 383.50 L 149.00 377.50 L 142.00 375.50 L 24.00 375.50 L 21.00 374.50 L 15.50 368.00 L 15.50 361.00 L 17.50 357.00 L 23.00 353.50 L 144.00 353.50 L 155.00 356.50 L 171.00 365.50 L 181.50 376.00 L 185.50 382.00 L 192.50 399.00 L 193.50 420.00 L 191.50 430.00 L 184.50 445.00 L 173.00 458.50 L 157.00 468.50 L 142.00 472.50 Z" fill="currentColor" fill-rule="evenodd"/>
  <path d="M 551.00 479.50 L 254.00 479.50 L 248.50 475.00 L 246.50 467.00 L 249.50 461.00 L 255.00 457.50 L 550.00 457.50 L 555.50 461.00 L 558.50 467.00 L 556.50 475.00 L 551.00 479.50 Z" fill="currentColor" fill-rule="evenodd"/>
</svg>