<svg xmlns="http://www.w3.org/2000/svg" width="1024" height="1024" viewBox="0 0 1024 1024">
<g fill="none"></g>
<path d="M 607.00,773.50 L 417.00,773.50 L 398.00,766.50 L 389.50,758.00 L 383.50,745.00 L 377.50,696.00 L 361.50,650.00 L 345.50,622.00 L 307.50,575.00 L 291.50,551.00 L 278.50,525.00 L 267.50,493.00 L 259.50,446.00 L 260.50,393.00 L 272.50,340.00 L 294.50,293.00 L 325.50,252.00 L 365.00,217.50 L 407.00,193.50 L 450.00,178.50 L 492.00,171.50 L 543.00,172.50 L 590.00,182.50 L 640.00,204.50 L 681.00,233.50 L 715.50,270.00 L 733.50,297.00 L 749.50,330.00 L 757.50,354.00 L 765.50,395.00 L 766.50,443.00 L 763.50,468.00 L 753.50,508.00 L 743.50,533.00 L 729.50,559.00 L 681.50,620.00 L 660.50,658.00 L 648.50,695.00 L 643.50,740.00 L 637.50,756.00 L 626.00,767.50 L 607.00,773.50 Z M 321.50,430.00 L 334.50,422.00 L 339.50,411.00 L 338.50,376.00 L 341.50,352.00 L 348.50,325.00 L 358.50,303.00 L 384.50,267.00 L 415.00,239.50 L 435.00,227.50 L 439.50,222.00 L 437.00,218.50 L 428.00,219.50 L 406.00,229.50 L 376.00,249.50 L 346.50,278.00 L 321.50,314.00 L 304.50,354.00 L 295.50,399.00 L 295.50,411.00 L 299.50,421.00 L 308.00,428.50 L 321.50,430.00 Z M 635.00,819.50 L 390.00,819.50 L 384.00,817.50 L 378.50,812.00 L 376.50,802.00 L 379.50,795.00 L 389.00,788.50 L 636.00,788.50 L 645.50,795.00 L 648.50,806.00 L 645.50,813.00 L 635.00,819.50 Z M 619.00,864.50 L 406.00,864.50 L 396.50,857.00 L 394.50,848.00 L 397.50,841.00 L 407.00,834.50 L 617.00,834.50 L 624.00,837.50 L 629.50,846.00 L 627.50,858.00 L 619.00,864.50 Z M 597.00,909.50 L 428.00,909.50 L 418.50,901.00 L 417.50,892.00 L 419.50,887.00 L 428.00,880.50 L 597.00,880.50 L 605.50,887.00 L 607.50,892.00 L 605.50,903.00 L 597.00,909.50 Z M 546.00,945.50 L 479.00,945.50 L 472.00,942.50 L 455.50,925.00 L 569.00,924.50 L 552.00,943.50 L 546.00,945.50 Z" fill="white" stroke="none" />
<path d="M 515.00,136.50 L 510.00,136.50 L 505.50,132.00 L 504.50,53.00 L 509.00,44.50 L 515.00,44.50 L 519.50,49.00 L 519.50,132.00 L 515.00,136.50 Z M 359.00,173.50 L 353.00,171.50 L 350.50,168.00 L 308.50,95.00 L 306.50,86.00 L 310.00,81.50 L 317.00,81.50 L 319.50,84.00 L 363.50,160.00 L 365.50,167.00 L 359.00,173.50 Z M 668.00,173.50 L 660.50,170.00 L 660.50,161.00 L 703.50,86.00 L 708.00,81.50 L 716.00,82.50 L 718.50,87.00 L 716.50,94.00 L 672.50,171.00 L 668.00,173.50 Z M 545.00,960.50 L 481.00,960.50 L 472.00,958.50 L 459.00,950.50 L 436.00,924.50 L 417.00,920.50 L 405.50,908.00 L 403.50,888.00 L 407.50,880.00 L 395.00,875.50 L 385.50,867.00 L 380.50,855.00 L 380.50,845.00 L 385.50,833.00 L 373.00,827.50 L 366.50,820.00 L 362.50,810.00 L 362.50,799.00 L 366.50,789.00 L 373.00,781.50 L 384.50,775.00 L 375.50,764.00 L 369.50,750.00 L 364.50,707.00 L 354.50,671.00 L 337.50,637.00 L 288.50,574.00 L 268.50,539.00 L 252.50,495.00 L 244.50,445.00 L 245.50,394.00 L 255.50,345.00 L 263.50,322.00 L 277.50,293.00 L 308.50,249.00 L 335.00,222.50 L 355.00,206.50 L 400.00,180.50 L 450.00,163.50 L 500.00,156.50 L 557.00,159.50 L 609.00,173.50 L 657.00,197.50 L 692.00,223.50 L 725.50,259.00 L 740.50,280.00 L 755.50,307.00 L 771.50,349.00 L 778.50,381.00 L 781.50,410.00 L 778.50,468.00 L 771.50,500.00 L 760.50,531.00 L 732.50,581.00 L 687.50,638.00 L 674.50,663.00 L 666.50,685.00 L 660.50,711.00 L 656.50,749.00 L 650.50,763.00 L 640.50,775.00 L 656.50,786.00 L 662.50,799.00 L 662.50,809.00 L 657.50,821.00 L 650.00,828.50 L 639.50,833.00 L 644.50,846.00 L 642.50,861.00 L 634.00,872.50 L 617.50,880.00 L 622.50,896.00 L 620.50,905.00 L 614.50,915.00 L 601.00,923.50 L 590.00,924.50 L 564.00,952.50 L 556.00,957.50 L 545.00,960.50 Z M 613.50,773.00 L 630.00,765.50 L 639.50,754.00 L 643.50,744.00 L 649.50,694.00 L 662.50,655.00 L 684.50,617.00 L 715.50,580.00 L 731.50,557.00 L 752.50,513.00 L 762.50,477.00 L 767.50,440.00 L 766.50,397.00 L 757.50,351.00 L 736.50,301.00 L 711.50,264.00 L 675.00,227.50 L 638.00,202.50 L 616.00,191.50 L 586.00,180.50 L 541.00,171.50 L 497.00,170.50 L 471.00,173.50 L 440.00,180.50 L 393.00,199.50 L 352.00,226.50 L 317.50,260.00 L 287.50,304.00 L 269.50,347.00 L 261.50,381.00 L 258.50,405.00 L 260.50,463.00 L 269.50,503.00 L 279.50,529.00 L 292.50,554.00 L 310.50,580.00 L 340.50,616.00 L 362.50,654.00 L 376.50,695.00 L 382.50,744.00 L 387.50,756.00 L 397.00,766.50 L 413.00,773.50 L 613.50,773.00 Z M 322.00,429.50 L 313.00,429.50 L 306.00,426.50 L 298.50,418.00 L 296.50,412.00 L 300.50,372.00 L 306.50,350.00 L 318.50,321.00 L 341.50,285.00 L 371.00,254.50 L 402.00,232.50 L 436.00,218.50 L 438.50,223.00 L 435.00,226.50 L 410.00,242.50 L 384.50,266.00 L 365.50,290.00 L 355.50,307.00 L 344.50,335.00 L 339.50,359.00 L 337.50,379.00 L 338.50,412.00 L 333.50,422.00 L 322.00,429.50 Z M 245.00,280.50 L 236.00,277.50 L 160.00,233.50 L 157.50,229.00 L 158.50,224.00 L 162.00,220.50 L 167.00,220.50 L 247.00,266.50 L 250.50,271.00 L 250.50,276.00 L 245.00,280.50 Z M 783.00,280.50 L 778.00,279.50 L 774.50,275.00 L 777.00,267.50 L 859.00,220.50 L 866.50,223.00 L 867.50,231.00 L 864.00,234.50 L 783.00,280.50 Z M 203.00,432.50 L 110.00,432.50 L 105.50,425.00 L 111.00,418.50 L 203.00,418.50 L 207.50,423.00 L 207.50,428.00 L 203.00,432.50 Z M 916.00,432.50 L 822.00,432.50 L 817.50,428.00 L 817.50,423.00 L 822.00,418.50 L 916.00,418.50 L 920.50,423.00 L 920.50,428.00 L 916.00,432.50 Z M 167.00,633.50 L 161.00,632.50 L 157.50,628.00 L 162.00,619.50 L 240.00,574.50 L 246.00,574.50 L 249.50,577.00 L 250.50,583.00 L 246.00,588.50 L 167.00,633.50 Z M 863.00,633.50 L 856.00,632.50 L 778.00,587.50 L 774.50,582.00 L 775.50,578.00 L 779.00,574.50 L 785.00,574.50 L 864.00,619.50 L 868.50,626.00 L 867.50,630.00 L 863.00,633.50 Z M 638.50,819.00 L 646.50,813.00 L 649.50,805.00 L 645.50,794.00 L 635.00,787.50 L 390.00,787.50 L 378.50,795.00 L 375.50,803.00 L 377.50,812.00 L 387.00,819.50 L 638.50,819.00 Z M 619.50,865.00 L 628.50,858.00 L 630.50,846.00 L 625.00,837.50 L 616.00,833.50 L 408.00,833.50 L 401.00,836.50 L 394.50,845.00 L 395.50,857.00 L 406.00,865.50 L 619.50,865.00 Z M 597.50,910.00 L 605.50,904.00 L 608.50,893.00 L 605.50,886.00 L 597.00,879.50 L 428.00,879.50 L 419.50,886.00 L 416.50,893.00 L 419.50,904.00 L 429.00,910.50 L 597.50,910.00 Z M 546.50,946.00 L 553.00,943.50 L 570.00,924.50 L 454.50,925.00 L 472.00,943.50 L 480.00,946.50 L 546.50,946.00 Z" fill="black" stroke="none" />
</svg>