<svg xmlns="http://www.w3.org/2000/svg" viewBox="0 0 24 24">
  <path fill="currentColor" d="M12 2c-3.866 0-7 3.134-7 7 0 2.764 1.6 5.148 3.92 6.264C7.356 19.15 4.5 21 4.5 21s4.228-.345 7.082-2.726C12.34 19.58 13.146 20 14 20c3.314 0 6-2.686 6-6 0-2.895-2.05-5.308-4.77-5.879C16.654 5.021 18 3 18 3s-3.807.273-6.161 2.276C11.66 4.42 10.854 4 10 4c-2.761 0-5 2.239-5 5 0 1.657 0.91 3.144 2.266 4.003C7.086 10.572 9.293 8 12 8c2.761 0 5 2.239 5 5 0 2.169-1.383 4.017-3.305 4.692C15.523 14.435 14.047 12 12 12c-2.209 0-4 1.791-4 4 0 1.03.388 1.969 1.024 2.676C5.83 17.995 5 17.5 5 17.5s2.985-1.555 4.848-4.055C8.044 12.43 7 10.837 7 9c0-2.761 2.239-5 5-5 1.482 0 2.81.642 3.746 1.657C18.17 6.005 19 6.5 19 6.5s-2.985 1.555-4.848 4.055C15.956 11.57 17 13.163 17 15c0 2.761-2.239 5-5 5-1.482 0-2.81-.642-3.746-1.657C5.83 17.995 5 17.5 5 17.5s2.985-1.555 4.848-4.055C8.044 12.43 7 10.837 7 9c0-2.761 2.239-5 5-5Z"/>
</svg>
