<svg xmlns="http://www.w3.org/2000/svg" viewBox="0 0 1920 1920" width="1920" height="1920" aria-labelledby="title">
<title>Refresh arrows icon (vectorized)</title>
  <path d="M 1453.00 1100.50 L 1451.50 1100.00 L 1451.50 1099.00 L 1445.50 1091.00 L 1445.50 1090.00 L 1442.50 1087.00 L 1439.50 1081.00 L 1436.50 1078.00 L 1434.50 1074.00 L 1432.50 1072.00 L 1432.50 1071.00 L 1430.50 1069.00 L 1430.50 1068.00 L 1424.50 1060.00 L 1424.50 1059.00 L 1422.50 1057.00 L 1422.50 1056.00 L 1420.50 1054.00 L 1416.50 1047.00 L 1404.50 1030.00 L 1404.50 1029.00 L 1401.50 1026.00 L 1400.50 1023.00 L 1396.50 1018.00 L 1396.50 1017.00 L 1391.50 1011.00 L 1390.50 1008.00 L 1387.50 1005.00 L 1387.50 1004.00 L 1381.50 996.00 L 1381.50 995.00 L 1373.50 984.00 L 1373.50 983.00 L 1371.50 981.00 L 1371.50 980.00 L 1363.50 969.00 L 1361.50 965.00 L 1358.50 962.00 L 1356.50 958.00 L 1354.50 956.00 L 1353.50 953.00 L 1350.50 950.00 L 1350.50 949.00 L 1348.50 947.00 L 1348.50 946.00 L 1340.50 935.00 L 1340.50 934.00 L 1338.50 932.00 L 1338.50 931.00 L 1332.50 923.00 L 1330.50 919.00 L 1326.50 914.00 L 1326.50 913.00 L 1323.50 910.00 L 1322.50 907.00 L 1319.50 904.00 L 1319.50 903.00 L 1317.50 901.00 L 1317.50 900.00 L 1315.50 898.00 L 1311.50 891.00 L 1309.50 889.00 L 1309.50 888.00 L 1307.50 886.00 L 1307.50 885.00 L 1305.50 883.00 L 1301.50 876.00 L 1299.50 874.00 L 1299.50 873.00 L 1297.50 871.00 L 1293.50 864.00 L 1277.50 841.00 L 1277.50 840.00 L 1274.50 837.00 L 1274.50 836.00 L 1268.50 828.00 L 1266.50 824.00 L 1252.50 804.00 L 1252.50 803.00 L 1250.50 801.00 L 1250.50 800.00 L 1248.50 798.00 L 1246.50 794.00 L 1243.50 791.00 L 1242.50 788.00 L 1237.50 782.00 L 1237.50 781.00 L 1234.50 777.00 L 1235.00 775.50 L 1342.50 775.00 L 1342.50 773.00 L 1336.50 762.00 L 1336.50 760.00 L 1326.50 740.00 L 1324.50 738.00 L 1319.50 727.00 L 1317.50 725.00 L 1315.50 720.00 L 1310.50 713.00 L 1306.50 705.00 L 1302.50 700.00 L 1301.50 697.00 L 1299.50 695.00 L 1299.50 694.00 L 1297.50 692.00 L 1293.50 685.00 L 1290.50 682.00 L 1286.50 675.00 L 1280.50 668.00 L 1278.50 664.00 L 1270.50 655.00 L 1270.50 654.00 L 1266.50 650.00 L 1266.50 649.00 L 1262.50 645.00 L 1262.50 644.00 L 1256.50 638.00 L 1256.50 637.00 L 1230.50 610.00 L 1230.00 608.50 L 1229.00 608.50 L 1210.00 589.50 L 1209.00 589.50 L 1195.00 576.50 L 1194.00 576.50 L 1180.00 564.50 L 1179.00 564.50 L 1172.00 558.50 L 1171.00 558.50 L 1168.00 555.50 L 1164.00 553.50 L 1161.00 550.50 L 1157.00 548.50 L 1154.00 545.50 L 1148.00 542.50 L 1145.00 539.50 L 1142.00 538.50 L 1137.00 534.50 L 1131.00 531.50 L 1129.00 529.50 L 1117.00 523.50 L 1115.00 521.50 L 1106.00 517.50 L 1104.00 515.50 L 1082.00 504.50 L 1080.00 504.50 L 1069.00 498.50 L 1067.00 498.50 L 1064.00 496.50 L 1062.00 496.50 L 1052.00 491.50 L 1050.00 491.50 L 1044.00 488.50 L 1042.00 488.50 L 1039.00 486.50 L 1037.00 486.50 L 1036.00 485.50 L 1034.00 485.50 L 1030.00 483.50 L 1025.00 482.50 L 1024.00 481.50 L 1022.00 481.50 L 1021.00 480.50 L 1016.00 479.50 L 1015.00 478.50 L 1013.00 478.50 L 1012.00 477.50 L 1009.00 477.50 L 1005.00 475.50 L 1002.00 475.50 L 998.00 473.50 L 991.00 472.50 L 990.00 471.50 L 987.00 471.50 L 986.00 470.50 L 979.00 469.50 L 978.00 468.50 L 974.00 468.50 L 973.00 467.50 L 970.00 467.50 L 969.00 466.50 L 965.00 466.50 L 964.00 465.50 L 960.00 465.50 L 959.00 464.50 L 949.00 463.50 L 948.00 462.50 L 936.00 461.50 L 935.00 460.50 L 929.00 460.50 L 928.00 459.50 L 920.00 459.50 L 919.00 458.50 L 910.00 458.50 L 909.00 457.50 L 899.00 457.50 L 898.00 456.50 L 878.00 456.50 L 877.00 455.50 L 848.00 455.50 L 847.00 456.50 L 828.00 456.50 L 827.00 457.50 L 816.00 457.50 L 815.00 458.50 L 806.00 458.50 L 805.00 459.50 L 797.00 459.50 L 796.00 460.50 L 783.00 461.50 L 782.00 462.50 L 778.00 462.50 L 777.00 463.50 L 771.00 463.50 L 770.00 464.50 L 766.00 464.50 L 765.00 465.50 L 756.00 466.50 L 755.00 467.50 L 752.00 467.50 L 751.00 468.50 L 747.00 468.50 L 746.00 469.50 L 743.00 469.50 L 742.00 470.50 L 739.00 470.50 L 738.00 471.50 L 735.00 471.50 L 734.00 472.50 L 731.00 472.50 L 730.00 473.50 L 727.00 473.50 L 723.00 475.50 L 720.00 475.50 L 716.00 477.50 L 713.00 477.50 L 712.00 478.50 L 710.00 478.50 L 709.00 479.50 L 707.00 479.50 L 706.00 480.50 L 704.00 480.50 L 703.00 481.50 L 701.00 481.50 L 700.00 482.50 L 698.00 482.50 L 697.00 483.50 L 689.00 485.50 L 688.00 486.50 L 686.00 486.50 L 683.00 488.50 L 675.00 490.50 L 672.00 492.50 L 670.00 492.50 L 665.00 495.50 L 663.00 495.50 L 660.00 497.50 L 658.00 497.50 L 644.00 504.50 L 642.00 504.50 L 614.00 518.50 L 612.00 520.50 L 605.00 523.50 L 603.00 525.50 L 591.00 531.50 L 586.00 535.50 L 578.00 539.50 L 575.00 542.50 L 572.00 543.50 L 570.00 545.50 L 569.00 545.50 L 558.00 553.50 L 557.00 553.50 L 554.00 556.50 L 550.00 558.50 L 543.00 564.50 L 542.00 564.50 L 536.00 569.50 L 535.00 569.50 L 531.00 573.50 L 530.00 573.50 L 516.00 585.50 L 515.00 585.50 L 509.00 591.50 L 508.00 591.50 L 502.00 597.50 L 501.00 597.50 L 491.00 607.50 L 490.00 607.50 L 452.50 645.00 L 452.50 646.00 L 447.00 651.50 L 446.50 650.00 L 448.50 648.00 L 448.50 646.00 L 451.50 642.00 L 457.50 629.00 L 459.50 627.00 L 462.50 620.00 L 464.50 618.00 L 466.50 613.00 L 468.50 611.00 L 469.50 608.00 L 471.50 606.00 L 475.50 598.00 L 481.50 590.00 L 482.50 587.00 L 486.50 582.00 L 486.50 581.00 L 488.50 579.00 L 492.50 572.00 L 495.50 569.00 L 497.50 565.00 L 500.50 562.00 L 500.50 561.00 L 503.50 558.00 L 503.50 557.00 L 506.50 554.00 L 506.50 553.00 L 509.50 550.00 L 509.50 549.00 L 513.50 545.00 L 513.50 544.00 L 517.50 540.00 L 517.50 539.00 L 521.50 535.00 L 521.50 534.00 L 526.50 529.00 L 526.50 528.00 L 532.50 522.00 L 532.50 521.00 L 543.50 510.00 L 543.50 509.00 L 573.00 479.50 L 574.00 479.50 L 583.00 470.50 L 584.00 470.50 L 591.00 463.50 L 592.00 463.50 L 602.00 454.50 L 603.00 454.50 L 607.00 450.50 L 608.00 450.50 L 612.00 446.50 L 613.00 446.50 L 624.00 437.50 L 628.00 435.50 L 631.00 432.50 L 632.00 432.50 L 655.00 416.50 L 658.00 415.50 L 663.00 411.50 L 668.00 409.50 L 673.00 405.50 L 678.00 403.50 L 680.00 401.50 L 689.00 397.50 L 691.00 395.50 L 717.00 382.50 L 719.00 382.50 L 728.00 377.50 L 730.00 377.50 L 742.00 371.50 L 744.00 371.50 L 752.00 367.50 L 757.00 366.50 L 760.00 364.50 L 765.00 363.50 L 768.00 361.50 L 773.00 360.50 L 774.00 359.50 L 776.00 359.50 L 777.00 358.50 L 779.00 358.50 L 780.00 357.50 L 782.00 357.50 L 783.00 356.50 L 785.00 356.50 L 786.00 355.50 L 794.00 353.50 L 795.00 352.50 L 798.00 352.50 L 799.00 351.50 L 805.00 350.50 L 809.00 348.50 L 812.00 348.50 L 816.00 346.50 L 819.00 346.50 L 820.00 345.50 L 823.00 345.50 L 824.00 344.50 L 827.00 344.50 L 828.00 343.50 L 831.00 343.50 L 832.00 342.50 L 836.00 342.50 L 837.00 341.50 L 840.00 341.50 L 841.00 340.50 L 850.00 339.50 L 851.00 338.50 L 854.00 338.50 L 855.00 337.50 L 860.00 337.50 L 861.00 336.50 L 871.00 335.50 L 872.00 334.50 L 877.00 334.50 L 878.00 333.50 L 884.00 333.50 L 885.00 332.50 L 891.00 332.50 L 892.00 331.50 L 899.00 331.50 L 900.00 330.50 L 908.00 330.50 L 909.00 329.50 L 931.00 328.50 L 932.00 327.50 L 952.00 327.50 L 953.00 326.50 L 991.00 326.50 L 992.00 327.50 L 1012.00 327.50 L 1013.00 328.50 L 1026.00 328.50 L 1027.00 329.50 L 1036.00 329.50 L 1037.00 330.50 L 1045.00 330.50 L 1046.00 331.50 L 1061.00 332.50 L 1062.00 333.50 L 1067.00 333.50 L 1068.00 334.50 L 1073.00 334.50 L 1074.00 335.50 L 1079.00 335.50 L 1080.00 336.50 L 1085.00 336.50 L 1086.00 337.50 L 1090.00 337.50 L 1091.00 338.50 L 1095.00 338.50 L 1096.00 339.50 L 1105.00 340.50 L 1106.00 341.50 L 1109.00 341.50 L 1110.00 342.50 L 1114.00 342.50 L 1118.00 344.50 L 1126.00 345.50 L 1130.00 347.50 L 1133.00 347.50 L 1134.00 348.50 L 1137.00 348.50 L 1138.00 349.50 L 1141.00 349.50 L 1142.00 350.50 L 1147.00 351.50 L 1148.00 352.50 L 1151.00 352.50 L 1152.00 353.50 L 1160.00 355.50 L 1161.00 356.50 L 1167.00 357.50 L 1170.00 359.50 L 1172.00 359.50 L 1173.00 360.50 L 1175.00 360.50 L 1176.00 361.50 L 1178.00 361.50 L 1179.00 362.50 L 1187.00 364.50 L 1190.00 366.50 L 1195.00 367.50 L 1203.00 371.50 L 1205.00 371.50 L 1210.00 374.50 L 1212.00 374.50 L 1215.00 376.50 L 1217.00 376.50 L 1224.00 380.50 L 1226.00 380.50 L 1235.00 385.50 L 1237.00 385.50 L 1257.00 395.50 L 1259.00 397.50 L 1270.00 402.50 L 1272.00 404.50 L 1279.00 407.50 L 1286.00 412.50 L 1294.00 416.50 L 1299.00 420.50 L 1302.00 421.50 L 1316.00 431.50 L 1323.00 435.50 L 1326.00 438.50 L 1330.00 440.50 L 1337.00 446.50 L 1338.00 446.50 L 1345.00 452.50 L 1346.00 452.50 L 1349.00 455.50 L 1350.00 455.50 L 1354.00 459.50 L 1355.00 459.50 L 1359.00 463.50 L 1360.00 463.50 L 1365.00 468.50 L 1366.00 468.50 L 1381.00 482.50 L 1382.00 482.50 L 1400.00 500.50 L 1401.00 500.50 L 1403.50 503.00 L 1403.50 504.00 L 1422.50 523.00 L 1422.50 524.00 L 1437.50 540.00 L 1437.50 541.00 L 1442.50 546.00 L 1442.50 547.00 L 1450.50 556.00 L 1450.50 557.00 L 1453.50 560.00 L 1453.50 561.00 L 1457.50 565.00 L 1457.50 566.00 L 1465.50 576.00 L 1465.50 577.00 L 1468.50 580.00 L 1468.50 581.00 L 1470.50 583.00 L 1474.50 590.00 L 1477.50 593.00 L 1480.50 599.00 L 1485.50 605.00 L 1489.50 613.00 L 1491.50 615.00 L 1492.50 618.00 L 1499.50 628.00 L 1506.50 642.00 L 1508.50 644.00 L 1527.50 682.00 L 1527.50 684.00 L 1535.50 700.00 L 1535.50 702.00 L 1537.50 705.00 L 1537.50 707.00 L 1539.50 710.00 L 1539.50 712.00 L 1542.50 717.00 L 1543.50 722.00 L 1547.50 730.00 L 1547.50 732.00 L 1548.50 733.00 L 1550.50 741.00 L 1552.50 744.00 L 1552.50 746.00 L 1553.50 747.00 L 1553.50 749.00 L 1554.50 750.00 L 1554.50 752.00 L 1555.50 753.00 L 1555.50 755.00 L 1556.50 756.00 L 1556.50 758.00 L 1558.50 762.00 L 1558.50 764.00 L 1559.50 765.00 L 1559.50 768.00 L 1561.50 772.00 L 1561.50 774.00 L 1563.00 775.50 L 1671.50 776.00 L 1664.50 786.00 L 1664.50 787.00 L 1662.50 789.00 L 1662.50 790.00 L 1660.50 792.00 L 1660.50 793.00 L 1658.50 795.00 L 1658.50 796.00 L 1656.50 798.00 L 1656.50 799.00 L 1654.50 801.00 L 1654.50 802.00 L 1652.50 804.00 L 1652.50 805.00 L 1649.50 808.00 L 1646.50 814.00 L 1643.50 817.00 L 1642.50 820.00 L 1640.50 822.00 L 1636.50 829.00 L 1633.50 832.00 L 1633.50 833.00 L 1629.50 838.00 L 1629.50 839.00 L 1627.50 841.00 L 1627.50 842.00 L 1619.50 853.00 L 1619.50 854.00 L 1609.50 868.00 L 1609.50 869.00 L 1601.50 880.00 L 1601.50 881.00 L 1593.50 892.00 L 1593.50 893.00 L 1590.50 896.00 L 1590.50 897.00 L 1588.50 899.00 L 1588.50 900.00 L 1586.50 902.00 L 1582.50 909.00 L 1580.50 911.00 L 1580.50 912.00 L 1578.50 914.00 L 1574.50 921.00 L 1560.50 941.00 L 1560.50 942.00 L 1557.50 945.00 L 1556.50 948.00 L 1554.50 950.00 L 1552.50 954.00 L 1549.50 957.00 L 1549.50 958.00 L 1547.50 960.00 L 1547.50 961.00 L 1545.50 963.00 L 1545.50 964.00 L 1543.50 966.00 L 1539.50 973.00 L 1523.50 996.00 L 1523.50 997.00 L 1520.50 1000.00 L 1516.50 1007.00 L 1514.50 1009.00 L 1514.50 1010.00 L 1512.50 1012.00 L 1512.50 1013.00 L 1506.50 1021.00 L 1506.50 1022.00 L 1504.50 1024.00 L 1504.50 1025.00 L 1502.50 1027.00 L 1502.50 1028.00 L 1496.50 1036.00 L 1496.50 1037.00 L 1488.50 1048.00 L 1488.50 1049.00 L 1484.50 1054.00 L 1484.50 1055.00 L 1481.50 1058.00 L 1480.50 1061.00 L 1475.50 1067.00 L 1474.50 1070.00 L 1471.50 1073.00 L 1471.50 1074.00 L 1463.50 1085.00 L 1463.50 1086.00 L 1455.50 1097.00 L 1455.50 1098.00 L 1453.00 1100.50 Z" fill="currentColor" fill-rule="evenodd"/>
  <path d="M 979.00 1591.50 L 914.00 1591.50 L 913.00 1590.50 L 899.00 1590.50 L 898.00 1589.50 L 887.00 1589.50 L 886.00 1588.50 L 878.00 1588.50 L 877.00 1587.50 L 869.00 1587.50 L 868.00 1586.50 L 862.00 1586.50 L 861.00 1585.50 L 848.00 1584.50 L 847.00 1583.50 L 842.00 1583.50 L 841.00 1582.50 L 837.00 1582.50 L 836.00 1581.50 L 831.00 1581.50 L 830.00 1580.50 L 826.00 1580.50 L 825.00 1579.50 L 816.00 1578.50 L 815.00 1577.50 L 812.00 1577.50 L 811.00 1576.50 L 808.00 1576.50 L 807.00 1575.50 L 803.00 1575.50 L 802.00 1574.50 L 795.00 1573.50 L 794.00 1572.50 L 791.00 1572.50 L 790.00 1571.50 L 787.00 1571.50 L 786.00 1570.50 L 783.00 1570.50 L 779.00 1568.50 L 776.00 1568.50 L 775.00 1567.50 L 770.00 1566.50 L 769.00 1565.50 L 766.00 1565.50 L 762.00 1563.50 L 760.00 1563.50 L 759.00 1562.50 L 754.00 1561.50 L 753.00 1560.50 L 751.00 1560.50 L 750.00 1559.50 L 742.00 1557.50 L 741.00 1556.50 L 739.00 1556.50 L 738.00 1555.50 L 736.00 1555.50 L 733.00 1553.50 L 728.00 1552.50 L 725.00 1550.50 L 720.00 1549.50 L 715.00 1546.50 L 713.00 1546.50 L 710.00 1544.50 L 708.00 1544.50 L 696.00 1538.50 L 694.00 1538.50 L 683.00 1532.50 L 681.00 1532.50 L 661.00 1522.50 L 659.00 1520.50 L 650.00 1516.50 L 648.00 1514.50 L 636.00 1508.50 L 634.00 1506.50 L 629.00 1504.50 L 627.00 1502.50 L 621.00 1499.50 L 619.00 1497.50 L 618.00 1497.50 L 616.00 1495.50 L 609.00 1491.50 L 595.00 1481.50 L 594.00 1481.50 L 591.00 1478.50 L 587.00 1476.50 L 584.00 1473.50 L 583.00 1473.50 L 580.00 1470.50 L 579.00 1470.50 L 576.00 1467.50 L 575.00 1467.50 L 571.00 1463.50 L 570.00 1463.50 L 567.00 1460.50 L 566.00 1460.50 L 562.00 1456.50 L 561.00 1456.50 L 542.00 1439.50 L 541.00 1439.50 L 503.50 1403.00 L 503.50 1402.00 L 492.50 1391.00 L 492.50 1390.00 L 479.50 1376.00 L 479.50 1375.00 L 475.50 1371.00 L 475.50 1370.00 L 471.50 1366.00 L 471.50 1365.00 L 463.50 1356.00 L 461.50 1352.00 L 457.50 1348.00 L 455.50 1344.00 L 452.50 1341.00 L 452.50 1340.00 L 449.50 1337.00 L 447.50 1333.00 L 445.50 1331.00 L 445.50 1330.00 L 442.50 1327.00 L 439.50 1321.00 L 431.50 1310.00 L 427.50 1302.00 L 423.50 1297.00 L 421.50 1292.00 L 417.50 1287.00 L 404.50 1261.00 L 402.50 1259.00 L 402.50 1257.00 L 399.50 1253.00 L 398.50 1249.00 L 385.50 1223.00 L 385.50 1221.00 L 383.50 1218.00 L 383.50 1216.00 L 380.50 1211.00 L 380.50 1209.00 L 378.50 1206.00 L 378.50 1204.00 L 374.50 1196.00 L 372.50 1188.00 L 370.50 1185.00 L 369.50 1180.00 L 367.50 1177.00 L 367.50 1175.00 L 366.50 1174.00 L 366.50 1172.00 L 365.50 1171.00 L 365.50 1169.00 L 364.50 1168.00 L 364.50 1166.00 L 363.50 1165.00 L 363.50 1163.00 L 361.50 1159.00 L 361.50 1157.00 L 360.50 1156.00 L 360.50 1154.00 L 359.50 1153.00 L 359.50 1150.00 L 358.50 1149.00 L 357.50 1144.00 L 356.00 1142.50 L 247.50 1142.00 L 249.50 1140.00 L 253.50 1133.00 L 256.50 1130.00 L 257.50 1127.00 L 262.50 1121.00 L 262.50 1120.00 L 274.50 1103.00 L 274.50 1102.00 L 282.50 1091.00 L 282.50 1090.00 L 285.50 1087.00 L 286.50 1084.00 L 289.50 1081.00 L 290.50 1078.00 L 292.50 1076.00 L 292.50 1075.00 L 298.50 1067.00 L 298.50 1066.00 L 301.50 1063.00 L 301.50 1062.00 L 303.50 1060.00 L 303.50 1059.00 L 305.50 1057.00 L 305.50 1056.00 L 307.50 1054.00 L 307.50 1053.00 L 309.50 1051.00 L 309.50 1050.00 L 325.50 1027.00 L 325.50 1026.00 L 327.50 1024.00 L 327.50 1023.00 L 330.50 1020.00 L 331.50 1017.00 L 336.50 1011.00 L 339.50 1005.00 L 342.50 1002.00 L 342.50 1001.00 L 346.50 996.00 L 348.50 992.00 L 352.50 987.00 L 352.50 986.00 L 356.50 981.00 L 356.50 980.00 L 360.50 975.00 L 360.50 974.00 L 366.50 966.00 L 366.50 965.00 L 370.50 960.00 L 372.50 956.00 L 374.50 954.00 L 374.50 953.00 L 377.50 950.00 L 378.50 947.00 L 381.50 944.00 L 381.50 943.00 L 383.50 941.00 L 383.50 940.00 L 385.50 938.00 L 385.50 937.00 L 387.50 935.00 L 387.50 934.00 L 389.50 932.00 L 389.50 931.00 L 391.50 929.00 L 391.50 928.00 L 393.50 926.00 L 393.50 925.00 L 409.50 902.00 L 409.50 901.00 L 411.50 899.00 L 411.50 898.00 L 414.50 895.00 L 414.50 894.00 L 416.50 892.00 L 416.50 891.00 L 418.50 889.00 L 418.50 888.00 L 420.50 886.00 L 420.50 885.00 L 422.50 883.00 L 422.50 882.00 L 424.50 880.00 L 424.50 879.00 L 426.50 877.00 L 426.50 876.00 L 428.50 874.00 L 428.50 873.00 L 430.50 871.00 L 430.50 870.00 L 436.50 862.00 L 436.50 861.00 L 438.50 859.00 L 438.50 858.00 L 452.50 838.00 L 452.50 837.00 L 455.50 834.00 L 455.50 833.00 L 457.50 831.00 L 457.50 830.00 L 459.50 828.00 L 459.50 827.00 L 461.50 825.00 L 461.50 824.00 L 463.50 822.00 L 466.00 817.50 L 471.50 824.00 L 474.50 830.00 L 479.50 836.00 L 480.50 839.00 L 483.50 842.00 L 483.50 843.00 L 487.50 848.00 L 487.50 849.00 L 489.50 851.00 L 489.50 852.00 L 491.50 854.00 L 491.50 855.00 L 493.50 857.00 L 493.50 858.00 L 501.50 869.00 L 501.50 870.00 L 509.50 881.00 L 509.50 882.00 L 512.50 885.00 L 512.50 886.00 L 516.50 891.00 L 517.50 894.00 L 520.50 897.00 L 520.50 898.00 L 522.50 900.00 L 524.50 904.00 L 538.50 924.00 L 538.50 925.00 L 542.50 930.00 L 544.50 934.00 L 547.50 937.00 L 550.50 943.00 L 553.50 946.00 L 553.50 947.00 L 557.50 952.00 L 557.50 953.00 L 561.50 958.00 L 563.50 962.00 L 567.50 967.00 L 567.50 968.00 L 579.50 985.00 L 579.50 986.00 L 581.50 988.00 L 581.50 989.00 L 586.50 995.00 L 589.50 1001.00 L 592.50 1004.00 L 593.50 1007.00 L 596.50 1010.00 L 596.50 1011.00 L 598.50 1013.00 L 598.50 1014.00 L 602.50 1019.00 L 602.50 1020.00 L 612.50 1034.00 L 612.50 1035.00 L 614.50 1037.00 L 614.50 1038.00 L 616.50 1040.00 L 616.50 1041.00 L 624.50 1052.00 L 624.50 1053.00 L 629.50 1059.00 L 630.50 1062.00 L 633.50 1065.00 L 633.50 1066.00 L 635.50 1068.00 L 635.50 1069.00 L 637.50 1071.00 L 637.50 1072.00 L 639.50 1074.00 L 639.50 1075.00 L 641.50 1077.00 L 641.50 1078.00 L 643.50 1080.00 L 643.50 1081.00 L 645.50 1083.00 L 645.50 1084.00 L 653.50 1095.00 L 653.50 1096.00 L 665.50 1113.00 L 665.50 1114.00 L 668.50 1117.00 L 668.50 1118.00 L 672.50 1123.00 L 673.50 1126.00 L 676.50 1129.00 L 676.50 1130.00 L 684.50 1141.00 L 684.00 1142.50 L 577.00 1142.50 L 576.50 1145.00 L 580.50 1152.00 L 580.50 1154.00 L 596.50 1186.00 L 598.50 1188.00 L 600.50 1193.00 L 605.50 1200.00 L 608.50 1207.00 L 614.50 1215.00 L 615.50 1218.00 L 617.50 1220.00 L 617.50 1221.00 L 619.50 1223.00 L 619.50 1224.00 L 623.50 1229.00 L 623.50 1230.00 L 625.50 1232.00 L 629.50 1239.00 L 632.50 1242.00 L 634.50 1246.00 L 637.50 1249.00 L 637.50 1250.00 L 646.50 1261.00 L 646.50 1262.00 L 655.50 1272.00 L 655.50 1273.00 L 661.50 1279.00 L 661.50 1280.00 L 666.50 1285.00 L 666.50 1286.00 L 676.50 1296.00 L 676.50 1297.00 L 702.00 1322.50 L 703.00 1322.50 L 713.00 1332.50 L 714.00 1332.50 L 720.00 1338.50 L 721.00 1338.50 L 731.00 1347.50 L 732.00 1347.50 L 737.00 1352.50 L 738.00 1352.50 L 753.00 1364.50 L 760.00 1368.50 L 763.00 1371.50 L 767.00 1373.50 L 778.00 1381.50 L 781.00 1382.50 L 786.00 1386.50 L 794.00 1390.50 L 796.00 1392.50 L 801.00 1394.50 L 803.00 1396.50 L 810.00 1399.50 L 812.00 1401.50 L 840.00 1415.50 L 842.00 1415.50 L 849.00 1419.50 L 851.00 1419.50 L 856.00 1422.50 L 858.00 1422.50 L 861.00 1424.50 L 863.00 1424.50 L 866.00 1426.50 L 868.00 1426.50 L 876.00 1430.50 L 878.00 1430.50 L 879.00 1431.50 L 887.00 1433.50 L 890.00 1435.50 L 895.00 1436.50 L 899.00 1438.50 L 902.00 1438.50 L 903.00 1439.50 L 911.00 1441.50 L 912.00 1442.50 L 915.00 1442.50 L 919.00 1444.50 L 922.00 1444.50 L 923.00 1445.50 L 926.00 1445.50 L 927.00 1446.50 L 930.00 1446.50 L 931.00 1447.50 L 934.00 1447.50 L 935.00 1448.50 L 942.00 1449.50 L 943.00 1450.50 L 947.00 1450.50 L 948.00 1451.50 L 951.00 1451.50 L 952.00 1452.50 L 956.00 1452.50 L 957.00 1453.50 L 962.00 1453.50 L 963.00 1454.50 L 973.00 1455.50 L 974.00 1456.50 L 979.00 1456.50 L 980.00 1457.50 L 986.00 1457.50 L 987.00 1458.50 L 1002.00 1459.50 L 1003.00 1460.50 L 1013.00 1460.50 L 1014.00 1461.50 L 1028.00 1461.50 L 1029.00 1462.50 L 1085.00 1462.50 L 1086.00 1461.50 L 1099.00 1461.50 L 1100.00 1460.50 L 1109.00 1460.50 L 1110.00 1459.50 L 1119.00 1459.50 L 1120.00 1458.50 L 1125.00 1458.50 L 1126.00 1457.50 L 1133.00 1457.50 L 1134.00 1456.50 L 1139.00 1456.50 L 1140.00 1455.50 L 1151.00 1454.50 L 1152.00 1453.50 L 1156.00 1453.50 L 1157.00 1452.50 L 1166.00 1451.50 L 1167.00 1450.50 L 1170.00 1450.50 L 1171.00 1449.50 L 1174.00 1449.50 L 1175.00 1448.50 L 1179.00 1448.50 L 1180.00 1447.50 L 1187.00 1446.50 L 1191.00 1444.50 L 1194.00 1444.50 L 1198.00 1442.50 L 1201.00 1442.50 L 1205.00 1440.50 L 1208.00 1440.50 L 1209.00 1439.50 L 1214.00 1438.50 L 1215.00 1437.50 L 1223.00 1435.50 L 1224.00 1434.50 L 1226.00 1434.50 L 1227.00 1433.50 L 1229.00 1433.50 L 1233.00 1431.50 L 1235.00 1431.50 L 1238.00 1429.50 L 1243.00 1428.50 L 1251.00 1424.50 L 1253.00 1424.50 L 1258.00 1421.50 L 1260.00 1421.50 L 1263.00 1419.50 L 1265.00 1419.50 L 1274.00 1414.50 L 1276.00 1414.50 L 1310.00 1397.50 L 1312.00 1395.50 L 1317.00 1393.50 L 1319.00 1391.50 L 1329.00 1386.50 L 1334.00 1382.50 L 1342.00 1378.50 L 1353.00 1370.50 L 1354.00 1370.50 L 1356.00 1368.50 L 1363.00 1364.50 L 1366.00 1361.50 L 1370.00 1359.50 L 1373.00 1356.50 L 1374.00 1356.50 L 1377.00 1353.50 L 1378.00 1353.50 L 1381.00 1350.50 L 1382.00 1350.50 L 1385.00 1347.50 L 1386.00 1347.50 L 1389.00 1344.50 L 1390.00 1344.50 L 1395.00 1339.50 L 1396.00 1339.50 L 1405.00 1331.50 L 1406.00 1331.50 L 1420.00 1318.50 L 1421.00 1318.50 L 1431.00 1308.50 L 1432.00 1308.50 L 1432.50 1307.00 L 1434.00 1306.50 L 1463.50 1277.00 L 1463.50 1276.00 L 1471.00 1268.50 L 1471.50 1269.00 L 1456.50 1299.00 L 1454.50 1301.00 L 1452.50 1306.00 L 1448.50 1311.00 L 1446.50 1316.00 L 1442.50 1321.00 L 1441.50 1324.00 L 1433.50 1335.00 L 1432.50 1338.00 L 1429.50 1341.00 L 1429.50 1342.00 L 1427.50 1344.00 L 1423.50 1351.00 L 1420.50 1354.00 L 1418.50 1358.00 L 1414.50 1362.00 L 1412.50 1366.00 L 1408.50 1370.00 L 1408.50 1371.00 L 1405.50 1374.00 L 1405.50 1375.00 L 1400.50 1380.00 L 1400.50 1381.00 L 1396.50 1385.00 L 1396.50 1386.00 L 1384.50 1399.00 L 1384.50 1400.00 L 1374.50 1410.00 L 1374.50 1411.00 L 1353.00 1432.50 L 1351.50 1433.00 L 1351.50 1434.00 L 1349.00 1436.50 L 1348.00 1436.50 L 1330.00 1453.50 L 1329.00 1453.50 L 1323.00 1459.50 L 1322.00 1459.50 L 1308.00 1471.50 L 1307.00 1471.50 L 1300.00 1477.50 L 1296.00 1479.50 L 1289.00 1485.50 L 1288.00 1485.50 L 1286.00 1487.50 L 1285.00 1487.50 L 1280.00 1491.50 L 1276.00 1493.50 L 1273.00 1496.50 L 1270.00 1497.50 L 1265.00 1501.50 L 1262.00 1502.50 L 1260.00 1504.50 L 1254.00 1507.50 L 1252.00 1509.50 L 1249.00 1510.50 L 1247.00 1512.50 L 1233.00 1519.50 L 1231.00 1521.50 L 1197.00 1538.50 L 1195.00 1538.50 L 1181.00 1545.50 L 1179.00 1545.50 L 1176.00 1547.50 L 1174.00 1547.50 L 1171.00 1549.50 L 1169.00 1549.50 L 1161.00 1553.50 L 1156.00 1554.50 L 1153.00 1556.50 L 1151.00 1556.50 L 1150.00 1557.50 L 1148.00 1557.50 L 1147.00 1558.50 L 1145.00 1558.50 L 1144.00 1559.50 L 1142.00 1559.50 L 1138.00 1561.50 L 1136.00 1561.50 L 1135.00 1562.50 L 1133.00 1562.50 L 1129.00 1564.50 L 1127.00 1564.50 L 1126.00 1565.50 L 1123.00 1565.50 L 1122.00 1566.50 L 1120.00 1566.50 L 1116.00 1568.50 L 1113.00 1568.50 L 1109.00 1570.50 L 1106.00 1570.50 L 1105.00 1571.50 L 1102.00 1571.50 L 1101.00 1572.50 L 1098.00 1572.50 L 1097.00 1573.50 L 1094.00 1573.50 L 1093.00 1574.50 L 1086.00 1575.50 L 1085.00 1576.50 L 1082.00 1576.50 L 1081.00 1577.50 L 1077.00 1577.50 L 1076.00 1578.50 L 1073.00 1578.50 L 1072.00 1579.50 L 1062.00 1580.50 L 1061.00 1581.50 L 1057.00 1581.50 L 1056.00 1582.50 L 1052.00 1582.50 L 1051.00 1583.50 L 1039.00 1584.50 L 1038.00 1585.50 L 1032.00 1585.50 L 1031.00 1586.50 L 1025.00 1586.50 L 1024.00 1587.50 L 1008.00 1588.50 L 1007.00 1589.50 L 996.00 1589.50 L 995.00 1590.50 L 980.00 1590.50 L 979.00 1591.50 Z" fill="currentColor" fill-rule="evenodd"/>
</svg>