<svg xmlns="http://www.w3.org/2000/svg" viewBox="0 0 128 128">
  <title>Data Hurricane Icon</title>
  <rect width="128" height="128" fill="#13235c" rx="12"/>
  <path fill="#f7f7fb" d="M32 24c25.6-6.4 54.9 9.5 65.6 32.5 7.6 16.5 3.9 37.6-11.9 48.7-14.7 10.3-36.7 9.5-51-1.7 16 4.3 33.7 1.3 44.5-11.4 8.6-10 11-24.4 4.8-36.4-7.5-14.6-24.7-22.5-41-20.5-4.6.6-9.1 1.9-13 4.4C25.9 30.5 28.1 25 32 24z"/>
  <path fill="#f7f7fb" d="M30 44c12.4-6.5 28.6-3.5 38.6 6.1 8.4 8 11.7 20.4 7.1 30.9-4.5 10.3-15.5 17.4-26.8 17-6-.2-11.7-2.4-16.5-6 13 2.3 26.2-6.1 30.1-18.7 3.3-10.8-.7-22.4-9.5-29-6.1-4.7-14.2-6.6-21.9-5.5z"/>
  <path fill="#f7f7fb" d="M34 64c8.5-2.1 17.9 2.4 21.4 10.5 3.2 7.1 1.5 16-4.2 21.5-6.5 6.3-16.7 7.3-24.7 3.3 9.2.4 18.4-5.7 20.6-14.6 1.7-6.5-.7-13.7-5.6-18.1-2.3-2-5.1-3.5-7.5-2.6z"/>
  <path fill="#f7f7fb" d="M93.5 39.8C85.7 30 73.1 24 60 24c16.9-6.2 37.3-.8 49.2 12 5.5 5.7 9.6 12.7 11.8 20.3 2.7 9.3 2.4 19.8-2.6 28.2-4.8 8.2-13.6 13.3-22.4 16.4 10.5-9.4 16.2-24.7 14.1-39.1-1.2-7.9-4.6-15.5-9.8-22z"/>
  <circle cx="92" cy="74" r="10" fill="#13235c"/>
  <circle cx="92" cy="74" r="4" fill="#f7f7fb"/>
</svg>
