<?xml version="1.0" encoding="UTF-8"?>
<svg width="1200" height="675" viewBox="0 0 1200 675" fill="none" xmlns="http://www.w3.org/2000/svg">
  <defs>
    <linearGradient id="hermineGradient" x1="0" y1="0" x2="0" y2="675" gradientUnits="userSpaceOnUse">
      <stop offset="0%" stop-color="#12395F" />
      <stop offset="100%" stop-color="#2C8CC8" />
    </linearGradient>
    <radialGradient id="hermineCore" cx="0" cy="0" r="1" gradientUnits="userSpaceOnUse" gradientTransform="translate(650 310) rotate(40) scale(340 260)">
      <stop offset="0" stop-color="#F5F9FF" stop-opacity="0.95" />
      <stop offset="0.45" stop-color="#D8EAF9" stop-opacity="0.85" />
      <stop offset="1" stop-color="#74AED7" stop-opacity="0.05" />
    </radialGradient>
    <radialGradient id="hermineBands" cx="0" cy="0" r="1" gradientUnits="userSpaceOnUse" gradientTransform="translate(580 320) rotate(-20) scale(480 330)">
      <stop offset="0.2" stop-color="#FFFFFF" stop-opacity="0.35" />
      <stop offset="1" stop-color="#FFFFFF" stop-opacity="0" />
    </radialGradient>
    <filter id="shadow" x="140" y="90" width="960" height="480" filterUnits="userSpaceOnUse" color-interpolation-filters="sRGB">
      <feFlood flood-opacity="0" result="BackgroundImageFix" />
      <feGaussianBlur in="SourceAlpha" stdDeviation="18" result="shadowBlur" />
      <feOffset dy="20" />
      <feColorMatrix type="matrix" values="0 0 0 0 0 0 0 0 0 0.18 0 0 0 0 0.32 0 0 0 0.35 0" />
      <feBlend in2="BackgroundImageFix" mode="normal" result="effect1_dropShadow" />
      <feBlend in="SourceGraphic" in2="effect1_dropShadow" mode="normal" result="shape" />
    </filter>
  </defs>
  <rect width="1200" height="675" fill="url(#hermineGradient)" />
  <g opacity="0.4" filter="url(#shadow)">
    <ellipse cx="620" cy="330" rx="380" ry="250" fill="url(#hermineBands)" />
  </g>
  <g opacity="0.65">
    <circle cx="640" cy="320" r="260" fill="url(#hermineCore)" />
    <path d="M435 280c110-75 260-115 385-45 85 47 124 128 70 183-44 45-133 59-228 36-49-12-120-5-173 15-75 29-157 17-196-35-49-64-3-148 142-154z" fill="#EFF7FF" fill-opacity="0.22" />
    <path d="M520 250c120-60 268-64 355-10 73 46 69 127-15 166-58 26-131 19-202 3-41-9-94-5-135 7-67 21-134 11-166-36-39-57 7-123 163-130z" fill="#F7FBFF" fill-opacity="0.32" />
  </g>
  <g opacity="0.4">
    <path d="M612 309c28-24 81-25 108 3 27 29 14 66-22 84-36 17-86 12-114-14-28-26-19-55 28-73z" fill="#0E3356" />
    <circle cx="645" cy="333" r="38" fill="#0A2740" />
    <circle cx="645" cy="333" r="18" fill="#F2F6FA" />
  </g>
  <text x="100" y="520" fill="#F6FBFF" font-family="'Segoe UI', 'Helvetica Neue', Arial, sans-serif" font-weight="700" font-size="72" letter-spacing="0.04em">
    Hurricane Hermine
  </text>
  <text x="100" y="584" fill="#E3F1FF" font-family="'Segoe UI', 'Helvetica Neue', Arial, sans-serif" font-weight="500" font-size="36" letter-spacing="0.08em">
    Florida Big Bend · September 2, 2016
  </text>
  <text x="100" y="624" fill="#D2E8FA" font-family="'Segoe UI', 'Helvetica Neue', Arial, sans-serif" font-weight="400" font-size="26">
    Category 1 · Max winds 80 mph · Min pressure 981 mb
  </text>
</svg>
