<svg xmlns="http://www.w3.org/2000/svg" viewBox="0 0 128 128">
  <title>Lightbulb Icon</title>
  <g fill="none" stroke="#111" stroke-width="6" stroke-linecap="round" stroke-linejoin="round">
    <path d="M64 8c-24.85 0-45 20.15-45 45 0 14.88 7.26 28.76 19.18 37.22 5.9 4.2 9.82 11.06 9.82 18.38v3.4h34v-3.4c0-7.32 3.92-14.18 9.82-18.38C101.74 81.76 109 67.88 109 53c0-24.85-20.15-45-45-45z"/>
    <path d="M46 111h36"/>
    <path d="M52 123h24"/>
    <path d="M46 95h36"/>
    <path d="M40 36l-12 12"/>
    <path d="M88 36l12 12"/>
    <path d="M64 26V10"/>
    <path d="M28 60H12"/>
    <path d="M116 60h-16"/>
  </g>
</svg>
